G75*
%MOIN*%
%OFA0B0*%
%FSLAX25Y25*%
%IPPOS*%
%LPD*%
%AMOC8*
5,1,8,0,0,1.08239X$1,22.5*
%
%ADD10C,0.00200*%
%ADD11C,0.00300*%
%ADD12C,0.00800*%
%ADD13C,0.00000*%
%ADD14C,0.01200*%
%ADD15C,0.00600*%
%ADD16C,0.00400*%
%ADD17R,0.02000X0.01500*%
%ADD18R,0.01500X0.02000*%
%ADD19C,0.00500*%
%ADD20C,0.01000*%
%ADD21C,0.00100*%
D10*
X0018333Y0072833D02*
X0425833Y0072833D01*
X0425833Y0307833D01*
X0018333Y0307833D01*
X0018333Y0072833D01*
X0390164Y0173778D02*
X0390161Y0173993D01*
X0390152Y0174207D01*
X0390139Y0174422D01*
X0390121Y0174636D01*
X0390098Y0174849D01*
X0390070Y0175062D01*
X0390037Y0175274D01*
X0389999Y0175486D01*
X0389956Y0175696D01*
X0389909Y0175905D01*
X0389857Y0176114D01*
X0389800Y0176321D01*
X0389738Y0176526D01*
X0389672Y0176731D01*
X0386227Y0176731D01*
X0386227Y0174762D01*
X0384258Y0174762D02*
X0384260Y0174675D01*
X0384266Y0174588D01*
X0384275Y0174501D01*
X0384289Y0174415D01*
X0384306Y0174330D01*
X0384327Y0174245D01*
X0384352Y0174162D01*
X0384380Y0174079D01*
X0384412Y0173998D01*
X0384448Y0173919D01*
X0384487Y0173841D01*
X0384529Y0173765D01*
X0384575Y0173691D01*
X0384624Y0173619D01*
X0384676Y0173549D01*
X0384731Y0173482D01*
X0384789Y0173417D01*
X0384850Y0173354D01*
X0384914Y0173295D01*
X0384980Y0173238D01*
X0385049Y0173185D01*
X0385120Y0173134D01*
X0385193Y0173087D01*
X0385268Y0173042D01*
X0385345Y0173002D01*
X0385423Y0172964D01*
X0385504Y0172931D01*
X0385585Y0172900D01*
X0385668Y0172874D01*
X0385753Y0172851D01*
X0385838Y0172832D01*
X0385923Y0172817D01*
X0386010Y0172805D01*
X0386096Y0172797D01*
X0386183Y0172793D01*
X0386271Y0172793D01*
X0386358Y0172797D01*
X0386444Y0172805D01*
X0386531Y0172817D01*
X0386616Y0172832D01*
X0386701Y0172851D01*
X0386786Y0172874D01*
X0386869Y0172900D01*
X0386950Y0172931D01*
X0387031Y0172964D01*
X0387109Y0173002D01*
X0387186Y0173042D01*
X0387261Y0173087D01*
X0387334Y0173134D01*
X0387405Y0173185D01*
X0387474Y0173238D01*
X0387540Y0173295D01*
X0387604Y0173354D01*
X0387665Y0173417D01*
X0387723Y0173482D01*
X0387778Y0173549D01*
X0387830Y0173619D01*
X0387879Y0173691D01*
X0387925Y0173765D01*
X0387967Y0173841D01*
X0388006Y0173919D01*
X0388042Y0173998D01*
X0388074Y0174079D01*
X0388102Y0174162D01*
X0388127Y0174245D01*
X0388148Y0174330D01*
X0388165Y0174415D01*
X0388179Y0174501D01*
X0388188Y0174588D01*
X0388194Y0174675D01*
X0388196Y0174762D01*
X0386227Y0174762D01*
X0382290Y0173778D02*
X0382292Y0173654D01*
X0382298Y0173531D01*
X0382307Y0173407D01*
X0382321Y0173285D01*
X0382338Y0173162D01*
X0382360Y0173040D01*
X0382385Y0172919D01*
X0382414Y0172799D01*
X0382446Y0172680D01*
X0382483Y0172561D01*
X0382523Y0172444D01*
X0382566Y0172329D01*
X0382614Y0172214D01*
X0382665Y0172102D01*
X0382719Y0171991D01*
X0382777Y0171881D01*
X0382838Y0171774D01*
X0382903Y0171668D01*
X0382971Y0171565D01*
X0383042Y0171464D01*
X0383116Y0171365D01*
X0383193Y0171268D01*
X0383274Y0171174D01*
X0383357Y0171083D01*
X0383443Y0170994D01*
X0383532Y0170908D01*
X0383623Y0170825D01*
X0383717Y0170744D01*
X0383814Y0170667D01*
X0383913Y0170593D01*
X0384014Y0170522D01*
X0384117Y0170454D01*
X0384223Y0170389D01*
X0384330Y0170328D01*
X0384440Y0170270D01*
X0384551Y0170216D01*
X0384663Y0170165D01*
X0384778Y0170117D01*
X0384893Y0170074D01*
X0385010Y0170034D01*
X0385129Y0169997D01*
X0385248Y0169965D01*
X0385368Y0169936D01*
X0385489Y0169911D01*
X0385611Y0169889D01*
X0385734Y0169872D01*
X0385856Y0169858D01*
X0385980Y0169849D01*
X0386103Y0169843D01*
X0386227Y0169841D01*
X0386351Y0169843D01*
X0386474Y0169849D01*
X0386598Y0169858D01*
X0386720Y0169872D01*
X0386843Y0169889D01*
X0386965Y0169911D01*
X0387086Y0169936D01*
X0387206Y0169965D01*
X0387325Y0169997D01*
X0387444Y0170034D01*
X0387561Y0170074D01*
X0387676Y0170117D01*
X0387791Y0170165D01*
X0387903Y0170216D01*
X0388014Y0170270D01*
X0388124Y0170328D01*
X0388231Y0170389D01*
X0388337Y0170454D01*
X0388440Y0170522D01*
X0388541Y0170593D01*
X0388640Y0170667D01*
X0388737Y0170744D01*
X0388831Y0170825D01*
X0388922Y0170908D01*
X0389011Y0170994D01*
X0389097Y0171083D01*
X0389180Y0171174D01*
X0389261Y0171268D01*
X0389338Y0171365D01*
X0389412Y0171464D01*
X0389483Y0171565D01*
X0389551Y0171668D01*
X0389616Y0171774D01*
X0389677Y0171881D01*
X0389735Y0171991D01*
X0389789Y0172102D01*
X0389840Y0172214D01*
X0389888Y0172329D01*
X0389931Y0172444D01*
X0389971Y0172561D01*
X0390008Y0172680D01*
X0390040Y0172799D01*
X0390069Y0172919D01*
X0390094Y0173040D01*
X0390116Y0173162D01*
X0390133Y0173285D01*
X0390147Y0173407D01*
X0390156Y0173531D01*
X0390162Y0173654D01*
X0390164Y0173778D01*
X0384258Y0174763D02*
X0384237Y0174941D01*
X0384219Y0175120D01*
X0384207Y0175299D01*
X0384198Y0175478D01*
X0384194Y0175657D01*
X0384194Y0175837D01*
X0384198Y0176016D01*
X0384207Y0176195D01*
X0384219Y0176374D01*
X0384237Y0176553D01*
X0384258Y0176731D01*
X0384259Y0176711D02*
X0382507Y0176711D01*
X0382290Y0166888D02*
X0382290Y0161475D01*
X0390164Y0161475D01*
X0390164Y0163936D01*
X0387211Y0163936D01*
X0390164Y0165904D01*
X0390164Y0168857D01*
X0387211Y0166888D01*
X0385735Y0165412D02*
X0385735Y0163936D01*
X0384259Y0163936D01*
X0384259Y0165412D01*
X0384261Y0165465D01*
X0384267Y0165517D01*
X0384276Y0165569D01*
X0384289Y0165620D01*
X0384306Y0165670D01*
X0384326Y0165719D01*
X0384349Y0165766D01*
X0384376Y0165811D01*
X0384406Y0165854D01*
X0384439Y0165895D01*
X0384475Y0165934D01*
X0384514Y0165970D01*
X0384555Y0166003D01*
X0384598Y0166033D01*
X0384643Y0166060D01*
X0384690Y0166083D01*
X0384739Y0166103D01*
X0384789Y0166120D01*
X0384840Y0166133D01*
X0384892Y0166142D01*
X0384944Y0166148D01*
X0384997Y0166150D01*
X0385050Y0166148D01*
X0385102Y0166142D01*
X0385154Y0166133D01*
X0385205Y0166120D01*
X0385255Y0166103D01*
X0385304Y0166083D01*
X0385351Y0166060D01*
X0385396Y0166033D01*
X0385439Y0166003D01*
X0385480Y0165970D01*
X0385519Y0165934D01*
X0385555Y0165895D01*
X0385588Y0165854D01*
X0385618Y0165811D01*
X0385645Y0165766D01*
X0385668Y0165719D01*
X0385688Y0165670D01*
X0385705Y0165620D01*
X0385718Y0165569D01*
X0385727Y0165517D01*
X0385733Y0165465D01*
X0385735Y0165412D01*
X0387212Y0166888D02*
X0387210Y0166986D01*
X0387204Y0167084D01*
X0387195Y0167181D01*
X0387181Y0167278D01*
X0387164Y0167374D01*
X0387142Y0167470D01*
X0387117Y0167564D01*
X0387089Y0167658D01*
X0387056Y0167750D01*
X0387020Y0167841D01*
X0386980Y0167931D01*
X0386937Y0168018D01*
X0386890Y0168104D01*
X0386840Y0168188D01*
X0386787Y0168270D01*
X0386730Y0168350D01*
X0386671Y0168428D01*
X0386608Y0168503D01*
X0386542Y0168576D01*
X0386474Y0168645D01*
X0386403Y0168713D01*
X0386329Y0168777D01*
X0386252Y0168838D01*
X0386174Y0168896D01*
X0386093Y0168951D01*
X0386010Y0169003D01*
X0385925Y0169051D01*
X0385838Y0169096D01*
X0385749Y0169138D01*
X0385659Y0169175D01*
X0385567Y0169210D01*
X0385474Y0169240D01*
X0385380Y0169267D01*
X0385285Y0169290D01*
X0385189Y0169310D01*
X0385092Y0169325D01*
X0384995Y0169337D01*
X0384898Y0169345D01*
X0384800Y0169349D01*
X0384702Y0169349D01*
X0384604Y0169345D01*
X0384507Y0169337D01*
X0384410Y0169325D01*
X0384313Y0169310D01*
X0384217Y0169290D01*
X0384122Y0169267D01*
X0384028Y0169240D01*
X0383935Y0169210D01*
X0383843Y0169175D01*
X0383753Y0169138D01*
X0383664Y0169096D01*
X0383577Y0169051D01*
X0383492Y0169003D01*
X0383409Y0168951D01*
X0383328Y0168896D01*
X0383250Y0168838D01*
X0383173Y0168777D01*
X0383099Y0168713D01*
X0383028Y0168645D01*
X0382960Y0168576D01*
X0382894Y0168503D01*
X0382831Y0168428D01*
X0382772Y0168350D01*
X0382715Y0168270D01*
X0382662Y0168188D01*
X0382612Y0168104D01*
X0382565Y0168018D01*
X0382522Y0167931D01*
X0382482Y0167841D01*
X0382446Y0167750D01*
X0382413Y0167658D01*
X0382385Y0167564D01*
X0382360Y0167470D01*
X0382338Y0167374D01*
X0382321Y0167278D01*
X0382307Y0167181D01*
X0382298Y0167084D01*
X0382292Y0166986D01*
X0382290Y0166888D01*
X0382290Y0160491D02*
X0382290Y0153601D01*
X0390164Y0153601D01*
X0390164Y0160491D01*
X0388196Y0160491D01*
X0388196Y0156062D01*
X0387211Y0156062D01*
X0387211Y0160491D01*
X0385243Y0160491D01*
X0385243Y0156062D01*
X0384259Y0156062D01*
X0384259Y0160491D01*
X0382290Y0160491D01*
X0382290Y0150648D02*
X0382290Y0147696D01*
X0384259Y0150648D01*
X0386228Y0150648D02*
X0386226Y0150735D01*
X0386220Y0150822D01*
X0386211Y0150909D01*
X0386197Y0150995D01*
X0386180Y0151080D01*
X0386159Y0151165D01*
X0386134Y0151248D01*
X0386106Y0151331D01*
X0386074Y0151412D01*
X0386038Y0151491D01*
X0385999Y0151569D01*
X0385957Y0151645D01*
X0385911Y0151719D01*
X0385862Y0151791D01*
X0385810Y0151861D01*
X0385755Y0151928D01*
X0385697Y0151993D01*
X0385636Y0152056D01*
X0385572Y0152115D01*
X0385506Y0152172D01*
X0385437Y0152225D01*
X0385366Y0152276D01*
X0385293Y0152323D01*
X0385218Y0152368D01*
X0385141Y0152408D01*
X0385063Y0152446D01*
X0384982Y0152479D01*
X0384901Y0152510D01*
X0384818Y0152536D01*
X0384733Y0152559D01*
X0384648Y0152578D01*
X0384563Y0152593D01*
X0384476Y0152605D01*
X0384390Y0152613D01*
X0384303Y0152617D01*
X0384215Y0152617D01*
X0384128Y0152613D01*
X0384042Y0152605D01*
X0383955Y0152593D01*
X0383870Y0152578D01*
X0383785Y0152559D01*
X0383700Y0152536D01*
X0383617Y0152510D01*
X0383536Y0152479D01*
X0383455Y0152446D01*
X0383377Y0152408D01*
X0383300Y0152368D01*
X0383225Y0152323D01*
X0383152Y0152276D01*
X0383081Y0152225D01*
X0383012Y0152172D01*
X0382946Y0152115D01*
X0382882Y0152056D01*
X0382821Y0151993D01*
X0382763Y0151928D01*
X0382708Y0151861D01*
X0382656Y0151791D01*
X0382607Y0151719D01*
X0382561Y0151645D01*
X0382519Y0151569D01*
X0382480Y0151491D01*
X0382444Y0151412D01*
X0382412Y0151331D01*
X0382384Y0151248D01*
X0382359Y0151165D01*
X0382338Y0151080D01*
X0382321Y0150995D01*
X0382307Y0150909D01*
X0382298Y0150822D01*
X0382292Y0150735D01*
X0382290Y0150648D01*
X0384259Y0150648D02*
X0386227Y0147696D01*
X0388196Y0150648D01*
X0390165Y0150648D02*
X0390163Y0150735D01*
X0390157Y0150822D01*
X0390148Y0150909D01*
X0390134Y0150995D01*
X0390117Y0151080D01*
X0390096Y0151165D01*
X0390071Y0151248D01*
X0390043Y0151331D01*
X0390011Y0151412D01*
X0389975Y0151491D01*
X0389936Y0151569D01*
X0389894Y0151645D01*
X0389848Y0151719D01*
X0389799Y0151791D01*
X0389747Y0151861D01*
X0389692Y0151928D01*
X0389634Y0151993D01*
X0389573Y0152056D01*
X0389509Y0152115D01*
X0389443Y0152172D01*
X0389374Y0152225D01*
X0389303Y0152276D01*
X0389230Y0152323D01*
X0389155Y0152368D01*
X0389078Y0152408D01*
X0389000Y0152446D01*
X0388919Y0152479D01*
X0388838Y0152510D01*
X0388755Y0152536D01*
X0388670Y0152559D01*
X0388585Y0152578D01*
X0388500Y0152593D01*
X0388413Y0152605D01*
X0388327Y0152613D01*
X0388240Y0152617D01*
X0388152Y0152617D01*
X0388065Y0152613D01*
X0387979Y0152605D01*
X0387892Y0152593D01*
X0387807Y0152578D01*
X0387722Y0152559D01*
X0387637Y0152536D01*
X0387554Y0152510D01*
X0387473Y0152479D01*
X0387392Y0152446D01*
X0387314Y0152408D01*
X0387237Y0152368D01*
X0387162Y0152323D01*
X0387089Y0152276D01*
X0387018Y0152225D01*
X0386949Y0152172D01*
X0386883Y0152115D01*
X0386819Y0152056D01*
X0386758Y0151993D01*
X0386700Y0151928D01*
X0386645Y0151861D01*
X0386593Y0151791D01*
X0386544Y0151719D01*
X0386498Y0151645D01*
X0386456Y0151569D01*
X0386417Y0151491D01*
X0386381Y0151412D01*
X0386349Y0151331D01*
X0386321Y0151248D01*
X0386296Y0151165D01*
X0386275Y0151080D01*
X0386258Y0150995D01*
X0386244Y0150909D01*
X0386235Y0150822D01*
X0386229Y0150735D01*
X0386227Y0150648D01*
X0388196Y0150648D02*
X0390164Y0147696D01*
X0390164Y0150648D01*
X0390164Y0147696D02*
X0386227Y0147696D01*
X0382290Y0147696D01*
X0382290Y0145235D01*
X0390164Y0145235D01*
X0390164Y0147696D01*
X0382290Y0173778D02*
X0382283Y0174112D01*
X0382283Y0174446D01*
X0382292Y0174780D01*
X0382308Y0175113D01*
X0382332Y0175446D01*
X0382364Y0175779D01*
X0382404Y0176110D01*
X0382451Y0176441D01*
X0382506Y0176770D01*
D11*
X0372472Y0193533D02*
X0372472Y0196436D01*
X0370537Y0196436D02*
X0370537Y0193533D01*
X0369540Y0193533D02*
X0368572Y0193533D01*
X0369056Y0193533D02*
X0369056Y0196436D01*
X0368572Y0196436D02*
X0369540Y0196436D01*
X0370537Y0196436D02*
X0372472Y0193533D01*
X0367561Y0194017D02*
X0367561Y0195952D01*
X0367077Y0196436D01*
X0365626Y0196436D01*
X0365626Y0193533D01*
X0367077Y0193533D01*
X0367561Y0194017D01*
X0348519Y0185819D02*
X0347902Y0186436D01*
X0346667Y0186436D01*
X0346050Y0185819D01*
X0346050Y0183351D01*
X0346667Y0182733D01*
X0347902Y0182733D01*
X0348519Y0183351D01*
X0344836Y0183351D02*
X0344219Y0182733D01*
X0342984Y0182733D01*
X0342367Y0183351D01*
X0342367Y0185819D01*
X0342984Y0186436D01*
X0344219Y0186436D01*
X0344836Y0185819D01*
X0341153Y0186436D02*
X0341153Y0183968D01*
X0339918Y0182733D01*
X0338684Y0183968D01*
X0338684Y0186436D01*
X0336019Y0186436D02*
X0333550Y0182733D01*
X0331101Y0182733D02*
X0331101Y0186436D01*
X0329867Y0186436D02*
X0332336Y0186436D01*
X0333550Y0186436D02*
X0336019Y0182733D01*
X0342434Y0177069D02*
X0342434Y0174601D01*
X0343051Y0173983D01*
X0344285Y0173983D01*
X0344903Y0174601D01*
X0344903Y0175835D01*
X0343668Y0175835D01*
X0342434Y0177069D02*
X0343051Y0177686D01*
X0344285Y0177686D01*
X0344903Y0177069D01*
X0346117Y0177686D02*
X0348586Y0173983D01*
X0348586Y0177686D01*
X0349800Y0177686D02*
X0349800Y0173983D01*
X0351652Y0173983D01*
X0352269Y0174601D01*
X0352269Y0177069D01*
X0351652Y0177686D01*
X0349800Y0177686D01*
X0346117Y0177686D02*
X0346117Y0173983D01*
X0346117Y0167686D02*
X0346117Y0163983D01*
X0348586Y0163983D01*
X0349800Y0163983D02*
X0349800Y0167686D01*
X0350417Y0165835D02*
X0352269Y0163983D01*
X0349800Y0165218D02*
X0352269Y0167686D01*
X0344903Y0167069D02*
X0344285Y0167686D01*
X0343051Y0167686D01*
X0342434Y0167069D01*
X0342434Y0164601D01*
X0343051Y0163983D01*
X0344285Y0163983D01*
X0344903Y0164601D01*
X0344285Y0157686D02*
X0342434Y0157686D01*
X0342434Y0153983D01*
X0344285Y0153983D01*
X0344903Y0154601D01*
X0344903Y0157069D01*
X0344285Y0157686D01*
X0346117Y0156452D02*
X0346117Y0153983D01*
X0346117Y0155835D02*
X0348586Y0155835D01*
X0348586Y0156452D02*
X0348586Y0153983D01*
X0351035Y0153983D02*
X0351035Y0157686D01*
X0352269Y0157686D02*
X0349800Y0157686D01*
X0348586Y0156452D02*
X0347351Y0157686D01*
X0346117Y0156452D01*
X0346734Y0147686D02*
X0346117Y0147069D01*
X0346117Y0144601D01*
X0346734Y0143983D01*
X0347969Y0143983D01*
X0348586Y0144601D01*
X0349800Y0144601D02*
X0349800Y0147069D01*
X0350417Y0147686D01*
X0351652Y0147686D01*
X0352269Y0147069D01*
X0352269Y0144601D02*
X0351652Y0143983D01*
X0350417Y0143983D01*
X0349800Y0144601D01*
X0348586Y0147069D02*
X0347969Y0147686D01*
X0346734Y0147686D01*
X0344903Y0147686D02*
X0344903Y0145218D01*
X0343668Y0143983D01*
X0342434Y0145218D01*
X0342434Y0147686D01*
X0365983Y0129186D02*
X0368452Y0125483D01*
X0369666Y0125483D02*
X0372135Y0125483D01*
X0370901Y0125483D02*
X0370901Y0129186D01*
X0369666Y0127952D01*
X0368452Y0129186D02*
X0365983Y0125483D01*
X0415983Y0125793D02*
X0418452Y0128261D01*
X0419666Y0127027D02*
X0420901Y0128261D01*
X0420901Y0124558D01*
X0422135Y0124558D02*
X0419666Y0124558D01*
X0418452Y0124558D02*
X0416601Y0126410D01*
X0415983Y0128261D02*
X0415983Y0124558D01*
X0326019Y0182733D02*
X0323550Y0186436D01*
X0322336Y0185819D02*
X0322336Y0184585D01*
X0321719Y0183968D01*
X0319867Y0183968D01*
X0321101Y0183968D02*
X0322336Y0182733D01*
X0323550Y0182733D02*
X0326019Y0186436D01*
X0322336Y0185819D02*
X0321719Y0186436D01*
X0319867Y0186436D01*
X0319867Y0182733D01*
X0314769Y0183351D02*
X0314769Y0185819D01*
X0314152Y0186436D01*
X0312300Y0186436D01*
X0312300Y0182733D01*
X0314152Y0182733D01*
X0314769Y0183351D01*
X0311086Y0182733D02*
X0311086Y0186436D01*
X0308617Y0186436D02*
X0311086Y0182733D01*
X0308617Y0182733D02*
X0308617Y0186436D01*
X0307403Y0185819D02*
X0306785Y0186436D01*
X0305551Y0186436D01*
X0304934Y0185819D01*
X0304934Y0183351D01*
X0305551Y0182733D01*
X0306785Y0182733D01*
X0307403Y0183351D01*
X0307403Y0184585D01*
X0306168Y0184585D01*
X0301019Y0187733D02*
X0298550Y0187733D01*
X0301019Y0190202D01*
X0301019Y0190819D01*
X0300402Y0191436D01*
X0299167Y0191436D01*
X0298550Y0190819D01*
X0297336Y0190819D02*
X0297336Y0190202D01*
X0296719Y0189585D01*
X0297336Y0188968D01*
X0297336Y0188351D01*
X0296719Y0187733D01*
X0295484Y0187733D01*
X0294867Y0188351D01*
X0293653Y0187733D02*
X0291184Y0187733D01*
X0293653Y0190202D01*
X0293653Y0190819D01*
X0293035Y0191436D01*
X0291801Y0191436D01*
X0291184Y0190819D01*
X0289970Y0190819D02*
X0289352Y0191436D01*
X0288118Y0191436D01*
X0287501Y0190819D01*
X0287501Y0190202D01*
X0288118Y0189585D01*
X0289352Y0189585D01*
X0289970Y0188968D01*
X0289970Y0188351D01*
X0289352Y0187733D01*
X0288118Y0187733D01*
X0287501Y0188351D01*
X0286286Y0187733D02*
X0285052Y0188968D01*
X0285669Y0188968D02*
X0283818Y0188968D01*
X0283818Y0187733D02*
X0283818Y0191436D01*
X0285669Y0191436D01*
X0286286Y0190819D01*
X0286286Y0189585D01*
X0285669Y0188968D01*
X0294867Y0190819D02*
X0295484Y0191436D01*
X0296719Y0191436D01*
X0297336Y0190819D01*
X0296719Y0189585D02*
X0296101Y0189585D01*
X0344031Y0222217D02*
X0344515Y0221733D01*
X0344998Y0221733D01*
X0345482Y0222217D01*
X0345482Y0223185D01*
X0345966Y0223668D01*
X0346450Y0223668D01*
X0346933Y0223185D01*
X0346933Y0222217D01*
X0346450Y0221733D01*
X0344031Y0222217D02*
X0344031Y0223185D01*
X0344515Y0223668D01*
X0344515Y0224680D02*
X0346450Y0224680D01*
X0346933Y0225164D01*
X0346933Y0226131D01*
X0346450Y0226615D01*
X0346933Y0227626D02*
X0344031Y0227626D01*
X0344515Y0226615D02*
X0344031Y0226131D01*
X0344031Y0225164D01*
X0344515Y0224680D01*
X0345966Y0227626D02*
X0344031Y0229561D01*
X0345482Y0228110D02*
X0346933Y0229561D01*
X0346933Y0234233D02*
X0344031Y0234233D01*
X0344031Y0235685D01*
X0344515Y0236168D01*
X0345482Y0236168D01*
X0345966Y0235685D01*
X0345966Y0234233D01*
X0345966Y0235201D02*
X0346933Y0236168D01*
X0346450Y0237180D02*
X0346933Y0237664D01*
X0346933Y0238631D01*
X0346450Y0239115D01*
X0346933Y0240126D02*
X0344031Y0240126D01*
X0344515Y0239115D02*
X0344031Y0238631D01*
X0344031Y0237664D01*
X0344515Y0237180D01*
X0346450Y0237180D01*
X0345966Y0240126D02*
X0344031Y0242061D01*
X0345482Y0240610D02*
X0346933Y0242061D01*
X0409730Y0254478D02*
X0409730Y0255713D01*
X0409730Y0255096D02*
X0413433Y0255096D01*
X0413433Y0255713D02*
X0413433Y0254478D01*
X0412816Y0256934D02*
X0413433Y0257551D01*
X0413433Y0258785D01*
X0412816Y0259403D01*
X0412816Y0260617D02*
X0413433Y0261234D01*
X0413433Y0262469D01*
X0412816Y0263086D01*
X0412199Y0263086D01*
X0411582Y0262469D01*
X0411582Y0261234D01*
X0410965Y0260617D01*
X0410347Y0260617D01*
X0409730Y0261234D01*
X0409730Y0262469D01*
X0410347Y0263086D01*
X0409730Y0264300D02*
X0409730Y0266152D01*
X0410347Y0266769D01*
X0411582Y0266769D01*
X0412199Y0266152D01*
X0412199Y0264300D01*
X0413433Y0264300D02*
X0409730Y0264300D01*
X0410347Y0259403D02*
X0409730Y0258785D01*
X0409730Y0257551D01*
X0410347Y0256934D01*
X0412816Y0256934D01*
X0138811Y0239636D02*
X0136876Y0237701D01*
X0137360Y0238185D02*
X0138811Y0236733D01*
X0136876Y0236733D02*
X0136876Y0239636D01*
X0135865Y0239152D02*
X0135381Y0239636D01*
X0134414Y0239636D01*
X0133930Y0239152D01*
X0133930Y0237217D01*
X0134414Y0236733D01*
X0135381Y0236733D01*
X0135865Y0237217D01*
X0132918Y0236733D02*
X0131951Y0237701D01*
X0132435Y0237701D02*
X0130983Y0237701D01*
X0130983Y0236733D02*
X0130983Y0239636D01*
X0132435Y0239636D01*
X0132918Y0239152D01*
X0132918Y0238185D01*
X0132435Y0237701D01*
X0132435Y0229636D02*
X0131467Y0229636D01*
X0130983Y0229152D01*
X0130983Y0228668D01*
X0131467Y0228185D01*
X0132435Y0228185D01*
X0132918Y0227701D01*
X0132918Y0227217D01*
X0132435Y0226733D01*
X0131467Y0226733D01*
X0130983Y0227217D01*
X0132918Y0229152D02*
X0132435Y0229636D01*
X0133930Y0229152D02*
X0133930Y0227217D01*
X0134414Y0226733D01*
X0135381Y0226733D01*
X0135865Y0227217D01*
X0136876Y0226733D02*
X0136876Y0229636D01*
X0135865Y0229152D02*
X0135381Y0229636D01*
X0134414Y0229636D01*
X0133930Y0229152D01*
X0136876Y0227701D02*
X0138811Y0229636D01*
X0137360Y0228185D02*
X0138811Y0226733D01*
X0138328Y0219636D02*
X0137360Y0219636D01*
X0136876Y0219152D01*
X0136876Y0217217D01*
X0137360Y0216733D01*
X0138328Y0216733D01*
X0138811Y0217217D01*
X0138811Y0219152D02*
X0138328Y0219636D01*
X0135865Y0219152D02*
X0135381Y0219636D01*
X0134414Y0219636D01*
X0133930Y0219152D01*
X0133930Y0217217D01*
X0134414Y0216733D01*
X0135381Y0216733D01*
X0135865Y0217217D01*
X0132918Y0217701D02*
X0132918Y0219636D01*
X0130983Y0219636D02*
X0130983Y0217701D01*
X0131951Y0216733D01*
X0132918Y0217701D01*
X0132435Y0209636D02*
X0131467Y0209636D01*
X0130983Y0209152D01*
X0130983Y0207217D01*
X0131467Y0206733D01*
X0132435Y0206733D01*
X0132918Y0207217D01*
X0132918Y0208185D01*
X0131951Y0208185D01*
X0132918Y0209152D02*
X0132435Y0209636D01*
X0133930Y0209636D02*
X0135865Y0206733D01*
X0135865Y0209636D01*
X0136876Y0209636D02*
X0138328Y0209636D01*
X0138811Y0209152D01*
X0138811Y0207217D01*
X0138328Y0206733D01*
X0136876Y0206733D01*
X0136876Y0209636D01*
X0133930Y0209636D02*
X0133930Y0206733D01*
X0134414Y0199636D02*
X0133930Y0199152D01*
X0133930Y0197217D01*
X0134414Y0196733D01*
X0135381Y0196733D01*
X0135865Y0197217D01*
X0135865Y0199152D01*
X0135381Y0199636D01*
X0134414Y0199636D01*
X0132918Y0199152D02*
X0132918Y0197217D01*
X0132435Y0196733D01*
X0130983Y0196733D01*
X0130983Y0199636D01*
X0132435Y0199636D01*
X0132918Y0199152D01*
X0136876Y0199636D02*
X0136876Y0197217D01*
X0137360Y0196733D01*
X0138328Y0196733D01*
X0138811Y0197217D01*
X0138811Y0199636D01*
X0139823Y0199636D02*
X0141758Y0199636D01*
X0140790Y0199636D02*
X0140790Y0196733D01*
X0055818Y0186686D02*
X0055818Y0186069D01*
X0053350Y0183601D01*
X0053350Y0182983D01*
X0052135Y0182983D02*
X0052135Y0186686D01*
X0053350Y0186686D02*
X0055818Y0186686D01*
X0052135Y0182983D02*
X0049666Y0186686D01*
X0049666Y0182983D01*
X0048452Y0182983D02*
X0045983Y0182983D01*
X0045983Y0186686D01*
X0045983Y0176686D02*
X0045983Y0172983D01*
X0048452Y0172983D01*
X0049666Y0172983D02*
X0049666Y0176686D01*
X0052135Y0172983D01*
X0052135Y0176686D01*
X0053350Y0174835D02*
X0054584Y0176069D01*
X0055818Y0176686D01*
X0055201Y0174835D02*
X0053350Y0174835D01*
X0053350Y0173601D01*
X0053967Y0172983D01*
X0055201Y0172983D01*
X0055818Y0173601D01*
X0055818Y0174218D01*
X0055201Y0174835D01*
X0055818Y0166686D02*
X0053350Y0166686D01*
X0053350Y0164835D01*
X0054584Y0165452D01*
X0055201Y0165452D01*
X0055818Y0164835D01*
X0055818Y0163601D01*
X0055201Y0162983D01*
X0053967Y0162983D01*
X0053350Y0163601D01*
X0052135Y0162983D02*
X0052135Y0166686D01*
X0049666Y0166686D02*
X0049666Y0162983D01*
X0048452Y0162983D02*
X0045983Y0162983D01*
X0045983Y0166686D01*
X0049666Y0166686D02*
X0052135Y0162983D01*
X0052135Y0156686D02*
X0052135Y0152983D01*
X0049666Y0156686D01*
X0049666Y0152983D01*
X0048452Y0152983D02*
X0045983Y0152983D01*
X0045983Y0156686D01*
X0053350Y0154835D02*
X0055818Y0154835D01*
X0055201Y0156686D02*
X0055201Y0152983D01*
X0053350Y0154835D02*
X0055201Y0156686D01*
X0055201Y0146686D02*
X0053967Y0146686D01*
X0053350Y0146069D01*
X0052135Y0146686D02*
X0052135Y0142983D01*
X0049666Y0146686D01*
X0049666Y0142983D01*
X0048452Y0142983D02*
X0045983Y0142983D01*
X0045983Y0146686D01*
X0053350Y0143601D02*
X0053967Y0142983D01*
X0055201Y0142983D01*
X0055818Y0143601D01*
X0055818Y0144218D01*
X0055201Y0144835D01*
X0054584Y0144835D01*
X0055201Y0144835D02*
X0055818Y0145452D01*
X0055818Y0146069D01*
X0055201Y0146686D01*
X0055201Y0136686D02*
X0053967Y0136686D01*
X0053350Y0136069D01*
X0052135Y0136686D02*
X0052135Y0132983D01*
X0049666Y0136686D01*
X0049666Y0132983D01*
X0048452Y0132983D02*
X0045983Y0132983D01*
X0045983Y0136686D01*
X0053350Y0132983D02*
X0055818Y0135452D01*
X0055818Y0136069D01*
X0055201Y0136686D01*
X0055818Y0132983D02*
X0053350Y0132983D01*
X0052135Y0126686D02*
X0052135Y0122983D01*
X0049666Y0126686D01*
X0049666Y0122983D01*
X0048452Y0122983D02*
X0045983Y0122983D01*
X0045983Y0126686D01*
X0053350Y0125452D02*
X0054584Y0126686D01*
X0054584Y0122983D01*
X0053350Y0122983D02*
X0055818Y0122983D01*
X0055201Y0116686D02*
X0053967Y0116686D01*
X0053350Y0116069D01*
X0053350Y0113601D01*
X0055818Y0116069D01*
X0055818Y0113601D01*
X0055201Y0112983D01*
X0053967Y0112983D01*
X0053350Y0113601D01*
X0052135Y0112983D02*
X0052135Y0116686D01*
X0049666Y0116686D02*
X0049666Y0112983D01*
X0048452Y0112983D02*
X0045983Y0112983D01*
X0045983Y0116686D01*
X0049666Y0116686D02*
X0052135Y0112983D01*
X0055818Y0116069D02*
X0055201Y0116686D01*
X0055284Y0096686D02*
X0054666Y0096069D01*
X0054666Y0093601D01*
X0055284Y0092983D01*
X0056518Y0092983D01*
X0057135Y0093601D01*
X0057135Y0096069D01*
X0056518Y0096686D01*
X0055284Y0096686D01*
X0053452Y0096069D02*
X0053452Y0094835D01*
X0052835Y0094218D01*
X0050983Y0094218D01*
X0050983Y0092983D02*
X0050983Y0096686D01*
X0052835Y0096686D01*
X0053452Y0096069D01*
X0058350Y0096686D02*
X0058350Y0092983D01*
X0059584Y0094218D01*
X0060818Y0092983D01*
X0060818Y0096686D01*
X0062033Y0096686D02*
X0062033Y0092983D01*
X0064502Y0092983D01*
X0065716Y0092983D02*
X0065716Y0096686D01*
X0067567Y0096686D01*
X0068185Y0096069D01*
X0068185Y0094835D01*
X0067567Y0094218D01*
X0065716Y0094218D01*
X0066950Y0094218D02*
X0068185Y0092983D01*
X0064502Y0096686D02*
X0062033Y0096686D01*
X0062033Y0094835D02*
X0063267Y0094835D01*
X0063483Y0079186D02*
X0063483Y0076718D01*
X0064718Y0075483D01*
X0065952Y0076718D01*
X0065952Y0079186D01*
X0067166Y0078569D02*
X0067166Y0076101D01*
X0067784Y0075483D01*
X0069018Y0075483D01*
X0069635Y0076101D01*
X0070850Y0076101D02*
X0071467Y0075483D01*
X0072701Y0075483D01*
X0073318Y0076101D01*
X0073318Y0078569D02*
X0072701Y0079186D01*
X0071467Y0079186D01*
X0070850Y0078569D01*
X0070850Y0076101D01*
X0069635Y0078569D02*
X0069018Y0079186D01*
X0067784Y0079186D01*
X0067166Y0078569D01*
X0058318Y0078569D02*
X0058318Y0076101D01*
X0057701Y0075483D01*
X0055850Y0075483D01*
X0055850Y0079186D01*
X0057701Y0079186D01*
X0058318Y0078569D01*
X0054635Y0079186D02*
X0054635Y0075483D01*
X0052166Y0079186D01*
X0052166Y0075483D01*
X0050952Y0076101D02*
X0050952Y0077335D01*
X0049718Y0077335D01*
X0050952Y0078569D02*
X0050335Y0079186D01*
X0049101Y0079186D01*
X0048483Y0078569D01*
X0048483Y0076101D01*
X0049101Y0075483D01*
X0050335Y0075483D01*
X0050952Y0076101D01*
X0025683Y0140483D02*
X0021980Y0140483D01*
X0021980Y0144166D02*
X0021980Y0145401D01*
X0021980Y0144784D02*
X0025683Y0144784D01*
X0025683Y0145401D02*
X0025683Y0144166D01*
X0025683Y0142952D02*
X0025683Y0140483D01*
X0025683Y0146622D02*
X0021980Y0146622D01*
X0025683Y0149091D01*
X0021980Y0149091D01*
X0021980Y0150305D02*
X0025683Y0150305D01*
X0025683Y0152774D01*
X0025066Y0153988D02*
X0025683Y0154605D01*
X0025683Y0155840D01*
X0025066Y0156457D01*
X0024449Y0156457D01*
X0023832Y0155840D01*
X0023832Y0154605D01*
X0023215Y0153988D01*
X0022597Y0153988D01*
X0021980Y0154605D01*
X0021980Y0155840D01*
X0022597Y0156457D01*
X0021980Y0152774D02*
X0021980Y0150305D01*
X0023832Y0150305D02*
X0023832Y0151539D01*
X0045983Y0205483D02*
X0045983Y0209186D01*
X0047835Y0209186D01*
X0048452Y0208569D01*
X0048452Y0207335D01*
X0047835Y0206718D01*
X0045983Y0206718D01*
X0047218Y0206718D02*
X0048452Y0205483D01*
X0049666Y0205483D02*
X0050901Y0206718D01*
X0052135Y0205483D01*
X0052135Y0209186D01*
X0053350Y0209186D02*
X0055818Y0209186D01*
X0055818Y0208569D01*
X0053350Y0206101D01*
X0053350Y0205483D01*
X0049666Y0205483D02*
X0049666Y0209186D01*
X0049666Y0215483D02*
X0050901Y0216718D01*
X0052135Y0215483D01*
X0052135Y0219186D01*
X0053350Y0217335D02*
X0054584Y0218569D01*
X0055818Y0219186D01*
X0055201Y0217335D02*
X0053350Y0217335D01*
X0053350Y0216101D01*
X0053967Y0215483D01*
X0055201Y0215483D01*
X0055818Y0216101D01*
X0055818Y0216718D01*
X0055201Y0217335D01*
X0049666Y0219186D02*
X0049666Y0215483D01*
X0048452Y0215483D02*
X0047218Y0216718D01*
X0047835Y0216718D02*
X0045983Y0216718D01*
X0045983Y0215483D02*
X0045983Y0219186D01*
X0047835Y0219186D01*
X0048452Y0218569D01*
X0048452Y0217335D01*
X0047835Y0216718D01*
X0048452Y0225483D02*
X0047218Y0226718D01*
X0047835Y0226718D02*
X0045983Y0226718D01*
X0045983Y0225483D02*
X0045983Y0229186D01*
X0047835Y0229186D01*
X0048452Y0228569D01*
X0048452Y0227335D01*
X0047835Y0226718D01*
X0049666Y0225483D02*
X0050901Y0226718D01*
X0052135Y0225483D01*
X0052135Y0229186D01*
X0053350Y0229186D02*
X0053350Y0227335D01*
X0054584Y0227952D01*
X0055201Y0227952D01*
X0055818Y0227335D01*
X0055818Y0226101D01*
X0055201Y0225483D01*
X0053967Y0225483D01*
X0053350Y0226101D01*
X0053350Y0229186D02*
X0055818Y0229186D01*
X0049666Y0229186D02*
X0049666Y0225483D01*
X0049666Y0235483D02*
X0050901Y0236718D01*
X0052135Y0235483D01*
X0052135Y0239186D01*
X0053350Y0237335D02*
X0055818Y0237335D01*
X0055201Y0239186D02*
X0055201Y0235483D01*
X0053350Y0237335D02*
X0055201Y0239186D01*
X0049666Y0239186D02*
X0049666Y0235483D01*
X0048452Y0235483D02*
X0047218Y0236718D01*
X0047835Y0236718D02*
X0045983Y0236718D01*
X0045983Y0235483D02*
X0045983Y0239186D01*
X0047835Y0239186D01*
X0048452Y0238569D01*
X0048452Y0237335D01*
X0047835Y0236718D01*
X0048452Y0245483D02*
X0047218Y0246718D01*
X0047835Y0246718D02*
X0045983Y0246718D01*
X0045983Y0245483D02*
X0045983Y0249186D01*
X0047835Y0249186D01*
X0048452Y0248569D01*
X0048452Y0247335D01*
X0047835Y0246718D01*
X0049666Y0245483D02*
X0050901Y0246718D01*
X0052135Y0245483D01*
X0052135Y0249186D01*
X0053350Y0248569D02*
X0053967Y0249186D01*
X0055201Y0249186D01*
X0055818Y0248569D01*
X0055818Y0247952D01*
X0055201Y0247335D01*
X0055818Y0246718D01*
X0055818Y0246101D01*
X0055201Y0245483D01*
X0053967Y0245483D01*
X0053350Y0246101D01*
X0054584Y0247335D02*
X0055201Y0247335D01*
X0049666Y0249186D02*
X0049666Y0245483D01*
X0049666Y0255483D02*
X0050901Y0256718D01*
X0052135Y0255483D01*
X0052135Y0259186D01*
X0053350Y0258569D02*
X0053967Y0259186D01*
X0055201Y0259186D01*
X0055818Y0258569D01*
X0055818Y0257952D01*
X0053350Y0255483D01*
X0055818Y0255483D01*
X0049666Y0255483D02*
X0049666Y0259186D01*
X0048452Y0258569D02*
X0048452Y0257335D01*
X0047835Y0256718D01*
X0045983Y0256718D01*
X0045983Y0255483D02*
X0045983Y0259186D01*
X0047835Y0259186D01*
X0048452Y0258569D01*
X0047218Y0256718D02*
X0048452Y0255483D01*
X0048452Y0265483D02*
X0047218Y0266718D01*
X0047835Y0266718D02*
X0045983Y0266718D01*
X0045983Y0265483D02*
X0045983Y0269186D01*
X0047835Y0269186D01*
X0048452Y0268569D01*
X0048452Y0267335D01*
X0047835Y0266718D01*
X0049666Y0265483D02*
X0050901Y0266718D01*
X0052135Y0265483D01*
X0052135Y0269186D01*
X0053350Y0267952D02*
X0054584Y0269186D01*
X0054584Y0265483D01*
X0053350Y0265483D02*
X0055818Y0265483D01*
X0049666Y0265483D02*
X0049666Y0269186D01*
X0049666Y0275483D02*
X0050901Y0276718D01*
X0052135Y0275483D01*
X0052135Y0279186D01*
X0053350Y0278569D02*
X0053967Y0279186D01*
X0055201Y0279186D01*
X0055818Y0278569D01*
X0053350Y0276101D01*
X0053967Y0275483D01*
X0055201Y0275483D01*
X0055818Y0276101D01*
X0055818Y0278569D01*
X0053350Y0278569D02*
X0053350Y0276101D01*
X0049666Y0275483D02*
X0049666Y0279186D01*
X0048452Y0278569D02*
X0048452Y0277335D01*
X0047835Y0276718D01*
X0045983Y0276718D01*
X0045983Y0275483D02*
X0045983Y0279186D01*
X0047835Y0279186D01*
X0048452Y0278569D01*
X0047218Y0276718D02*
X0048452Y0275483D01*
X0048416Y0287983D02*
X0048416Y0291686D01*
X0050268Y0291686D01*
X0050885Y0291069D01*
X0050885Y0289835D01*
X0050268Y0289218D01*
X0048416Y0289218D01*
X0047202Y0289218D02*
X0047202Y0288601D01*
X0046585Y0287983D01*
X0045351Y0287983D01*
X0044733Y0288601D01*
X0045351Y0289835D02*
X0046585Y0289835D01*
X0047202Y0289218D01*
X0047202Y0291069D02*
X0046585Y0291686D01*
X0045351Y0291686D01*
X0044733Y0291069D01*
X0044733Y0290452D01*
X0045351Y0289835D01*
X0052100Y0289218D02*
X0053951Y0289218D01*
X0054568Y0289835D01*
X0054568Y0291069D01*
X0053951Y0291686D01*
X0052100Y0291686D01*
X0052100Y0287983D01*
X0053334Y0289218D02*
X0054568Y0287983D01*
X0055783Y0287983D02*
X0058252Y0290452D01*
X0058252Y0291069D01*
X0057634Y0291686D01*
X0056400Y0291686D01*
X0055783Y0291069D01*
X0055783Y0287983D02*
X0058252Y0287983D01*
X0058252Y0297983D02*
X0055783Y0297983D01*
X0054568Y0297983D02*
X0053334Y0299218D01*
X0053951Y0299218D02*
X0052100Y0299218D01*
X0052100Y0297983D02*
X0052100Y0301686D01*
X0053951Y0301686D01*
X0054568Y0301069D01*
X0054568Y0299835D01*
X0053951Y0299218D01*
X0055783Y0300452D02*
X0057017Y0301686D01*
X0057017Y0297983D01*
X0050885Y0299835D02*
X0050268Y0299218D01*
X0048416Y0299218D01*
X0047202Y0299218D02*
X0047202Y0298601D01*
X0046585Y0297983D01*
X0045351Y0297983D01*
X0044733Y0298601D01*
X0045351Y0299835D02*
X0046585Y0299835D01*
X0047202Y0299218D01*
X0048416Y0297983D02*
X0048416Y0301686D01*
X0050268Y0301686D01*
X0050885Y0301069D01*
X0050885Y0299835D01*
X0047202Y0301069D02*
X0046585Y0301686D01*
X0045351Y0301686D01*
X0044733Y0301069D01*
X0044733Y0300452D01*
X0045351Y0299835D01*
X0025066Y0249002D02*
X0025683Y0248384D01*
X0025683Y0247150D01*
X0025066Y0246533D01*
X0025683Y0245318D02*
X0021980Y0245318D01*
X0022597Y0246533D02*
X0023215Y0246533D01*
X0023832Y0247150D01*
X0023832Y0248384D01*
X0024449Y0249002D01*
X0025066Y0249002D01*
X0022597Y0249002D02*
X0021980Y0248384D01*
X0021980Y0247150D01*
X0022597Y0246533D01*
X0024449Y0244084D02*
X0025683Y0245318D01*
X0024449Y0244084D02*
X0025683Y0242850D01*
X0021980Y0242850D01*
X0022597Y0241635D02*
X0021980Y0241018D01*
X0021980Y0239784D01*
X0022597Y0239166D01*
X0025066Y0239166D01*
X0025683Y0239784D01*
X0025683Y0241018D01*
X0025066Y0241635D01*
X0022597Y0241635D01*
X0022597Y0237952D02*
X0023832Y0237952D01*
X0024449Y0237335D01*
X0024449Y0235483D01*
X0025683Y0235483D02*
X0021980Y0235483D01*
X0021980Y0237335D01*
X0022597Y0237952D01*
X0024449Y0236718D02*
X0025683Y0237952D01*
D12*
X0156233Y0194439D02*
X0160370Y0194439D01*
X0158302Y0194439D02*
X0158302Y0188233D01*
X0162679Y0189268D02*
X0162679Y0191336D01*
X0163713Y0192370D01*
X0165781Y0192370D01*
X0166816Y0191336D01*
X0166816Y0190302D01*
X0162679Y0190302D01*
X0162679Y0189268D02*
X0163713Y0188233D01*
X0165781Y0188233D01*
X0169124Y0188233D02*
X0169124Y0194439D01*
X0172227Y0192370D02*
X0169124Y0190302D01*
X0172227Y0188233D01*
X0169336Y0183189D02*
X0166233Y0183189D01*
X0166233Y0176983D01*
X0169336Y0176983D01*
X0170370Y0178018D01*
X0170370Y0182154D01*
X0169336Y0183189D01*
X0173713Y0181120D02*
X0175781Y0181120D01*
X0176816Y0180086D01*
X0176816Y0176983D01*
X0173713Y0176983D01*
X0172679Y0178018D01*
X0173713Y0179052D01*
X0176816Y0179052D01*
X0179124Y0181120D02*
X0182227Y0181120D01*
X0183261Y0180086D01*
X0183261Y0176983D01*
X0185570Y0174915D02*
X0186604Y0174915D01*
X0187638Y0175949D01*
X0187638Y0181120D01*
X0187638Y0183189D02*
X0187638Y0184223D01*
X0187387Y0188233D02*
X0187387Y0192370D01*
X0190489Y0192370D01*
X0191523Y0191336D01*
X0191523Y0188233D01*
X0193832Y0188233D02*
X0195900Y0188233D01*
X0194866Y0188233D02*
X0194866Y0192370D01*
X0193832Y0192370D01*
X0194866Y0194439D02*
X0194866Y0195473D01*
X0198129Y0192370D02*
X0200197Y0188233D01*
X0202266Y0192370D01*
X0204575Y0191336D02*
X0205609Y0192370D01*
X0207677Y0192370D01*
X0208711Y0191336D01*
X0208711Y0190302D01*
X0204575Y0190302D01*
X0204575Y0189268D02*
X0204575Y0191336D01*
X0204575Y0189268D02*
X0205609Y0188233D01*
X0207677Y0188233D01*
X0211020Y0188233D02*
X0211020Y0192370D01*
X0211020Y0190302D02*
X0213088Y0192370D01*
X0214123Y0192370D01*
X0216391Y0191336D02*
X0217426Y0192370D01*
X0220528Y0192370D01*
X0219494Y0190302D02*
X0217426Y0190302D01*
X0216391Y0191336D01*
X0216391Y0188233D02*
X0219494Y0188233D01*
X0220528Y0189268D01*
X0219494Y0190302D01*
X0222837Y0189268D02*
X0223871Y0188233D01*
X0226974Y0188233D01*
X0226974Y0191336D01*
X0225939Y0192370D01*
X0223871Y0192370D01*
X0223871Y0190302D02*
X0226974Y0190302D01*
X0229282Y0188233D02*
X0231351Y0188233D01*
X0230317Y0188233D02*
X0230317Y0194439D01*
X0229282Y0194439D01*
X0223871Y0190302D02*
X0222837Y0189268D01*
X0223048Y0183189D02*
X0220980Y0183189D01*
X0219946Y0182154D01*
X0223048Y0183189D02*
X0224083Y0182154D01*
X0224083Y0181120D01*
X0219946Y0176983D01*
X0224083Y0176983D01*
X0226391Y0178018D02*
X0226391Y0182154D01*
X0227426Y0183189D01*
X0229494Y0183189D01*
X0230528Y0182154D01*
X0226391Y0178018D01*
X0227426Y0176983D01*
X0229494Y0176983D01*
X0230528Y0178018D01*
X0230528Y0182154D01*
X0232837Y0181120D02*
X0234905Y0183189D01*
X0234905Y0176983D01*
X0232837Y0176983D02*
X0236974Y0176983D01*
X0239282Y0178018D02*
X0240317Y0176983D01*
X0242385Y0176983D01*
X0243419Y0178018D01*
X0243419Y0180086D01*
X0242385Y0181120D01*
X0241351Y0181120D01*
X0239282Y0180086D01*
X0239282Y0183189D01*
X0243419Y0183189D01*
X0243127Y0188233D02*
X0241059Y0188233D01*
X0240025Y0189268D01*
X0240025Y0190302D01*
X0241059Y0191336D01*
X0243127Y0191336D01*
X0244162Y0190302D01*
X0244162Y0189268D01*
X0243127Y0188233D01*
X0243127Y0191336D02*
X0244162Y0192370D01*
X0244162Y0193404D01*
X0243127Y0194439D01*
X0241059Y0194439D01*
X0240025Y0193404D01*
X0240025Y0192370D01*
X0241059Y0191336D01*
X0246470Y0192370D02*
X0250607Y0188233D01*
X0252916Y0189268D02*
X0252916Y0190302D01*
X0253950Y0191336D01*
X0256018Y0191336D01*
X0257053Y0190302D01*
X0257053Y0189268D01*
X0256018Y0188233D01*
X0253950Y0188233D01*
X0252916Y0189268D01*
X0253950Y0191336D02*
X0252916Y0192370D01*
X0252916Y0193404D01*
X0253950Y0194439D01*
X0256018Y0194439D01*
X0257053Y0193404D01*
X0257053Y0192370D01*
X0256018Y0191336D01*
X0250607Y0192370D02*
X0246470Y0188233D01*
X0211192Y0181120D02*
X0208089Y0181120D01*
X0207055Y0180086D01*
X0207055Y0178018D01*
X0208089Y0176983D01*
X0211192Y0176983D01*
X0204826Y0176983D02*
X0202758Y0176983D01*
X0203792Y0176983D02*
X0203792Y0181120D01*
X0202758Y0181120D01*
X0200449Y0181120D02*
X0198381Y0176983D01*
X0196312Y0181120D01*
X0194004Y0180086D02*
X0192969Y0181120D01*
X0190901Y0181120D01*
X0189867Y0180086D01*
X0189867Y0178018D01*
X0190901Y0176983D01*
X0192969Y0176983D01*
X0194004Y0178018D01*
X0194004Y0180086D01*
X0203792Y0183189D02*
X0203792Y0184223D01*
X0185078Y0189268D02*
X0184044Y0188233D01*
X0181975Y0188233D01*
X0180941Y0189268D01*
X0180941Y0194439D01*
X0185078Y0194439D02*
X0185078Y0189268D01*
X0179124Y0181120D02*
X0179124Y0176983D01*
X0377546Y0189861D02*
X0377546Y0130806D01*
X0427940Y0130806D01*
X0427940Y0189861D01*
X0377546Y0189861D01*
D13*
X0381305Y0186199D02*
X0381307Y0186333D01*
X0381313Y0186467D01*
X0381323Y0186601D01*
X0381337Y0186735D01*
X0381355Y0186868D01*
X0381376Y0187000D01*
X0381402Y0187132D01*
X0381432Y0187263D01*
X0381465Y0187393D01*
X0381502Y0187521D01*
X0381544Y0187649D01*
X0381588Y0187776D01*
X0381637Y0187901D01*
X0381689Y0188024D01*
X0381745Y0188146D01*
X0381805Y0188267D01*
X0381868Y0188385D01*
X0381934Y0188502D01*
X0382004Y0188616D01*
X0382077Y0188729D01*
X0382154Y0188839D01*
X0382234Y0188947D01*
X0382317Y0189052D01*
X0382403Y0189155D01*
X0382492Y0189255D01*
X0382584Y0189353D01*
X0382679Y0189448D01*
X0382777Y0189540D01*
X0382877Y0189629D01*
X0382980Y0189715D01*
X0383085Y0189798D01*
X0383193Y0189878D01*
X0383303Y0189955D01*
X0383416Y0190028D01*
X0383530Y0190098D01*
X0383647Y0190164D01*
X0383765Y0190227D01*
X0383886Y0190287D01*
X0384008Y0190343D01*
X0384131Y0190395D01*
X0384256Y0190444D01*
X0384383Y0190488D01*
X0384511Y0190530D01*
X0384639Y0190567D01*
X0384769Y0190600D01*
X0384900Y0190630D01*
X0385032Y0190656D01*
X0385164Y0190677D01*
X0385297Y0190695D01*
X0385431Y0190709D01*
X0385565Y0190719D01*
X0385699Y0190725D01*
X0385833Y0190727D01*
X0385967Y0190725D01*
X0386101Y0190719D01*
X0386235Y0190709D01*
X0386369Y0190695D01*
X0386502Y0190677D01*
X0386634Y0190656D01*
X0386766Y0190630D01*
X0386897Y0190600D01*
X0387027Y0190567D01*
X0387155Y0190530D01*
X0387283Y0190488D01*
X0387410Y0190444D01*
X0387535Y0190395D01*
X0387658Y0190343D01*
X0387780Y0190287D01*
X0387901Y0190227D01*
X0388019Y0190164D01*
X0388136Y0190098D01*
X0388250Y0190028D01*
X0388363Y0189955D01*
X0388473Y0189878D01*
X0388581Y0189798D01*
X0388686Y0189715D01*
X0388789Y0189629D01*
X0388889Y0189540D01*
X0388987Y0189448D01*
X0389082Y0189353D01*
X0389174Y0189255D01*
X0389263Y0189155D01*
X0389349Y0189052D01*
X0389432Y0188947D01*
X0389512Y0188839D01*
X0389589Y0188729D01*
X0389662Y0188616D01*
X0389732Y0188502D01*
X0389798Y0188385D01*
X0389861Y0188267D01*
X0389921Y0188146D01*
X0389977Y0188024D01*
X0390029Y0187901D01*
X0390078Y0187776D01*
X0390122Y0187649D01*
X0390164Y0187521D01*
X0390201Y0187393D01*
X0390234Y0187263D01*
X0390264Y0187132D01*
X0390290Y0187000D01*
X0390311Y0186868D01*
X0390329Y0186735D01*
X0390343Y0186601D01*
X0390353Y0186467D01*
X0390359Y0186333D01*
X0390361Y0186199D01*
X0390359Y0186065D01*
X0390353Y0185931D01*
X0390343Y0185797D01*
X0390329Y0185663D01*
X0390311Y0185530D01*
X0390290Y0185398D01*
X0390264Y0185266D01*
X0390234Y0185135D01*
X0390201Y0185005D01*
X0390164Y0184877D01*
X0390122Y0184749D01*
X0390078Y0184622D01*
X0390029Y0184497D01*
X0389977Y0184374D01*
X0389921Y0184252D01*
X0389861Y0184131D01*
X0389798Y0184013D01*
X0389732Y0183896D01*
X0389662Y0183782D01*
X0389589Y0183669D01*
X0389512Y0183559D01*
X0389432Y0183451D01*
X0389349Y0183346D01*
X0389263Y0183243D01*
X0389174Y0183143D01*
X0389082Y0183045D01*
X0388987Y0182950D01*
X0388889Y0182858D01*
X0388789Y0182769D01*
X0388686Y0182683D01*
X0388581Y0182600D01*
X0388473Y0182520D01*
X0388363Y0182443D01*
X0388250Y0182370D01*
X0388136Y0182300D01*
X0388019Y0182234D01*
X0387901Y0182171D01*
X0387780Y0182111D01*
X0387658Y0182055D01*
X0387535Y0182003D01*
X0387410Y0181954D01*
X0387283Y0181910D01*
X0387155Y0181868D01*
X0387027Y0181831D01*
X0386897Y0181798D01*
X0386766Y0181768D01*
X0386634Y0181742D01*
X0386502Y0181721D01*
X0386369Y0181703D01*
X0386235Y0181689D01*
X0386101Y0181679D01*
X0385967Y0181673D01*
X0385833Y0181671D01*
X0385699Y0181673D01*
X0385565Y0181679D01*
X0385431Y0181689D01*
X0385297Y0181703D01*
X0385164Y0181721D01*
X0385032Y0181742D01*
X0384900Y0181768D01*
X0384769Y0181798D01*
X0384639Y0181831D01*
X0384511Y0181868D01*
X0384383Y0181910D01*
X0384256Y0181954D01*
X0384131Y0182003D01*
X0384008Y0182055D01*
X0383886Y0182111D01*
X0383765Y0182171D01*
X0383647Y0182234D01*
X0383530Y0182300D01*
X0383416Y0182370D01*
X0383303Y0182443D01*
X0383193Y0182520D01*
X0383085Y0182600D01*
X0382980Y0182683D01*
X0382877Y0182769D01*
X0382777Y0182858D01*
X0382679Y0182950D01*
X0382584Y0183045D01*
X0382492Y0183143D01*
X0382403Y0183243D01*
X0382317Y0183346D01*
X0382234Y0183451D01*
X0382154Y0183559D01*
X0382077Y0183669D01*
X0382004Y0183782D01*
X0381934Y0183896D01*
X0381868Y0184013D01*
X0381805Y0184131D01*
X0381745Y0184252D01*
X0381689Y0184374D01*
X0381637Y0184497D01*
X0381588Y0184622D01*
X0381544Y0184749D01*
X0381502Y0184877D01*
X0381465Y0185005D01*
X0381432Y0185135D01*
X0381402Y0185266D01*
X0381376Y0185398D01*
X0381355Y0185530D01*
X0381337Y0185663D01*
X0381323Y0185797D01*
X0381313Y0185931D01*
X0381307Y0186065D01*
X0381305Y0186199D01*
X0402349Y0186908D02*
X0402351Y0187039D01*
X0402357Y0187171D01*
X0402367Y0187302D01*
X0402381Y0187433D01*
X0402399Y0187563D01*
X0402421Y0187692D01*
X0402446Y0187821D01*
X0402476Y0187949D01*
X0402510Y0188076D01*
X0402547Y0188203D01*
X0402588Y0188327D01*
X0402633Y0188451D01*
X0402682Y0188573D01*
X0402734Y0188694D01*
X0402790Y0188812D01*
X0402850Y0188930D01*
X0402913Y0189045D01*
X0402980Y0189158D01*
X0403050Y0189270D01*
X0403123Y0189379D01*
X0403199Y0189485D01*
X0403279Y0189590D01*
X0403362Y0189692D01*
X0403448Y0189791D01*
X0403537Y0189888D01*
X0403629Y0189982D01*
X0403724Y0190073D01*
X0403821Y0190162D01*
X0403921Y0190247D01*
X0404024Y0190329D01*
X0404129Y0190408D01*
X0404236Y0190484D01*
X0404346Y0190556D01*
X0404458Y0190625D01*
X0404572Y0190691D01*
X0404687Y0190753D01*
X0404805Y0190812D01*
X0404924Y0190867D01*
X0405045Y0190919D01*
X0405168Y0190966D01*
X0405292Y0191010D01*
X0405417Y0191051D01*
X0405543Y0191087D01*
X0405671Y0191120D01*
X0405799Y0191148D01*
X0405928Y0191173D01*
X0406058Y0191194D01*
X0406188Y0191211D01*
X0406319Y0191224D01*
X0406450Y0191233D01*
X0406581Y0191238D01*
X0406713Y0191239D01*
X0406844Y0191236D01*
X0406976Y0191229D01*
X0407107Y0191218D01*
X0407237Y0191203D01*
X0407367Y0191184D01*
X0407497Y0191161D01*
X0407625Y0191135D01*
X0407753Y0191104D01*
X0407880Y0191069D01*
X0408006Y0191031D01*
X0408130Y0190989D01*
X0408254Y0190943D01*
X0408375Y0190893D01*
X0408495Y0190840D01*
X0408614Y0190783D01*
X0408731Y0190723D01*
X0408845Y0190659D01*
X0408958Y0190591D01*
X0409069Y0190520D01*
X0409178Y0190446D01*
X0409284Y0190369D01*
X0409388Y0190288D01*
X0409489Y0190205D01*
X0409588Y0190118D01*
X0409684Y0190028D01*
X0409777Y0189935D01*
X0409868Y0189840D01*
X0409955Y0189742D01*
X0410040Y0189641D01*
X0410121Y0189538D01*
X0410199Y0189432D01*
X0410274Y0189324D01*
X0410346Y0189214D01*
X0410414Y0189102D01*
X0410479Y0188988D01*
X0410540Y0188871D01*
X0410598Y0188753D01*
X0410652Y0188633D01*
X0410703Y0188512D01*
X0410750Y0188389D01*
X0410793Y0188265D01*
X0410832Y0188140D01*
X0410868Y0188013D01*
X0410899Y0187885D01*
X0410927Y0187757D01*
X0410951Y0187628D01*
X0410971Y0187498D01*
X0410987Y0187367D01*
X0410999Y0187236D01*
X0411007Y0187105D01*
X0411011Y0186974D01*
X0411011Y0186842D01*
X0411007Y0186711D01*
X0410999Y0186580D01*
X0410987Y0186449D01*
X0410971Y0186318D01*
X0410951Y0186188D01*
X0410927Y0186059D01*
X0410899Y0185931D01*
X0410868Y0185803D01*
X0410832Y0185676D01*
X0410793Y0185551D01*
X0410750Y0185427D01*
X0410703Y0185304D01*
X0410652Y0185183D01*
X0410598Y0185063D01*
X0410540Y0184945D01*
X0410479Y0184828D01*
X0410414Y0184714D01*
X0410346Y0184602D01*
X0410274Y0184492D01*
X0410199Y0184384D01*
X0410121Y0184278D01*
X0410040Y0184175D01*
X0409955Y0184074D01*
X0409868Y0183976D01*
X0409777Y0183881D01*
X0409684Y0183788D01*
X0409588Y0183698D01*
X0409489Y0183611D01*
X0409388Y0183528D01*
X0409284Y0183447D01*
X0409178Y0183370D01*
X0409069Y0183296D01*
X0408958Y0183225D01*
X0408846Y0183157D01*
X0408731Y0183093D01*
X0408614Y0183033D01*
X0408495Y0182976D01*
X0408375Y0182923D01*
X0408254Y0182873D01*
X0408130Y0182827D01*
X0408006Y0182785D01*
X0407880Y0182747D01*
X0407753Y0182712D01*
X0407625Y0182681D01*
X0407497Y0182655D01*
X0407367Y0182632D01*
X0407237Y0182613D01*
X0407107Y0182598D01*
X0406976Y0182587D01*
X0406844Y0182580D01*
X0406713Y0182577D01*
X0406581Y0182578D01*
X0406450Y0182583D01*
X0406319Y0182592D01*
X0406188Y0182605D01*
X0406058Y0182622D01*
X0405928Y0182643D01*
X0405799Y0182668D01*
X0405671Y0182696D01*
X0405543Y0182729D01*
X0405417Y0182765D01*
X0405292Y0182806D01*
X0405168Y0182850D01*
X0405045Y0182897D01*
X0404924Y0182949D01*
X0404805Y0183004D01*
X0404687Y0183063D01*
X0404572Y0183125D01*
X0404458Y0183191D01*
X0404346Y0183260D01*
X0404236Y0183332D01*
X0404129Y0183408D01*
X0404024Y0183487D01*
X0403921Y0183569D01*
X0403821Y0183654D01*
X0403724Y0183743D01*
X0403629Y0183834D01*
X0403537Y0183928D01*
X0403448Y0184025D01*
X0403362Y0184124D01*
X0403279Y0184226D01*
X0403199Y0184331D01*
X0403123Y0184437D01*
X0403050Y0184546D01*
X0402980Y0184658D01*
X0402913Y0184771D01*
X0402850Y0184886D01*
X0402790Y0185004D01*
X0402734Y0185122D01*
X0402682Y0185243D01*
X0402633Y0185365D01*
X0402588Y0185489D01*
X0402547Y0185613D01*
X0402510Y0185740D01*
X0402476Y0185867D01*
X0402446Y0185995D01*
X0402421Y0186124D01*
X0402399Y0186253D01*
X0402381Y0186383D01*
X0402367Y0186514D01*
X0402357Y0186645D01*
X0402351Y0186777D01*
X0402349Y0186908D01*
X0405498Y0160333D02*
X0405500Y0160464D01*
X0405506Y0160596D01*
X0405516Y0160727D01*
X0405530Y0160858D01*
X0405548Y0160988D01*
X0405570Y0161117D01*
X0405595Y0161246D01*
X0405625Y0161374D01*
X0405659Y0161501D01*
X0405696Y0161628D01*
X0405737Y0161752D01*
X0405782Y0161876D01*
X0405831Y0161998D01*
X0405883Y0162119D01*
X0405939Y0162237D01*
X0405999Y0162355D01*
X0406062Y0162470D01*
X0406129Y0162583D01*
X0406199Y0162695D01*
X0406272Y0162804D01*
X0406348Y0162910D01*
X0406428Y0163015D01*
X0406511Y0163117D01*
X0406597Y0163216D01*
X0406686Y0163313D01*
X0406778Y0163407D01*
X0406873Y0163498D01*
X0406970Y0163587D01*
X0407070Y0163672D01*
X0407173Y0163754D01*
X0407278Y0163833D01*
X0407385Y0163909D01*
X0407495Y0163981D01*
X0407607Y0164050D01*
X0407721Y0164116D01*
X0407836Y0164178D01*
X0407954Y0164237D01*
X0408073Y0164292D01*
X0408194Y0164344D01*
X0408317Y0164391D01*
X0408441Y0164435D01*
X0408566Y0164476D01*
X0408692Y0164512D01*
X0408820Y0164545D01*
X0408948Y0164573D01*
X0409077Y0164598D01*
X0409207Y0164619D01*
X0409337Y0164636D01*
X0409468Y0164649D01*
X0409599Y0164658D01*
X0409730Y0164663D01*
X0409862Y0164664D01*
X0409993Y0164661D01*
X0410125Y0164654D01*
X0410256Y0164643D01*
X0410386Y0164628D01*
X0410516Y0164609D01*
X0410646Y0164586D01*
X0410774Y0164560D01*
X0410902Y0164529D01*
X0411029Y0164494D01*
X0411155Y0164456D01*
X0411279Y0164414D01*
X0411403Y0164368D01*
X0411524Y0164318D01*
X0411644Y0164265D01*
X0411763Y0164208D01*
X0411880Y0164148D01*
X0411994Y0164084D01*
X0412107Y0164016D01*
X0412218Y0163945D01*
X0412327Y0163871D01*
X0412433Y0163794D01*
X0412537Y0163713D01*
X0412638Y0163630D01*
X0412737Y0163543D01*
X0412833Y0163453D01*
X0412926Y0163360D01*
X0413017Y0163265D01*
X0413104Y0163167D01*
X0413189Y0163066D01*
X0413270Y0162963D01*
X0413348Y0162857D01*
X0413423Y0162749D01*
X0413495Y0162639D01*
X0413563Y0162527D01*
X0413628Y0162413D01*
X0413689Y0162296D01*
X0413747Y0162178D01*
X0413801Y0162058D01*
X0413852Y0161937D01*
X0413899Y0161814D01*
X0413942Y0161690D01*
X0413981Y0161565D01*
X0414017Y0161438D01*
X0414048Y0161310D01*
X0414076Y0161182D01*
X0414100Y0161053D01*
X0414120Y0160923D01*
X0414136Y0160792D01*
X0414148Y0160661D01*
X0414156Y0160530D01*
X0414160Y0160399D01*
X0414160Y0160267D01*
X0414156Y0160136D01*
X0414148Y0160005D01*
X0414136Y0159874D01*
X0414120Y0159743D01*
X0414100Y0159613D01*
X0414076Y0159484D01*
X0414048Y0159356D01*
X0414017Y0159228D01*
X0413981Y0159101D01*
X0413942Y0158976D01*
X0413899Y0158852D01*
X0413852Y0158729D01*
X0413801Y0158608D01*
X0413747Y0158488D01*
X0413689Y0158370D01*
X0413628Y0158253D01*
X0413563Y0158139D01*
X0413495Y0158027D01*
X0413423Y0157917D01*
X0413348Y0157809D01*
X0413270Y0157703D01*
X0413189Y0157600D01*
X0413104Y0157499D01*
X0413017Y0157401D01*
X0412926Y0157306D01*
X0412833Y0157213D01*
X0412737Y0157123D01*
X0412638Y0157036D01*
X0412537Y0156953D01*
X0412433Y0156872D01*
X0412327Y0156795D01*
X0412218Y0156721D01*
X0412107Y0156650D01*
X0411995Y0156582D01*
X0411880Y0156518D01*
X0411763Y0156458D01*
X0411644Y0156401D01*
X0411524Y0156348D01*
X0411403Y0156298D01*
X0411279Y0156252D01*
X0411155Y0156210D01*
X0411029Y0156172D01*
X0410902Y0156137D01*
X0410774Y0156106D01*
X0410646Y0156080D01*
X0410516Y0156057D01*
X0410386Y0156038D01*
X0410256Y0156023D01*
X0410125Y0156012D01*
X0409993Y0156005D01*
X0409862Y0156002D01*
X0409730Y0156003D01*
X0409599Y0156008D01*
X0409468Y0156017D01*
X0409337Y0156030D01*
X0409207Y0156047D01*
X0409077Y0156068D01*
X0408948Y0156093D01*
X0408820Y0156121D01*
X0408692Y0156154D01*
X0408566Y0156190D01*
X0408441Y0156231D01*
X0408317Y0156275D01*
X0408194Y0156322D01*
X0408073Y0156374D01*
X0407954Y0156429D01*
X0407836Y0156488D01*
X0407721Y0156550D01*
X0407607Y0156616D01*
X0407495Y0156685D01*
X0407385Y0156757D01*
X0407278Y0156833D01*
X0407173Y0156912D01*
X0407070Y0156994D01*
X0406970Y0157079D01*
X0406873Y0157168D01*
X0406778Y0157259D01*
X0406686Y0157353D01*
X0406597Y0157450D01*
X0406511Y0157549D01*
X0406428Y0157651D01*
X0406348Y0157756D01*
X0406272Y0157862D01*
X0406199Y0157971D01*
X0406129Y0158083D01*
X0406062Y0158196D01*
X0405999Y0158311D01*
X0405939Y0158429D01*
X0405883Y0158547D01*
X0405831Y0158668D01*
X0405782Y0158790D01*
X0405737Y0158914D01*
X0405696Y0159038D01*
X0405659Y0159165D01*
X0405625Y0159292D01*
X0405595Y0159420D01*
X0405570Y0159549D01*
X0405548Y0159678D01*
X0405530Y0159808D01*
X0405516Y0159939D01*
X0405506Y0160070D01*
X0405500Y0160202D01*
X0405498Y0160333D01*
X0402349Y0133759D02*
X0402351Y0133890D01*
X0402357Y0134022D01*
X0402367Y0134153D01*
X0402381Y0134284D01*
X0402399Y0134414D01*
X0402421Y0134543D01*
X0402446Y0134672D01*
X0402476Y0134800D01*
X0402510Y0134927D01*
X0402547Y0135054D01*
X0402588Y0135178D01*
X0402633Y0135302D01*
X0402682Y0135424D01*
X0402734Y0135545D01*
X0402790Y0135663D01*
X0402850Y0135781D01*
X0402913Y0135896D01*
X0402980Y0136009D01*
X0403050Y0136121D01*
X0403123Y0136230D01*
X0403199Y0136336D01*
X0403279Y0136441D01*
X0403362Y0136543D01*
X0403448Y0136642D01*
X0403537Y0136739D01*
X0403629Y0136833D01*
X0403724Y0136924D01*
X0403821Y0137013D01*
X0403921Y0137098D01*
X0404024Y0137180D01*
X0404129Y0137259D01*
X0404236Y0137335D01*
X0404346Y0137407D01*
X0404458Y0137476D01*
X0404572Y0137542D01*
X0404687Y0137604D01*
X0404805Y0137663D01*
X0404924Y0137718D01*
X0405045Y0137770D01*
X0405168Y0137817D01*
X0405292Y0137861D01*
X0405417Y0137902D01*
X0405543Y0137938D01*
X0405671Y0137971D01*
X0405799Y0137999D01*
X0405928Y0138024D01*
X0406058Y0138045D01*
X0406188Y0138062D01*
X0406319Y0138075D01*
X0406450Y0138084D01*
X0406581Y0138089D01*
X0406713Y0138090D01*
X0406844Y0138087D01*
X0406976Y0138080D01*
X0407107Y0138069D01*
X0407237Y0138054D01*
X0407367Y0138035D01*
X0407497Y0138012D01*
X0407625Y0137986D01*
X0407753Y0137955D01*
X0407880Y0137920D01*
X0408006Y0137882D01*
X0408130Y0137840D01*
X0408254Y0137794D01*
X0408375Y0137744D01*
X0408495Y0137691D01*
X0408614Y0137634D01*
X0408731Y0137574D01*
X0408845Y0137510D01*
X0408958Y0137442D01*
X0409069Y0137371D01*
X0409178Y0137297D01*
X0409284Y0137220D01*
X0409388Y0137139D01*
X0409489Y0137056D01*
X0409588Y0136969D01*
X0409684Y0136879D01*
X0409777Y0136786D01*
X0409868Y0136691D01*
X0409955Y0136593D01*
X0410040Y0136492D01*
X0410121Y0136389D01*
X0410199Y0136283D01*
X0410274Y0136175D01*
X0410346Y0136065D01*
X0410414Y0135953D01*
X0410479Y0135839D01*
X0410540Y0135722D01*
X0410598Y0135604D01*
X0410652Y0135484D01*
X0410703Y0135363D01*
X0410750Y0135240D01*
X0410793Y0135116D01*
X0410832Y0134991D01*
X0410868Y0134864D01*
X0410899Y0134736D01*
X0410927Y0134608D01*
X0410951Y0134479D01*
X0410971Y0134349D01*
X0410987Y0134218D01*
X0410999Y0134087D01*
X0411007Y0133956D01*
X0411011Y0133825D01*
X0411011Y0133693D01*
X0411007Y0133562D01*
X0410999Y0133431D01*
X0410987Y0133300D01*
X0410971Y0133169D01*
X0410951Y0133039D01*
X0410927Y0132910D01*
X0410899Y0132782D01*
X0410868Y0132654D01*
X0410832Y0132527D01*
X0410793Y0132402D01*
X0410750Y0132278D01*
X0410703Y0132155D01*
X0410652Y0132034D01*
X0410598Y0131914D01*
X0410540Y0131796D01*
X0410479Y0131679D01*
X0410414Y0131565D01*
X0410346Y0131453D01*
X0410274Y0131343D01*
X0410199Y0131235D01*
X0410121Y0131129D01*
X0410040Y0131026D01*
X0409955Y0130925D01*
X0409868Y0130827D01*
X0409777Y0130732D01*
X0409684Y0130639D01*
X0409588Y0130549D01*
X0409489Y0130462D01*
X0409388Y0130379D01*
X0409284Y0130298D01*
X0409178Y0130221D01*
X0409069Y0130147D01*
X0408958Y0130076D01*
X0408846Y0130008D01*
X0408731Y0129944D01*
X0408614Y0129884D01*
X0408495Y0129827D01*
X0408375Y0129774D01*
X0408254Y0129724D01*
X0408130Y0129678D01*
X0408006Y0129636D01*
X0407880Y0129598D01*
X0407753Y0129563D01*
X0407625Y0129532D01*
X0407497Y0129506D01*
X0407367Y0129483D01*
X0407237Y0129464D01*
X0407107Y0129449D01*
X0406976Y0129438D01*
X0406844Y0129431D01*
X0406713Y0129428D01*
X0406581Y0129429D01*
X0406450Y0129434D01*
X0406319Y0129443D01*
X0406188Y0129456D01*
X0406058Y0129473D01*
X0405928Y0129494D01*
X0405799Y0129519D01*
X0405671Y0129547D01*
X0405543Y0129580D01*
X0405417Y0129616D01*
X0405292Y0129657D01*
X0405168Y0129701D01*
X0405045Y0129748D01*
X0404924Y0129800D01*
X0404805Y0129855D01*
X0404687Y0129914D01*
X0404572Y0129976D01*
X0404458Y0130042D01*
X0404346Y0130111D01*
X0404236Y0130183D01*
X0404129Y0130259D01*
X0404024Y0130338D01*
X0403921Y0130420D01*
X0403821Y0130505D01*
X0403724Y0130594D01*
X0403629Y0130685D01*
X0403537Y0130779D01*
X0403448Y0130876D01*
X0403362Y0130975D01*
X0403279Y0131077D01*
X0403199Y0131182D01*
X0403123Y0131288D01*
X0403050Y0131397D01*
X0402980Y0131509D01*
X0402913Y0131622D01*
X0402850Y0131737D01*
X0402790Y0131855D01*
X0402734Y0131973D01*
X0402682Y0132094D01*
X0402633Y0132216D01*
X0402588Y0132340D01*
X0402547Y0132464D01*
X0402510Y0132591D01*
X0402476Y0132718D01*
X0402446Y0132846D01*
X0402421Y0132975D01*
X0402399Y0133104D01*
X0402381Y0133234D01*
X0402367Y0133365D01*
X0402357Y0133496D01*
X0402351Y0133628D01*
X0402349Y0133759D01*
X0381305Y0134467D02*
X0381307Y0134601D01*
X0381313Y0134735D01*
X0381323Y0134869D01*
X0381337Y0135003D01*
X0381355Y0135136D01*
X0381376Y0135268D01*
X0381402Y0135400D01*
X0381432Y0135531D01*
X0381465Y0135661D01*
X0381502Y0135789D01*
X0381544Y0135917D01*
X0381588Y0136044D01*
X0381637Y0136169D01*
X0381689Y0136292D01*
X0381745Y0136414D01*
X0381805Y0136535D01*
X0381868Y0136653D01*
X0381934Y0136770D01*
X0382004Y0136884D01*
X0382077Y0136997D01*
X0382154Y0137107D01*
X0382234Y0137215D01*
X0382317Y0137320D01*
X0382403Y0137423D01*
X0382492Y0137523D01*
X0382584Y0137621D01*
X0382679Y0137716D01*
X0382777Y0137808D01*
X0382877Y0137897D01*
X0382980Y0137983D01*
X0383085Y0138066D01*
X0383193Y0138146D01*
X0383303Y0138223D01*
X0383416Y0138296D01*
X0383530Y0138366D01*
X0383647Y0138432D01*
X0383765Y0138495D01*
X0383886Y0138555D01*
X0384008Y0138611D01*
X0384131Y0138663D01*
X0384256Y0138712D01*
X0384383Y0138756D01*
X0384511Y0138798D01*
X0384639Y0138835D01*
X0384769Y0138868D01*
X0384900Y0138898D01*
X0385032Y0138924D01*
X0385164Y0138945D01*
X0385297Y0138963D01*
X0385431Y0138977D01*
X0385565Y0138987D01*
X0385699Y0138993D01*
X0385833Y0138995D01*
X0385967Y0138993D01*
X0386101Y0138987D01*
X0386235Y0138977D01*
X0386369Y0138963D01*
X0386502Y0138945D01*
X0386634Y0138924D01*
X0386766Y0138898D01*
X0386897Y0138868D01*
X0387027Y0138835D01*
X0387155Y0138798D01*
X0387283Y0138756D01*
X0387410Y0138712D01*
X0387535Y0138663D01*
X0387658Y0138611D01*
X0387780Y0138555D01*
X0387901Y0138495D01*
X0388019Y0138432D01*
X0388136Y0138366D01*
X0388250Y0138296D01*
X0388363Y0138223D01*
X0388473Y0138146D01*
X0388581Y0138066D01*
X0388686Y0137983D01*
X0388789Y0137897D01*
X0388889Y0137808D01*
X0388987Y0137716D01*
X0389082Y0137621D01*
X0389174Y0137523D01*
X0389263Y0137423D01*
X0389349Y0137320D01*
X0389432Y0137215D01*
X0389512Y0137107D01*
X0389589Y0136997D01*
X0389662Y0136884D01*
X0389732Y0136770D01*
X0389798Y0136653D01*
X0389861Y0136535D01*
X0389921Y0136414D01*
X0389977Y0136292D01*
X0390029Y0136169D01*
X0390078Y0136044D01*
X0390122Y0135917D01*
X0390164Y0135789D01*
X0390201Y0135661D01*
X0390234Y0135531D01*
X0390264Y0135400D01*
X0390290Y0135268D01*
X0390311Y0135136D01*
X0390329Y0135003D01*
X0390343Y0134869D01*
X0390353Y0134735D01*
X0390359Y0134601D01*
X0390361Y0134467D01*
X0390359Y0134333D01*
X0390353Y0134199D01*
X0390343Y0134065D01*
X0390329Y0133931D01*
X0390311Y0133798D01*
X0390290Y0133666D01*
X0390264Y0133534D01*
X0390234Y0133403D01*
X0390201Y0133273D01*
X0390164Y0133145D01*
X0390122Y0133017D01*
X0390078Y0132890D01*
X0390029Y0132765D01*
X0389977Y0132642D01*
X0389921Y0132520D01*
X0389861Y0132399D01*
X0389798Y0132281D01*
X0389732Y0132164D01*
X0389662Y0132050D01*
X0389589Y0131937D01*
X0389512Y0131827D01*
X0389432Y0131719D01*
X0389349Y0131614D01*
X0389263Y0131511D01*
X0389174Y0131411D01*
X0389082Y0131313D01*
X0388987Y0131218D01*
X0388889Y0131126D01*
X0388789Y0131037D01*
X0388686Y0130951D01*
X0388581Y0130868D01*
X0388473Y0130788D01*
X0388363Y0130711D01*
X0388250Y0130638D01*
X0388136Y0130568D01*
X0388019Y0130502D01*
X0387901Y0130439D01*
X0387780Y0130379D01*
X0387658Y0130323D01*
X0387535Y0130271D01*
X0387410Y0130222D01*
X0387283Y0130178D01*
X0387155Y0130136D01*
X0387027Y0130099D01*
X0386897Y0130066D01*
X0386766Y0130036D01*
X0386634Y0130010D01*
X0386502Y0129989D01*
X0386369Y0129971D01*
X0386235Y0129957D01*
X0386101Y0129947D01*
X0385967Y0129941D01*
X0385833Y0129939D01*
X0385699Y0129941D01*
X0385565Y0129947D01*
X0385431Y0129957D01*
X0385297Y0129971D01*
X0385164Y0129989D01*
X0385032Y0130010D01*
X0384900Y0130036D01*
X0384769Y0130066D01*
X0384639Y0130099D01*
X0384511Y0130136D01*
X0384383Y0130178D01*
X0384256Y0130222D01*
X0384131Y0130271D01*
X0384008Y0130323D01*
X0383886Y0130379D01*
X0383765Y0130439D01*
X0383647Y0130502D01*
X0383530Y0130568D01*
X0383416Y0130638D01*
X0383303Y0130711D01*
X0383193Y0130788D01*
X0383085Y0130868D01*
X0382980Y0130951D01*
X0382877Y0131037D01*
X0382777Y0131126D01*
X0382679Y0131218D01*
X0382584Y0131313D01*
X0382492Y0131411D01*
X0382403Y0131511D01*
X0382317Y0131614D01*
X0382234Y0131719D01*
X0382154Y0131827D01*
X0382077Y0131937D01*
X0382004Y0132050D01*
X0381934Y0132164D01*
X0381868Y0132281D01*
X0381805Y0132399D01*
X0381745Y0132520D01*
X0381689Y0132642D01*
X0381637Y0132765D01*
X0381588Y0132890D01*
X0381544Y0133017D01*
X0381502Y0133145D01*
X0381465Y0133273D01*
X0381432Y0133403D01*
X0381402Y0133534D01*
X0381376Y0133666D01*
X0381355Y0133798D01*
X0381337Y0133931D01*
X0381323Y0134065D01*
X0381313Y0134199D01*
X0381307Y0134333D01*
X0381305Y0134467D01*
X0407034Y0085333D02*
X0407036Y0085491D01*
X0407042Y0085649D01*
X0407052Y0085807D01*
X0407066Y0085965D01*
X0407084Y0086122D01*
X0407105Y0086279D01*
X0407131Y0086435D01*
X0407161Y0086591D01*
X0407194Y0086746D01*
X0407232Y0086899D01*
X0407273Y0087052D01*
X0407318Y0087204D01*
X0407367Y0087355D01*
X0407420Y0087504D01*
X0407476Y0087652D01*
X0407536Y0087798D01*
X0407600Y0087943D01*
X0407668Y0088086D01*
X0407739Y0088228D01*
X0407813Y0088368D01*
X0407891Y0088505D01*
X0407973Y0088641D01*
X0408057Y0088775D01*
X0408146Y0088906D01*
X0408237Y0089035D01*
X0408332Y0089162D01*
X0408429Y0089287D01*
X0408530Y0089409D01*
X0408634Y0089528D01*
X0408741Y0089645D01*
X0408851Y0089759D01*
X0408964Y0089870D01*
X0409079Y0089979D01*
X0409197Y0090084D01*
X0409318Y0090186D01*
X0409441Y0090286D01*
X0409567Y0090382D01*
X0409695Y0090475D01*
X0409825Y0090565D01*
X0409958Y0090651D01*
X0410093Y0090735D01*
X0410229Y0090814D01*
X0410368Y0090891D01*
X0410509Y0090963D01*
X0410651Y0091033D01*
X0410795Y0091098D01*
X0410941Y0091160D01*
X0411088Y0091218D01*
X0411237Y0091273D01*
X0411387Y0091324D01*
X0411538Y0091371D01*
X0411690Y0091414D01*
X0411843Y0091453D01*
X0411998Y0091489D01*
X0412153Y0091520D01*
X0412309Y0091548D01*
X0412465Y0091572D01*
X0412622Y0091592D01*
X0412780Y0091608D01*
X0412937Y0091620D01*
X0413096Y0091628D01*
X0413254Y0091632D01*
X0413412Y0091632D01*
X0413570Y0091628D01*
X0413729Y0091620D01*
X0413886Y0091608D01*
X0414044Y0091592D01*
X0414201Y0091572D01*
X0414357Y0091548D01*
X0414513Y0091520D01*
X0414668Y0091489D01*
X0414823Y0091453D01*
X0414976Y0091414D01*
X0415128Y0091371D01*
X0415279Y0091324D01*
X0415429Y0091273D01*
X0415578Y0091218D01*
X0415725Y0091160D01*
X0415871Y0091098D01*
X0416015Y0091033D01*
X0416157Y0090963D01*
X0416298Y0090891D01*
X0416437Y0090814D01*
X0416573Y0090735D01*
X0416708Y0090651D01*
X0416841Y0090565D01*
X0416971Y0090475D01*
X0417099Y0090382D01*
X0417225Y0090286D01*
X0417348Y0090186D01*
X0417469Y0090084D01*
X0417587Y0089979D01*
X0417702Y0089870D01*
X0417815Y0089759D01*
X0417925Y0089645D01*
X0418032Y0089528D01*
X0418136Y0089409D01*
X0418237Y0089287D01*
X0418334Y0089162D01*
X0418429Y0089035D01*
X0418520Y0088906D01*
X0418609Y0088775D01*
X0418693Y0088641D01*
X0418775Y0088505D01*
X0418853Y0088368D01*
X0418927Y0088228D01*
X0418998Y0088086D01*
X0419066Y0087943D01*
X0419130Y0087798D01*
X0419190Y0087652D01*
X0419246Y0087504D01*
X0419299Y0087355D01*
X0419348Y0087204D01*
X0419393Y0087052D01*
X0419434Y0086899D01*
X0419472Y0086746D01*
X0419505Y0086591D01*
X0419535Y0086435D01*
X0419561Y0086279D01*
X0419582Y0086122D01*
X0419600Y0085965D01*
X0419614Y0085807D01*
X0419624Y0085649D01*
X0419630Y0085491D01*
X0419632Y0085333D01*
X0419630Y0085175D01*
X0419624Y0085017D01*
X0419614Y0084859D01*
X0419600Y0084701D01*
X0419582Y0084544D01*
X0419561Y0084387D01*
X0419535Y0084231D01*
X0419505Y0084075D01*
X0419472Y0083920D01*
X0419434Y0083767D01*
X0419393Y0083614D01*
X0419348Y0083462D01*
X0419299Y0083311D01*
X0419246Y0083162D01*
X0419190Y0083014D01*
X0419130Y0082868D01*
X0419066Y0082723D01*
X0418998Y0082580D01*
X0418927Y0082438D01*
X0418853Y0082298D01*
X0418775Y0082161D01*
X0418693Y0082025D01*
X0418609Y0081891D01*
X0418520Y0081760D01*
X0418429Y0081631D01*
X0418334Y0081504D01*
X0418237Y0081379D01*
X0418136Y0081257D01*
X0418032Y0081138D01*
X0417925Y0081021D01*
X0417815Y0080907D01*
X0417702Y0080796D01*
X0417587Y0080687D01*
X0417469Y0080582D01*
X0417348Y0080480D01*
X0417225Y0080380D01*
X0417099Y0080284D01*
X0416971Y0080191D01*
X0416841Y0080101D01*
X0416708Y0080015D01*
X0416573Y0079931D01*
X0416437Y0079852D01*
X0416298Y0079775D01*
X0416157Y0079703D01*
X0416015Y0079633D01*
X0415871Y0079568D01*
X0415725Y0079506D01*
X0415578Y0079448D01*
X0415429Y0079393D01*
X0415279Y0079342D01*
X0415128Y0079295D01*
X0414976Y0079252D01*
X0414823Y0079213D01*
X0414668Y0079177D01*
X0414513Y0079146D01*
X0414357Y0079118D01*
X0414201Y0079094D01*
X0414044Y0079074D01*
X0413886Y0079058D01*
X0413729Y0079046D01*
X0413570Y0079038D01*
X0413412Y0079034D01*
X0413254Y0079034D01*
X0413096Y0079038D01*
X0412937Y0079046D01*
X0412780Y0079058D01*
X0412622Y0079074D01*
X0412465Y0079094D01*
X0412309Y0079118D01*
X0412153Y0079146D01*
X0411998Y0079177D01*
X0411843Y0079213D01*
X0411690Y0079252D01*
X0411538Y0079295D01*
X0411387Y0079342D01*
X0411237Y0079393D01*
X0411088Y0079448D01*
X0410941Y0079506D01*
X0410795Y0079568D01*
X0410651Y0079633D01*
X0410509Y0079703D01*
X0410368Y0079775D01*
X0410229Y0079852D01*
X0410093Y0079931D01*
X0409958Y0080015D01*
X0409825Y0080101D01*
X0409695Y0080191D01*
X0409567Y0080284D01*
X0409441Y0080380D01*
X0409318Y0080480D01*
X0409197Y0080582D01*
X0409079Y0080687D01*
X0408964Y0080796D01*
X0408851Y0080907D01*
X0408741Y0081021D01*
X0408634Y0081138D01*
X0408530Y0081257D01*
X0408429Y0081379D01*
X0408332Y0081504D01*
X0408237Y0081631D01*
X0408146Y0081760D01*
X0408057Y0081891D01*
X0407973Y0082025D01*
X0407891Y0082161D01*
X0407813Y0082298D01*
X0407739Y0082438D01*
X0407668Y0082580D01*
X0407600Y0082723D01*
X0407536Y0082868D01*
X0407476Y0083014D01*
X0407420Y0083162D01*
X0407367Y0083311D01*
X0407318Y0083462D01*
X0407273Y0083614D01*
X0407232Y0083767D01*
X0407194Y0083920D01*
X0407161Y0084075D01*
X0407131Y0084231D01*
X0407105Y0084387D01*
X0407084Y0084544D01*
X0407066Y0084701D01*
X0407052Y0084859D01*
X0407042Y0085017D01*
X0407036Y0085175D01*
X0407034Y0085333D01*
X0407034Y0295333D02*
X0407036Y0295491D01*
X0407042Y0295649D01*
X0407052Y0295807D01*
X0407066Y0295965D01*
X0407084Y0296122D01*
X0407105Y0296279D01*
X0407131Y0296435D01*
X0407161Y0296591D01*
X0407194Y0296746D01*
X0407232Y0296899D01*
X0407273Y0297052D01*
X0407318Y0297204D01*
X0407367Y0297355D01*
X0407420Y0297504D01*
X0407476Y0297652D01*
X0407536Y0297798D01*
X0407600Y0297943D01*
X0407668Y0298086D01*
X0407739Y0298228D01*
X0407813Y0298368D01*
X0407891Y0298505D01*
X0407973Y0298641D01*
X0408057Y0298775D01*
X0408146Y0298906D01*
X0408237Y0299035D01*
X0408332Y0299162D01*
X0408429Y0299287D01*
X0408530Y0299409D01*
X0408634Y0299528D01*
X0408741Y0299645D01*
X0408851Y0299759D01*
X0408964Y0299870D01*
X0409079Y0299979D01*
X0409197Y0300084D01*
X0409318Y0300186D01*
X0409441Y0300286D01*
X0409567Y0300382D01*
X0409695Y0300475D01*
X0409825Y0300565D01*
X0409958Y0300651D01*
X0410093Y0300735D01*
X0410229Y0300814D01*
X0410368Y0300891D01*
X0410509Y0300963D01*
X0410651Y0301033D01*
X0410795Y0301098D01*
X0410941Y0301160D01*
X0411088Y0301218D01*
X0411237Y0301273D01*
X0411387Y0301324D01*
X0411538Y0301371D01*
X0411690Y0301414D01*
X0411843Y0301453D01*
X0411998Y0301489D01*
X0412153Y0301520D01*
X0412309Y0301548D01*
X0412465Y0301572D01*
X0412622Y0301592D01*
X0412780Y0301608D01*
X0412937Y0301620D01*
X0413096Y0301628D01*
X0413254Y0301632D01*
X0413412Y0301632D01*
X0413570Y0301628D01*
X0413729Y0301620D01*
X0413886Y0301608D01*
X0414044Y0301592D01*
X0414201Y0301572D01*
X0414357Y0301548D01*
X0414513Y0301520D01*
X0414668Y0301489D01*
X0414823Y0301453D01*
X0414976Y0301414D01*
X0415128Y0301371D01*
X0415279Y0301324D01*
X0415429Y0301273D01*
X0415578Y0301218D01*
X0415725Y0301160D01*
X0415871Y0301098D01*
X0416015Y0301033D01*
X0416157Y0300963D01*
X0416298Y0300891D01*
X0416437Y0300814D01*
X0416573Y0300735D01*
X0416708Y0300651D01*
X0416841Y0300565D01*
X0416971Y0300475D01*
X0417099Y0300382D01*
X0417225Y0300286D01*
X0417348Y0300186D01*
X0417469Y0300084D01*
X0417587Y0299979D01*
X0417702Y0299870D01*
X0417815Y0299759D01*
X0417925Y0299645D01*
X0418032Y0299528D01*
X0418136Y0299409D01*
X0418237Y0299287D01*
X0418334Y0299162D01*
X0418429Y0299035D01*
X0418520Y0298906D01*
X0418609Y0298775D01*
X0418693Y0298641D01*
X0418775Y0298505D01*
X0418853Y0298368D01*
X0418927Y0298228D01*
X0418998Y0298086D01*
X0419066Y0297943D01*
X0419130Y0297798D01*
X0419190Y0297652D01*
X0419246Y0297504D01*
X0419299Y0297355D01*
X0419348Y0297204D01*
X0419393Y0297052D01*
X0419434Y0296899D01*
X0419472Y0296746D01*
X0419505Y0296591D01*
X0419535Y0296435D01*
X0419561Y0296279D01*
X0419582Y0296122D01*
X0419600Y0295965D01*
X0419614Y0295807D01*
X0419624Y0295649D01*
X0419630Y0295491D01*
X0419632Y0295333D01*
X0419630Y0295175D01*
X0419624Y0295017D01*
X0419614Y0294859D01*
X0419600Y0294701D01*
X0419582Y0294544D01*
X0419561Y0294387D01*
X0419535Y0294231D01*
X0419505Y0294075D01*
X0419472Y0293920D01*
X0419434Y0293767D01*
X0419393Y0293614D01*
X0419348Y0293462D01*
X0419299Y0293311D01*
X0419246Y0293162D01*
X0419190Y0293014D01*
X0419130Y0292868D01*
X0419066Y0292723D01*
X0418998Y0292580D01*
X0418927Y0292438D01*
X0418853Y0292298D01*
X0418775Y0292161D01*
X0418693Y0292025D01*
X0418609Y0291891D01*
X0418520Y0291760D01*
X0418429Y0291631D01*
X0418334Y0291504D01*
X0418237Y0291379D01*
X0418136Y0291257D01*
X0418032Y0291138D01*
X0417925Y0291021D01*
X0417815Y0290907D01*
X0417702Y0290796D01*
X0417587Y0290687D01*
X0417469Y0290582D01*
X0417348Y0290480D01*
X0417225Y0290380D01*
X0417099Y0290284D01*
X0416971Y0290191D01*
X0416841Y0290101D01*
X0416708Y0290015D01*
X0416573Y0289931D01*
X0416437Y0289852D01*
X0416298Y0289775D01*
X0416157Y0289703D01*
X0416015Y0289633D01*
X0415871Y0289568D01*
X0415725Y0289506D01*
X0415578Y0289448D01*
X0415429Y0289393D01*
X0415279Y0289342D01*
X0415128Y0289295D01*
X0414976Y0289252D01*
X0414823Y0289213D01*
X0414668Y0289177D01*
X0414513Y0289146D01*
X0414357Y0289118D01*
X0414201Y0289094D01*
X0414044Y0289074D01*
X0413886Y0289058D01*
X0413729Y0289046D01*
X0413570Y0289038D01*
X0413412Y0289034D01*
X0413254Y0289034D01*
X0413096Y0289038D01*
X0412937Y0289046D01*
X0412780Y0289058D01*
X0412622Y0289074D01*
X0412465Y0289094D01*
X0412309Y0289118D01*
X0412153Y0289146D01*
X0411998Y0289177D01*
X0411843Y0289213D01*
X0411690Y0289252D01*
X0411538Y0289295D01*
X0411387Y0289342D01*
X0411237Y0289393D01*
X0411088Y0289448D01*
X0410941Y0289506D01*
X0410795Y0289568D01*
X0410651Y0289633D01*
X0410509Y0289703D01*
X0410368Y0289775D01*
X0410229Y0289852D01*
X0410093Y0289931D01*
X0409958Y0290015D01*
X0409825Y0290101D01*
X0409695Y0290191D01*
X0409567Y0290284D01*
X0409441Y0290380D01*
X0409318Y0290480D01*
X0409197Y0290582D01*
X0409079Y0290687D01*
X0408964Y0290796D01*
X0408851Y0290907D01*
X0408741Y0291021D01*
X0408634Y0291138D01*
X0408530Y0291257D01*
X0408429Y0291379D01*
X0408332Y0291504D01*
X0408237Y0291631D01*
X0408146Y0291760D01*
X0408057Y0291891D01*
X0407973Y0292025D01*
X0407891Y0292161D01*
X0407813Y0292298D01*
X0407739Y0292438D01*
X0407668Y0292580D01*
X0407600Y0292723D01*
X0407536Y0292868D01*
X0407476Y0293014D01*
X0407420Y0293162D01*
X0407367Y0293311D01*
X0407318Y0293462D01*
X0407273Y0293614D01*
X0407232Y0293767D01*
X0407194Y0293920D01*
X0407161Y0294075D01*
X0407131Y0294231D01*
X0407105Y0294387D01*
X0407084Y0294544D01*
X0407066Y0294701D01*
X0407052Y0294859D01*
X0407042Y0295017D01*
X0407036Y0295175D01*
X0407034Y0295333D01*
X0027034Y0295333D02*
X0027036Y0295491D01*
X0027042Y0295649D01*
X0027052Y0295807D01*
X0027066Y0295965D01*
X0027084Y0296122D01*
X0027105Y0296279D01*
X0027131Y0296435D01*
X0027161Y0296591D01*
X0027194Y0296746D01*
X0027232Y0296899D01*
X0027273Y0297052D01*
X0027318Y0297204D01*
X0027367Y0297355D01*
X0027420Y0297504D01*
X0027476Y0297652D01*
X0027536Y0297798D01*
X0027600Y0297943D01*
X0027668Y0298086D01*
X0027739Y0298228D01*
X0027813Y0298368D01*
X0027891Y0298505D01*
X0027973Y0298641D01*
X0028057Y0298775D01*
X0028146Y0298906D01*
X0028237Y0299035D01*
X0028332Y0299162D01*
X0028429Y0299287D01*
X0028530Y0299409D01*
X0028634Y0299528D01*
X0028741Y0299645D01*
X0028851Y0299759D01*
X0028964Y0299870D01*
X0029079Y0299979D01*
X0029197Y0300084D01*
X0029318Y0300186D01*
X0029441Y0300286D01*
X0029567Y0300382D01*
X0029695Y0300475D01*
X0029825Y0300565D01*
X0029958Y0300651D01*
X0030093Y0300735D01*
X0030229Y0300814D01*
X0030368Y0300891D01*
X0030509Y0300963D01*
X0030651Y0301033D01*
X0030795Y0301098D01*
X0030941Y0301160D01*
X0031088Y0301218D01*
X0031237Y0301273D01*
X0031387Y0301324D01*
X0031538Y0301371D01*
X0031690Y0301414D01*
X0031843Y0301453D01*
X0031998Y0301489D01*
X0032153Y0301520D01*
X0032309Y0301548D01*
X0032465Y0301572D01*
X0032622Y0301592D01*
X0032780Y0301608D01*
X0032937Y0301620D01*
X0033096Y0301628D01*
X0033254Y0301632D01*
X0033412Y0301632D01*
X0033570Y0301628D01*
X0033729Y0301620D01*
X0033886Y0301608D01*
X0034044Y0301592D01*
X0034201Y0301572D01*
X0034357Y0301548D01*
X0034513Y0301520D01*
X0034668Y0301489D01*
X0034823Y0301453D01*
X0034976Y0301414D01*
X0035128Y0301371D01*
X0035279Y0301324D01*
X0035429Y0301273D01*
X0035578Y0301218D01*
X0035725Y0301160D01*
X0035871Y0301098D01*
X0036015Y0301033D01*
X0036157Y0300963D01*
X0036298Y0300891D01*
X0036437Y0300814D01*
X0036573Y0300735D01*
X0036708Y0300651D01*
X0036841Y0300565D01*
X0036971Y0300475D01*
X0037099Y0300382D01*
X0037225Y0300286D01*
X0037348Y0300186D01*
X0037469Y0300084D01*
X0037587Y0299979D01*
X0037702Y0299870D01*
X0037815Y0299759D01*
X0037925Y0299645D01*
X0038032Y0299528D01*
X0038136Y0299409D01*
X0038237Y0299287D01*
X0038334Y0299162D01*
X0038429Y0299035D01*
X0038520Y0298906D01*
X0038609Y0298775D01*
X0038693Y0298641D01*
X0038775Y0298505D01*
X0038853Y0298368D01*
X0038927Y0298228D01*
X0038998Y0298086D01*
X0039066Y0297943D01*
X0039130Y0297798D01*
X0039190Y0297652D01*
X0039246Y0297504D01*
X0039299Y0297355D01*
X0039348Y0297204D01*
X0039393Y0297052D01*
X0039434Y0296899D01*
X0039472Y0296746D01*
X0039505Y0296591D01*
X0039535Y0296435D01*
X0039561Y0296279D01*
X0039582Y0296122D01*
X0039600Y0295965D01*
X0039614Y0295807D01*
X0039624Y0295649D01*
X0039630Y0295491D01*
X0039632Y0295333D01*
X0039630Y0295175D01*
X0039624Y0295017D01*
X0039614Y0294859D01*
X0039600Y0294701D01*
X0039582Y0294544D01*
X0039561Y0294387D01*
X0039535Y0294231D01*
X0039505Y0294075D01*
X0039472Y0293920D01*
X0039434Y0293767D01*
X0039393Y0293614D01*
X0039348Y0293462D01*
X0039299Y0293311D01*
X0039246Y0293162D01*
X0039190Y0293014D01*
X0039130Y0292868D01*
X0039066Y0292723D01*
X0038998Y0292580D01*
X0038927Y0292438D01*
X0038853Y0292298D01*
X0038775Y0292161D01*
X0038693Y0292025D01*
X0038609Y0291891D01*
X0038520Y0291760D01*
X0038429Y0291631D01*
X0038334Y0291504D01*
X0038237Y0291379D01*
X0038136Y0291257D01*
X0038032Y0291138D01*
X0037925Y0291021D01*
X0037815Y0290907D01*
X0037702Y0290796D01*
X0037587Y0290687D01*
X0037469Y0290582D01*
X0037348Y0290480D01*
X0037225Y0290380D01*
X0037099Y0290284D01*
X0036971Y0290191D01*
X0036841Y0290101D01*
X0036708Y0290015D01*
X0036573Y0289931D01*
X0036437Y0289852D01*
X0036298Y0289775D01*
X0036157Y0289703D01*
X0036015Y0289633D01*
X0035871Y0289568D01*
X0035725Y0289506D01*
X0035578Y0289448D01*
X0035429Y0289393D01*
X0035279Y0289342D01*
X0035128Y0289295D01*
X0034976Y0289252D01*
X0034823Y0289213D01*
X0034668Y0289177D01*
X0034513Y0289146D01*
X0034357Y0289118D01*
X0034201Y0289094D01*
X0034044Y0289074D01*
X0033886Y0289058D01*
X0033729Y0289046D01*
X0033570Y0289038D01*
X0033412Y0289034D01*
X0033254Y0289034D01*
X0033096Y0289038D01*
X0032937Y0289046D01*
X0032780Y0289058D01*
X0032622Y0289074D01*
X0032465Y0289094D01*
X0032309Y0289118D01*
X0032153Y0289146D01*
X0031998Y0289177D01*
X0031843Y0289213D01*
X0031690Y0289252D01*
X0031538Y0289295D01*
X0031387Y0289342D01*
X0031237Y0289393D01*
X0031088Y0289448D01*
X0030941Y0289506D01*
X0030795Y0289568D01*
X0030651Y0289633D01*
X0030509Y0289703D01*
X0030368Y0289775D01*
X0030229Y0289852D01*
X0030093Y0289931D01*
X0029958Y0290015D01*
X0029825Y0290101D01*
X0029695Y0290191D01*
X0029567Y0290284D01*
X0029441Y0290380D01*
X0029318Y0290480D01*
X0029197Y0290582D01*
X0029079Y0290687D01*
X0028964Y0290796D01*
X0028851Y0290907D01*
X0028741Y0291021D01*
X0028634Y0291138D01*
X0028530Y0291257D01*
X0028429Y0291379D01*
X0028332Y0291504D01*
X0028237Y0291631D01*
X0028146Y0291760D01*
X0028057Y0291891D01*
X0027973Y0292025D01*
X0027891Y0292161D01*
X0027813Y0292298D01*
X0027739Y0292438D01*
X0027668Y0292580D01*
X0027600Y0292723D01*
X0027536Y0292868D01*
X0027476Y0293014D01*
X0027420Y0293162D01*
X0027367Y0293311D01*
X0027318Y0293462D01*
X0027273Y0293614D01*
X0027232Y0293767D01*
X0027194Y0293920D01*
X0027161Y0294075D01*
X0027131Y0294231D01*
X0027105Y0294387D01*
X0027084Y0294544D01*
X0027066Y0294701D01*
X0027052Y0294859D01*
X0027042Y0295017D01*
X0027036Y0295175D01*
X0027034Y0295333D01*
X0027034Y0085333D02*
X0027036Y0085491D01*
X0027042Y0085649D01*
X0027052Y0085807D01*
X0027066Y0085965D01*
X0027084Y0086122D01*
X0027105Y0086279D01*
X0027131Y0086435D01*
X0027161Y0086591D01*
X0027194Y0086746D01*
X0027232Y0086899D01*
X0027273Y0087052D01*
X0027318Y0087204D01*
X0027367Y0087355D01*
X0027420Y0087504D01*
X0027476Y0087652D01*
X0027536Y0087798D01*
X0027600Y0087943D01*
X0027668Y0088086D01*
X0027739Y0088228D01*
X0027813Y0088368D01*
X0027891Y0088505D01*
X0027973Y0088641D01*
X0028057Y0088775D01*
X0028146Y0088906D01*
X0028237Y0089035D01*
X0028332Y0089162D01*
X0028429Y0089287D01*
X0028530Y0089409D01*
X0028634Y0089528D01*
X0028741Y0089645D01*
X0028851Y0089759D01*
X0028964Y0089870D01*
X0029079Y0089979D01*
X0029197Y0090084D01*
X0029318Y0090186D01*
X0029441Y0090286D01*
X0029567Y0090382D01*
X0029695Y0090475D01*
X0029825Y0090565D01*
X0029958Y0090651D01*
X0030093Y0090735D01*
X0030229Y0090814D01*
X0030368Y0090891D01*
X0030509Y0090963D01*
X0030651Y0091033D01*
X0030795Y0091098D01*
X0030941Y0091160D01*
X0031088Y0091218D01*
X0031237Y0091273D01*
X0031387Y0091324D01*
X0031538Y0091371D01*
X0031690Y0091414D01*
X0031843Y0091453D01*
X0031998Y0091489D01*
X0032153Y0091520D01*
X0032309Y0091548D01*
X0032465Y0091572D01*
X0032622Y0091592D01*
X0032780Y0091608D01*
X0032937Y0091620D01*
X0033096Y0091628D01*
X0033254Y0091632D01*
X0033412Y0091632D01*
X0033570Y0091628D01*
X0033729Y0091620D01*
X0033886Y0091608D01*
X0034044Y0091592D01*
X0034201Y0091572D01*
X0034357Y0091548D01*
X0034513Y0091520D01*
X0034668Y0091489D01*
X0034823Y0091453D01*
X0034976Y0091414D01*
X0035128Y0091371D01*
X0035279Y0091324D01*
X0035429Y0091273D01*
X0035578Y0091218D01*
X0035725Y0091160D01*
X0035871Y0091098D01*
X0036015Y0091033D01*
X0036157Y0090963D01*
X0036298Y0090891D01*
X0036437Y0090814D01*
X0036573Y0090735D01*
X0036708Y0090651D01*
X0036841Y0090565D01*
X0036971Y0090475D01*
X0037099Y0090382D01*
X0037225Y0090286D01*
X0037348Y0090186D01*
X0037469Y0090084D01*
X0037587Y0089979D01*
X0037702Y0089870D01*
X0037815Y0089759D01*
X0037925Y0089645D01*
X0038032Y0089528D01*
X0038136Y0089409D01*
X0038237Y0089287D01*
X0038334Y0089162D01*
X0038429Y0089035D01*
X0038520Y0088906D01*
X0038609Y0088775D01*
X0038693Y0088641D01*
X0038775Y0088505D01*
X0038853Y0088368D01*
X0038927Y0088228D01*
X0038998Y0088086D01*
X0039066Y0087943D01*
X0039130Y0087798D01*
X0039190Y0087652D01*
X0039246Y0087504D01*
X0039299Y0087355D01*
X0039348Y0087204D01*
X0039393Y0087052D01*
X0039434Y0086899D01*
X0039472Y0086746D01*
X0039505Y0086591D01*
X0039535Y0086435D01*
X0039561Y0086279D01*
X0039582Y0086122D01*
X0039600Y0085965D01*
X0039614Y0085807D01*
X0039624Y0085649D01*
X0039630Y0085491D01*
X0039632Y0085333D01*
X0039630Y0085175D01*
X0039624Y0085017D01*
X0039614Y0084859D01*
X0039600Y0084701D01*
X0039582Y0084544D01*
X0039561Y0084387D01*
X0039535Y0084231D01*
X0039505Y0084075D01*
X0039472Y0083920D01*
X0039434Y0083767D01*
X0039393Y0083614D01*
X0039348Y0083462D01*
X0039299Y0083311D01*
X0039246Y0083162D01*
X0039190Y0083014D01*
X0039130Y0082868D01*
X0039066Y0082723D01*
X0038998Y0082580D01*
X0038927Y0082438D01*
X0038853Y0082298D01*
X0038775Y0082161D01*
X0038693Y0082025D01*
X0038609Y0081891D01*
X0038520Y0081760D01*
X0038429Y0081631D01*
X0038334Y0081504D01*
X0038237Y0081379D01*
X0038136Y0081257D01*
X0038032Y0081138D01*
X0037925Y0081021D01*
X0037815Y0080907D01*
X0037702Y0080796D01*
X0037587Y0080687D01*
X0037469Y0080582D01*
X0037348Y0080480D01*
X0037225Y0080380D01*
X0037099Y0080284D01*
X0036971Y0080191D01*
X0036841Y0080101D01*
X0036708Y0080015D01*
X0036573Y0079931D01*
X0036437Y0079852D01*
X0036298Y0079775D01*
X0036157Y0079703D01*
X0036015Y0079633D01*
X0035871Y0079568D01*
X0035725Y0079506D01*
X0035578Y0079448D01*
X0035429Y0079393D01*
X0035279Y0079342D01*
X0035128Y0079295D01*
X0034976Y0079252D01*
X0034823Y0079213D01*
X0034668Y0079177D01*
X0034513Y0079146D01*
X0034357Y0079118D01*
X0034201Y0079094D01*
X0034044Y0079074D01*
X0033886Y0079058D01*
X0033729Y0079046D01*
X0033570Y0079038D01*
X0033412Y0079034D01*
X0033254Y0079034D01*
X0033096Y0079038D01*
X0032937Y0079046D01*
X0032780Y0079058D01*
X0032622Y0079074D01*
X0032465Y0079094D01*
X0032309Y0079118D01*
X0032153Y0079146D01*
X0031998Y0079177D01*
X0031843Y0079213D01*
X0031690Y0079252D01*
X0031538Y0079295D01*
X0031387Y0079342D01*
X0031237Y0079393D01*
X0031088Y0079448D01*
X0030941Y0079506D01*
X0030795Y0079568D01*
X0030651Y0079633D01*
X0030509Y0079703D01*
X0030368Y0079775D01*
X0030229Y0079852D01*
X0030093Y0079931D01*
X0029958Y0080015D01*
X0029825Y0080101D01*
X0029695Y0080191D01*
X0029567Y0080284D01*
X0029441Y0080380D01*
X0029318Y0080480D01*
X0029197Y0080582D01*
X0029079Y0080687D01*
X0028964Y0080796D01*
X0028851Y0080907D01*
X0028741Y0081021D01*
X0028634Y0081138D01*
X0028530Y0081257D01*
X0028429Y0081379D01*
X0028332Y0081504D01*
X0028237Y0081631D01*
X0028146Y0081760D01*
X0028057Y0081891D01*
X0027973Y0082025D01*
X0027891Y0082161D01*
X0027813Y0082298D01*
X0027739Y0082438D01*
X0027668Y0082580D01*
X0027600Y0082723D01*
X0027536Y0082868D01*
X0027476Y0083014D01*
X0027420Y0083162D01*
X0027367Y0083311D01*
X0027318Y0083462D01*
X0027273Y0083614D01*
X0027232Y0083767D01*
X0027194Y0083920D01*
X0027161Y0084075D01*
X0027131Y0084231D01*
X0027105Y0084387D01*
X0027084Y0084544D01*
X0027066Y0084701D01*
X0027052Y0084859D01*
X0027042Y0085017D01*
X0027036Y0085175D01*
X0027034Y0085333D01*
D14*
X0107033Y0172833D02*
X0107033Y0175333D01*
X0107033Y0177833D01*
X0109533Y0177833D02*
X0109533Y0175333D01*
X0109533Y0172833D01*
X0109533Y0287833D02*
X0109533Y0290333D01*
X0109533Y0292833D01*
X0107033Y0292833D02*
X0107033Y0290333D01*
X0107033Y0287833D01*
X0317033Y0177833D02*
X0317033Y0175333D01*
X0317033Y0172833D01*
X0319533Y0172833D02*
X0319533Y0175333D01*
X0319533Y0177833D01*
X0367133Y0277833D02*
X0367133Y0280333D01*
X0367133Y0282833D01*
X0369633Y0282833D02*
X0369633Y0280333D01*
X0369633Y0277833D01*
X0405833Y0285333D02*
X0410833Y0282833D01*
X0410833Y0287833D01*
X0405833Y0285333D01*
X0406578Y0284961D02*
X0410833Y0284961D01*
X0410833Y0283763D02*
X0408975Y0283763D01*
X0407486Y0286160D02*
X0410833Y0286160D01*
X0410833Y0287358D02*
X0409883Y0287358D01*
D15*
X0403333Y0290333D02*
X0403333Y0281333D01*
X0402333Y0280333D01*
X0403333Y0279333D01*
X0403333Y0271333D01*
X0402333Y0270333D01*
X0403333Y0269333D01*
X0403333Y0261333D01*
X0402333Y0260333D01*
X0403333Y0259333D01*
X0403333Y0251333D01*
X0402333Y0250333D01*
X0403333Y0249333D01*
X0403333Y0240333D01*
X0393333Y0240333D01*
X0393333Y0249333D01*
X0394333Y0250333D01*
X0393333Y0251333D01*
X0393333Y0259333D01*
X0394333Y0260333D01*
X0393333Y0261333D01*
X0393333Y0269333D01*
X0394333Y0270333D01*
X0393333Y0271333D01*
X0393333Y0279333D01*
X0394333Y0280333D01*
X0393333Y0281333D01*
X0393333Y0290333D01*
X0403333Y0290333D01*
X0382833Y0285333D02*
X0382833Y0275333D01*
X0382831Y0275273D01*
X0382826Y0275212D01*
X0382817Y0275153D01*
X0382804Y0275094D01*
X0382788Y0275035D01*
X0382768Y0274978D01*
X0382745Y0274923D01*
X0382718Y0274868D01*
X0382689Y0274816D01*
X0382656Y0274765D01*
X0382620Y0274716D01*
X0382582Y0274670D01*
X0382540Y0274626D01*
X0382496Y0274584D01*
X0382450Y0274546D01*
X0382401Y0274510D01*
X0382350Y0274477D01*
X0382298Y0274448D01*
X0382243Y0274421D01*
X0382188Y0274398D01*
X0382131Y0274378D01*
X0382072Y0274362D01*
X0382013Y0274349D01*
X0381954Y0274340D01*
X0381893Y0274335D01*
X0381833Y0274333D01*
X0354833Y0274333D01*
X0354773Y0274335D01*
X0354712Y0274340D01*
X0354653Y0274349D01*
X0354594Y0274362D01*
X0354535Y0274378D01*
X0354478Y0274398D01*
X0354423Y0274421D01*
X0354368Y0274448D01*
X0354316Y0274477D01*
X0354265Y0274510D01*
X0354216Y0274546D01*
X0354170Y0274584D01*
X0354126Y0274626D01*
X0354084Y0274670D01*
X0354046Y0274716D01*
X0354010Y0274765D01*
X0353977Y0274816D01*
X0353948Y0274868D01*
X0353921Y0274923D01*
X0353898Y0274978D01*
X0353878Y0275035D01*
X0353862Y0275094D01*
X0353849Y0275153D01*
X0353840Y0275212D01*
X0353835Y0275273D01*
X0353833Y0275333D01*
X0353833Y0285333D01*
X0353835Y0285393D01*
X0353840Y0285454D01*
X0353849Y0285513D01*
X0353862Y0285572D01*
X0353878Y0285631D01*
X0353898Y0285688D01*
X0353921Y0285743D01*
X0353948Y0285798D01*
X0353977Y0285850D01*
X0354010Y0285901D01*
X0354046Y0285950D01*
X0354084Y0285996D01*
X0354126Y0286040D01*
X0354170Y0286082D01*
X0354216Y0286120D01*
X0354265Y0286156D01*
X0354316Y0286189D01*
X0354368Y0286218D01*
X0354423Y0286245D01*
X0354478Y0286268D01*
X0354535Y0286288D01*
X0354594Y0286304D01*
X0354653Y0286317D01*
X0354712Y0286326D01*
X0354773Y0286331D01*
X0354833Y0286333D01*
X0381833Y0286333D01*
X0381893Y0286331D01*
X0381954Y0286326D01*
X0382013Y0286317D01*
X0382072Y0286304D01*
X0382131Y0286288D01*
X0382188Y0286268D01*
X0382243Y0286245D01*
X0382298Y0286218D01*
X0382350Y0286189D01*
X0382401Y0286156D01*
X0382450Y0286120D01*
X0382496Y0286082D01*
X0382540Y0286040D01*
X0382582Y0285996D01*
X0382620Y0285950D01*
X0382656Y0285901D01*
X0382689Y0285850D01*
X0382718Y0285798D01*
X0382745Y0285743D01*
X0382768Y0285688D01*
X0382788Y0285631D01*
X0382804Y0285572D01*
X0382817Y0285513D01*
X0382826Y0285454D01*
X0382831Y0285393D01*
X0382833Y0285333D01*
X0377333Y0291333D02*
X0375833Y0291333D01*
X0375333Y0291833D01*
X0361333Y0291833D01*
X0360833Y0291333D01*
X0359333Y0291333D01*
X0359273Y0291335D01*
X0359212Y0291340D01*
X0359153Y0291349D01*
X0359094Y0291362D01*
X0359035Y0291378D01*
X0358978Y0291398D01*
X0358923Y0291421D01*
X0358868Y0291448D01*
X0358816Y0291477D01*
X0358765Y0291510D01*
X0358716Y0291546D01*
X0358670Y0291584D01*
X0358626Y0291626D01*
X0358584Y0291670D01*
X0358546Y0291716D01*
X0358510Y0291765D01*
X0358477Y0291816D01*
X0358448Y0291868D01*
X0358421Y0291923D01*
X0358398Y0291978D01*
X0358378Y0292035D01*
X0358362Y0292094D01*
X0358349Y0292153D01*
X0358340Y0292212D01*
X0358335Y0292273D01*
X0358333Y0292333D01*
X0358333Y0298333D01*
X0358335Y0298393D01*
X0358340Y0298454D01*
X0358349Y0298513D01*
X0358362Y0298572D01*
X0358378Y0298631D01*
X0358398Y0298688D01*
X0358421Y0298743D01*
X0358448Y0298798D01*
X0358477Y0298850D01*
X0358510Y0298901D01*
X0358546Y0298950D01*
X0358584Y0298996D01*
X0358626Y0299040D01*
X0358670Y0299082D01*
X0358716Y0299120D01*
X0358765Y0299156D01*
X0358816Y0299189D01*
X0358868Y0299218D01*
X0358923Y0299245D01*
X0358978Y0299268D01*
X0359035Y0299288D01*
X0359094Y0299304D01*
X0359153Y0299317D01*
X0359212Y0299326D01*
X0359273Y0299331D01*
X0359333Y0299333D01*
X0360833Y0299333D01*
X0361333Y0298833D01*
X0375333Y0298833D01*
X0375833Y0299333D01*
X0377333Y0299333D01*
X0377393Y0299331D01*
X0377454Y0299326D01*
X0377513Y0299317D01*
X0377572Y0299304D01*
X0377631Y0299288D01*
X0377688Y0299268D01*
X0377743Y0299245D01*
X0377798Y0299218D01*
X0377850Y0299189D01*
X0377901Y0299156D01*
X0377950Y0299120D01*
X0377996Y0299082D01*
X0378040Y0299040D01*
X0378082Y0298996D01*
X0378120Y0298950D01*
X0378156Y0298901D01*
X0378189Y0298850D01*
X0378218Y0298798D01*
X0378245Y0298743D01*
X0378268Y0298688D01*
X0378288Y0298631D01*
X0378304Y0298572D01*
X0378317Y0298513D01*
X0378326Y0298454D01*
X0378331Y0298393D01*
X0378333Y0298333D01*
X0378333Y0292333D01*
X0378331Y0292273D01*
X0378326Y0292212D01*
X0378317Y0292153D01*
X0378304Y0292094D01*
X0378288Y0292035D01*
X0378268Y0291978D01*
X0378245Y0291923D01*
X0378218Y0291868D01*
X0378189Y0291816D01*
X0378156Y0291765D01*
X0378120Y0291716D01*
X0378082Y0291670D01*
X0378040Y0291626D01*
X0377996Y0291584D01*
X0377950Y0291546D01*
X0377901Y0291510D01*
X0377850Y0291477D01*
X0377798Y0291448D01*
X0377743Y0291421D01*
X0377688Y0291398D01*
X0377631Y0291378D01*
X0377572Y0291362D01*
X0377513Y0291349D01*
X0377454Y0291340D01*
X0377393Y0291335D01*
X0377333Y0291333D01*
X0374333Y0280333D02*
X0369633Y0280333D01*
X0367133Y0280333D02*
X0362333Y0280333D01*
X0364333Y0270333D02*
X0356833Y0270333D01*
X0356833Y0200333D01*
X0379833Y0200333D01*
X0379833Y0270333D01*
X0372333Y0270333D01*
X0372331Y0270207D01*
X0372325Y0270082D01*
X0372315Y0269957D01*
X0372301Y0269832D01*
X0372284Y0269707D01*
X0372262Y0269583D01*
X0372237Y0269460D01*
X0372207Y0269338D01*
X0372174Y0269217D01*
X0372137Y0269097D01*
X0372097Y0268978D01*
X0372052Y0268861D01*
X0372004Y0268744D01*
X0371952Y0268630D01*
X0371897Y0268517D01*
X0371838Y0268406D01*
X0371776Y0268297D01*
X0371710Y0268190D01*
X0371641Y0268085D01*
X0371569Y0267982D01*
X0371494Y0267881D01*
X0371415Y0267783D01*
X0371333Y0267688D01*
X0371249Y0267595D01*
X0371161Y0267505D01*
X0371071Y0267417D01*
X0370978Y0267333D01*
X0370883Y0267251D01*
X0370785Y0267172D01*
X0370684Y0267097D01*
X0370581Y0267025D01*
X0370476Y0266956D01*
X0370369Y0266890D01*
X0370260Y0266828D01*
X0370149Y0266769D01*
X0370036Y0266714D01*
X0369922Y0266662D01*
X0369805Y0266614D01*
X0369688Y0266569D01*
X0369569Y0266529D01*
X0369449Y0266492D01*
X0369328Y0266459D01*
X0369206Y0266429D01*
X0369083Y0266404D01*
X0368959Y0266382D01*
X0368834Y0266365D01*
X0368709Y0266351D01*
X0368584Y0266341D01*
X0368459Y0266335D01*
X0368333Y0266333D01*
X0368207Y0266335D01*
X0368082Y0266341D01*
X0367957Y0266351D01*
X0367832Y0266365D01*
X0367707Y0266382D01*
X0367583Y0266404D01*
X0367460Y0266429D01*
X0367338Y0266459D01*
X0367217Y0266492D01*
X0367097Y0266529D01*
X0366978Y0266569D01*
X0366861Y0266614D01*
X0366744Y0266662D01*
X0366630Y0266714D01*
X0366517Y0266769D01*
X0366406Y0266828D01*
X0366297Y0266890D01*
X0366190Y0266956D01*
X0366085Y0267025D01*
X0365982Y0267097D01*
X0365881Y0267172D01*
X0365783Y0267251D01*
X0365688Y0267333D01*
X0365595Y0267417D01*
X0365505Y0267505D01*
X0365417Y0267595D01*
X0365333Y0267688D01*
X0365251Y0267783D01*
X0365172Y0267881D01*
X0365097Y0267982D01*
X0365025Y0268085D01*
X0364956Y0268190D01*
X0364890Y0268297D01*
X0364828Y0268406D01*
X0364769Y0268517D01*
X0364714Y0268630D01*
X0364662Y0268744D01*
X0364614Y0268861D01*
X0364569Y0268978D01*
X0364529Y0269097D01*
X0364492Y0269217D01*
X0364459Y0269338D01*
X0364429Y0269460D01*
X0364404Y0269583D01*
X0364382Y0269707D01*
X0364365Y0269832D01*
X0364351Y0269957D01*
X0364341Y0270082D01*
X0364335Y0270207D01*
X0364333Y0270333D01*
X0338333Y0292333D02*
X0338333Y0298333D01*
X0338331Y0298393D01*
X0338326Y0298454D01*
X0338317Y0298513D01*
X0338304Y0298572D01*
X0338288Y0298631D01*
X0338268Y0298688D01*
X0338245Y0298743D01*
X0338218Y0298798D01*
X0338189Y0298850D01*
X0338156Y0298901D01*
X0338120Y0298950D01*
X0338082Y0298996D01*
X0338040Y0299040D01*
X0337996Y0299082D01*
X0337950Y0299120D01*
X0337901Y0299156D01*
X0337850Y0299189D01*
X0337798Y0299218D01*
X0337743Y0299245D01*
X0337688Y0299268D01*
X0337631Y0299288D01*
X0337572Y0299304D01*
X0337513Y0299317D01*
X0337454Y0299326D01*
X0337393Y0299331D01*
X0337333Y0299333D01*
X0335833Y0299333D01*
X0335333Y0298833D01*
X0321333Y0298833D01*
X0320833Y0299333D01*
X0319333Y0299333D01*
X0319273Y0299331D01*
X0319212Y0299326D01*
X0319153Y0299317D01*
X0319094Y0299304D01*
X0319035Y0299288D01*
X0318978Y0299268D01*
X0318923Y0299245D01*
X0318868Y0299218D01*
X0318816Y0299189D01*
X0318765Y0299156D01*
X0318716Y0299120D01*
X0318670Y0299082D01*
X0318626Y0299040D01*
X0318584Y0298996D01*
X0318546Y0298950D01*
X0318510Y0298901D01*
X0318477Y0298850D01*
X0318448Y0298798D01*
X0318421Y0298743D01*
X0318398Y0298688D01*
X0318378Y0298631D01*
X0318362Y0298572D01*
X0318349Y0298513D01*
X0318340Y0298454D01*
X0318335Y0298393D01*
X0318333Y0298333D01*
X0318333Y0292333D01*
X0318335Y0292273D01*
X0318340Y0292212D01*
X0318349Y0292153D01*
X0318362Y0292094D01*
X0318378Y0292035D01*
X0318398Y0291978D01*
X0318421Y0291923D01*
X0318448Y0291868D01*
X0318477Y0291816D01*
X0318510Y0291765D01*
X0318546Y0291716D01*
X0318584Y0291670D01*
X0318626Y0291626D01*
X0318670Y0291584D01*
X0318716Y0291546D01*
X0318765Y0291510D01*
X0318816Y0291477D01*
X0318868Y0291448D01*
X0318923Y0291421D01*
X0318978Y0291398D01*
X0319035Y0291378D01*
X0319094Y0291362D01*
X0319153Y0291349D01*
X0319212Y0291340D01*
X0319273Y0291335D01*
X0319333Y0291333D01*
X0320833Y0291333D01*
X0321333Y0291833D01*
X0335333Y0291833D01*
X0335833Y0291333D01*
X0337333Y0291333D01*
X0337393Y0291335D01*
X0337454Y0291340D01*
X0337513Y0291349D01*
X0337572Y0291362D01*
X0337631Y0291378D01*
X0337688Y0291398D01*
X0337743Y0291421D01*
X0337798Y0291448D01*
X0337850Y0291477D01*
X0337901Y0291510D01*
X0337950Y0291546D01*
X0337996Y0291584D01*
X0338040Y0291626D01*
X0338082Y0291670D01*
X0338120Y0291716D01*
X0338156Y0291765D01*
X0338189Y0291816D01*
X0338218Y0291868D01*
X0338245Y0291923D01*
X0338268Y0291978D01*
X0338288Y0292035D01*
X0338304Y0292094D01*
X0338317Y0292153D01*
X0338326Y0292212D01*
X0338331Y0292273D01*
X0338333Y0292333D01*
X0329833Y0280333D02*
X0322333Y0280333D01*
X0322331Y0280207D01*
X0322325Y0280082D01*
X0322315Y0279957D01*
X0322301Y0279832D01*
X0322284Y0279707D01*
X0322262Y0279583D01*
X0322237Y0279460D01*
X0322207Y0279338D01*
X0322174Y0279217D01*
X0322137Y0279097D01*
X0322097Y0278978D01*
X0322052Y0278861D01*
X0322004Y0278744D01*
X0321952Y0278630D01*
X0321897Y0278517D01*
X0321838Y0278406D01*
X0321776Y0278297D01*
X0321710Y0278190D01*
X0321641Y0278085D01*
X0321569Y0277982D01*
X0321494Y0277881D01*
X0321415Y0277783D01*
X0321333Y0277688D01*
X0321249Y0277595D01*
X0321161Y0277505D01*
X0321071Y0277417D01*
X0320978Y0277333D01*
X0320883Y0277251D01*
X0320785Y0277172D01*
X0320684Y0277097D01*
X0320581Y0277025D01*
X0320476Y0276956D01*
X0320369Y0276890D01*
X0320260Y0276828D01*
X0320149Y0276769D01*
X0320036Y0276714D01*
X0319922Y0276662D01*
X0319805Y0276614D01*
X0319688Y0276569D01*
X0319569Y0276529D01*
X0319449Y0276492D01*
X0319328Y0276459D01*
X0319206Y0276429D01*
X0319083Y0276404D01*
X0318959Y0276382D01*
X0318834Y0276365D01*
X0318709Y0276351D01*
X0318584Y0276341D01*
X0318459Y0276335D01*
X0318333Y0276333D01*
X0318207Y0276335D01*
X0318082Y0276341D01*
X0317957Y0276351D01*
X0317832Y0276365D01*
X0317707Y0276382D01*
X0317583Y0276404D01*
X0317460Y0276429D01*
X0317338Y0276459D01*
X0317217Y0276492D01*
X0317097Y0276529D01*
X0316978Y0276569D01*
X0316861Y0276614D01*
X0316744Y0276662D01*
X0316630Y0276714D01*
X0316517Y0276769D01*
X0316406Y0276828D01*
X0316297Y0276890D01*
X0316190Y0276956D01*
X0316085Y0277025D01*
X0315982Y0277097D01*
X0315881Y0277172D01*
X0315783Y0277251D01*
X0315688Y0277333D01*
X0315595Y0277417D01*
X0315505Y0277505D01*
X0315417Y0277595D01*
X0315333Y0277688D01*
X0315251Y0277783D01*
X0315172Y0277881D01*
X0315097Y0277982D01*
X0315025Y0278085D01*
X0314956Y0278190D01*
X0314890Y0278297D01*
X0314828Y0278406D01*
X0314769Y0278517D01*
X0314714Y0278630D01*
X0314662Y0278744D01*
X0314614Y0278861D01*
X0314569Y0278978D01*
X0314529Y0279097D01*
X0314492Y0279217D01*
X0314459Y0279338D01*
X0314429Y0279460D01*
X0314404Y0279583D01*
X0314382Y0279707D01*
X0314365Y0279832D01*
X0314351Y0279957D01*
X0314341Y0280082D01*
X0314335Y0280207D01*
X0314333Y0280333D01*
X0306833Y0280333D01*
X0306833Y0200333D01*
X0329833Y0200333D01*
X0329833Y0280333D01*
X0290333Y0278333D02*
X0290333Y0275333D01*
X0290333Y0272333D01*
X0290333Y0275333D02*
X0286333Y0278333D01*
X0286333Y0272333D01*
X0290333Y0275333D01*
X0290333Y0268333D02*
X0290333Y0265333D01*
X0290333Y0262333D01*
X0290333Y0265333D02*
X0286333Y0268333D01*
X0286333Y0262333D01*
X0290333Y0265333D01*
X0290333Y0258333D02*
X0290333Y0255333D01*
X0290333Y0252333D01*
X0290333Y0255333D02*
X0286333Y0258333D01*
X0286333Y0252333D01*
X0290333Y0255333D01*
X0290333Y0248333D02*
X0290333Y0245333D01*
X0290333Y0242333D01*
X0290333Y0245333D02*
X0286333Y0248333D01*
X0286333Y0242333D01*
X0290333Y0245333D01*
X0290333Y0238333D02*
X0290333Y0235333D01*
X0290333Y0232333D01*
X0290333Y0235333D02*
X0286333Y0238333D01*
X0286333Y0232333D01*
X0290333Y0235333D01*
X0290333Y0228333D02*
X0290333Y0225333D01*
X0290333Y0222333D01*
X0290333Y0225333D02*
X0286333Y0228333D01*
X0286333Y0222333D01*
X0290333Y0225333D01*
X0290333Y0218333D02*
X0290333Y0215333D01*
X0290333Y0212333D01*
X0290333Y0215333D02*
X0286333Y0218333D01*
X0286333Y0212333D01*
X0290333Y0215333D01*
X0308333Y0195333D02*
X0310833Y0197833D01*
X0315833Y0197833D01*
X0318333Y0195333D01*
X0320833Y0197833D01*
X0325833Y0197833D01*
X0328333Y0195333D01*
X0330833Y0197833D01*
X0335833Y0197833D01*
X0338333Y0195333D01*
X0340833Y0197833D01*
X0345833Y0197833D01*
X0348333Y0195333D01*
X0348333Y0190333D01*
X0345833Y0187833D01*
X0340833Y0187833D01*
X0338333Y0190333D01*
X0335833Y0187833D01*
X0330833Y0187833D01*
X0328333Y0190333D01*
X0325833Y0187833D01*
X0320833Y0187833D01*
X0318333Y0190333D01*
X0315833Y0187833D01*
X0310833Y0187833D01*
X0308333Y0190333D01*
X0308333Y0195333D01*
X0304833Y0181333D02*
X0331833Y0181333D01*
X0331893Y0181331D01*
X0331954Y0181326D01*
X0332013Y0181317D01*
X0332072Y0181304D01*
X0332131Y0181288D01*
X0332188Y0181268D01*
X0332243Y0181245D01*
X0332298Y0181218D01*
X0332350Y0181189D01*
X0332401Y0181156D01*
X0332450Y0181120D01*
X0332496Y0181082D01*
X0332540Y0181040D01*
X0332582Y0180996D01*
X0332620Y0180950D01*
X0332656Y0180901D01*
X0332689Y0180850D01*
X0332718Y0180798D01*
X0332745Y0180743D01*
X0332768Y0180688D01*
X0332788Y0180631D01*
X0332804Y0180572D01*
X0332817Y0180513D01*
X0332826Y0180454D01*
X0332831Y0180393D01*
X0332833Y0180333D01*
X0332833Y0170333D01*
X0332831Y0170273D01*
X0332826Y0170212D01*
X0332817Y0170153D01*
X0332804Y0170094D01*
X0332788Y0170035D01*
X0332768Y0169978D01*
X0332745Y0169923D01*
X0332718Y0169868D01*
X0332689Y0169816D01*
X0332656Y0169765D01*
X0332620Y0169716D01*
X0332582Y0169670D01*
X0332540Y0169626D01*
X0332496Y0169584D01*
X0332450Y0169546D01*
X0332401Y0169510D01*
X0332350Y0169477D01*
X0332298Y0169448D01*
X0332243Y0169421D01*
X0332188Y0169398D01*
X0332131Y0169378D01*
X0332072Y0169362D01*
X0332013Y0169349D01*
X0331954Y0169340D01*
X0331893Y0169335D01*
X0331833Y0169333D01*
X0304833Y0169333D01*
X0304773Y0169335D01*
X0304712Y0169340D01*
X0304653Y0169349D01*
X0304594Y0169362D01*
X0304535Y0169378D01*
X0304478Y0169398D01*
X0304423Y0169421D01*
X0304368Y0169448D01*
X0304316Y0169477D01*
X0304265Y0169510D01*
X0304216Y0169546D01*
X0304170Y0169584D01*
X0304126Y0169626D01*
X0304084Y0169670D01*
X0304046Y0169716D01*
X0304010Y0169765D01*
X0303977Y0169816D01*
X0303948Y0169868D01*
X0303921Y0169923D01*
X0303898Y0169978D01*
X0303878Y0170035D01*
X0303862Y0170094D01*
X0303849Y0170153D01*
X0303840Y0170212D01*
X0303835Y0170273D01*
X0303833Y0170333D01*
X0303833Y0180333D01*
X0303835Y0180393D01*
X0303840Y0180454D01*
X0303849Y0180513D01*
X0303862Y0180572D01*
X0303878Y0180631D01*
X0303898Y0180688D01*
X0303921Y0180743D01*
X0303948Y0180798D01*
X0303977Y0180850D01*
X0304010Y0180901D01*
X0304046Y0180950D01*
X0304084Y0180996D01*
X0304126Y0181040D01*
X0304170Y0181082D01*
X0304216Y0181120D01*
X0304265Y0181156D01*
X0304316Y0181189D01*
X0304368Y0181218D01*
X0304423Y0181245D01*
X0304478Y0181268D01*
X0304535Y0181288D01*
X0304594Y0181304D01*
X0304653Y0181317D01*
X0304712Y0181326D01*
X0304773Y0181331D01*
X0304833Y0181333D01*
X0312333Y0175333D02*
X0317033Y0175333D01*
X0319533Y0175333D02*
X0324333Y0175333D01*
X0322333Y0165333D02*
X0329833Y0165333D01*
X0329833Y0085333D01*
X0306833Y0085333D01*
X0306833Y0165333D01*
X0314333Y0165333D01*
X0314335Y0165207D01*
X0314341Y0165082D01*
X0314351Y0164957D01*
X0314365Y0164832D01*
X0314382Y0164707D01*
X0314404Y0164583D01*
X0314429Y0164460D01*
X0314459Y0164338D01*
X0314492Y0164217D01*
X0314529Y0164097D01*
X0314569Y0163978D01*
X0314614Y0163861D01*
X0314662Y0163744D01*
X0314714Y0163630D01*
X0314769Y0163517D01*
X0314828Y0163406D01*
X0314890Y0163297D01*
X0314956Y0163190D01*
X0315025Y0163085D01*
X0315097Y0162982D01*
X0315172Y0162881D01*
X0315251Y0162783D01*
X0315333Y0162688D01*
X0315417Y0162595D01*
X0315505Y0162505D01*
X0315595Y0162417D01*
X0315688Y0162333D01*
X0315783Y0162251D01*
X0315881Y0162172D01*
X0315982Y0162097D01*
X0316085Y0162025D01*
X0316190Y0161956D01*
X0316297Y0161890D01*
X0316406Y0161828D01*
X0316517Y0161769D01*
X0316630Y0161714D01*
X0316744Y0161662D01*
X0316861Y0161614D01*
X0316978Y0161569D01*
X0317097Y0161529D01*
X0317217Y0161492D01*
X0317338Y0161459D01*
X0317460Y0161429D01*
X0317583Y0161404D01*
X0317707Y0161382D01*
X0317832Y0161365D01*
X0317957Y0161351D01*
X0318082Y0161341D01*
X0318207Y0161335D01*
X0318333Y0161333D01*
X0318459Y0161335D01*
X0318584Y0161341D01*
X0318709Y0161351D01*
X0318834Y0161365D01*
X0318959Y0161382D01*
X0319083Y0161404D01*
X0319206Y0161429D01*
X0319328Y0161459D01*
X0319449Y0161492D01*
X0319569Y0161529D01*
X0319688Y0161569D01*
X0319805Y0161614D01*
X0319922Y0161662D01*
X0320036Y0161714D01*
X0320149Y0161769D01*
X0320260Y0161828D01*
X0320369Y0161890D01*
X0320476Y0161956D01*
X0320581Y0162025D01*
X0320684Y0162097D01*
X0320785Y0162172D01*
X0320883Y0162251D01*
X0320978Y0162333D01*
X0321071Y0162417D01*
X0321161Y0162505D01*
X0321249Y0162595D01*
X0321333Y0162688D01*
X0321415Y0162783D01*
X0321494Y0162881D01*
X0321569Y0162982D01*
X0321641Y0163085D01*
X0321710Y0163190D01*
X0321776Y0163297D01*
X0321838Y0163406D01*
X0321897Y0163517D01*
X0321952Y0163630D01*
X0322004Y0163744D01*
X0322052Y0163861D01*
X0322097Y0163978D01*
X0322137Y0164097D01*
X0322174Y0164217D01*
X0322207Y0164338D01*
X0322237Y0164460D01*
X0322262Y0164583D01*
X0322284Y0164707D01*
X0322301Y0164832D01*
X0322315Y0164957D01*
X0322325Y0165082D01*
X0322331Y0165207D01*
X0322333Y0165333D01*
X0290333Y0163333D02*
X0290333Y0160333D01*
X0290333Y0157333D01*
X0290333Y0160333D02*
X0286333Y0163333D01*
X0286333Y0157333D01*
X0290333Y0160333D01*
X0290333Y0153333D02*
X0290333Y0150333D01*
X0290333Y0147333D01*
X0290333Y0150333D02*
X0286333Y0153333D01*
X0286333Y0147333D01*
X0290333Y0150333D01*
X0290333Y0143333D02*
X0290333Y0140333D01*
X0290333Y0137333D01*
X0290333Y0140333D02*
X0286333Y0143333D01*
X0286333Y0137333D01*
X0290333Y0140333D01*
X0290333Y0133333D02*
X0290333Y0130333D01*
X0290333Y0127333D01*
X0290333Y0130333D02*
X0286333Y0133333D01*
X0286333Y0127333D01*
X0290333Y0130333D01*
X0290333Y0123333D02*
X0290333Y0120333D01*
X0290333Y0117333D01*
X0290333Y0120333D02*
X0286333Y0123333D01*
X0286333Y0117333D01*
X0290333Y0120333D01*
X0290333Y0113333D02*
X0290333Y0110333D01*
X0290333Y0107333D01*
X0290333Y0110333D02*
X0286333Y0113333D01*
X0286333Y0107333D01*
X0290333Y0110333D01*
X0290333Y0103333D02*
X0290333Y0100333D01*
X0290333Y0097333D01*
X0290333Y0100333D02*
X0286333Y0103333D01*
X0286333Y0097333D01*
X0290333Y0100333D01*
X0259833Y0085333D02*
X0236833Y0085333D01*
X0236833Y0165333D01*
X0244333Y0165333D01*
X0244335Y0165207D01*
X0244341Y0165082D01*
X0244351Y0164957D01*
X0244365Y0164832D01*
X0244382Y0164707D01*
X0244404Y0164583D01*
X0244429Y0164460D01*
X0244459Y0164338D01*
X0244492Y0164217D01*
X0244529Y0164097D01*
X0244569Y0163978D01*
X0244614Y0163861D01*
X0244662Y0163744D01*
X0244714Y0163630D01*
X0244769Y0163517D01*
X0244828Y0163406D01*
X0244890Y0163297D01*
X0244956Y0163190D01*
X0245025Y0163085D01*
X0245097Y0162982D01*
X0245172Y0162881D01*
X0245251Y0162783D01*
X0245333Y0162688D01*
X0245417Y0162595D01*
X0245505Y0162505D01*
X0245595Y0162417D01*
X0245688Y0162333D01*
X0245783Y0162251D01*
X0245881Y0162172D01*
X0245982Y0162097D01*
X0246085Y0162025D01*
X0246190Y0161956D01*
X0246297Y0161890D01*
X0246406Y0161828D01*
X0246517Y0161769D01*
X0246630Y0161714D01*
X0246744Y0161662D01*
X0246861Y0161614D01*
X0246978Y0161569D01*
X0247097Y0161529D01*
X0247217Y0161492D01*
X0247338Y0161459D01*
X0247460Y0161429D01*
X0247583Y0161404D01*
X0247707Y0161382D01*
X0247832Y0161365D01*
X0247957Y0161351D01*
X0248082Y0161341D01*
X0248207Y0161335D01*
X0248333Y0161333D01*
X0248459Y0161335D01*
X0248584Y0161341D01*
X0248709Y0161351D01*
X0248834Y0161365D01*
X0248959Y0161382D01*
X0249083Y0161404D01*
X0249206Y0161429D01*
X0249328Y0161459D01*
X0249449Y0161492D01*
X0249569Y0161529D01*
X0249688Y0161569D01*
X0249805Y0161614D01*
X0249922Y0161662D01*
X0250036Y0161714D01*
X0250149Y0161769D01*
X0250260Y0161828D01*
X0250369Y0161890D01*
X0250476Y0161956D01*
X0250581Y0162025D01*
X0250684Y0162097D01*
X0250785Y0162172D01*
X0250883Y0162251D01*
X0250978Y0162333D01*
X0251071Y0162417D01*
X0251161Y0162505D01*
X0251249Y0162595D01*
X0251333Y0162688D01*
X0251415Y0162783D01*
X0251494Y0162881D01*
X0251569Y0162982D01*
X0251641Y0163085D01*
X0251710Y0163190D01*
X0251776Y0163297D01*
X0251838Y0163406D01*
X0251897Y0163517D01*
X0251952Y0163630D01*
X0252004Y0163744D01*
X0252052Y0163861D01*
X0252097Y0163978D01*
X0252137Y0164097D01*
X0252174Y0164217D01*
X0252207Y0164338D01*
X0252237Y0164460D01*
X0252262Y0164583D01*
X0252284Y0164707D01*
X0252301Y0164832D01*
X0252315Y0164957D01*
X0252325Y0165082D01*
X0252331Y0165207D01*
X0252333Y0165333D01*
X0259833Y0165333D01*
X0259833Y0085333D01*
X0220333Y0097333D02*
X0220333Y0100333D01*
X0220333Y0103333D01*
X0220333Y0100333D02*
X0216333Y0103333D01*
X0216333Y0097333D01*
X0220333Y0100333D01*
X0220333Y0107333D02*
X0220333Y0110333D01*
X0220333Y0113333D01*
X0220333Y0110333D02*
X0216333Y0113333D01*
X0216333Y0107333D01*
X0220333Y0110333D01*
X0220333Y0117333D02*
X0220333Y0120333D01*
X0220333Y0123333D01*
X0220333Y0120333D02*
X0216333Y0123333D01*
X0216333Y0117333D01*
X0220333Y0120333D01*
X0220333Y0127333D02*
X0220333Y0130333D01*
X0220333Y0133333D01*
X0220333Y0130333D02*
X0216333Y0133333D01*
X0216333Y0127333D01*
X0220333Y0130333D01*
X0220333Y0137333D02*
X0220333Y0140333D01*
X0220333Y0143333D01*
X0220333Y0140333D02*
X0216333Y0143333D01*
X0216333Y0137333D01*
X0220333Y0140333D01*
X0220333Y0147333D02*
X0220333Y0150333D01*
X0220333Y0153333D01*
X0220333Y0150333D02*
X0216333Y0153333D01*
X0216333Y0147333D01*
X0220333Y0150333D01*
X0220333Y0157333D02*
X0220333Y0160333D01*
X0220333Y0163333D01*
X0220333Y0160333D02*
X0216333Y0163333D01*
X0216333Y0157333D01*
X0220333Y0160333D01*
X0220333Y0167333D02*
X0220333Y0170333D01*
X0220333Y0173333D01*
X0220333Y0170333D02*
X0216333Y0173333D01*
X0216333Y0167333D01*
X0220333Y0170333D01*
X0206333Y0155333D02*
X0200333Y0155333D01*
X0200273Y0155331D01*
X0200212Y0155326D01*
X0200153Y0155317D01*
X0200094Y0155304D01*
X0200035Y0155288D01*
X0199978Y0155268D01*
X0199923Y0155245D01*
X0199868Y0155218D01*
X0199816Y0155189D01*
X0199765Y0155156D01*
X0199716Y0155120D01*
X0199670Y0155082D01*
X0199626Y0155040D01*
X0199584Y0154996D01*
X0199546Y0154950D01*
X0199510Y0154901D01*
X0199477Y0154850D01*
X0199448Y0154798D01*
X0199421Y0154743D01*
X0199398Y0154688D01*
X0199378Y0154631D01*
X0199362Y0154572D01*
X0199349Y0154513D01*
X0199340Y0154454D01*
X0199335Y0154393D01*
X0199333Y0154333D01*
X0199333Y0152833D01*
X0199833Y0152333D01*
X0199833Y0138333D01*
X0199333Y0137833D01*
X0199333Y0136333D01*
X0199335Y0136273D01*
X0199340Y0136212D01*
X0199349Y0136153D01*
X0199362Y0136094D01*
X0199378Y0136035D01*
X0199398Y0135978D01*
X0199421Y0135923D01*
X0199448Y0135868D01*
X0199477Y0135816D01*
X0199510Y0135765D01*
X0199546Y0135716D01*
X0199584Y0135670D01*
X0199626Y0135626D01*
X0199670Y0135584D01*
X0199716Y0135546D01*
X0199765Y0135510D01*
X0199816Y0135477D01*
X0199868Y0135448D01*
X0199923Y0135421D01*
X0199978Y0135398D01*
X0200035Y0135378D01*
X0200094Y0135362D01*
X0200153Y0135349D01*
X0200212Y0135340D01*
X0200273Y0135335D01*
X0200333Y0135333D01*
X0206333Y0135333D01*
X0206393Y0135335D01*
X0206454Y0135340D01*
X0206513Y0135349D01*
X0206572Y0135362D01*
X0206631Y0135378D01*
X0206688Y0135398D01*
X0206743Y0135421D01*
X0206798Y0135448D01*
X0206850Y0135477D01*
X0206901Y0135510D01*
X0206950Y0135546D01*
X0206996Y0135584D01*
X0207040Y0135626D01*
X0207082Y0135670D01*
X0207120Y0135716D01*
X0207156Y0135765D01*
X0207189Y0135816D01*
X0207218Y0135868D01*
X0207245Y0135923D01*
X0207268Y0135978D01*
X0207288Y0136035D01*
X0207304Y0136094D01*
X0207317Y0136153D01*
X0207326Y0136212D01*
X0207331Y0136273D01*
X0207333Y0136333D01*
X0207333Y0137833D01*
X0206833Y0138333D01*
X0206833Y0152333D01*
X0207333Y0152833D01*
X0207333Y0154333D01*
X0207331Y0154393D01*
X0207326Y0154454D01*
X0207317Y0154513D01*
X0207304Y0154572D01*
X0207288Y0154631D01*
X0207268Y0154688D01*
X0207245Y0154743D01*
X0207218Y0154798D01*
X0207189Y0154850D01*
X0207156Y0154901D01*
X0207120Y0154950D01*
X0207082Y0154996D01*
X0207040Y0155040D01*
X0206996Y0155082D01*
X0206950Y0155120D01*
X0206901Y0155156D01*
X0206850Y0155189D01*
X0206798Y0155218D01*
X0206743Y0155245D01*
X0206688Y0155268D01*
X0206631Y0155288D01*
X0206572Y0155304D01*
X0206513Y0155317D01*
X0206454Y0155326D01*
X0206393Y0155331D01*
X0206333Y0155333D01*
X0189833Y0165333D02*
X0182333Y0165333D01*
X0182331Y0165207D01*
X0182325Y0165082D01*
X0182315Y0164957D01*
X0182301Y0164832D01*
X0182284Y0164707D01*
X0182262Y0164583D01*
X0182237Y0164460D01*
X0182207Y0164338D01*
X0182174Y0164217D01*
X0182137Y0164097D01*
X0182097Y0163978D01*
X0182052Y0163861D01*
X0182004Y0163744D01*
X0181952Y0163630D01*
X0181897Y0163517D01*
X0181838Y0163406D01*
X0181776Y0163297D01*
X0181710Y0163190D01*
X0181641Y0163085D01*
X0181569Y0162982D01*
X0181494Y0162881D01*
X0181415Y0162783D01*
X0181333Y0162688D01*
X0181249Y0162595D01*
X0181161Y0162505D01*
X0181071Y0162417D01*
X0180978Y0162333D01*
X0180883Y0162251D01*
X0180785Y0162172D01*
X0180684Y0162097D01*
X0180581Y0162025D01*
X0180476Y0161956D01*
X0180369Y0161890D01*
X0180260Y0161828D01*
X0180149Y0161769D01*
X0180036Y0161714D01*
X0179922Y0161662D01*
X0179805Y0161614D01*
X0179688Y0161569D01*
X0179569Y0161529D01*
X0179449Y0161492D01*
X0179328Y0161459D01*
X0179206Y0161429D01*
X0179083Y0161404D01*
X0178959Y0161382D01*
X0178834Y0161365D01*
X0178709Y0161351D01*
X0178584Y0161341D01*
X0178459Y0161335D01*
X0178333Y0161333D01*
X0178207Y0161335D01*
X0178082Y0161341D01*
X0177957Y0161351D01*
X0177832Y0161365D01*
X0177707Y0161382D01*
X0177583Y0161404D01*
X0177460Y0161429D01*
X0177338Y0161459D01*
X0177217Y0161492D01*
X0177097Y0161529D01*
X0176978Y0161569D01*
X0176861Y0161614D01*
X0176744Y0161662D01*
X0176630Y0161714D01*
X0176517Y0161769D01*
X0176406Y0161828D01*
X0176297Y0161890D01*
X0176190Y0161956D01*
X0176085Y0162025D01*
X0175982Y0162097D01*
X0175881Y0162172D01*
X0175783Y0162251D01*
X0175688Y0162333D01*
X0175595Y0162417D01*
X0175505Y0162505D01*
X0175417Y0162595D01*
X0175333Y0162688D01*
X0175251Y0162783D01*
X0175172Y0162881D01*
X0175097Y0162982D01*
X0175025Y0163085D01*
X0174956Y0163190D01*
X0174890Y0163297D01*
X0174828Y0163406D01*
X0174769Y0163517D01*
X0174714Y0163630D01*
X0174662Y0163744D01*
X0174614Y0163861D01*
X0174569Y0163978D01*
X0174529Y0164097D01*
X0174492Y0164217D01*
X0174459Y0164338D01*
X0174429Y0164460D01*
X0174404Y0164583D01*
X0174382Y0164707D01*
X0174365Y0164832D01*
X0174351Y0164957D01*
X0174341Y0165082D01*
X0174335Y0165207D01*
X0174333Y0165333D01*
X0166833Y0165333D01*
X0166833Y0085333D01*
X0189833Y0085333D01*
X0189833Y0165333D01*
X0150333Y0163333D02*
X0150333Y0160333D01*
X0150333Y0157333D01*
X0150333Y0160333D02*
X0146333Y0163333D01*
X0146333Y0157333D01*
X0150333Y0160333D01*
X0150333Y0153333D02*
X0150333Y0150333D01*
X0150333Y0147333D01*
X0150333Y0150333D02*
X0146333Y0153333D01*
X0146333Y0147333D01*
X0150333Y0150333D01*
X0150333Y0143333D02*
X0150333Y0140333D01*
X0150333Y0137333D01*
X0150333Y0140333D02*
X0146333Y0143333D01*
X0146333Y0137333D01*
X0150333Y0140333D01*
X0150333Y0133333D02*
X0150333Y0130333D01*
X0150333Y0127333D01*
X0150333Y0130333D02*
X0146333Y0133333D01*
X0146333Y0127333D01*
X0150333Y0130333D01*
X0150333Y0123333D02*
X0150333Y0120333D01*
X0150333Y0117333D01*
X0150333Y0120333D02*
X0146333Y0123333D01*
X0146333Y0117333D01*
X0150333Y0120333D01*
X0150333Y0113333D02*
X0150333Y0110333D01*
X0150333Y0107333D01*
X0150333Y0110333D02*
X0146333Y0113333D01*
X0146333Y0107333D01*
X0150333Y0110333D01*
X0150333Y0103333D02*
X0150333Y0100333D01*
X0150333Y0097333D01*
X0150333Y0100333D02*
X0146333Y0103333D01*
X0146333Y0097333D01*
X0150333Y0100333D01*
X0119833Y0085333D02*
X0096833Y0085333D01*
X0096833Y0165333D01*
X0104333Y0165333D01*
X0104335Y0165207D01*
X0104341Y0165082D01*
X0104351Y0164957D01*
X0104365Y0164832D01*
X0104382Y0164707D01*
X0104404Y0164583D01*
X0104429Y0164460D01*
X0104459Y0164338D01*
X0104492Y0164217D01*
X0104529Y0164097D01*
X0104569Y0163978D01*
X0104614Y0163861D01*
X0104662Y0163744D01*
X0104714Y0163630D01*
X0104769Y0163517D01*
X0104828Y0163406D01*
X0104890Y0163297D01*
X0104956Y0163190D01*
X0105025Y0163085D01*
X0105097Y0162982D01*
X0105172Y0162881D01*
X0105251Y0162783D01*
X0105333Y0162688D01*
X0105417Y0162595D01*
X0105505Y0162505D01*
X0105595Y0162417D01*
X0105688Y0162333D01*
X0105783Y0162251D01*
X0105881Y0162172D01*
X0105982Y0162097D01*
X0106085Y0162025D01*
X0106190Y0161956D01*
X0106297Y0161890D01*
X0106406Y0161828D01*
X0106517Y0161769D01*
X0106630Y0161714D01*
X0106744Y0161662D01*
X0106861Y0161614D01*
X0106978Y0161569D01*
X0107097Y0161529D01*
X0107217Y0161492D01*
X0107338Y0161459D01*
X0107460Y0161429D01*
X0107583Y0161404D01*
X0107707Y0161382D01*
X0107832Y0161365D01*
X0107957Y0161351D01*
X0108082Y0161341D01*
X0108207Y0161335D01*
X0108333Y0161333D01*
X0108459Y0161335D01*
X0108584Y0161341D01*
X0108709Y0161351D01*
X0108834Y0161365D01*
X0108959Y0161382D01*
X0109083Y0161404D01*
X0109206Y0161429D01*
X0109328Y0161459D01*
X0109449Y0161492D01*
X0109569Y0161529D01*
X0109688Y0161569D01*
X0109805Y0161614D01*
X0109922Y0161662D01*
X0110036Y0161714D01*
X0110149Y0161769D01*
X0110260Y0161828D01*
X0110369Y0161890D01*
X0110476Y0161956D01*
X0110581Y0162025D01*
X0110684Y0162097D01*
X0110785Y0162172D01*
X0110883Y0162251D01*
X0110978Y0162333D01*
X0111071Y0162417D01*
X0111161Y0162505D01*
X0111249Y0162595D01*
X0111333Y0162688D01*
X0111415Y0162783D01*
X0111494Y0162881D01*
X0111569Y0162982D01*
X0111641Y0163085D01*
X0111710Y0163190D01*
X0111776Y0163297D01*
X0111838Y0163406D01*
X0111897Y0163517D01*
X0111952Y0163630D01*
X0112004Y0163744D01*
X0112052Y0163861D01*
X0112097Y0163978D01*
X0112137Y0164097D01*
X0112174Y0164217D01*
X0112207Y0164338D01*
X0112237Y0164460D01*
X0112262Y0164583D01*
X0112284Y0164707D01*
X0112301Y0164832D01*
X0112315Y0164957D01*
X0112325Y0165082D01*
X0112331Y0165207D01*
X0112333Y0165333D01*
X0119833Y0165333D01*
X0119833Y0085333D01*
X0080333Y0097333D02*
X0080333Y0100333D01*
X0080333Y0103333D01*
X0080333Y0100333D02*
X0076333Y0103333D01*
X0076333Y0097333D01*
X0080333Y0100333D01*
X0080333Y0107333D02*
X0080333Y0110333D01*
X0080333Y0113333D01*
X0080333Y0110333D02*
X0076333Y0113333D01*
X0076333Y0107333D01*
X0080333Y0110333D01*
X0080333Y0117333D02*
X0080333Y0120333D01*
X0080333Y0123333D01*
X0080333Y0120333D02*
X0076333Y0117333D01*
X0076333Y0123333D01*
X0080333Y0120333D01*
X0080333Y0127333D02*
X0080333Y0130333D01*
X0080333Y0133333D01*
X0080333Y0130333D02*
X0076333Y0133333D01*
X0076333Y0127333D01*
X0080333Y0130333D01*
X0080333Y0137333D02*
X0080333Y0140333D01*
X0080333Y0143333D01*
X0080333Y0140333D02*
X0076333Y0143333D01*
X0076333Y0137333D01*
X0080333Y0140333D01*
X0080333Y0147333D02*
X0080333Y0150333D01*
X0080333Y0153333D01*
X0080333Y0150333D02*
X0076333Y0153333D01*
X0076333Y0147333D01*
X0080333Y0150333D01*
X0080333Y0157333D02*
X0080333Y0160333D01*
X0080333Y0163333D01*
X0080333Y0160333D02*
X0076333Y0163333D01*
X0076333Y0157333D01*
X0080333Y0160333D01*
X0080333Y0167333D02*
X0080333Y0170333D01*
X0080333Y0173333D01*
X0080333Y0170333D02*
X0076333Y0173333D01*
X0076333Y0167333D01*
X0080333Y0170333D01*
X0093833Y0170333D02*
X0093833Y0180333D01*
X0093835Y0180393D01*
X0093840Y0180454D01*
X0093849Y0180513D01*
X0093862Y0180572D01*
X0093878Y0180631D01*
X0093898Y0180688D01*
X0093921Y0180743D01*
X0093948Y0180798D01*
X0093977Y0180850D01*
X0094010Y0180901D01*
X0094046Y0180950D01*
X0094084Y0180996D01*
X0094126Y0181040D01*
X0094170Y0181082D01*
X0094216Y0181120D01*
X0094265Y0181156D01*
X0094316Y0181189D01*
X0094368Y0181218D01*
X0094423Y0181245D01*
X0094478Y0181268D01*
X0094535Y0181288D01*
X0094594Y0181304D01*
X0094653Y0181317D01*
X0094712Y0181326D01*
X0094773Y0181331D01*
X0094833Y0181333D01*
X0121833Y0181333D01*
X0121893Y0181331D01*
X0121954Y0181326D01*
X0122013Y0181317D01*
X0122072Y0181304D01*
X0122131Y0181288D01*
X0122188Y0181268D01*
X0122243Y0181245D01*
X0122298Y0181218D01*
X0122350Y0181189D01*
X0122401Y0181156D01*
X0122450Y0181120D01*
X0122496Y0181082D01*
X0122540Y0181040D01*
X0122582Y0180996D01*
X0122620Y0180950D01*
X0122656Y0180901D01*
X0122689Y0180850D01*
X0122718Y0180798D01*
X0122745Y0180743D01*
X0122768Y0180688D01*
X0122788Y0180631D01*
X0122804Y0180572D01*
X0122817Y0180513D01*
X0122826Y0180454D01*
X0122831Y0180393D01*
X0122833Y0180333D01*
X0122833Y0170333D01*
X0122831Y0170273D01*
X0122826Y0170212D01*
X0122817Y0170153D01*
X0122804Y0170094D01*
X0122788Y0170035D01*
X0122768Y0169978D01*
X0122745Y0169923D01*
X0122718Y0169868D01*
X0122689Y0169816D01*
X0122656Y0169765D01*
X0122620Y0169716D01*
X0122582Y0169670D01*
X0122540Y0169626D01*
X0122496Y0169584D01*
X0122450Y0169546D01*
X0122401Y0169510D01*
X0122350Y0169477D01*
X0122298Y0169448D01*
X0122243Y0169421D01*
X0122188Y0169398D01*
X0122131Y0169378D01*
X0122072Y0169362D01*
X0122013Y0169349D01*
X0121954Y0169340D01*
X0121893Y0169335D01*
X0121833Y0169333D01*
X0094833Y0169333D01*
X0094773Y0169335D01*
X0094712Y0169340D01*
X0094653Y0169349D01*
X0094594Y0169362D01*
X0094535Y0169378D01*
X0094478Y0169398D01*
X0094423Y0169421D01*
X0094368Y0169448D01*
X0094316Y0169477D01*
X0094265Y0169510D01*
X0094216Y0169546D01*
X0094170Y0169584D01*
X0094126Y0169626D01*
X0094084Y0169670D01*
X0094046Y0169716D01*
X0094010Y0169765D01*
X0093977Y0169816D01*
X0093948Y0169868D01*
X0093921Y0169923D01*
X0093898Y0169978D01*
X0093878Y0170035D01*
X0093862Y0170094D01*
X0093849Y0170153D01*
X0093840Y0170212D01*
X0093835Y0170273D01*
X0093833Y0170333D01*
X0102333Y0175333D02*
X0107033Y0175333D01*
X0109533Y0175333D02*
X0114333Y0175333D01*
X0130333Y0155333D02*
X0136333Y0155333D01*
X0136393Y0155331D01*
X0136454Y0155326D01*
X0136513Y0155317D01*
X0136572Y0155304D01*
X0136631Y0155288D01*
X0136688Y0155268D01*
X0136743Y0155245D01*
X0136798Y0155218D01*
X0136850Y0155189D01*
X0136901Y0155156D01*
X0136950Y0155120D01*
X0136996Y0155082D01*
X0137040Y0155040D01*
X0137082Y0154996D01*
X0137120Y0154950D01*
X0137156Y0154901D01*
X0137189Y0154850D01*
X0137218Y0154798D01*
X0137245Y0154743D01*
X0137268Y0154688D01*
X0137288Y0154631D01*
X0137304Y0154572D01*
X0137317Y0154513D01*
X0137326Y0154454D01*
X0137331Y0154393D01*
X0137333Y0154333D01*
X0137333Y0152833D01*
X0136833Y0152333D01*
X0136833Y0138333D01*
X0137333Y0137833D01*
X0137333Y0136333D01*
X0137331Y0136273D01*
X0137326Y0136212D01*
X0137317Y0136153D01*
X0137304Y0136094D01*
X0137288Y0136035D01*
X0137268Y0135978D01*
X0137245Y0135923D01*
X0137218Y0135868D01*
X0137189Y0135816D01*
X0137156Y0135765D01*
X0137120Y0135716D01*
X0137082Y0135670D01*
X0137040Y0135626D01*
X0136996Y0135584D01*
X0136950Y0135546D01*
X0136901Y0135510D01*
X0136850Y0135477D01*
X0136798Y0135448D01*
X0136743Y0135421D01*
X0136688Y0135398D01*
X0136631Y0135378D01*
X0136572Y0135362D01*
X0136513Y0135349D01*
X0136454Y0135340D01*
X0136393Y0135335D01*
X0136333Y0135333D01*
X0130333Y0135333D01*
X0130273Y0135335D01*
X0130212Y0135340D01*
X0130153Y0135349D01*
X0130094Y0135362D01*
X0130035Y0135378D01*
X0129978Y0135398D01*
X0129923Y0135421D01*
X0129868Y0135448D01*
X0129816Y0135477D01*
X0129765Y0135510D01*
X0129716Y0135546D01*
X0129670Y0135584D01*
X0129626Y0135626D01*
X0129584Y0135670D01*
X0129546Y0135716D01*
X0129510Y0135765D01*
X0129477Y0135816D01*
X0129448Y0135868D01*
X0129421Y0135923D01*
X0129398Y0135978D01*
X0129378Y0136035D01*
X0129362Y0136094D01*
X0129349Y0136153D01*
X0129340Y0136212D01*
X0129335Y0136273D01*
X0129333Y0136333D01*
X0129333Y0137833D01*
X0129833Y0138333D01*
X0129833Y0152333D01*
X0129333Y0152833D01*
X0129333Y0154333D01*
X0129335Y0154393D01*
X0129340Y0154454D01*
X0129349Y0154513D01*
X0129362Y0154572D01*
X0129378Y0154631D01*
X0129398Y0154688D01*
X0129421Y0154743D01*
X0129448Y0154798D01*
X0129477Y0154850D01*
X0129510Y0154901D01*
X0129546Y0154950D01*
X0129584Y0154996D01*
X0129626Y0155040D01*
X0129670Y0155082D01*
X0129716Y0155120D01*
X0129765Y0155156D01*
X0129816Y0155189D01*
X0129868Y0155218D01*
X0129923Y0155245D01*
X0129978Y0155268D01*
X0130035Y0155288D01*
X0130094Y0155304D01*
X0130153Y0155317D01*
X0130212Y0155326D01*
X0130273Y0155331D01*
X0130333Y0155333D01*
X0146333Y0167333D02*
X0146333Y0173333D01*
X0150333Y0170333D01*
X0150333Y0173333D01*
X0150333Y0170333D02*
X0150333Y0167333D01*
X0150333Y0170333D02*
X0146333Y0167333D01*
X0166833Y0200333D02*
X0189833Y0200333D01*
X0189833Y0280333D01*
X0182333Y0280333D01*
X0182331Y0280207D01*
X0182325Y0280082D01*
X0182315Y0279957D01*
X0182301Y0279832D01*
X0182284Y0279707D01*
X0182262Y0279583D01*
X0182237Y0279460D01*
X0182207Y0279338D01*
X0182174Y0279217D01*
X0182137Y0279097D01*
X0182097Y0278978D01*
X0182052Y0278861D01*
X0182004Y0278744D01*
X0181952Y0278630D01*
X0181897Y0278517D01*
X0181838Y0278406D01*
X0181776Y0278297D01*
X0181710Y0278190D01*
X0181641Y0278085D01*
X0181569Y0277982D01*
X0181494Y0277881D01*
X0181415Y0277783D01*
X0181333Y0277688D01*
X0181249Y0277595D01*
X0181161Y0277505D01*
X0181071Y0277417D01*
X0180978Y0277333D01*
X0180883Y0277251D01*
X0180785Y0277172D01*
X0180684Y0277097D01*
X0180581Y0277025D01*
X0180476Y0276956D01*
X0180369Y0276890D01*
X0180260Y0276828D01*
X0180149Y0276769D01*
X0180036Y0276714D01*
X0179922Y0276662D01*
X0179805Y0276614D01*
X0179688Y0276569D01*
X0179569Y0276529D01*
X0179449Y0276492D01*
X0179328Y0276459D01*
X0179206Y0276429D01*
X0179083Y0276404D01*
X0178959Y0276382D01*
X0178834Y0276365D01*
X0178709Y0276351D01*
X0178584Y0276341D01*
X0178459Y0276335D01*
X0178333Y0276333D01*
X0178207Y0276335D01*
X0178082Y0276341D01*
X0177957Y0276351D01*
X0177832Y0276365D01*
X0177707Y0276382D01*
X0177583Y0276404D01*
X0177460Y0276429D01*
X0177338Y0276459D01*
X0177217Y0276492D01*
X0177097Y0276529D01*
X0176978Y0276569D01*
X0176861Y0276614D01*
X0176744Y0276662D01*
X0176630Y0276714D01*
X0176517Y0276769D01*
X0176406Y0276828D01*
X0176297Y0276890D01*
X0176190Y0276956D01*
X0176085Y0277025D01*
X0175982Y0277097D01*
X0175881Y0277172D01*
X0175783Y0277251D01*
X0175688Y0277333D01*
X0175595Y0277417D01*
X0175505Y0277505D01*
X0175417Y0277595D01*
X0175333Y0277688D01*
X0175251Y0277783D01*
X0175172Y0277881D01*
X0175097Y0277982D01*
X0175025Y0278085D01*
X0174956Y0278190D01*
X0174890Y0278297D01*
X0174828Y0278406D01*
X0174769Y0278517D01*
X0174714Y0278630D01*
X0174662Y0278744D01*
X0174614Y0278861D01*
X0174569Y0278978D01*
X0174529Y0279097D01*
X0174492Y0279217D01*
X0174459Y0279338D01*
X0174429Y0279460D01*
X0174404Y0279583D01*
X0174382Y0279707D01*
X0174365Y0279832D01*
X0174351Y0279957D01*
X0174341Y0280082D01*
X0174335Y0280207D01*
X0174333Y0280333D01*
X0166833Y0280333D01*
X0166833Y0200333D01*
X0150333Y0212333D02*
X0150333Y0215333D01*
X0150333Y0218333D01*
X0150333Y0215333D02*
X0146333Y0218333D01*
X0146333Y0212333D01*
X0150333Y0215333D01*
X0150333Y0222333D02*
X0150333Y0225333D01*
X0150333Y0228333D01*
X0150333Y0225333D02*
X0146333Y0228333D01*
X0146333Y0222333D01*
X0150333Y0225333D01*
X0150333Y0232333D02*
X0150333Y0235333D01*
X0150333Y0238333D01*
X0150333Y0235333D02*
X0146333Y0238333D01*
X0146333Y0232333D01*
X0150333Y0235333D01*
X0150333Y0242333D02*
X0150333Y0245333D01*
X0150333Y0248333D01*
X0150333Y0245333D02*
X0146333Y0248333D01*
X0146333Y0242333D01*
X0150333Y0245333D01*
X0150333Y0252333D02*
X0150333Y0255333D01*
X0150333Y0258333D01*
X0150333Y0255333D02*
X0146333Y0258333D01*
X0146333Y0252333D01*
X0150333Y0255333D01*
X0150333Y0262333D02*
X0150333Y0265333D01*
X0150333Y0268333D01*
X0150333Y0265333D02*
X0146333Y0268333D01*
X0146333Y0262333D01*
X0150333Y0265333D01*
X0150333Y0272333D02*
X0150333Y0275333D01*
X0150333Y0278333D01*
X0150333Y0275333D02*
X0146333Y0278333D01*
X0146333Y0272333D01*
X0150333Y0275333D01*
X0150333Y0282333D02*
X0150333Y0285333D01*
X0150333Y0288333D01*
X0150333Y0285333D02*
X0146333Y0288333D01*
X0146333Y0282333D01*
X0150333Y0285333D01*
X0136333Y0270333D02*
X0130333Y0270333D01*
X0130273Y0270331D01*
X0130212Y0270326D01*
X0130153Y0270317D01*
X0130094Y0270304D01*
X0130035Y0270288D01*
X0129978Y0270268D01*
X0129923Y0270245D01*
X0129868Y0270218D01*
X0129816Y0270189D01*
X0129765Y0270156D01*
X0129716Y0270120D01*
X0129670Y0270082D01*
X0129626Y0270040D01*
X0129584Y0269996D01*
X0129546Y0269950D01*
X0129510Y0269901D01*
X0129477Y0269850D01*
X0129448Y0269798D01*
X0129421Y0269743D01*
X0129398Y0269688D01*
X0129378Y0269631D01*
X0129362Y0269572D01*
X0129349Y0269513D01*
X0129340Y0269454D01*
X0129335Y0269393D01*
X0129333Y0269333D01*
X0129333Y0267833D01*
X0129833Y0267333D01*
X0129833Y0253333D01*
X0129333Y0252833D01*
X0129333Y0251333D01*
X0129335Y0251273D01*
X0129340Y0251212D01*
X0129349Y0251153D01*
X0129362Y0251094D01*
X0129378Y0251035D01*
X0129398Y0250978D01*
X0129421Y0250923D01*
X0129448Y0250868D01*
X0129477Y0250816D01*
X0129510Y0250765D01*
X0129546Y0250716D01*
X0129584Y0250670D01*
X0129626Y0250626D01*
X0129670Y0250584D01*
X0129716Y0250546D01*
X0129765Y0250510D01*
X0129816Y0250477D01*
X0129868Y0250448D01*
X0129923Y0250421D01*
X0129978Y0250398D01*
X0130035Y0250378D01*
X0130094Y0250362D01*
X0130153Y0250349D01*
X0130212Y0250340D01*
X0130273Y0250335D01*
X0130333Y0250333D01*
X0136333Y0250333D01*
X0136393Y0250335D01*
X0136454Y0250340D01*
X0136513Y0250349D01*
X0136572Y0250362D01*
X0136631Y0250378D01*
X0136688Y0250398D01*
X0136743Y0250421D01*
X0136798Y0250448D01*
X0136850Y0250477D01*
X0136901Y0250510D01*
X0136950Y0250546D01*
X0136996Y0250584D01*
X0137040Y0250626D01*
X0137082Y0250670D01*
X0137120Y0250716D01*
X0137156Y0250765D01*
X0137189Y0250816D01*
X0137218Y0250868D01*
X0137245Y0250923D01*
X0137268Y0250978D01*
X0137288Y0251035D01*
X0137304Y0251094D01*
X0137317Y0251153D01*
X0137326Y0251212D01*
X0137331Y0251273D01*
X0137333Y0251333D01*
X0137333Y0252833D01*
X0136833Y0253333D01*
X0136833Y0267333D01*
X0137333Y0267833D01*
X0137333Y0269333D01*
X0137331Y0269393D01*
X0137326Y0269454D01*
X0137317Y0269513D01*
X0137304Y0269572D01*
X0137288Y0269631D01*
X0137268Y0269688D01*
X0137245Y0269743D01*
X0137218Y0269798D01*
X0137189Y0269850D01*
X0137156Y0269901D01*
X0137120Y0269950D01*
X0137082Y0269996D01*
X0137040Y0270040D01*
X0136996Y0270082D01*
X0136950Y0270120D01*
X0136901Y0270156D01*
X0136850Y0270189D01*
X0136798Y0270218D01*
X0136743Y0270245D01*
X0136688Y0270268D01*
X0136631Y0270288D01*
X0136572Y0270304D01*
X0136513Y0270317D01*
X0136454Y0270326D01*
X0136393Y0270331D01*
X0136333Y0270333D01*
X0119833Y0280333D02*
X0112333Y0280333D01*
X0112331Y0280207D01*
X0112325Y0280082D01*
X0112315Y0279957D01*
X0112301Y0279832D01*
X0112284Y0279707D01*
X0112262Y0279583D01*
X0112237Y0279460D01*
X0112207Y0279338D01*
X0112174Y0279217D01*
X0112137Y0279097D01*
X0112097Y0278978D01*
X0112052Y0278861D01*
X0112004Y0278744D01*
X0111952Y0278630D01*
X0111897Y0278517D01*
X0111838Y0278406D01*
X0111776Y0278297D01*
X0111710Y0278190D01*
X0111641Y0278085D01*
X0111569Y0277982D01*
X0111494Y0277881D01*
X0111415Y0277783D01*
X0111333Y0277688D01*
X0111249Y0277595D01*
X0111161Y0277505D01*
X0111071Y0277417D01*
X0110978Y0277333D01*
X0110883Y0277251D01*
X0110785Y0277172D01*
X0110684Y0277097D01*
X0110581Y0277025D01*
X0110476Y0276956D01*
X0110369Y0276890D01*
X0110260Y0276828D01*
X0110149Y0276769D01*
X0110036Y0276714D01*
X0109922Y0276662D01*
X0109805Y0276614D01*
X0109688Y0276569D01*
X0109569Y0276529D01*
X0109449Y0276492D01*
X0109328Y0276459D01*
X0109206Y0276429D01*
X0109083Y0276404D01*
X0108959Y0276382D01*
X0108834Y0276365D01*
X0108709Y0276351D01*
X0108584Y0276341D01*
X0108459Y0276335D01*
X0108333Y0276333D01*
X0108207Y0276335D01*
X0108082Y0276341D01*
X0107957Y0276351D01*
X0107832Y0276365D01*
X0107707Y0276382D01*
X0107583Y0276404D01*
X0107460Y0276429D01*
X0107338Y0276459D01*
X0107217Y0276492D01*
X0107097Y0276529D01*
X0106978Y0276569D01*
X0106861Y0276614D01*
X0106744Y0276662D01*
X0106630Y0276714D01*
X0106517Y0276769D01*
X0106406Y0276828D01*
X0106297Y0276890D01*
X0106190Y0276956D01*
X0106085Y0277025D01*
X0105982Y0277097D01*
X0105881Y0277172D01*
X0105783Y0277251D01*
X0105688Y0277333D01*
X0105595Y0277417D01*
X0105505Y0277505D01*
X0105417Y0277595D01*
X0105333Y0277688D01*
X0105251Y0277783D01*
X0105172Y0277881D01*
X0105097Y0277982D01*
X0105025Y0278085D01*
X0104956Y0278190D01*
X0104890Y0278297D01*
X0104828Y0278406D01*
X0104769Y0278517D01*
X0104714Y0278630D01*
X0104662Y0278744D01*
X0104614Y0278861D01*
X0104569Y0278978D01*
X0104529Y0279097D01*
X0104492Y0279217D01*
X0104459Y0279338D01*
X0104429Y0279460D01*
X0104404Y0279583D01*
X0104382Y0279707D01*
X0104365Y0279832D01*
X0104351Y0279957D01*
X0104341Y0280082D01*
X0104335Y0280207D01*
X0104333Y0280333D01*
X0096833Y0280333D01*
X0096833Y0200333D01*
X0119833Y0200333D01*
X0119833Y0280333D01*
X0121833Y0284333D02*
X0094833Y0284333D01*
X0094773Y0284335D01*
X0094712Y0284340D01*
X0094653Y0284349D01*
X0094594Y0284362D01*
X0094535Y0284378D01*
X0094478Y0284398D01*
X0094423Y0284421D01*
X0094368Y0284448D01*
X0094316Y0284477D01*
X0094265Y0284510D01*
X0094216Y0284546D01*
X0094170Y0284584D01*
X0094126Y0284626D01*
X0094084Y0284670D01*
X0094046Y0284716D01*
X0094010Y0284765D01*
X0093977Y0284816D01*
X0093948Y0284868D01*
X0093921Y0284923D01*
X0093898Y0284978D01*
X0093878Y0285035D01*
X0093862Y0285094D01*
X0093849Y0285153D01*
X0093840Y0285212D01*
X0093835Y0285273D01*
X0093833Y0285333D01*
X0093833Y0295333D01*
X0093835Y0295393D01*
X0093840Y0295454D01*
X0093849Y0295513D01*
X0093862Y0295572D01*
X0093878Y0295631D01*
X0093898Y0295688D01*
X0093921Y0295743D01*
X0093948Y0295798D01*
X0093977Y0295850D01*
X0094010Y0295901D01*
X0094046Y0295950D01*
X0094084Y0295996D01*
X0094126Y0296040D01*
X0094170Y0296082D01*
X0094216Y0296120D01*
X0094265Y0296156D01*
X0094316Y0296189D01*
X0094368Y0296218D01*
X0094423Y0296245D01*
X0094478Y0296268D01*
X0094535Y0296288D01*
X0094594Y0296304D01*
X0094653Y0296317D01*
X0094712Y0296326D01*
X0094773Y0296331D01*
X0094833Y0296333D01*
X0121833Y0296333D01*
X0121893Y0296331D01*
X0121954Y0296326D01*
X0122013Y0296317D01*
X0122072Y0296304D01*
X0122131Y0296288D01*
X0122188Y0296268D01*
X0122243Y0296245D01*
X0122298Y0296218D01*
X0122350Y0296189D01*
X0122401Y0296156D01*
X0122450Y0296120D01*
X0122496Y0296082D01*
X0122540Y0296040D01*
X0122582Y0295996D01*
X0122620Y0295950D01*
X0122656Y0295901D01*
X0122689Y0295850D01*
X0122718Y0295798D01*
X0122745Y0295743D01*
X0122768Y0295688D01*
X0122788Y0295631D01*
X0122804Y0295572D01*
X0122817Y0295513D01*
X0122826Y0295454D01*
X0122831Y0295393D01*
X0122833Y0295333D01*
X0122833Y0285333D01*
X0122831Y0285273D01*
X0122826Y0285212D01*
X0122817Y0285153D01*
X0122804Y0285094D01*
X0122788Y0285035D01*
X0122768Y0284978D01*
X0122745Y0284923D01*
X0122718Y0284868D01*
X0122689Y0284816D01*
X0122656Y0284765D01*
X0122620Y0284716D01*
X0122582Y0284670D01*
X0122540Y0284626D01*
X0122496Y0284584D01*
X0122450Y0284546D01*
X0122401Y0284510D01*
X0122350Y0284477D01*
X0122298Y0284448D01*
X0122243Y0284421D01*
X0122188Y0284398D01*
X0122131Y0284378D01*
X0122072Y0284362D01*
X0122013Y0284349D01*
X0121954Y0284340D01*
X0121893Y0284335D01*
X0121833Y0284333D01*
X0114333Y0290333D02*
X0109533Y0290333D01*
X0107033Y0290333D02*
X0102333Y0290333D01*
X0080333Y0288333D02*
X0080333Y0285333D01*
X0080333Y0282333D01*
X0080333Y0285333D02*
X0076333Y0288333D01*
X0076333Y0282333D01*
X0080333Y0285333D01*
X0080333Y0278333D02*
X0080333Y0275333D01*
X0080333Y0272333D01*
X0080333Y0275333D02*
X0076333Y0278333D01*
X0076333Y0272333D01*
X0080333Y0275333D01*
X0080333Y0268333D02*
X0080333Y0265333D01*
X0080333Y0262333D01*
X0080333Y0265333D02*
X0076333Y0268333D01*
X0076333Y0262333D01*
X0080333Y0265333D01*
X0080333Y0258333D02*
X0080333Y0255333D01*
X0080333Y0252333D01*
X0080333Y0255333D02*
X0076333Y0258333D01*
X0076333Y0252333D01*
X0080333Y0255333D01*
X0080333Y0248333D02*
X0080333Y0245333D01*
X0080333Y0242333D01*
X0080333Y0245333D02*
X0076333Y0248333D01*
X0076333Y0242333D01*
X0080333Y0245333D01*
X0080333Y0238333D02*
X0080333Y0235333D01*
X0080333Y0232333D01*
X0080333Y0235333D02*
X0076333Y0238333D01*
X0076333Y0232333D01*
X0080333Y0235333D01*
X0080333Y0228333D02*
X0080333Y0225333D01*
X0080333Y0222333D01*
X0080333Y0225333D02*
X0076333Y0228333D01*
X0076333Y0222333D01*
X0080333Y0225333D01*
X0080333Y0218333D02*
X0080333Y0215333D01*
X0080333Y0212333D01*
X0080333Y0215333D02*
X0076333Y0218333D01*
X0076333Y0212333D01*
X0080333Y0215333D01*
X0038333Y0213833D02*
X0038333Y0221833D01*
X0037333Y0222833D01*
X0038333Y0223833D01*
X0038333Y0231833D01*
X0037333Y0232833D01*
X0038333Y0233833D01*
X0038333Y0241833D01*
X0037333Y0242833D01*
X0038333Y0243833D01*
X0038333Y0251833D01*
X0037333Y0252833D01*
X0038333Y0253833D01*
X0038333Y0261833D01*
X0037333Y0262833D01*
X0038333Y0263833D01*
X0038333Y0271833D01*
X0037333Y0272833D01*
X0038333Y0273833D01*
X0038333Y0282833D01*
X0028333Y0282833D01*
X0028333Y0273833D01*
X0029333Y0272833D01*
X0028333Y0271833D01*
X0028333Y0263833D01*
X0029333Y0262833D01*
X0028333Y0261833D01*
X0028333Y0253833D01*
X0029333Y0252833D01*
X0028333Y0251833D01*
X0028333Y0243833D01*
X0029333Y0242833D01*
X0028333Y0241833D01*
X0028333Y0233833D01*
X0029333Y0232833D01*
X0028333Y0231833D01*
X0028333Y0223833D01*
X0029333Y0222833D01*
X0028333Y0221833D01*
X0028333Y0213833D01*
X0029333Y0212833D01*
X0028333Y0211833D01*
X0028333Y0202833D01*
X0038333Y0202833D01*
X0038333Y0211833D01*
X0037333Y0212833D01*
X0038333Y0213833D01*
X0038333Y0190333D02*
X0028333Y0190333D01*
X0028333Y0181333D01*
X0029333Y0180333D01*
X0028333Y0179333D01*
X0028333Y0171333D01*
X0029333Y0170333D01*
X0028333Y0169333D01*
X0028333Y0161333D01*
X0029333Y0160333D01*
X0028333Y0159333D01*
X0028333Y0151333D01*
X0029333Y0150333D01*
X0028333Y0149333D01*
X0028333Y0141333D01*
X0029333Y0140333D01*
X0028333Y0139333D01*
X0028333Y0131333D01*
X0029333Y0130333D01*
X0028333Y0129333D01*
X0028333Y0121333D01*
X0029333Y0120333D01*
X0028333Y0119333D01*
X0028333Y0110333D01*
X0038333Y0110333D01*
X0038333Y0119333D01*
X0037333Y0120333D01*
X0038333Y0121333D01*
X0038333Y0129333D01*
X0037333Y0130333D01*
X0038333Y0131333D01*
X0038333Y0139333D01*
X0037333Y0140333D01*
X0038333Y0141333D01*
X0038333Y0149333D01*
X0037333Y0150333D01*
X0038333Y0151333D01*
X0038333Y0159333D01*
X0037333Y0160333D01*
X0038333Y0161333D01*
X0038333Y0169333D01*
X0037333Y0170333D01*
X0038333Y0171333D01*
X0038333Y0179333D01*
X0037333Y0180333D01*
X0038333Y0181333D01*
X0038333Y0190333D01*
X0049333Y0090333D02*
X0048333Y0089333D01*
X0048333Y0081333D01*
X0049333Y0080333D01*
X0057333Y0080333D01*
X0058333Y0081333D01*
X0059333Y0080333D01*
X0067333Y0080333D01*
X0068333Y0081333D01*
X0068333Y0089333D01*
X0067333Y0090333D01*
X0059333Y0090333D01*
X0058333Y0089333D01*
X0057333Y0090333D01*
X0049333Y0090333D01*
X0216333Y0212333D02*
X0216333Y0218333D01*
X0220333Y0215333D01*
X0220333Y0218333D01*
X0220333Y0215333D02*
X0220333Y0212333D01*
X0220333Y0215333D02*
X0216333Y0212333D01*
X0216333Y0222333D02*
X0216333Y0228333D01*
X0220333Y0225333D01*
X0220333Y0228333D01*
X0220333Y0225333D02*
X0220333Y0222333D01*
X0220333Y0225333D02*
X0216333Y0222333D01*
X0216333Y0232333D02*
X0216333Y0238333D01*
X0220333Y0235333D01*
X0220333Y0238333D01*
X0220333Y0235333D02*
X0220333Y0232333D01*
X0220333Y0235333D02*
X0216333Y0232333D01*
X0216333Y0242333D02*
X0216333Y0248333D01*
X0220333Y0245333D01*
X0220333Y0248333D01*
X0220333Y0245333D02*
X0220333Y0242333D01*
X0220333Y0245333D02*
X0216333Y0242333D01*
X0216333Y0252333D02*
X0216333Y0258333D01*
X0220333Y0255333D01*
X0220333Y0258333D01*
X0220333Y0255333D02*
X0220333Y0252333D01*
X0220333Y0255333D02*
X0216333Y0252333D01*
X0207333Y0252833D02*
X0206833Y0253333D01*
X0206833Y0267333D01*
X0207333Y0267833D01*
X0207333Y0269333D01*
X0207331Y0269393D01*
X0207326Y0269454D01*
X0207317Y0269513D01*
X0207304Y0269572D01*
X0207288Y0269631D01*
X0207268Y0269688D01*
X0207245Y0269743D01*
X0207218Y0269798D01*
X0207189Y0269850D01*
X0207156Y0269901D01*
X0207120Y0269950D01*
X0207082Y0269996D01*
X0207040Y0270040D01*
X0206996Y0270082D01*
X0206950Y0270120D01*
X0206901Y0270156D01*
X0206850Y0270189D01*
X0206798Y0270218D01*
X0206743Y0270245D01*
X0206688Y0270268D01*
X0206631Y0270288D01*
X0206572Y0270304D01*
X0206513Y0270317D01*
X0206454Y0270326D01*
X0206393Y0270331D01*
X0206333Y0270333D01*
X0200333Y0270333D01*
X0200273Y0270331D01*
X0200212Y0270326D01*
X0200153Y0270317D01*
X0200094Y0270304D01*
X0200035Y0270288D01*
X0199978Y0270268D01*
X0199923Y0270245D01*
X0199868Y0270218D01*
X0199816Y0270189D01*
X0199765Y0270156D01*
X0199716Y0270120D01*
X0199670Y0270082D01*
X0199626Y0270040D01*
X0199584Y0269996D01*
X0199546Y0269950D01*
X0199510Y0269901D01*
X0199477Y0269850D01*
X0199448Y0269798D01*
X0199421Y0269743D01*
X0199398Y0269688D01*
X0199378Y0269631D01*
X0199362Y0269572D01*
X0199349Y0269513D01*
X0199340Y0269454D01*
X0199335Y0269393D01*
X0199333Y0269333D01*
X0199333Y0267833D01*
X0199833Y0267333D01*
X0199833Y0253333D01*
X0199333Y0252833D01*
X0199333Y0251333D01*
X0199335Y0251273D01*
X0199340Y0251212D01*
X0199349Y0251153D01*
X0199362Y0251094D01*
X0199378Y0251035D01*
X0199398Y0250978D01*
X0199421Y0250923D01*
X0199448Y0250868D01*
X0199477Y0250816D01*
X0199510Y0250765D01*
X0199546Y0250716D01*
X0199584Y0250670D01*
X0199626Y0250626D01*
X0199670Y0250584D01*
X0199716Y0250546D01*
X0199765Y0250510D01*
X0199816Y0250477D01*
X0199868Y0250448D01*
X0199923Y0250421D01*
X0199978Y0250398D01*
X0200035Y0250378D01*
X0200094Y0250362D01*
X0200153Y0250349D01*
X0200212Y0250340D01*
X0200273Y0250335D01*
X0200333Y0250333D01*
X0206333Y0250333D01*
X0206393Y0250335D01*
X0206454Y0250340D01*
X0206513Y0250349D01*
X0206572Y0250362D01*
X0206631Y0250378D01*
X0206688Y0250398D01*
X0206743Y0250421D01*
X0206798Y0250448D01*
X0206850Y0250477D01*
X0206901Y0250510D01*
X0206950Y0250546D01*
X0206996Y0250584D01*
X0207040Y0250626D01*
X0207082Y0250670D01*
X0207120Y0250716D01*
X0207156Y0250765D01*
X0207189Y0250816D01*
X0207218Y0250868D01*
X0207245Y0250923D01*
X0207268Y0250978D01*
X0207288Y0251035D01*
X0207304Y0251094D01*
X0207317Y0251153D01*
X0207326Y0251212D01*
X0207331Y0251273D01*
X0207333Y0251333D01*
X0207333Y0252833D01*
X0216333Y0262333D02*
X0216333Y0268333D01*
X0220333Y0265333D01*
X0220333Y0268333D01*
X0220333Y0265333D02*
X0220333Y0262333D01*
X0220333Y0265333D02*
X0216333Y0262333D01*
X0216333Y0272333D02*
X0216333Y0278333D01*
X0220333Y0275333D01*
X0220333Y0278333D01*
X0220333Y0275333D02*
X0220333Y0272333D01*
X0220333Y0275333D02*
X0216333Y0272333D01*
X0216333Y0282333D02*
X0216333Y0288333D01*
X0220333Y0285333D01*
X0220333Y0288333D01*
X0220333Y0285333D02*
X0220333Y0282333D01*
X0220333Y0285333D02*
X0216333Y0282333D01*
X0236833Y0280333D02*
X0244333Y0280333D01*
X0244335Y0280207D01*
X0244341Y0280082D01*
X0244351Y0279957D01*
X0244365Y0279832D01*
X0244382Y0279707D01*
X0244404Y0279583D01*
X0244429Y0279460D01*
X0244459Y0279338D01*
X0244492Y0279217D01*
X0244529Y0279097D01*
X0244569Y0278978D01*
X0244614Y0278861D01*
X0244662Y0278744D01*
X0244714Y0278630D01*
X0244769Y0278517D01*
X0244828Y0278406D01*
X0244890Y0278297D01*
X0244956Y0278190D01*
X0245025Y0278085D01*
X0245097Y0277982D01*
X0245172Y0277881D01*
X0245251Y0277783D01*
X0245333Y0277688D01*
X0245417Y0277595D01*
X0245505Y0277505D01*
X0245595Y0277417D01*
X0245688Y0277333D01*
X0245783Y0277251D01*
X0245881Y0277172D01*
X0245982Y0277097D01*
X0246085Y0277025D01*
X0246190Y0276956D01*
X0246297Y0276890D01*
X0246406Y0276828D01*
X0246517Y0276769D01*
X0246630Y0276714D01*
X0246744Y0276662D01*
X0246861Y0276614D01*
X0246978Y0276569D01*
X0247097Y0276529D01*
X0247217Y0276492D01*
X0247338Y0276459D01*
X0247460Y0276429D01*
X0247583Y0276404D01*
X0247707Y0276382D01*
X0247832Y0276365D01*
X0247957Y0276351D01*
X0248082Y0276341D01*
X0248207Y0276335D01*
X0248333Y0276333D01*
X0248459Y0276335D01*
X0248584Y0276341D01*
X0248709Y0276351D01*
X0248834Y0276365D01*
X0248959Y0276382D01*
X0249083Y0276404D01*
X0249206Y0276429D01*
X0249328Y0276459D01*
X0249449Y0276492D01*
X0249569Y0276529D01*
X0249688Y0276569D01*
X0249805Y0276614D01*
X0249922Y0276662D01*
X0250036Y0276714D01*
X0250149Y0276769D01*
X0250260Y0276828D01*
X0250369Y0276890D01*
X0250476Y0276956D01*
X0250581Y0277025D01*
X0250684Y0277097D01*
X0250785Y0277172D01*
X0250883Y0277251D01*
X0250978Y0277333D01*
X0251071Y0277417D01*
X0251161Y0277505D01*
X0251249Y0277595D01*
X0251333Y0277688D01*
X0251415Y0277783D01*
X0251494Y0277881D01*
X0251569Y0277982D01*
X0251641Y0278085D01*
X0251710Y0278190D01*
X0251776Y0278297D01*
X0251838Y0278406D01*
X0251897Y0278517D01*
X0251952Y0278630D01*
X0252004Y0278744D01*
X0252052Y0278861D01*
X0252097Y0278978D01*
X0252137Y0279097D01*
X0252174Y0279217D01*
X0252207Y0279338D01*
X0252237Y0279460D01*
X0252262Y0279583D01*
X0252284Y0279707D01*
X0252301Y0279832D01*
X0252315Y0279957D01*
X0252325Y0280082D01*
X0252331Y0280207D01*
X0252333Y0280333D01*
X0259833Y0280333D01*
X0259833Y0200333D01*
X0236833Y0200333D01*
X0236833Y0280333D01*
X0269333Y0269333D02*
X0269333Y0267833D01*
X0269833Y0267333D01*
X0269833Y0253333D01*
X0269333Y0252833D01*
X0269333Y0251333D01*
X0269335Y0251273D01*
X0269340Y0251212D01*
X0269349Y0251153D01*
X0269362Y0251094D01*
X0269378Y0251035D01*
X0269398Y0250978D01*
X0269421Y0250923D01*
X0269448Y0250868D01*
X0269477Y0250816D01*
X0269510Y0250765D01*
X0269546Y0250716D01*
X0269584Y0250670D01*
X0269626Y0250626D01*
X0269670Y0250584D01*
X0269716Y0250546D01*
X0269765Y0250510D01*
X0269816Y0250477D01*
X0269868Y0250448D01*
X0269923Y0250421D01*
X0269978Y0250398D01*
X0270035Y0250378D01*
X0270094Y0250362D01*
X0270153Y0250349D01*
X0270212Y0250340D01*
X0270273Y0250335D01*
X0270333Y0250333D01*
X0276333Y0250333D01*
X0276393Y0250335D01*
X0276454Y0250340D01*
X0276513Y0250349D01*
X0276572Y0250362D01*
X0276631Y0250378D01*
X0276688Y0250398D01*
X0276743Y0250421D01*
X0276798Y0250448D01*
X0276850Y0250477D01*
X0276901Y0250510D01*
X0276950Y0250546D01*
X0276996Y0250584D01*
X0277040Y0250626D01*
X0277082Y0250670D01*
X0277120Y0250716D01*
X0277156Y0250765D01*
X0277189Y0250816D01*
X0277218Y0250868D01*
X0277245Y0250923D01*
X0277268Y0250978D01*
X0277288Y0251035D01*
X0277304Y0251094D01*
X0277317Y0251153D01*
X0277326Y0251212D01*
X0277331Y0251273D01*
X0277333Y0251333D01*
X0277333Y0252833D01*
X0276833Y0253333D01*
X0276833Y0267333D01*
X0277333Y0267833D01*
X0277333Y0269333D01*
X0277331Y0269393D01*
X0277326Y0269454D01*
X0277317Y0269513D01*
X0277304Y0269572D01*
X0277288Y0269631D01*
X0277268Y0269688D01*
X0277245Y0269743D01*
X0277218Y0269798D01*
X0277189Y0269850D01*
X0277156Y0269901D01*
X0277120Y0269950D01*
X0277082Y0269996D01*
X0277040Y0270040D01*
X0276996Y0270082D01*
X0276950Y0270120D01*
X0276901Y0270156D01*
X0276850Y0270189D01*
X0276798Y0270218D01*
X0276743Y0270245D01*
X0276688Y0270268D01*
X0276631Y0270288D01*
X0276572Y0270304D01*
X0276513Y0270317D01*
X0276454Y0270326D01*
X0276393Y0270331D01*
X0276333Y0270333D01*
X0270333Y0270333D01*
X0270273Y0270331D01*
X0270212Y0270326D01*
X0270153Y0270317D01*
X0270094Y0270304D01*
X0270035Y0270288D01*
X0269978Y0270268D01*
X0269923Y0270245D01*
X0269868Y0270218D01*
X0269816Y0270189D01*
X0269765Y0270156D01*
X0269716Y0270120D01*
X0269670Y0270082D01*
X0269626Y0270040D01*
X0269584Y0269996D01*
X0269546Y0269950D01*
X0269510Y0269901D01*
X0269477Y0269850D01*
X0269448Y0269798D01*
X0269421Y0269743D01*
X0269398Y0269688D01*
X0269378Y0269631D01*
X0269362Y0269572D01*
X0269349Y0269513D01*
X0269340Y0269454D01*
X0269335Y0269393D01*
X0269333Y0269333D01*
X0286333Y0282333D02*
X0286333Y0288333D01*
X0290333Y0285333D01*
X0290333Y0288333D01*
X0290333Y0285333D02*
X0290333Y0282333D01*
X0290333Y0285333D02*
X0286333Y0282333D01*
X0394333Y0226833D02*
X0394333Y0225333D01*
X0394833Y0224833D01*
X0394833Y0210833D01*
X0394333Y0210333D01*
X0394333Y0208833D01*
X0394335Y0208773D01*
X0394340Y0208712D01*
X0394349Y0208653D01*
X0394362Y0208594D01*
X0394378Y0208535D01*
X0394398Y0208478D01*
X0394421Y0208423D01*
X0394448Y0208368D01*
X0394477Y0208316D01*
X0394510Y0208265D01*
X0394546Y0208216D01*
X0394584Y0208170D01*
X0394626Y0208126D01*
X0394670Y0208084D01*
X0394716Y0208046D01*
X0394765Y0208010D01*
X0394816Y0207977D01*
X0394868Y0207948D01*
X0394923Y0207921D01*
X0394978Y0207898D01*
X0395035Y0207878D01*
X0395094Y0207862D01*
X0395153Y0207849D01*
X0395212Y0207840D01*
X0395273Y0207835D01*
X0395333Y0207833D01*
X0401333Y0207833D01*
X0401393Y0207835D01*
X0401454Y0207840D01*
X0401513Y0207849D01*
X0401572Y0207862D01*
X0401631Y0207878D01*
X0401688Y0207898D01*
X0401743Y0207921D01*
X0401798Y0207948D01*
X0401850Y0207977D01*
X0401901Y0208010D01*
X0401950Y0208046D01*
X0401996Y0208084D01*
X0402040Y0208126D01*
X0402082Y0208170D01*
X0402120Y0208216D01*
X0402156Y0208265D01*
X0402189Y0208316D01*
X0402218Y0208368D01*
X0402245Y0208423D01*
X0402268Y0208478D01*
X0402288Y0208535D01*
X0402304Y0208594D01*
X0402317Y0208653D01*
X0402326Y0208712D01*
X0402331Y0208773D01*
X0402333Y0208833D01*
X0402333Y0210333D01*
X0401833Y0210833D01*
X0401833Y0224833D01*
X0402333Y0225333D01*
X0402333Y0226833D01*
X0402331Y0226893D01*
X0402326Y0226954D01*
X0402317Y0227013D01*
X0402304Y0227072D01*
X0402288Y0227131D01*
X0402268Y0227188D01*
X0402245Y0227243D01*
X0402218Y0227298D01*
X0402189Y0227350D01*
X0402156Y0227401D01*
X0402120Y0227450D01*
X0402082Y0227496D01*
X0402040Y0227540D01*
X0401996Y0227582D01*
X0401950Y0227620D01*
X0401901Y0227656D01*
X0401850Y0227689D01*
X0401798Y0227718D01*
X0401743Y0227745D01*
X0401688Y0227768D01*
X0401631Y0227788D01*
X0401572Y0227804D01*
X0401513Y0227817D01*
X0401454Y0227826D01*
X0401393Y0227831D01*
X0401333Y0227833D01*
X0395333Y0227833D01*
X0395273Y0227831D01*
X0395212Y0227826D01*
X0395153Y0227817D01*
X0395094Y0227804D01*
X0395035Y0227788D01*
X0394978Y0227768D01*
X0394923Y0227745D01*
X0394868Y0227718D01*
X0394816Y0227689D01*
X0394765Y0227656D01*
X0394716Y0227620D01*
X0394670Y0227582D01*
X0394626Y0227540D01*
X0394584Y0227496D01*
X0394546Y0227450D01*
X0394510Y0227401D01*
X0394477Y0227350D01*
X0394448Y0227298D01*
X0394421Y0227243D01*
X0394398Y0227188D01*
X0394378Y0227131D01*
X0394362Y0227072D01*
X0394349Y0227013D01*
X0394340Y0226954D01*
X0394335Y0226893D01*
X0394333Y0226833D01*
X0404333Y0226833D02*
X0404333Y0225333D01*
X0404833Y0224833D01*
X0404833Y0210833D01*
X0404333Y0210333D01*
X0404333Y0208833D01*
X0404335Y0208773D01*
X0404340Y0208712D01*
X0404349Y0208653D01*
X0404362Y0208594D01*
X0404378Y0208535D01*
X0404398Y0208478D01*
X0404421Y0208423D01*
X0404448Y0208368D01*
X0404477Y0208316D01*
X0404510Y0208265D01*
X0404546Y0208216D01*
X0404584Y0208170D01*
X0404626Y0208126D01*
X0404670Y0208084D01*
X0404716Y0208046D01*
X0404765Y0208010D01*
X0404816Y0207977D01*
X0404868Y0207948D01*
X0404923Y0207921D01*
X0404978Y0207898D01*
X0405035Y0207878D01*
X0405094Y0207862D01*
X0405153Y0207849D01*
X0405212Y0207840D01*
X0405273Y0207835D01*
X0405333Y0207833D01*
X0411333Y0207833D01*
X0411393Y0207835D01*
X0411454Y0207840D01*
X0411513Y0207849D01*
X0411572Y0207862D01*
X0411631Y0207878D01*
X0411688Y0207898D01*
X0411743Y0207921D01*
X0411798Y0207948D01*
X0411850Y0207977D01*
X0411901Y0208010D01*
X0411950Y0208046D01*
X0411996Y0208084D01*
X0412040Y0208126D01*
X0412082Y0208170D01*
X0412120Y0208216D01*
X0412156Y0208265D01*
X0412189Y0208316D01*
X0412218Y0208368D01*
X0412245Y0208423D01*
X0412268Y0208478D01*
X0412288Y0208535D01*
X0412304Y0208594D01*
X0412317Y0208653D01*
X0412326Y0208712D01*
X0412331Y0208773D01*
X0412333Y0208833D01*
X0412333Y0210333D01*
X0411833Y0210833D01*
X0411833Y0224833D01*
X0412333Y0225333D01*
X0412333Y0226833D01*
X0412331Y0226893D01*
X0412326Y0226954D01*
X0412317Y0227013D01*
X0412304Y0227072D01*
X0412288Y0227131D01*
X0412268Y0227188D01*
X0412245Y0227243D01*
X0412218Y0227298D01*
X0412189Y0227350D01*
X0412156Y0227401D01*
X0412120Y0227450D01*
X0412082Y0227496D01*
X0412040Y0227540D01*
X0411996Y0227582D01*
X0411950Y0227620D01*
X0411901Y0227656D01*
X0411850Y0227689D01*
X0411798Y0227718D01*
X0411743Y0227745D01*
X0411688Y0227768D01*
X0411631Y0227788D01*
X0411572Y0227804D01*
X0411513Y0227817D01*
X0411454Y0227826D01*
X0411393Y0227831D01*
X0411333Y0227833D01*
X0405333Y0227833D01*
X0405273Y0227831D01*
X0405212Y0227826D01*
X0405153Y0227817D01*
X0405094Y0227804D01*
X0405035Y0227788D01*
X0404978Y0227768D01*
X0404923Y0227745D01*
X0404868Y0227718D01*
X0404816Y0227689D01*
X0404765Y0227656D01*
X0404716Y0227620D01*
X0404670Y0227582D01*
X0404626Y0227540D01*
X0404584Y0227496D01*
X0404546Y0227450D01*
X0404510Y0227401D01*
X0404477Y0227350D01*
X0404448Y0227298D01*
X0404421Y0227243D01*
X0404398Y0227188D01*
X0404378Y0227131D01*
X0404362Y0227072D01*
X0404349Y0227013D01*
X0404340Y0226954D01*
X0404335Y0226893D01*
X0404333Y0226833D01*
X0397133Y0180333D02*
X0420164Y0175333D01*
X0420164Y0170333D01*
X0397133Y0165333D01*
X0397133Y0155333D02*
X0420164Y0150333D01*
X0420164Y0145333D01*
X0397133Y0140333D01*
X0364583Y0142833D02*
X0364583Y0147833D01*
X0362083Y0150333D01*
X0364583Y0152833D01*
X0364583Y0157833D01*
X0362083Y0160333D01*
X0364583Y0162833D01*
X0364583Y0167833D01*
X0362083Y0170333D01*
X0364583Y0172833D01*
X0364583Y0177833D01*
X0362083Y0180333D01*
X0357083Y0180333D01*
X0354583Y0177833D01*
X0354583Y0172833D01*
X0357083Y0170333D01*
X0354583Y0167833D01*
X0354583Y0162833D01*
X0357083Y0160333D01*
X0354583Y0157833D01*
X0354583Y0152833D01*
X0357083Y0150333D01*
X0354583Y0147833D01*
X0354583Y0142833D01*
X0357083Y0140333D01*
X0362083Y0140333D01*
X0364583Y0142833D01*
X0348833Y0125333D02*
X0342833Y0125333D01*
X0342773Y0125331D01*
X0342712Y0125326D01*
X0342653Y0125317D01*
X0342594Y0125304D01*
X0342535Y0125288D01*
X0342478Y0125268D01*
X0342423Y0125245D01*
X0342368Y0125218D01*
X0342316Y0125189D01*
X0342265Y0125156D01*
X0342216Y0125120D01*
X0342170Y0125082D01*
X0342126Y0125040D01*
X0342084Y0124996D01*
X0342046Y0124950D01*
X0342010Y0124901D01*
X0341977Y0124850D01*
X0341948Y0124798D01*
X0341921Y0124743D01*
X0341898Y0124688D01*
X0341878Y0124631D01*
X0341862Y0124572D01*
X0341849Y0124513D01*
X0341840Y0124454D01*
X0341835Y0124393D01*
X0341833Y0124333D01*
X0341833Y0122833D01*
X0342333Y0122333D01*
X0342333Y0108333D01*
X0341833Y0107833D01*
X0341833Y0106333D01*
X0341835Y0106273D01*
X0341840Y0106212D01*
X0341849Y0106153D01*
X0341862Y0106094D01*
X0341878Y0106035D01*
X0341898Y0105978D01*
X0341921Y0105923D01*
X0341948Y0105868D01*
X0341977Y0105816D01*
X0342010Y0105765D01*
X0342046Y0105716D01*
X0342084Y0105670D01*
X0342126Y0105626D01*
X0342170Y0105584D01*
X0342216Y0105546D01*
X0342265Y0105510D01*
X0342316Y0105477D01*
X0342368Y0105448D01*
X0342423Y0105421D01*
X0342478Y0105398D01*
X0342535Y0105378D01*
X0342594Y0105362D01*
X0342653Y0105349D01*
X0342712Y0105340D01*
X0342773Y0105335D01*
X0342833Y0105333D01*
X0348833Y0105333D01*
X0348893Y0105335D01*
X0348954Y0105340D01*
X0349013Y0105349D01*
X0349072Y0105362D01*
X0349131Y0105378D01*
X0349188Y0105398D01*
X0349243Y0105421D01*
X0349298Y0105448D01*
X0349350Y0105477D01*
X0349401Y0105510D01*
X0349450Y0105546D01*
X0349496Y0105584D01*
X0349540Y0105626D01*
X0349582Y0105670D01*
X0349620Y0105716D01*
X0349656Y0105765D01*
X0349689Y0105816D01*
X0349718Y0105868D01*
X0349745Y0105923D01*
X0349768Y0105978D01*
X0349788Y0106035D01*
X0349804Y0106094D01*
X0349817Y0106153D01*
X0349826Y0106212D01*
X0349831Y0106273D01*
X0349833Y0106333D01*
X0349833Y0107833D01*
X0349333Y0108333D01*
X0349333Y0122333D01*
X0349833Y0122833D01*
X0349833Y0124333D01*
X0349831Y0124393D01*
X0349826Y0124454D01*
X0349817Y0124513D01*
X0349804Y0124572D01*
X0349788Y0124631D01*
X0349768Y0124688D01*
X0349745Y0124743D01*
X0349718Y0124798D01*
X0349689Y0124850D01*
X0349656Y0124901D01*
X0349620Y0124950D01*
X0349582Y0124996D01*
X0349540Y0125040D01*
X0349496Y0125082D01*
X0349450Y0125120D01*
X0349401Y0125156D01*
X0349350Y0125189D01*
X0349298Y0125218D01*
X0349243Y0125245D01*
X0349188Y0125268D01*
X0349131Y0125288D01*
X0349072Y0125304D01*
X0349013Y0125317D01*
X0348954Y0125326D01*
X0348893Y0125331D01*
X0348833Y0125333D01*
X0369833Y0109833D02*
X0372833Y0109833D01*
X0371333Y0108333D02*
X0371333Y0111333D01*
X0363333Y0105333D02*
X0363339Y0105824D01*
X0363357Y0106314D01*
X0363387Y0106804D01*
X0363429Y0107293D01*
X0363483Y0107781D01*
X0363549Y0108268D01*
X0363627Y0108752D01*
X0363717Y0109235D01*
X0363819Y0109715D01*
X0363932Y0110193D01*
X0364057Y0110667D01*
X0364194Y0111139D01*
X0364342Y0111607D01*
X0364502Y0112071D01*
X0364673Y0112531D01*
X0364855Y0112987D01*
X0365049Y0113438D01*
X0365253Y0113884D01*
X0365469Y0114325D01*
X0365695Y0114761D01*
X0365931Y0115191D01*
X0366178Y0115615D01*
X0366436Y0116033D01*
X0366704Y0116444D01*
X0366981Y0116849D01*
X0367269Y0117247D01*
X0367566Y0117638D01*
X0367873Y0118021D01*
X0368189Y0118396D01*
X0368514Y0118764D01*
X0368848Y0119124D01*
X0369191Y0119475D01*
X0369542Y0119818D01*
X0369902Y0120152D01*
X0370270Y0120477D01*
X0370645Y0120793D01*
X0371028Y0121100D01*
X0371419Y0121397D01*
X0371817Y0121685D01*
X0372222Y0121962D01*
X0372633Y0122230D01*
X0373051Y0122488D01*
X0373475Y0122735D01*
X0373905Y0122971D01*
X0374341Y0123197D01*
X0374782Y0123413D01*
X0375228Y0123617D01*
X0375679Y0123811D01*
X0376135Y0123993D01*
X0376595Y0124164D01*
X0377059Y0124324D01*
X0377527Y0124472D01*
X0377999Y0124609D01*
X0378473Y0124734D01*
X0378951Y0124847D01*
X0379431Y0124949D01*
X0379914Y0125039D01*
X0380398Y0125117D01*
X0380885Y0125183D01*
X0381373Y0125237D01*
X0381862Y0125279D01*
X0382352Y0125309D01*
X0382842Y0125327D01*
X0383333Y0125333D01*
X0383824Y0125327D01*
X0384314Y0125309D01*
X0384804Y0125279D01*
X0385293Y0125237D01*
X0385781Y0125183D01*
X0386268Y0125117D01*
X0386752Y0125039D01*
X0387235Y0124949D01*
X0387715Y0124847D01*
X0388193Y0124734D01*
X0388667Y0124609D01*
X0389139Y0124472D01*
X0389607Y0124324D01*
X0390071Y0124164D01*
X0390531Y0123993D01*
X0390987Y0123811D01*
X0391438Y0123617D01*
X0391884Y0123413D01*
X0392325Y0123197D01*
X0392761Y0122971D01*
X0393191Y0122735D01*
X0393615Y0122488D01*
X0394033Y0122230D01*
X0394444Y0121962D01*
X0394849Y0121685D01*
X0395247Y0121397D01*
X0395638Y0121100D01*
X0396021Y0120793D01*
X0396396Y0120477D01*
X0396764Y0120152D01*
X0397124Y0119818D01*
X0397475Y0119475D01*
X0397818Y0119124D01*
X0398152Y0118764D01*
X0398477Y0118396D01*
X0398793Y0118021D01*
X0399100Y0117638D01*
X0399397Y0117247D01*
X0399685Y0116849D01*
X0399962Y0116444D01*
X0400230Y0116033D01*
X0400488Y0115615D01*
X0400735Y0115191D01*
X0400971Y0114761D01*
X0401197Y0114325D01*
X0401413Y0113884D01*
X0401617Y0113438D01*
X0401811Y0112987D01*
X0401993Y0112531D01*
X0402164Y0112071D01*
X0402324Y0111607D01*
X0402472Y0111139D01*
X0402609Y0110667D01*
X0402734Y0110193D01*
X0402847Y0109715D01*
X0402949Y0109235D01*
X0403039Y0108752D01*
X0403117Y0108268D01*
X0403183Y0107781D01*
X0403237Y0107293D01*
X0403279Y0106804D01*
X0403309Y0106314D01*
X0403327Y0105824D01*
X0403333Y0105333D01*
X0403327Y0104842D01*
X0403309Y0104352D01*
X0403279Y0103862D01*
X0403237Y0103373D01*
X0403183Y0102885D01*
X0403117Y0102398D01*
X0403039Y0101914D01*
X0402949Y0101431D01*
X0402847Y0100951D01*
X0402734Y0100473D01*
X0402609Y0099999D01*
X0402472Y0099527D01*
X0402324Y0099059D01*
X0402164Y0098595D01*
X0401993Y0098135D01*
X0401811Y0097679D01*
X0401617Y0097228D01*
X0401413Y0096782D01*
X0401197Y0096341D01*
X0400971Y0095905D01*
X0400735Y0095475D01*
X0400488Y0095051D01*
X0400230Y0094633D01*
X0399962Y0094222D01*
X0399685Y0093817D01*
X0399397Y0093419D01*
X0399100Y0093028D01*
X0398793Y0092645D01*
X0398477Y0092270D01*
X0398152Y0091902D01*
X0397818Y0091542D01*
X0397475Y0091191D01*
X0397124Y0090848D01*
X0396764Y0090514D01*
X0396396Y0090189D01*
X0396021Y0089873D01*
X0395638Y0089566D01*
X0395247Y0089269D01*
X0394849Y0088981D01*
X0394444Y0088704D01*
X0394033Y0088436D01*
X0393615Y0088178D01*
X0393191Y0087931D01*
X0392761Y0087695D01*
X0392325Y0087469D01*
X0391884Y0087253D01*
X0391438Y0087049D01*
X0390987Y0086855D01*
X0390531Y0086673D01*
X0390071Y0086502D01*
X0389607Y0086342D01*
X0389139Y0086194D01*
X0388667Y0086057D01*
X0388193Y0085932D01*
X0387715Y0085819D01*
X0387235Y0085717D01*
X0386752Y0085627D01*
X0386268Y0085549D01*
X0385781Y0085483D01*
X0385293Y0085429D01*
X0384804Y0085387D01*
X0384314Y0085357D01*
X0383824Y0085339D01*
X0383333Y0085333D01*
X0382842Y0085339D01*
X0382352Y0085357D01*
X0381862Y0085387D01*
X0381373Y0085429D01*
X0380885Y0085483D01*
X0380398Y0085549D01*
X0379914Y0085627D01*
X0379431Y0085717D01*
X0378951Y0085819D01*
X0378473Y0085932D01*
X0377999Y0086057D01*
X0377527Y0086194D01*
X0377059Y0086342D01*
X0376595Y0086502D01*
X0376135Y0086673D01*
X0375679Y0086855D01*
X0375228Y0087049D01*
X0374782Y0087253D01*
X0374341Y0087469D01*
X0373905Y0087695D01*
X0373475Y0087931D01*
X0373051Y0088178D01*
X0372633Y0088436D01*
X0372222Y0088704D01*
X0371817Y0088981D01*
X0371419Y0089269D01*
X0371028Y0089566D01*
X0370645Y0089873D01*
X0370270Y0090189D01*
X0369902Y0090514D01*
X0369542Y0090848D01*
X0369191Y0091191D01*
X0368848Y0091542D01*
X0368514Y0091902D01*
X0368189Y0092270D01*
X0367873Y0092645D01*
X0367566Y0093028D01*
X0367269Y0093419D01*
X0366981Y0093817D01*
X0366704Y0094222D01*
X0366436Y0094633D01*
X0366178Y0095051D01*
X0365931Y0095475D01*
X0365695Y0095905D01*
X0365469Y0096341D01*
X0365253Y0096782D01*
X0365049Y0097228D01*
X0364855Y0097679D01*
X0364673Y0098135D01*
X0364502Y0098595D01*
X0364342Y0099059D01*
X0364194Y0099527D01*
X0364057Y0099999D01*
X0363932Y0100473D01*
X0363819Y0100951D01*
X0363717Y0101431D01*
X0363627Y0101914D01*
X0363549Y0102398D01*
X0363483Y0102885D01*
X0363429Y0103373D01*
X0363387Y0103862D01*
X0363357Y0104352D01*
X0363339Y0104842D01*
X0363333Y0105333D01*
X0277333Y0136333D02*
X0277333Y0137833D01*
X0276833Y0138333D01*
X0276833Y0152333D01*
X0277333Y0152833D01*
X0277333Y0154333D01*
X0277331Y0154393D01*
X0277326Y0154454D01*
X0277317Y0154513D01*
X0277304Y0154572D01*
X0277288Y0154631D01*
X0277268Y0154688D01*
X0277245Y0154743D01*
X0277218Y0154798D01*
X0277189Y0154850D01*
X0277156Y0154901D01*
X0277120Y0154950D01*
X0277082Y0154996D01*
X0277040Y0155040D01*
X0276996Y0155082D01*
X0276950Y0155120D01*
X0276901Y0155156D01*
X0276850Y0155189D01*
X0276798Y0155218D01*
X0276743Y0155245D01*
X0276688Y0155268D01*
X0276631Y0155288D01*
X0276572Y0155304D01*
X0276513Y0155317D01*
X0276454Y0155326D01*
X0276393Y0155331D01*
X0276333Y0155333D01*
X0270333Y0155333D01*
X0270273Y0155331D01*
X0270212Y0155326D01*
X0270153Y0155317D01*
X0270094Y0155304D01*
X0270035Y0155288D01*
X0269978Y0155268D01*
X0269923Y0155245D01*
X0269868Y0155218D01*
X0269816Y0155189D01*
X0269765Y0155156D01*
X0269716Y0155120D01*
X0269670Y0155082D01*
X0269626Y0155040D01*
X0269584Y0154996D01*
X0269546Y0154950D01*
X0269510Y0154901D01*
X0269477Y0154850D01*
X0269448Y0154798D01*
X0269421Y0154743D01*
X0269398Y0154688D01*
X0269378Y0154631D01*
X0269362Y0154572D01*
X0269349Y0154513D01*
X0269340Y0154454D01*
X0269335Y0154393D01*
X0269333Y0154333D01*
X0269333Y0152833D01*
X0269833Y0152333D01*
X0269833Y0138333D01*
X0269333Y0137833D01*
X0269333Y0136333D01*
X0269335Y0136273D01*
X0269340Y0136212D01*
X0269349Y0136153D01*
X0269362Y0136094D01*
X0269378Y0136035D01*
X0269398Y0135978D01*
X0269421Y0135923D01*
X0269448Y0135868D01*
X0269477Y0135816D01*
X0269510Y0135765D01*
X0269546Y0135716D01*
X0269584Y0135670D01*
X0269626Y0135626D01*
X0269670Y0135584D01*
X0269716Y0135546D01*
X0269765Y0135510D01*
X0269816Y0135477D01*
X0269868Y0135448D01*
X0269923Y0135421D01*
X0269978Y0135398D01*
X0270035Y0135378D01*
X0270094Y0135362D01*
X0270153Y0135349D01*
X0270212Y0135340D01*
X0270273Y0135335D01*
X0270333Y0135333D01*
X0276333Y0135333D01*
X0276393Y0135335D01*
X0276454Y0135340D01*
X0276513Y0135349D01*
X0276572Y0135362D01*
X0276631Y0135378D01*
X0276688Y0135398D01*
X0276743Y0135421D01*
X0276798Y0135448D01*
X0276850Y0135477D01*
X0276901Y0135510D01*
X0276950Y0135546D01*
X0276996Y0135584D01*
X0277040Y0135626D01*
X0277082Y0135670D01*
X0277120Y0135716D01*
X0277156Y0135765D01*
X0277189Y0135816D01*
X0277218Y0135868D01*
X0277245Y0135923D01*
X0277268Y0135978D01*
X0277288Y0136035D01*
X0277304Y0136094D01*
X0277317Y0136153D01*
X0277326Y0136212D01*
X0277331Y0136273D01*
X0277333Y0136333D01*
X0286333Y0167333D02*
X0286333Y0173333D01*
X0290333Y0170333D01*
X0290333Y0173333D01*
X0290333Y0170333D02*
X0290333Y0167333D01*
X0290333Y0170333D02*
X0286333Y0167333D01*
D16*
X0278302Y0166234D02*
X0277701Y0165633D01*
X0276500Y0165633D01*
X0275900Y0166234D01*
X0278302Y0168636D01*
X0278302Y0166234D01*
X0278302Y0168636D02*
X0277701Y0169236D01*
X0276500Y0169236D01*
X0275900Y0168636D01*
X0275900Y0166234D01*
X0274619Y0165633D02*
X0272216Y0165633D01*
X0273417Y0165633D02*
X0273417Y0169236D01*
X0272216Y0168035D01*
X0270935Y0167435D02*
X0270335Y0166834D01*
X0268533Y0166834D01*
X0268533Y0165633D02*
X0268533Y0169236D01*
X0270335Y0169236D01*
X0270935Y0168636D01*
X0270935Y0167435D01*
X0269734Y0166834D02*
X0270935Y0165633D01*
X0297033Y0164533D02*
X0298234Y0164533D01*
X0297634Y0164533D02*
X0297634Y0168136D01*
X0298234Y0168136D02*
X0297033Y0168136D01*
X0299489Y0167536D02*
X0299489Y0165134D01*
X0300089Y0164533D01*
X0301290Y0164533D01*
X0301891Y0165134D01*
X0303172Y0165134D02*
X0303172Y0165734D01*
X0303772Y0166335D01*
X0304973Y0166335D01*
X0305574Y0165734D01*
X0305574Y0165134D01*
X0304973Y0164533D01*
X0303772Y0164533D01*
X0303172Y0165134D01*
X0303772Y0166335D02*
X0303172Y0166935D01*
X0303172Y0167536D01*
X0303772Y0168136D01*
X0304973Y0168136D01*
X0305574Y0167536D01*
X0305574Y0166935D01*
X0304973Y0166335D01*
X0301891Y0167536D02*
X0301290Y0168136D01*
X0300089Y0168136D01*
X0299489Y0167536D01*
X0299451Y0176533D02*
X0298850Y0177134D01*
X0299451Y0176533D02*
X0300652Y0176533D01*
X0301252Y0177134D01*
X0301252Y0177734D01*
X0300652Y0178335D01*
X0300051Y0178335D01*
X0300652Y0178335D02*
X0301252Y0178935D01*
X0301252Y0179536D01*
X0300652Y0180136D01*
X0299451Y0180136D01*
X0298850Y0179536D01*
X0297569Y0179536D02*
X0296969Y0180136D01*
X0295768Y0180136D01*
X0295167Y0179536D01*
X0295167Y0177134D01*
X0295768Y0176533D01*
X0296969Y0176533D01*
X0297569Y0177134D01*
X0235574Y0168136D02*
X0235574Y0167536D01*
X0233172Y0165134D01*
X0233172Y0164533D01*
X0231891Y0165134D02*
X0231290Y0164533D01*
X0230089Y0164533D01*
X0229489Y0165134D01*
X0229489Y0167536D01*
X0230089Y0168136D01*
X0231290Y0168136D01*
X0231891Y0167536D01*
X0233172Y0168136D02*
X0235574Y0168136D01*
X0228234Y0168136D02*
X0227033Y0168136D01*
X0227634Y0168136D02*
X0227634Y0164533D01*
X0228234Y0164533D02*
X0227033Y0164533D01*
X0207119Y0166234D02*
X0207119Y0168636D01*
X0206518Y0169236D01*
X0205317Y0169236D01*
X0204716Y0168636D01*
X0204716Y0168035D01*
X0205317Y0167435D01*
X0207119Y0167435D01*
X0207119Y0166234D02*
X0206518Y0165633D01*
X0205317Y0165633D01*
X0204716Y0166234D01*
X0203435Y0165633D02*
X0202234Y0166834D01*
X0202835Y0166834D02*
X0201033Y0166834D01*
X0201033Y0165633D02*
X0201033Y0169236D01*
X0202835Y0169236D01*
X0203435Y0168636D01*
X0203435Y0167435D01*
X0202835Y0166834D01*
X0165574Y0165734D02*
X0164973Y0166335D01*
X0163172Y0166335D01*
X0163172Y0165134D01*
X0163772Y0164533D01*
X0164973Y0164533D01*
X0165574Y0165134D01*
X0165574Y0165734D01*
X0164373Y0167536D02*
X0163172Y0166335D01*
X0164373Y0167536D02*
X0165574Y0168136D01*
X0161891Y0167536D02*
X0161290Y0168136D01*
X0160089Y0168136D01*
X0159489Y0167536D01*
X0159489Y0165134D01*
X0160089Y0164533D01*
X0161290Y0164533D01*
X0161891Y0165134D01*
X0158234Y0164533D02*
X0157033Y0164533D01*
X0157634Y0164533D02*
X0157634Y0168136D01*
X0158234Y0168136D02*
X0157033Y0168136D01*
X0137119Y0168035D02*
X0136518Y0167435D01*
X0135317Y0167435D01*
X0134716Y0168035D01*
X0134716Y0168636D01*
X0135317Y0169236D01*
X0136518Y0169236D01*
X0137119Y0168636D01*
X0137119Y0168035D01*
X0136518Y0167435D02*
X0137119Y0166834D01*
X0137119Y0166234D01*
X0136518Y0165633D01*
X0135317Y0165633D01*
X0134716Y0166234D01*
X0134716Y0166834D01*
X0135317Y0167435D01*
X0133435Y0167435D02*
X0132835Y0166834D01*
X0131033Y0166834D01*
X0131033Y0165633D02*
X0131033Y0169236D01*
X0132835Y0169236D01*
X0133435Y0168636D01*
X0133435Y0167435D01*
X0132234Y0166834D02*
X0133435Y0165633D01*
X0095574Y0165134D02*
X0094973Y0164533D01*
X0093772Y0164533D01*
X0093172Y0165134D01*
X0093172Y0166335D02*
X0094373Y0166935D01*
X0094973Y0166935D01*
X0095574Y0166335D01*
X0095574Y0165134D01*
X0093172Y0166335D02*
X0093172Y0168136D01*
X0095574Y0168136D01*
X0091891Y0167536D02*
X0091290Y0168136D01*
X0090089Y0168136D01*
X0089489Y0167536D01*
X0089489Y0165134D01*
X0090089Y0164533D01*
X0091290Y0164533D01*
X0091891Y0165134D01*
X0088234Y0164533D02*
X0087033Y0164533D01*
X0087634Y0164533D02*
X0087634Y0168136D01*
X0088234Y0168136D02*
X0087033Y0168136D01*
X0086969Y0174033D02*
X0087569Y0174634D01*
X0086969Y0174033D02*
X0085768Y0174033D01*
X0085167Y0174634D01*
X0085167Y0177036D01*
X0085768Y0177636D01*
X0086969Y0177636D01*
X0087569Y0177036D01*
X0088850Y0175835D02*
X0090652Y0177636D01*
X0090652Y0174033D01*
X0091252Y0175835D02*
X0088850Y0175835D01*
X0034752Y0197533D02*
X0032350Y0197533D01*
X0033551Y0197533D02*
X0033551Y0201136D01*
X0032350Y0199935D01*
X0031069Y0198734D02*
X0029868Y0197533D01*
X0028667Y0198734D01*
X0028667Y0201136D01*
X0027386Y0200536D02*
X0026785Y0201136D01*
X0025584Y0201136D01*
X0024984Y0200536D01*
X0024984Y0199935D01*
X0025584Y0199335D01*
X0026785Y0199335D01*
X0027386Y0198734D01*
X0027386Y0198134D01*
X0026785Y0197533D01*
X0025584Y0197533D01*
X0024984Y0198134D01*
X0031069Y0198734D02*
X0031069Y0201136D01*
X0087033Y0279533D02*
X0088234Y0279533D01*
X0087634Y0279533D02*
X0087634Y0283136D01*
X0088234Y0283136D02*
X0087033Y0283136D01*
X0089489Y0282536D02*
X0089489Y0280134D01*
X0090089Y0279533D01*
X0091290Y0279533D01*
X0091891Y0280134D01*
X0093172Y0279533D02*
X0095574Y0279533D01*
X0094373Y0279533D02*
X0094373Y0283136D01*
X0093172Y0281935D01*
X0091891Y0282536D02*
X0091290Y0283136D01*
X0090089Y0283136D01*
X0089489Y0282536D01*
X0088835Y0290533D02*
X0089435Y0291134D01*
X0088835Y0290533D02*
X0087634Y0290533D01*
X0087033Y0291134D01*
X0087033Y0293536D01*
X0087634Y0294136D01*
X0088835Y0294136D01*
X0089435Y0293536D01*
X0090716Y0292935D02*
X0091917Y0294136D01*
X0091917Y0290533D01*
X0090716Y0290533D02*
X0093119Y0290533D01*
X0131033Y0284236D02*
X0131033Y0280633D01*
X0131033Y0281834D02*
X0132835Y0281834D01*
X0133435Y0282435D01*
X0133435Y0283636D01*
X0132835Y0284236D01*
X0131033Y0284236D01*
X0132234Y0281834D02*
X0133435Y0280633D01*
X0134716Y0282435D02*
X0137119Y0282435D01*
X0136518Y0284236D02*
X0134716Y0282435D01*
X0136518Y0284236D02*
X0136518Y0280633D01*
X0157033Y0279533D02*
X0158234Y0279533D01*
X0157634Y0279533D02*
X0157634Y0283136D01*
X0158234Y0283136D02*
X0157033Y0283136D01*
X0159489Y0282536D02*
X0159489Y0280134D01*
X0160089Y0279533D01*
X0161290Y0279533D01*
X0161891Y0280134D01*
X0163172Y0279533D02*
X0165574Y0281935D01*
X0165574Y0282536D01*
X0164973Y0283136D01*
X0163772Y0283136D01*
X0163172Y0282536D01*
X0161891Y0282536D02*
X0161290Y0283136D01*
X0160089Y0283136D01*
X0159489Y0282536D01*
X0163172Y0279533D02*
X0165574Y0279533D01*
X0201033Y0280633D02*
X0201033Y0284136D01*
X0202785Y0284136D01*
X0203369Y0283552D01*
X0203369Y0282385D01*
X0202785Y0281801D01*
X0201033Y0281801D01*
X0202201Y0281801D02*
X0203369Y0280633D01*
X0204624Y0281217D02*
X0205208Y0280633D01*
X0206376Y0280633D01*
X0206960Y0281217D01*
X0206960Y0282385D01*
X0206376Y0282969D01*
X0205792Y0282969D01*
X0204624Y0282385D01*
X0204624Y0284136D01*
X0206960Y0284136D01*
X0227033Y0283136D02*
X0228234Y0283136D01*
X0227634Y0283136D02*
X0227634Y0279533D01*
X0228234Y0279533D02*
X0227033Y0279533D01*
X0229489Y0280134D02*
X0230089Y0279533D01*
X0231290Y0279533D01*
X0231891Y0280134D01*
X0233172Y0280134D02*
X0233772Y0279533D01*
X0234973Y0279533D01*
X0235574Y0280134D01*
X0235574Y0280734D01*
X0234973Y0281335D01*
X0234373Y0281335D01*
X0234973Y0281335D02*
X0235574Y0281935D01*
X0235574Y0282536D01*
X0234973Y0283136D01*
X0233772Y0283136D01*
X0233172Y0282536D01*
X0231891Y0282536D02*
X0231290Y0283136D01*
X0230089Y0283136D01*
X0229489Y0282536D01*
X0229489Y0280134D01*
X0268533Y0280633D02*
X0268533Y0284236D01*
X0270335Y0284236D01*
X0270935Y0283636D01*
X0270935Y0282435D01*
X0270335Y0281834D01*
X0268533Y0281834D01*
X0269734Y0281834D02*
X0270935Y0280633D01*
X0272216Y0281234D02*
X0272817Y0280633D01*
X0274018Y0280633D01*
X0274619Y0281234D01*
X0274619Y0281834D01*
X0274018Y0282435D01*
X0272216Y0282435D01*
X0272216Y0281234D01*
X0272216Y0282435D02*
X0273417Y0283636D01*
X0274619Y0284236D01*
X0297033Y0283136D02*
X0298234Y0283136D01*
X0297634Y0283136D02*
X0297634Y0279533D01*
X0298234Y0279533D02*
X0297033Y0279533D01*
X0299489Y0280134D02*
X0300089Y0279533D01*
X0301290Y0279533D01*
X0301891Y0280134D01*
X0303172Y0281335D02*
X0305574Y0281335D01*
X0304973Y0283136D02*
X0303172Y0281335D01*
X0301891Y0282536D02*
X0301290Y0283136D01*
X0300089Y0283136D01*
X0299489Y0282536D01*
X0299489Y0280134D01*
X0304973Y0279533D02*
X0304973Y0283136D01*
X0326033Y0300633D02*
X0326033Y0304236D01*
X0327835Y0304236D01*
X0328435Y0303636D01*
X0328435Y0302435D01*
X0327835Y0301834D01*
X0326033Y0301834D01*
X0327234Y0301834D02*
X0328435Y0300633D01*
X0329716Y0300633D02*
X0329716Y0301234D01*
X0332119Y0303636D01*
X0332119Y0304236D01*
X0329716Y0304236D01*
X0345768Y0282636D02*
X0345167Y0282036D01*
X0345167Y0279634D01*
X0345768Y0279033D01*
X0346969Y0279033D01*
X0347569Y0279634D01*
X0348850Y0279033D02*
X0351252Y0281435D01*
X0351252Y0282036D01*
X0350652Y0282636D01*
X0349451Y0282636D01*
X0348850Y0282036D01*
X0347569Y0282036D02*
X0346969Y0282636D01*
X0345768Y0282636D01*
X0348850Y0279033D02*
X0351252Y0279033D01*
X0350772Y0273136D02*
X0350172Y0272536D01*
X0350172Y0271935D01*
X0350772Y0271335D01*
X0352574Y0271335D01*
X0352574Y0272536D02*
X0351973Y0273136D01*
X0350772Y0273136D01*
X0352574Y0272536D02*
X0352574Y0270134D01*
X0351973Y0269533D01*
X0350772Y0269533D01*
X0350172Y0270134D01*
X0348891Y0270134D02*
X0348290Y0269533D01*
X0347089Y0269533D01*
X0346489Y0270134D01*
X0346489Y0272536D01*
X0347089Y0273136D01*
X0348290Y0273136D01*
X0348891Y0272536D01*
X0345234Y0273136D02*
X0344033Y0273136D01*
X0344634Y0273136D02*
X0344634Y0269533D01*
X0345234Y0269533D02*
X0344033Y0269533D01*
X0366033Y0300633D02*
X0366033Y0304236D01*
X0367835Y0304236D01*
X0368435Y0303636D01*
X0368435Y0302435D01*
X0367835Y0301834D01*
X0366033Y0301834D01*
X0367234Y0301834D02*
X0368435Y0300633D01*
X0369716Y0301234D02*
X0370317Y0300633D01*
X0371518Y0300633D01*
X0372119Y0301234D01*
X0372119Y0301834D01*
X0371518Y0302435D01*
X0370917Y0302435D01*
X0371518Y0302435D02*
X0372119Y0303035D01*
X0372119Y0303636D01*
X0371518Y0304236D01*
X0370317Y0304236D01*
X0369716Y0303636D01*
X0393667Y0197536D02*
X0395469Y0197536D01*
X0396069Y0196936D01*
X0396069Y0195735D01*
X0395469Y0195134D01*
X0393667Y0195134D01*
X0393667Y0193933D02*
X0393667Y0197536D01*
X0394868Y0195134D02*
X0396069Y0193933D01*
X0397350Y0193933D02*
X0399752Y0196335D01*
X0399752Y0196936D01*
X0399152Y0197536D01*
X0397951Y0197536D01*
X0397350Y0196936D01*
X0397350Y0193933D02*
X0399752Y0193933D01*
X0403667Y0193933D02*
X0403667Y0197536D01*
X0405469Y0197536D01*
X0406069Y0196936D01*
X0406069Y0195735D01*
X0405469Y0195134D01*
X0403667Y0195134D01*
X0404868Y0195134D02*
X0406069Y0193933D01*
X0407350Y0193933D02*
X0409752Y0193933D01*
X0408551Y0193933D02*
X0408551Y0197536D01*
X0407350Y0196335D01*
X0408119Y0117636D02*
X0405716Y0117636D01*
X0405716Y0115835D01*
X0406917Y0116435D01*
X0407518Y0116435D01*
X0408119Y0115835D01*
X0408119Y0114634D01*
X0407518Y0114033D01*
X0406317Y0114033D01*
X0405716Y0114634D01*
X0404435Y0114634D02*
X0403835Y0114033D01*
X0402634Y0114033D01*
X0402033Y0114634D01*
X0402033Y0117036D01*
X0402634Y0117636D01*
X0403835Y0117636D01*
X0404435Y0117036D01*
X0352101Y0094236D02*
X0352101Y0090633D01*
X0350900Y0090633D02*
X0353302Y0090633D01*
X0350900Y0093035D02*
X0352101Y0094236D01*
X0348417Y0094236D02*
X0348417Y0090633D01*
X0347216Y0090633D02*
X0349619Y0090633D01*
X0347216Y0093035D02*
X0348417Y0094236D01*
X0345935Y0093636D02*
X0345935Y0092435D01*
X0345335Y0091834D01*
X0343533Y0091834D01*
X0343533Y0090633D02*
X0343533Y0094236D01*
X0345335Y0094236D01*
X0345935Y0093636D01*
X0344734Y0091834D02*
X0345935Y0090633D01*
X0077119Y0088136D02*
X0074716Y0088136D01*
X0074716Y0086335D01*
X0075917Y0086935D01*
X0076518Y0086935D01*
X0077119Y0086335D01*
X0077119Y0085134D01*
X0076518Y0084533D01*
X0075317Y0084533D01*
X0074716Y0085134D01*
X0073435Y0084533D02*
X0071634Y0086335D01*
X0071033Y0085734D02*
X0073435Y0088136D01*
X0071033Y0088136D02*
X0071033Y0084533D01*
X0034752Y0105033D02*
X0032350Y0105033D01*
X0034752Y0107435D01*
X0034752Y0108036D01*
X0034152Y0108636D01*
X0032951Y0108636D01*
X0032350Y0108036D01*
X0031069Y0108636D02*
X0031069Y0106234D01*
X0029868Y0105033D01*
X0028667Y0106234D01*
X0028667Y0108636D01*
X0027386Y0108036D02*
X0026785Y0108636D01*
X0025584Y0108636D01*
X0024984Y0108036D01*
X0024984Y0107435D01*
X0025584Y0106835D01*
X0026785Y0106835D01*
X0027386Y0106234D01*
X0027386Y0105634D01*
X0026785Y0105033D01*
X0025584Y0105033D01*
X0024984Y0105634D01*
D17*
X0133333Y0134583D03*
X0133333Y0156083D03*
X0203333Y0156083D03*
X0203333Y0134583D03*
X0273333Y0134583D03*
X0273333Y0156083D03*
X0345833Y0126083D03*
X0345833Y0104583D03*
X0398333Y0207083D03*
X0408333Y0207083D03*
X0408333Y0228583D03*
X0398333Y0228583D03*
X0273333Y0249583D03*
X0273333Y0271083D03*
X0203333Y0271083D03*
X0203333Y0249583D03*
X0133333Y0249583D03*
X0133333Y0271083D03*
D18*
X0317583Y0295333D03*
X0339083Y0295333D03*
X0357583Y0295333D03*
X0379083Y0295333D03*
D19*
X0396083Y0297083D02*
X0396083Y0301587D01*
X0396834Y0299335D02*
X0399086Y0297083D01*
X0400687Y0299335D02*
X0402939Y0301587D01*
X0402939Y0297083D01*
X0403690Y0299335D02*
X0400687Y0299335D01*
X0399086Y0301587D02*
X0396083Y0298585D01*
X0400583Y0293482D02*
X0400583Y0290479D01*
X0400583Y0291981D02*
X0396079Y0291981D01*
X0397581Y0290479D01*
X0398331Y0237982D02*
X0399833Y0237982D01*
X0400583Y0237231D01*
X0400583Y0235730D01*
X0399833Y0234979D01*
X0398331Y0234979D02*
X0397581Y0236481D01*
X0397581Y0237231D01*
X0398331Y0237982D01*
X0396079Y0237982D02*
X0396079Y0234979D01*
X0398331Y0234979D01*
X0349981Y0195087D02*
X0348479Y0193586D01*
X0349981Y0195087D02*
X0349981Y0190583D01*
X0351482Y0190583D02*
X0348479Y0190583D01*
X0357329Y0183835D02*
X0359581Y0181583D01*
X0359581Y0184586D01*
X0361833Y0183835D02*
X0357329Y0183835D01*
X0305982Y0192835D02*
X0302979Y0192835D01*
X0305231Y0195087D01*
X0305231Y0190583D01*
X0301190Y0195334D02*
X0300439Y0194583D01*
X0298938Y0194583D01*
X0298187Y0195334D01*
X0296586Y0194583D02*
X0294334Y0196835D01*
X0293583Y0196085D02*
X0296586Y0199087D01*
X0298187Y0198337D02*
X0298938Y0199087D01*
X0300439Y0199087D01*
X0301190Y0198337D01*
X0301190Y0197586D01*
X0300439Y0196835D01*
X0301190Y0196085D01*
X0301190Y0195334D01*
X0300439Y0196835D02*
X0299689Y0196835D01*
X0293583Y0199087D02*
X0293583Y0194583D01*
X0357329Y0137585D02*
X0361833Y0137585D01*
X0361833Y0139086D02*
X0361833Y0136083D01*
X0361231Y0134837D02*
X0359730Y0134837D01*
X0358979Y0134087D01*
X0357378Y0134837D02*
X0354375Y0131835D01*
X0355126Y0132585D02*
X0357378Y0130333D01*
X0358979Y0130333D02*
X0361982Y0133336D01*
X0361982Y0134087D01*
X0361231Y0134837D01*
X0358831Y0136083D02*
X0357329Y0137585D01*
X0354375Y0134837D02*
X0354375Y0130333D01*
X0358979Y0130333D02*
X0361982Y0130333D01*
X0044083Y0206230D02*
X0043333Y0205479D01*
X0042582Y0205479D01*
X0041831Y0206230D01*
X0041831Y0207731D01*
X0042582Y0208482D01*
X0043333Y0208482D01*
X0044083Y0207731D01*
X0044083Y0206230D01*
X0041831Y0206230D02*
X0041081Y0205479D01*
X0040330Y0205479D01*
X0039579Y0206230D01*
X0039579Y0207731D01*
X0040330Y0208482D01*
X0041081Y0208482D01*
X0041831Y0207731D01*
X0026333Y0186586D02*
X0027083Y0185835D01*
X0027083Y0184334D01*
X0026333Y0183583D01*
X0025582Y0183583D01*
X0024831Y0184334D01*
X0024831Y0185835D01*
X0025582Y0186586D01*
X0026333Y0186586D01*
X0024831Y0185835D02*
X0024081Y0186586D01*
X0023330Y0186586D01*
X0022579Y0185835D01*
X0022579Y0184334D01*
X0023330Y0183583D01*
X0024081Y0183583D01*
X0024831Y0184334D01*
X0027083Y0116586D02*
X0027083Y0113583D01*
X0027083Y0115085D02*
X0022579Y0115085D01*
X0024081Y0113583D01*
X0041081Y0275479D02*
X0039579Y0276981D01*
X0044083Y0276981D01*
X0044083Y0278482D02*
X0044083Y0275479D01*
D20*
X0369652Y0189467D02*
X0369652Y0131199D01*
X0425951Y0131199D01*
X0425951Y0189467D01*
X0369652Y0189467D01*
D21*
X0392314Y0175108D02*
X0392314Y0174608D01*
X0392564Y0174357D01*
X0392814Y0174357D01*
X0393064Y0174608D01*
X0393064Y0175108D01*
X0393314Y0175358D01*
X0393565Y0175358D01*
X0393815Y0175108D01*
X0393815Y0174608D01*
X0393565Y0174357D01*
X0392564Y0175358D02*
X0392314Y0175108D01*
X0392564Y0172412D02*
X0392314Y0172161D01*
X0392314Y0171661D01*
X0392564Y0171411D01*
X0393565Y0171411D01*
X0393815Y0171661D01*
X0393815Y0172161D01*
X0393565Y0172412D01*
X0393815Y0169456D02*
X0393815Y0168955D01*
X0393815Y0169206D02*
X0392314Y0169206D01*
X0392314Y0169456D02*
X0392314Y0168955D01*
X0392314Y0167010D02*
X0393815Y0167010D01*
X0392314Y0166009D01*
X0393815Y0166009D01*
X0393565Y0164063D02*
X0392564Y0164063D01*
X0392314Y0163813D01*
X0392314Y0163313D01*
X0392564Y0163062D01*
X0393565Y0163062D01*
X0393815Y0163313D01*
X0393815Y0163813D01*
X0393565Y0164063D01*
X0393815Y0161117D02*
X0393314Y0160616D01*
X0393314Y0160866D02*
X0393314Y0160116D01*
X0393815Y0160116D02*
X0392314Y0160116D01*
X0392314Y0160866D01*
X0392564Y0161117D01*
X0393064Y0161117D01*
X0393314Y0160866D01*
X0392314Y0158170D02*
X0392314Y0157169D01*
X0392314Y0157670D02*
X0393815Y0157670D01*
X0393565Y0155224D02*
X0393815Y0154973D01*
X0393815Y0154473D01*
X0393565Y0154223D01*
X0392564Y0154223D01*
X0392314Y0154473D01*
X0392314Y0154973D01*
X0392564Y0155224D01*
X0392314Y0152277D02*
X0392314Y0151276D01*
X0393815Y0151276D01*
X0393815Y0152277D01*
X0393064Y0151777D02*
X0393064Y0151276D01*
X0393815Y0149331D02*
X0393815Y0148330D01*
X0392314Y0148330D01*
X0392314Y0146384D02*
X0392314Y0145383D01*
X0393815Y0145383D01*
X0393815Y0146384D01*
X0393064Y0145884D02*
X0393064Y0145383D01*
M02*
