G75*
%MOIN*%
%OFA0B0*%
%FSLAX25Y25*%
%IPPOS*%
%LPD*%
%AMOC8*
5,1,8,0,0,1.08239X$1,22.5*
%
%ADD10C,0.13398*%
%ADD11C,0.04000*%
%ADD12OC8,0.06000*%
%ADD13OC8,0.06343*%
%ADD14C,0.09461*%
%ADD15C,0.06000*%
%ADD16C,0.06800*%
%ADD17C,0.06540*%
%ADD18C,0.09855*%
%ADD19OC8,0.07100*%
%ADD20C,0.07100*%
%ADD21C,0.06400*%
%ADD22C,0.05156*%
D10*
X0033333Y0085333D03*
X0033333Y0295333D03*
X0413333Y0295333D03*
X0413333Y0085333D03*
D11*
X0379583Y0195333D02*
X0375833Y0195333D01*
X0137083Y0191583D02*
X0134583Y0194083D01*
X0137083Y0201583D02*
X0134583Y0204083D01*
X0137083Y0211583D02*
X0134583Y0214083D01*
X0137083Y0221583D02*
X0134583Y0224083D01*
X0137083Y0231583D02*
X0134583Y0234083D01*
X0063333Y0232833D02*
X0060833Y0230333D01*
X0063333Y0222833D02*
X0060833Y0220333D01*
X0063333Y0212833D02*
X0060833Y0210333D01*
X0060833Y0240333D02*
X0063333Y0242833D01*
X0060833Y0250333D02*
X0063333Y0252833D01*
X0060833Y0260333D02*
X0063333Y0262833D01*
X0060833Y0270333D02*
X0063333Y0272833D01*
X0060833Y0280333D02*
X0063333Y0282833D01*
X0060833Y0290333D02*
X0063333Y0292833D01*
X0060833Y0300333D02*
X0063333Y0302833D01*
D12*
X0073333Y0285333D03*
X0073333Y0275333D03*
X0073333Y0265333D03*
X0073333Y0255333D03*
X0073333Y0245333D03*
X0073333Y0235333D03*
X0073333Y0225333D03*
X0073333Y0215333D03*
X0083333Y0215333D03*
X0083333Y0225333D03*
X0083333Y0235333D03*
X0083333Y0245333D03*
X0083333Y0255333D03*
X0083333Y0265333D03*
X0083333Y0275333D03*
X0083333Y0285333D03*
X0098333Y0290333D03*
X0118333Y0290333D03*
X0133333Y0275333D03*
X0143333Y0275333D03*
X0153333Y0275333D03*
X0153333Y0265333D03*
X0143333Y0265333D03*
X0143333Y0255333D03*
X0153333Y0255333D03*
X0153333Y0245333D03*
X0143333Y0245333D03*
X0133333Y0245333D03*
X0143333Y0235333D03*
X0153333Y0235333D03*
X0153333Y0225333D03*
X0143333Y0225333D03*
X0143333Y0215333D03*
X0153333Y0215333D03*
X0203333Y0245333D03*
X0213333Y0245333D03*
X0223333Y0245333D03*
X0223333Y0235333D03*
X0213333Y0235333D03*
X0213333Y0225333D03*
X0223333Y0225333D03*
X0223333Y0215333D03*
X0213333Y0215333D03*
X0213333Y0255333D03*
X0223333Y0255333D03*
X0223333Y0265333D03*
X0213333Y0265333D03*
X0213333Y0275333D03*
X0203333Y0275333D03*
X0213333Y0285333D03*
X0223333Y0285333D03*
X0223333Y0275333D03*
X0273333Y0275333D03*
X0283333Y0275333D03*
X0293333Y0275333D03*
X0293333Y0265333D03*
X0283333Y0265333D03*
X0283333Y0255333D03*
X0293333Y0255333D03*
X0293333Y0245333D03*
X0283333Y0245333D03*
X0273333Y0245333D03*
X0283333Y0235333D03*
X0293333Y0235333D03*
X0293333Y0225333D03*
X0283333Y0225333D03*
X0283333Y0215333D03*
X0293333Y0215333D03*
X0308333Y0175333D03*
X0293333Y0170333D03*
X0283333Y0170333D03*
X0283333Y0160333D03*
X0273333Y0160333D03*
X0283333Y0150333D03*
X0293333Y0150333D03*
X0293333Y0140333D03*
X0283333Y0140333D03*
X0283333Y0130333D03*
X0273333Y0130333D03*
X0283333Y0120333D03*
X0293333Y0120333D03*
X0293333Y0110333D03*
X0283333Y0110333D03*
X0283333Y0100333D03*
X0293333Y0100333D03*
X0293333Y0130333D03*
X0293333Y0160333D03*
X0328333Y0175333D03*
X0345833Y0130333D03*
X0345833Y0100333D03*
X0223333Y0100333D03*
X0213333Y0100333D03*
X0213333Y0110333D03*
X0223333Y0110333D03*
X0223333Y0120333D03*
X0213333Y0120333D03*
X0213333Y0130333D03*
X0203333Y0130333D03*
X0213333Y0140333D03*
X0223333Y0140333D03*
X0223333Y0130333D03*
X0223333Y0150333D03*
X0213333Y0150333D03*
X0213333Y0160333D03*
X0203333Y0160333D03*
X0213333Y0170333D03*
X0223333Y0170333D03*
X0223333Y0160333D03*
X0153333Y0160333D03*
X0143333Y0160333D03*
X0133333Y0160333D03*
X0143333Y0150333D03*
X0153333Y0150333D03*
X0153333Y0140333D03*
X0143333Y0140333D03*
X0143333Y0130333D03*
X0133333Y0130333D03*
X0143333Y0120333D03*
X0153333Y0120333D03*
X0153333Y0110333D03*
X0143333Y0110333D03*
X0143333Y0100333D03*
X0153333Y0100333D03*
X0153333Y0130333D03*
X0153333Y0170333D03*
X0143333Y0170333D03*
X0118333Y0175333D03*
X0098333Y0175333D03*
X0083333Y0170333D03*
X0083333Y0160333D03*
X0083333Y0150333D03*
X0083333Y0140333D03*
X0083333Y0130333D03*
X0073333Y0130333D03*
X0073333Y0140333D03*
X0073333Y0150333D03*
X0073333Y0160333D03*
X0073333Y0170333D03*
X0073333Y0120333D03*
X0073333Y0110333D03*
X0073333Y0100333D03*
X0083333Y0100333D03*
X0083333Y0110333D03*
X0083333Y0120333D03*
X0143333Y0285333D03*
X0153333Y0285333D03*
X0283333Y0285333D03*
X0293333Y0285333D03*
X0313333Y0295333D03*
X0343333Y0295333D03*
X0353333Y0295333D03*
X0358333Y0280333D03*
X0378333Y0280333D03*
X0383333Y0295333D03*
X0398333Y0232833D03*
X0408333Y0232833D03*
X0408333Y0202833D03*
X0398333Y0202833D03*
D13*
X0394869Y0173719D03*
X0385026Y0173719D03*
X0394869Y0165451D03*
X0394869Y0155215D03*
X0394869Y0146948D03*
X0385026Y0146948D03*
D14*
X0406680Y0133759D03*
X0409829Y0160333D03*
X0406680Y0186908D03*
D15*
X0385933Y0205333D02*
X0380733Y0205333D01*
X0380733Y0215333D02*
X0385933Y0215333D01*
X0385933Y0225333D02*
X0380733Y0225333D01*
X0380733Y0235333D02*
X0385933Y0235333D01*
X0385933Y0245333D02*
X0380733Y0245333D01*
X0380733Y0255333D02*
X0385933Y0255333D01*
X0395733Y0255333D02*
X0400933Y0255333D01*
X0400933Y0245333D02*
X0395733Y0245333D01*
X0395733Y0265333D02*
X0400933Y0265333D01*
X0400933Y0275333D02*
X0395733Y0275333D01*
X0395733Y0285333D02*
X0400933Y0285333D01*
X0385933Y0265333D02*
X0380733Y0265333D01*
X0355933Y0265333D02*
X0350733Y0265333D01*
X0350733Y0255333D02*
X0355933Y0255333D01*
X0355933Y0245333D02*
X0350733Y0245333D01*
X0350733Y0235333D02*
X0355933Y0235333D01*
X0355933Y0225333D02*
X0350733Y0225333D01*
X0350733Y0215333D02*
X0355933Y0215333D01*
X0355933Y0205333D02*
X0350733Y0205333D01*
X0335933Y0205333D02*
X0330733Y0205333D01*
X0330733Y0215333D02*
X0335933Y0215333D01*
X0335933Y0225333D02*
X0330733Y0225333D01*
X0330733Y0235333D02*
X0335933Y0235333D01*
X0335933Y0245333D02*
X0330733Y0245333D01*
X0330733Y0255333D02*
X0335933Y0255333D01*
X0335933Y0265333D02*
X0330733Y0265333D01*
X0330733Y0275333D02*
X0335933Y0275333D01*
X0305933Y0275333D02*
X0300733Y0275333D01*
X0300733Y0265333D02*
X0305933Y0265333D01*
X0305933Y0255333D02*
X0300733Y0255333D01*
X0300733Y0245333D02*
X0305933Y0245333D01*
X0305933Y0235333D02*
X0300733Y0235333D01*
X0300733Y0225333D02*
X0305933Y0225333D01*
X0305933Y0215333D02*
X0300733Y0215333D01*
X0300733Y0205333D02*
X0305933Y0205333D01*
X0265933Y0205333D02*
X0260733Y0205333D01*
X0260733Y0215333D02*
X0265933Y0215333D01*
X0265933Y0225333D02*
X0260733Y0225333D01*
X0260733Y0235333D02*
X0265933Y0235333D01*
X0265933Y0245333D02*
X0260733Y0245333D01*
X0260733Y0255333D02*
X0265933Y0255333D01*
X0265933Y0265333D02*
X0260733Y0265333D01*
X0260733Y0275333D02*
X0265933Y0275333D01*
X0235933Y0275333D02*
X0230733Y0275333D01*
X0230733Y0265333D02*
X0235933Y0265333D01*
X0235933Y0255333D02*
X0230733Y0255333D01*
X0230733Y0245333D02*
X0235933Y0245333D01*
X0235933Y0235333D02*
X0230733Y0235333D01*
X0230733Y0225333D02*
X0235933Y0225333D01*
X0235933Y0215333D02*
X0230733Y0215333D01*
X0230733Y0205333D02*
X0235933Y0205333D01*
X0195933Y0205333D02*
X0190733Y0205333D01*
X0190733Y0215333D02*
X0195933Y0215333D01*
X0195933Y0225333D02*
X0190733Y0225333D01*
X0190733Y0235333D02*
X0195933Y0235333D01*
X0195933Y0245333D02*
X0190733Y0245333D01*
X0190733Y0255333D02*
X0195933Y0255333D01*
X0195933Y0265333D02*
X0190733Y0265333D01*
X0190733Y0275333D02*
X0195933Y0275333D01*
X0165933Y0275333D02*
X0160733Y0275333D01*
X0160733Y0265333D02*
X0165933Y0265333D01*
X0165933Y0255333D02*
X0160733Y0255333D01*
X0160733Y0245333D02*
X0165933Y0245333D01*
X0165933Y0235333D02*
X0160733Y0235333D01*
X0160733Y0225333D02*
X0165933Y0225333D01*
X0165933Y0215333D02*
X0160733Y0215333D01*
X0160733Y0205333D02*
X0165933Y0205333D01*
X0125933Y0205333D02*
X0120733Y0205333D01*
X0120733Y0215333D02*
X0125933Y0215333D01*
X0125933Y0225333D02*
X0120733Y0225333D01*
X0120733Y0235333D02*
X0125933Y0235333D01*
X0125933Y0245333D02*
X0120733Y0245333D01*
X0120733Y0255333D02*
X0125933Y0255333D01*
X0125933Y0265333D02*
X0120733Y0265333D01*
X0120733Y0275333D02*
X0125933Y0275333D01*
X0095933Y0275333D02*
X0090733Y0275333D01*
X0090733Y0265333D02*
X0095933Y0265333D01*
X0095933Y0255333D02*
X0090733Y0255333D01*
X0090733Y0245333D02*
X0095933Y0245333D01*
X0095933Y0235333D02*
X0090733Y0235333D01*
X0090733Y0225333D02*
X0095933Y0225333D01*
X0095933Y0215333D02*
X0090733Y0215333D01*
X0090733Y0205333D02*
X0095933Y0205333D01*
X0035933Y0207833D02*
X0030733Y0207833D01*
X0030733Y0217833D02*
X0035933Y0217833D01*
X0035933Y0227833D02*
X0030733Y0227833D01*
X0030733Y0237833D02*
X0035933Y0237833D01*
X0035933Y0247833D02*
X0030733Y0247833D01*
X0030733Y0257833D02*
X0035933Y0257833D01*
X0035933Y0267833D02*
X0030733Y0267833D01*
X0030733Y0277833D02*
X0035933Y0277833D01*
X0035933Y0185333D02*
X0030733Y0185333D01*
X0030733Y0175333D02*
X0035933Y0175333D01*
X0035933Y0165333D02*
X0030733Y0165333D01*
X0030733Y0155333D02*
X0035933Y0155333D01*
X0035933Y0145333D02*
X0030733Y0145333D01*
X0030733Y0135333D02*
X0035933Y0135333D01*
X0035933Y0125333D02*
X0030733Y0125333D01*
X0030733Y0115333D02*
X0035933Y0115333D01*
X0090733Y0110333D02*
X0095933Y0110333D01*
X0095933Y0100333D02*
X0090733Y0100333D01*
X0090733Y0090333D02*
X0095933Y0090333D01*
X0120733Y0090333D02*
X0125933Y0090333D01*
X0125933Y0100333D02*
X0120733Y0100333D01*
X0120733Y0110333D02*
X0125933Y0110333D01*
X0125933Y0120333D02*
X0120733Y0120333D01*
X0120733Y0130333D02*
X0125933Y0130333D01*
X0125933Y0140333D02*
X0120733Y0140333D01*
X0120733Y0150333D02*
X0125933Y0150333D01*
X0125933Y0160333D02*
X0120733Y0160333D01*
X0095933Y0160333D02*
X0090733Y0160333D01*
X0090733Y0150333D02*
X0095933Y0150333D01*
X0095933Y0140333D02*
X0090733Y0140333D01*
X0090733Y0130333D02*
X0095933Y0130333D01*
X0095933Y0120333D02*
X0090733Y0120333D01*
X0160733Y0120333D02*
X0165933Y0120333D01*
X0165933Y0110333D02*
X0160733Y0110333D01*
X0160733Y0100333D02*
X0165933Y0100333D01*
X0165933Y0090333D02*
X0160733Y0090333D01*
X0190733Y0090333D02*
X0195933Y0090333D01*
X0195933Y0100333D02*
X0190733Y0100333D01*
X0190733Y0110333D02*
X0195933Y0110333D01*
X0195933Y0120333D02*
X0190733Y0120333D01*
X0190733Y0130333D02*
X0195933Y0130333D01*
X0195933Y0140333D02*
X0190733Y0140333D01*
X0190733Y0150333D02*
X0195933Y0150333D01*
X0195933Y0160333D02*
X0190733Y0160333D01*
X0165933Y0160333D02*
X0160733Y0160333D01*
X0160733Y0150333D02*
X0165933Y0150333D01*
X0165933Y0140333D02*
X0160733Y0140333D01*
X0160733Y0130333D02*
X0165933Y0130333D01*
X0230733Y0130333D02*
X0235933Y0130333D01*
X0235933Y0140333D02*
X0230733Y0140333D01*
X0230733Y0150333D02*
X0235933Y0150333D01*
X0235933Y0160333D02*
X0230733Y0160333D01*
X0260733Y0160333D02*
X0265933Y0160333D01*
X0265933Y0150333D02*
X0260733Y0150333D01*
X0260733Y0140333D02*
X0265933Y0140333D01*
X0265933Y0130333D02*
X0260733Y0130333D01*
X0260733Y0120333D02*
X0265933Y0120333D01*
X0265933Y0110333D02*
X0260733Y0110333D01*
X0260733Y0100333D02*
X0265933Y0100333D01*
X0265933Y0090333D02*
X0260733Y0090333D01*
X0235933Y0090333D02*
X0230733Y0090333D01*
X0230733Y0100333D02*
X0235933Y0100333D01*
X0235933Y0110333D02*
X0230733Y0110333D01*
X0230733Y0120333D02*
X0235933Y0120333D01*
X0300733Y0120333D02*
X0305933Y0120333D01*
X0305933Y0110333D02*
X0300733Y0110333D01*
X0300733Y0100333D02*
X0305933Y0100333D01*
X0305933Y0090333D02*
X0300733Y0090333D01*
X0330733Y0090333D02*
X0335933Y0090333D01*
X0335933Y0100333D02*
X0330733Y0100333D01*
X0330733Y0110333D02*
X0335933Y0110333D01*
X0335933Y0120333D02*
X0330733Y0120333D01*
X0330733Y0130333D02*
X0335933Y0130333D01*
X0335933Y0140333D02*
X0330733Y0140333D01*
X0330733Y0150333D02*
X0335933Y0150333D01*
X0335933Y0160333D02*
X0330733Y0160333D01*
X0305933Y0160333D02*
X0300733Y0160333D01*
X0300733Y0150333D02*
X0305933Y0150333D01*
X0305933Y0140333D02*
X0300733Y0140333D01*
X0300733Y0130333D02*
X0305933Y0130333D01*
D16*
X0356583Y0145333D02*
X0362583Y0145333D01*
X0362583Y0155333D02*
X0356583Y0155333D01*
X0356583Y0165333D02*
X0362583Y0165333D01*
X0362583Y0175333D02*
X0356583Y0175333D01*
X0343333Y0189833D02*
X0343333Y0195833D01*
X0333333Y0195833D02*
X0333333Y0189833D01*
X0323333Y0189833D02*
X0323333Y0195833D01*
X0313333Y0195833D02*
X0313333Y0189833D01*
D17*
X0372294Y0174113D02*
X0378034Y0174113D01*
X0378034Y0164270D02*
X0372294Y0164270D01*
X0372294Y0156396D02*
X0378034Y0156396D01*
X0378034Y0146554D02*
X0372294Y0146554D01*
D18*
X0385833Y0134467D03*
X0385833Y0186199D03*
D19*
X0390333Y0105333D03*
D20*
X0376333Y0105333D03*
D21*
X0053333Y0088133D02*
X0053333Y0082533D01*
X0063333Y0082533D02*
X0063333Y0088133D01*
D22*
X0243333Y0100333D03*
X0243333Y0110333D03*
X0243333Y0120333D03*
X0243333Y0215333D03*
X0243333Y0225333D03*
X0243333Y0235333D03*
M02*
