G75*
%MOIN*%
%OFA0B0*%
%FSLAX25Y25*%
%IPPOS*%
%LPD*%
%AMOC8*
5,1,8,0,0,1.08239X$1,22.5*
%
%ADD10C,0.01100*%
%ADD11OC8,0.05200*%
%ADD12OC8,0.05543*%
%ADD13C,0.05200*%
%ADD14C,0.06000*%
%ADD15C,0.05740*%
%ADD16OC8,0.06300*%
%ADD17C,0.06300*%
%ADD18C,0.05600*%
%ADD19C,0.01600*%
%ADD20C,0.01200*%
%ADD21C,0.02400*%
%ADD22C,0.04356*%
D10*
X0370213Y0078383D02*
X0373166Y0078383D01*
X0374150Y0079367D01*
X0373166Y0080352D01*
X0370213Y0080352D01*
X0370213Y0081336D02*
X0370213Y0078383D01*
X0370213Y0081336D02*
X0371197Y0082320D01*
X0373166Y0082320D01*
X0376659Y0082320D02*
X0379611Y0082320D01*
X0380595Y0081336D01*
X0380595Y0079367D01*
X0379611Y0078383D01*
X0376659Y0078383D01*
X0376659Y0084288D01*
X0383908Y0084288D02*
X0383908Y0078383D01*
X0384892Y0078383D02*
X0382924Y0078383D01*
X0387401Y0079367D02*
X0387401Y0081336D01*
X0388385Y0082320D01*
X0390354Y0082320D01*
X0391338Y0081336D01*
X0391338Y0079367D01*
X0390354Y0078383D01*
X0388385Y0078383D01*
X0387401Y0079367D01*
X0384892Y0084288D02*
X0383908Y0084288D01*
X0393847Y0082320D02*
X0396799Y0082320D01*
X0397783Y0081336D01*
X0396799Y0080352D01*
X0394831Y0080352D01*
X0393847Y0079367D01*
X0394831Y0078383D01*
X0397783Y0078383D01*
D11*
X0345833Y0100333D03*
X0345833Y0130333D03*
X0293333Y0130333D03*
X0283333Y0130333D03*
X0273333Y0130333D03*
X0283333Y0140333D03*
X0293333Y0140333D03*
X0293333Y0150333D03*
X0283333Y0150333D03*
X0283333Y0160333D03*
X0273333Y0160333D03*
X0283333Y0170333D03*
X0293333Y0170333D03*
X0293333Y0160333D03*
X0308333Y0175333D03*
X0328333Y0175333D03*
X0293333Y0215333D03*
X0283333Y0215333D03*
X0283333Y0225333D03*
X0293333Y0225333D03*
X0293333Y0235333D03*
X0283333Y0235333D03*
X0283333Y0245333D03*
X0273333Y0245333D03*
X0283333Y0255333D03*
X0293333Y0255333D03*
X0293333Y0245333D03*
X0293333Y0265333D03*
X0283333Y0265333D03*
X0283333Y0275333D03*
X0273333Y0275333D03*
X0283333Y0285333D03*
X0293333Y0285333D03*
X0293333Y0275333D03*
X0313333Y0295333D03*
X0343333Y0295333D03*
X0353333Y0295333D03*
X0358333Y0280333D03*
X0378333Y0280333D03*
X0383333Y0295333D03*
X0398333Y0232833D03*
X0408333Y0232833D03*
X0408333Y0202833D03*
X0398333Y0202833D03*
X0293333Y0120333D03*
X0283333Y0120333D03*
X0283333Y0110333D03*
X0293333Y0110333D03*
X0293333Y0100333D03*
X0283333Y0100333D03*
X0223333Y0100333D03*
X0213333Y0100333D03*
X0213333Y0110333D03*
X0223333Y0110333D03*
X0223333Y0120333D03*
X0213333Y0120333D03*
X0213333Y0130333D03*
X0203333Y0130333D03*
X0213333Y0140333D03*
X0223333Y0140333D03*
X0223333Y0130333D03*
X0223333Y0150333D03*
X0213333Y0150333D03*
X0213333Y0160333D03*
X0203333Y0160333D03*
X0213333Y0170333D03*
X0223333Y0170333D03*
X0223333Y0160333D03*
X0153333Y0160333D03*
X0143333Y0160333D03*
X0133333Y0160333D03*
X0143333Y0150333D03*
X0153333Y0150333D03*
X0153333Y0140333D03*
X0143333Y0140333D03*
X0143333Y0130333D03*
X0133333Y0130333D03*
X0143333Y0120333D03*
X0153333Y0120333D03*
X0153333Y0110333D03*
X0143333Y0110333D03*
X0143333Y0100333D03*
X0153333Y0100333D03*
X0153333Y0130333D03*
X0153333Y0170333D03*
X0143333Y0170333D03*
X0118333Y0175333D03*
X0098333Y0175333D03*
X0083333Y0170333D03*
X0083333Y0160333D03*
X0083333Y0150333D03*
X0083333Y0140333D03*
X0083333Y0130333D03*
X0073333Y0130333D03*
X0073333Y0140333D03*
X0073333Y0150333D03*
X0073333Y0160333D03*
X0073333Y0170333D03*
X0073333Y0215333D03*
X0073333Y0225333D03*
X0073333Y0235333D03*
X0073333Y0245333D03*
X0073333Y0255333D03*
X0073333Y0265333D03*
X0073333Y0275333D03*
X0073333Y0285333D03*
X0083333Y0285333D03*
X0083333Y0275333D03*
X0083333Y0265333D03*
X0083333Y0255333D03*
X0083333Y0245333D03*
X0083333Y0235333D03*
X0083333Y0225333D03*
X0083333Y0215333D03*
X0133333Y0245333D03*
X0143333Y0245333D03*
X0153333Y0245333D03*
X0153333Y0235333D03*
X0143333Y0235333D03*
X0143333Y0225333D03*
X0153333Y0225333D03*
X0153333Y0215333D03*
X0143333Y0215333D03*
X0143333Y0255333D03*
X0153333Y0255333D03*
X0153333Y0265333D03*
X0143333Y0265333D03*
X0143333Y0275333D03*
X0133333Y0275333D03*
X0143333Y0285333D03*
X0153333Y0285333D03*
X0153333Y0275333D03*
X0118333Y0290333D03*
X0098333Y0290333D03*
X0203333Y0275333D03*
X0213333Y0275333D03*
X0223333Y0275333D03*
X0223333Y0265333D03*
X0213333Y0265333D03*
X0213333Y0255333D03*
X0223333Y0255333D03*
X0223333Y0245333D03*
X0213333Y0245333D03*
X0203333Y0245333D03*
X0213333Y0235333D03*
X0223333Y0235333D03*
X0223333Y0225333D03*
X0213333Y0225333D03*
X0213333Y0215333D03*
X0223333Y0215333D03*
X0223333Y0285333D03*
X0213333Y0285333D03*
X0083333Y0120333D03*
X0083333Y0110333D03*
X0083333Y0100333D03*
X0073333Y0100333D03*
X0073333Y0110333D03*
X0073333Y0120333D03*
D12*
X0385026Y0146948D03*
X0394869Y0146948D03*
X0394869Y0155215D03*
X0394869Y0165451D03*
X0394869Y0173719D03*
X0385026Y0173719D03*
D13*
X0385933Y0205333D02*
X0380733Y0205333D01*
X0380733Y0215333D02*
X0385933Y0215333D01*
X0385933Y0225333D02*
X0380733Y0225333D01*
X0380733Y0235333D02*
X0385933Y0235333D01*
X0385933Y0245333D02*
X0380733Y0245333D01*
X0380733Y0255333D02*
X0385933Y0255333D01*
X0395733Y0255333D02*
X0400933Y0255333D01*
X0400933Y0245333D02*
X0395733Y0245333D01*
X0395733Y0265333D02*
X0400933Y0265333D01*
X0400933Y0275333D02*
X0395733Y0275333D01*
X0395733Y0285333D02*
X0400933Y0285333D01*
X0385933Y0265333D02*
X0380733Y0265333D01*
X0355933Y0265333D02*
X0350733Y0265333D01*
X0350733Y0255333D02*
X0355933Y0255333D01*
X0355933Y0245333D02*
X0350733Y0245333D01*
X0350733Y0235333D02*
X0355933Y0235333D01*
X0355933Y0225333D02*
X0350733Y0225333D01*
X0350733Y0215333D02*
X0355933Y0215333D01*
X0355933Y0205333D02*
X0350733Y0205333D01*
X0335933Y0205333D02*
X0330733Y0205333D01*
X0330733Y0215333D02*
X0335933Y0215333D01*
X0335933Y0225333D02*
X0330733Y0225333D01*
X0330733Y0235333D02*
X0335933Y0235333D01*
X0335933Y0245333D02*
X0330733Y0245333D01*
X0330733Y0255333D02*
X0335933Y0255333D01*
X0335933Y0265333D02*
X0330733Y0265333D01*
X0330733Y0275333D02*
X0335933Y0275333D01*
X0305933Y0275333D02*
X0300733Y0275333D01*
X0300733Y0265333D02*
X0305933Y0265333D01*
X0305933Y0255333D02*
X0300733Y0255333D01*
X0300733Y0245333D02*
X0305933Y0245333D01*
X0305933Y0235333D02*
X0300733Y0235333D01*
X0300733Y0225333D02*
X0305933Y0225333D01*
X0305933Y0215333D02*
X0300733Y0215333D01*
X0300733Y0205333D02*
X0305933Y0205333D01*
X0265933Y0205333D02*
X0260733Y0205333D01*
X0260733Y0215333D02*
X0265933Y0215333D01*
X0265933Y0225333D02*
X0260733Y0225333D01*
X0260733Y0235333D02*
X0265933Y0235333D01*
X0265933Y0245333D02*
X0260733Y0245333D01*
X0260733Y0255333D02*
X0265933Y0255333D01*
X0265933Y0265333D02*
X0260733Y0265333D01*
X0260733Y0275333D02*
X0265933Y0275333D01*
X0235933Y0275333D02*
X0230733Y0275333D01*
X0230733Y0265333D02*
X0235933Y0265333D01*
X0235933Y0255333D02*
X0230733Y0255333D01*
X0230733Y0245333D02*
X0235933Y0245333D01*
X0235933Y0235333D02*
X0230733Y0235333D01*
X0230733Y0225333D02*
X0235933Y0225333D01*
X0235933Y0215333D02*
X0230733Y0215333D01*
X0230733Y0205333D02*
X0235933Y0205333D01*
X0195933Y0205333D02*
X0190733Y0205333D01*
X0190733Y0215333D02*
X0195933Y0215333D01*
X0195933Y0225333D02*
X0190733Y0225333D01*
X0190733Y0235333D02*
X0195933Y0235333D01*
X0195933Y0245333D02*
X0190733Y0245333D01*
X0190733Y0255333D02*
X0195933Y0255333D01*
X0195933Y0265333D02*
X0190733Y0265333D01*
X0190733Y0275333D02*
X0195933Y0275333D01*
X0165933Y0275333D02*
X0160733Y0275333D01*
X0160733Y0265333D02*
X0165933Y0265333D01*
X0165933Y0255333D02*
X0160733Y0255333D01*
X0160733Y0245333D02*
X0165933Y0245333D01*
X0165933Y0235333D02*
X0160733Y0235333D01*
X0160733Y0225333D02*
X0165933Y0225333D01*
X0165933Y0215333D02*
X0160733Y0215333D01*
X0160733Y0205333D02*
X0165933Y0205333D01*
X0125933Y0205333D02*
X0120733Y0205333D01*
X0120733Y0215333D02*
X0125933Y0215333D01*
X0125933Y0225333D02*
X0120733Y0225333D01*
X0120733Y0235333D02*
X0125933Y0235333D01*
X0125933Y0245333D02*
X0120733Y0245333D01*
X0120733Y0255333D02*
X0125933Y0255333D01*
X0125933Y0265333D02*
X0120733Y0265333D01*
X0120733Y0275333D02*
X0125933Y0275333D01*
X0095933Y0275333D02*
X0090733Y0275333D01*
X0090733Y0265333D02*
X0095933Y0265333D01*
X0095933Y0255333D02*
X0090733Y0255333D01*
X0090733Y0245333D02*
X0095933Y0245333D01*
X0095933Y0235333D02*
X0090733Y0235333D01*
X0090733Y0225333D02*
X0095933Y0225333D01*
X0095933Y0215333D02*
X0090733Y0215333D01*
X0090733Y0205333D02*
X0095933Y0205333D01*
X0035933Y0207833D02*
X0030733Y0207833D01*
X0030733Y0217833D02*
X0035933Y0217833D01*
X0035933Y0227833D02*
X0030733Y0227833D01*
X0030733Y0237833D02*
X0035933Y0237833D01*
X0035933Y0247833D02*
X0030733Y0247833D01*
X0030733Y0257833D02*
X0035933Y0257833D01*
X0035933Y0267833D02*
X0030733Y0267833D01*
X0030733Y0277833D02*
X0035933Y0277833D01*
X0035933Y0185333D02*
X0030733Y0185333D01*
X0030733Y0175333D02*
X0035933Y0175333D01*
X0035933Y0165333D02*
X0030733Y0165333D01*
X0030733Y0155333D02*
X0035933Y0155333D01*
X0035933Y0145333D02*
X0030733Y0145333D01*
X0030733Y0135333D02*
X0035933Y0135333D01*
X0035933Y0125333D02*
X0030733Y0125333D01*
X0030733Y0115333D02*
X0035933Y0115333D01*
X0090733Y0110333D02*
X0095933Y0110333D01*
X0095933Y0100333D02*
X0090733Y0100333D01*
X0090733Y0090333D02*
X0095933Y0090333D01*
X0120733Y0090333D02*
X0125933Y0090333D01*
X0125933Y0100333D02*
X0120733Y0100333D01*
X0120733Y0110333D02*
X0125933Y0110333D01*
X0125933Y0120333D02*
X0120733Y0120333D01*
X0120733Y0130333D02*
X0125933Y0130333D01*
X0125933Y0140333D02*
X0120733Y0140333D01*
X0120733Y0150333D02*
X0125933Y0150333D01*
X0125933Y0160333D02*
X0120733Y0160333D01*
X0095933Y0160333D02*
X0090733Y0160333D01*
X0090733Y0150333D02*
X0095933Y0150333D01*
X0095933Y0140333D02*
X0090733Y0140333D01*
X0090733Y0130333D02*
X0095933Y0130333D01*
X0095933Y0120333D02*
X0090733Y0120333D01*
X0160733Y0120333D02*
X0165933Y0120333D01*
X0165933Y0110333D02*
X0160733Y0110333D01*
X0160733Y0100333D02*
X0165933Y0100333D01*
X0165933Y0090333D02*
X0160733Y0090333D01*
X0190733Y0090333D02*
X0195933Y0090333D01*
X0195933Y0100333D02*
X0190733Y0100333D01*
X0190733Y0110333D02*
X0195933Y0110333D01*
X0195933Y0120333D02*
X0190733Y0120333D01*
X0190733Y0130333D02*
X0195933Y0130333D01*
X0195933Y0140333D02*
X0190733Y0140333D01*
X0190733Y0150333D02*
X0195933Y0150333D01*
X0195933Y0160333D02*
X0190733Y0160333D01*
X0165933Y0160333D02*
X0160733Y0160333D01*
X0160733Y0150333D02*
X0165933Y0150333D01*
X0165933Y0140333D02*
X0160733Y0140333D01*
X0160733Y0130333D02*
X0165933Y0130333D01*
X0230733Y0130333D02*
X0235933Y0130333D01*
X0235933Y0140333D02*
X0230733Y0140333D01*
X0230733Y0150333D02*
X0235933Y0150333D01*
X0235933Y0160333D02*
X0230733Y0160333D01*
X0260733Y0160333D02*
X0265933Y0160333D01*
X0265933Y0150333D02*
X0260733Y0150333D01*
X0260733Y0140333D02*
X0265933Y0140333D01*
X0265933Y0130333D02*
X0260733Y0130333D01*
X0260733Y0120333D02*
X0265933Y0120333D01*
X0265933Y0110333D02*
X0260733Y0110333D01*
X0260733Y0100333D02*
X0265933Y0100333D01*
X0265933Y0090333D02*
X0260733Y0090333D01*
X0235933Y0090333D02*
X0230733Y0090333D01*
X0230733Y0100333D02*
X0235933Y0100333D01*
X0235933Y0110333D02*
X0230733Y0110333D01*
X0230733Y0120333D02*
X0235933Y0120333D01*
X0300733Y0120333D02*
X0305933Y0120333D01*
X0305933Y0110333D02*
X0300733Y0110333D01*
X0300733Y0100333D02*
X0305933Y0100333D01*
X0305933Y0090333D02*
X0300733Y0090333D01*
X0330733Y0090333D02*
X0335933Y0090333D01*
X0335933Y0100333D02*
X0330733Y0100333D01*
X0330733Y0110333D02*
X0335933Y0110333D01*
X0335933Y0120333D02*
X0330733Y0120333D01*
X0330733Y0130333D02*
X0335933Y0130333D01*
X0335933Y0140333D02*
X0330733Y0140333D01*
X0330733Y0150333D02*
X0335933Y0150333D01*
X0335933Y0160333D02*
X0330733Y0160333D01*
X0305933Y0160333D02*
X0300733Y0160333D01*
X0300733Y0150333D02*
X0305933Y0150333D01*
X0305933Y0140333D02*
X0300733Y0140333D01*
X0300733Y0130333D02*
X0305933Y0130333D01*
D14*
X0356583Y0145333D02*
X0362583Y0145333D01*
X0362583Y0155333D02*
X0356583Y0155333D01*
X0356583Y0165333D02*
X0362583Y0165333D01*
X0362583Y0175333D02*
X0356583Y0175333D01*
X0343333Y0189833D02*
X0343333Y0195833D01*
X0333333Y0195833D02*
X0333333Y0189833D01*
X0323333Y0189833D02*
X0323333Y0195833D01*
X0313333Y0195833D02*
X0313333Y0189833D01*
D15*
X0372294Y0174113D02*
X0378034Y0174113D01*
X0378034Y0164270D02*
X0372294Y0164270D01*
X0372294Y0156396D02*
X0378034Y0156396D01*
X0378034Y0146554D02*
X0372294Y0146554D01*
D16*
X0390333Y0105333D03*
D17*
X0376333Y0105333D03*
D18*
X0063333Y0088133D02*
X0063333Y0082533D01*
X0053333Y0082533D02*
X0053333Y0088133D01*
D19*
X0042215Y0078518D02*
X0041430Y0077733D01*
X0059648Y0077733D01*
X0058247Y0079135D01*
X0057582Y0080739D01*
X0057268Y0080122D01*
X0056842Y0079537D01*
X0056330Y0079025D01*
X0055744Y0078599D01*
X0055099Y0078270D01*
X0054410Y0078047D01*
X0053695Y0077933D01*
X0053433Y0077933D01*
X0053433Y0085233D01*
X0053233Y0085233D01*
X0053233Y0077933D01*
X0052971Y0077933D01*
X0052256Y0078047D01*
X0051568Y0078270D01*
X0050922Y0078599D01*
X0050337Y0079025D01*
X0049825Y0079537D01*
X0049399Y0080122D01*
X0049070Y0080768D01*
X0048847Y0081456D01*
X0048733Y0082171D01*
X0048733Y0085233D01*
X0053233Y0085233D01*
X0053233Y0085433D01*
X0048733Y0085433D01*
X0048733Y0088495D01*
X0048847Y0089210D01*
X0049070Y0089899D01*
X0049399Y0090544D01*
X0049825Y0091130D01*
X0050337Y0091642D01*
X0050922Y0092068D01*
X0051568Y0092396D01*
X0052256Y0092620D01*
X0052971Y0092733D01*
X0053233Y0092733D01*
X0053233Y0085433D01*
X0053433Y0085433D01*
X0053433Y0092733D01*
X0053695Y0092733D01*
X0054410Y0092620D01*
X0055099Y0092396D01*
X0055744Y0092068D01*
X0056330Y0091642D01*
X0056842Y0091130D01*
X0057268Y0090544D01*
X0057582Y0089927D01*
X0058247Y0091532D01*
X0059935Y0093220D01*
X0062140Y0094133D01*
X0064527Y0094133D01*
X0066732Y0093220D01*
X0068420Y0091532D01*
X0069333Y0089327D01*
X0069333Y0084733D01*
X0119097Y0084733D01*
X0117448Y0085416D01*
X0115816Y0087048D01*
X0114933Y0089180D01*
X0114933Y0091487D01*
X0114953Y0091533D01*
X0100170Y0091533D01*
X0100225Y0091364D01*
X0100333Y0090680D01*
X0100333Y0090333D01*
X0093333Y0090333D01*
X0093333Y0090333D01*
X0093333Y0085933D01*
X0090387Y0085933D01*
X0089703Y0086042D01*
X0089044Y0086256D01*
X0088427Y0086570D01*
X0087867Y0086977D01*
X0087377Y0087467D01*
X0086970Y0088027D01*
X0086656Y0088644D01*
X0086442Y0089303D01*
X0086333Y0089987D01*
X0086333Y0090333D01*
X0093333Y0090333D01*
X0093333Y0090333D01*
X0093333Y0085933D01*
X0096280Y0085933D01*
X0096964Y0086042D01*
X0097622Y0086256D01*
X0098239Y0086570D01*
X0098800Y0086977D01*
X0099289Y0087467D01*
X0099697Y0088027D01*
X0100011Y0088644D01*
X0100225Y0089303D01*
X0100333Y0089987D01*
X0100333Y0090333D01*
X0093333Y0090333D01*
X0086333Y0090333D01*
X0086333Y0090680D01*
X0086442Y0091364D01*
X0086497Y0091533D01*
X0077577Y0091533D01*
X0076181Y0092112D01*
X0075112Y0093181D01*
X0073759Y0094533D01*
X0070931Y0094533D01*
X0068931Y0096533D01*
X0055077Y0096533D01*
X0053681Y0097112D01*
X0046181Y0104612D01*
X0045112Y0105681D01*
X0044533Y0107077D01*
X0044533Y0201259D01*
X0041759Y0204033D01*
X0040336Y0204033D01*
X0039219Y0202916D01*
X0037087Y0202033D01*
X0029580Y0202033D01*
X0027448Y0202916D01*
X0025816Y0204548D01*
X0024933Y0206680D01*
X0024933Y0208987D01*
X0025816Y0211119D01*
X0027448Y0212750D01*
X0027648Y0212833D01*
X0027448Y0212916D01*
X0025816Y0214548D01*
X0024933Y0216680D01*
X0024933Y0218987D01*
X0025816Y0221119D01*
X0027448Y0222750D01*
X0027648Y0222833D01*
X0027448Y0222916D01*
X0025816Y0224548D01*
X0024933Y0226680D01*
X0024933Y0228987D01*
X0025816Y0231119D01*
X0027448Y0232750D01*
X0027648Y0232833D01*
X0027448Y0232916D01*
X0025816Y0234548D01*
X0024933Y0236680D01*
X0024933Y0238987D01*
X0025816Y0241119D01*
X0027448Y0242750D01*
X0027648Y0242833D01*
X0027448Y0242916D01*
X0025816Y0244548D01*
X0024933Y0246680D01*
X0024933Y0248987D01*
X0025816Y0251119D01*
X0027448Y0252750D01*
X0027648Y0252833D01*
X0027448Y0252916D01*
X0025816Y0254548D01*
X0024933Y0256680D01*
X0024933Y0258987D01*
X0025816Y0261119D01*
X0027448Y0262750D01*
X0027648Y0262833D01*
X0027448Y0262916D01*
X0025816Y0264548D01*
X0024933Y0266680D01*
X0024933Y0268987D01*
X0025816Y0271119D01*
X0027448Y0272750D01*
X0027648Y0272833D01*
X0027448Y0272916D01*
X0025816Y0274548D01*
X0024933Y0276680D01*
X0024933Y0278987D01*
X0025816Y0281119D01*
X0027448Y0282750D01*
X0029580Y0283633D01*
X0037087Y0283633D01*
X0039219Y0282750D01*
X0040336Y0281633D01*
X0061589Y0281633D01*
X0062986Y0281055D01*
X0064055Y0279986D01*
X0067533Y0276507D01*
X0067533Y0277736D01*
X0070131Y0280333D01*
X0067533Y0282931D01*
X0067533Y0287736D01*
X0070931Y0291133D01*
X0075736Y0291133D01*
X0078333Y0288536D01*
X0080931Y0291133D01*
X0085736Y0291133D01*
X0089133Y0287736D01*
X0089133Y0284133D01*
X0129259Y0284133D01*
X0133681Y0288555D01*
X0135077Y0289133D01*
X0138931Y0289133D01*
X0140931Y0291133D01*
X0145736Y0291133D01*
X0148333Y0288536D01*
X0150931Y0291133D01*
X0155736Y0291133D01*
X0159133Y0287736D01*
X0159133Y0284133D01*
X0199259Y0284133D01*
X0202612Y0287486D01*
X0203681Y0288555D01*
X0205077Y0289133D01*
X0208931Y0289133D01*
X0210931Y0291133D01*
X0215736Y0291133D01*
X0218333Y0288536D01*
X0220931Y0291133D01*
X0225736Y0291133D01*
X0229133Y0287736D01*
X0229133Y0284133D01*
X0269259Y0284133D01*
X0272612Y0287486D01*
X0273681Y0288555D01*
X0275077Y0289133D01*
X0278931Y0289133D01*
X0280931Y0291133D01*
X0285736Y0291133D01*
X0288333Y0288536D01*
X0290931Y0291133D01*
X0295736Y0291133D01*
X0299133Y0287736D01*
X0299133Y0282931D01*
X0296536Y0280333D01*
X0297033Y0279836D01*
X0297448Y0280250D01*
X0299580Y0281133D01*
X0307087Y0281133D01*
X0309219Y0280250D01*
X0310850Y0278619D01*
X0311733Y0276487D01*
X0311733Y0274180D01*
X0310850Y0272048D01*
X0309219Y0270416D01*
X0309018Y0270333D01*
X0309219Y0270250D01*
X0310850Y0268619D01*
X0311733Y0266487D01*
X0311733Y0264180D01*
X0310850Y0262048D01*
X0309219Y0260416D01*
X0309018Y0260333D01*
X0309219Y0260250D01*
X0310850Y0258619D01*
X0311733Y0256487D01*
X0311733Y0254180D01*
X0310850Y0252048D01*
X0309219Y0250416D01*
X0309018Y0250333D01*
X0309219Y0250250D01*
X0310850Y0248619D01*
X0311733Y0246487D01*
X0311733Y0244180D01*
X0310850Y0242048D01*
X0309219Y0240416D01*
X0309018Y0240333D01*
X0309219Y0240250D01*
X0310850Y0238619D01*
X0311733Y0236487D01*
X0311733Y0234180D01*
X0310850Y0232048D01*
X0309219Y0230416D01*
X0309018Y0230333D01*
X0309219Y0230250D01*
X0310850Y0228619D01*
X0311733Y0226487D01*
X0311733Y0224180D01*
X0310850Y0222048D01*
X0309219Y0220416D01*
X0309018Y0220333D01*
X0309219Y0220250D01*
X0310850Y0218619D01*
X0311733Y0216487D01*
X0311733Y0214180D01*
X0310850Y0212048D01*
X0309219Y0210416D01*
X0307157Y0209562D01*
X0307622Y0209411D01*
X0308239Y0209097D01*
X0308800Y0208689D01*
X0309289Y0208200D01*
X0309697Y0207639D01*
X0310011Y0207022D01*
X0310225Y0206364D01*
X0310333Y0205680D01*
X0310333Y0205333D01*
X0303333Y0205333D01*
X0303333Y0205333D01*
X0303333Y0200933D01*
X0300387Y0200933D01*
X0299703Y0201042D01*
X0299044Y0201256D01*
X0298427Y0201570D01*
X0297867Y0201977D01*
X0297377Y0202467D01*
X0296970Y0203027D01*
X0296656Y0203644D01*
X0296442Y0204303D01*
X0296333Y0204987D01*
X0296333Y0205333D01*
X0303333Y0205333D01*
X0303333Y0205333D01*
X0303333Y0200933D01*
X0306280Y0200933D01*
X0306964Y0201042D01*
X0307622Y0201256D01*
X0308239Y0201570D01*
X0308800Y0201977D01*
X0309289Y0202467D01*
X0309697Y0203027D01*
X0310011Y0203644D01*
X0310225Y0204303D01*
X0310333Y0204987D01*
X0310333Y0205333D01*
X0303333Y0205333D01*
X0296333Y0205333D01*
X0296333Y0205680D01*
X0296442Y0206364D01*
X0296656Y0207022D01*
X0296970Y0207639D01*
X0297377Y0208200D01*
X0297867Y0208689D01*
X0298427Y0209097D01*
X0299044Y0209411D01*
X0299510Y0209562D01*
X0297448Y0210416D01*
X0297033Y0210831D01*
X0295736Y0209533D01*
X0290931Y0209533D01*
X0288333Y0212131D01*
X0285736Y0209533D01*
X0280931Y0209533D01*
X0279419Y0211045D01*
X0276555Y0208181D01*
X0275486Y0207112D01*
X0274089Y0206533D01*
X0271714Y0206533D01*
X0271733Y0206487D01*
X0271733Y0204180D01*
X0270850Y0202048D01*
X0269219Y0200416D01*
X0267087Y0199533D01*
X0259580Y0199533D01*
X0257448Y0200416D01*
X0255816Y0202048D01*
X0254933Y0204180D01*
X0254933Y0206487D01*
X0254953Y0206533D01*
X0240170Y0206533D01*
X0240225Y0206364D01*
X0240333Y0205680D01*
X0240333Y0205333D01*
X0233333Y0205333D01*
X0233333Y0205333D01*
X0233333Y0200933D01*
X0230387Y0200933D01*
X0229703Y0201042D01*
X0229044Y0201256D01*
X0228427Y0201570D01*
X0227867Y0201977D01*
X0227377Y0202467D01*
X0226970Y0203027D01*
X0226656Y0203644D01*
X0226442Y0204303D01*
X0226333Y0204987D01*
X0226333Y0205333D01*
X0233333Y0205333D01*
X0233333Y0205333D01*
X0233333Y0200933D01*
X0236280Y0200933D01*
X0236964Y0201042D01*
X0237622Y0201256D01*
X0238239Y0201570D01*
X0238800Y0201977D01*
X0239289Y0202467D01*
X0239697Y0203027D01*
X0240011Y0203644D01*
X0240225Y0204303D01*
X0240333Y0204987D01*
X0240333Y0205333D01*
X0233333Y0205333D01*
X0226333Y0205333D01*
X0226333Y0205680D01*
X0226442Y0206364D01*
X0226497Y0206533D01*
X0217577Y0206533D01*
X0216181Y0207112D01*
X0213759Y0209533D01*
X0210931Y0209533D01*
X0209419Y0211045D01*
X0206555Y0208181D01*
X0205486Y0207112D01*
X0204089Y0206533D01*
X0201714Y0206533D01*
X0201733Y0206487D01*
X0201733Y0204180D01*
X0200850Y0202048D01*
X0199219Y0200416D01*
X0197087Y0199533D01*
X0189580Y0199533D01*
X0187448Y0200416D01*
X0185816Y0202048D01*
X0184933Y0204180D01*
X0184933Y0206487D01*
X0184953Y0206533D01*
X0170170Y0206533D01*
X0170225Y0206364D01*
X0170333Y0205680D01*
X0170333Y0205333D01*
X0163333Y0205333D01*
X0163333Y0205333D01*
X0163333Y0200933D01*
X0160387Y0200933D01*
X0159703Y0201042D01*
X0159044Y0201256D01*
X0158427Y0201570D01*
X0157867Y0201977D01*
X0157377Y0202467D01*
X0156970Y0203027D01*
X0156656Y0203644D01*
X0156442Y0204303D01*
X0156333Y0204987D01*
X0156333Y0205333D01*
X0163333Y0205333D01*
X0163333Y0205333D01*
X0163333Y0200933D01*
X0166280Y0200933D01*
X0166964Y0201042D01*
X0167622Y0201256D01*
X0168239Y0201570D01*
X0168800Y0201977D01*
X0169289Y0202467D01*
X0169697Y0203027D01*
X0170011Y0203644D01*
X0170225Y0204303D01*
X0170333Y0204987D01*
X0170333Y0205333D01*
X0163333Y0205333D01*
X0156333Y0205333D01*
X0156333Y0205680D01*
X0156442Y0206364D01*
X0156497Y0206533D01*
X0147577Y0206533D01*
X0146181Y0207112D01*
X0143759Y0209533D01*
X0140931Y0209533D01*
X0138931Y0211533D01*
X0137407Y0211533D01*
X0134055Y0208181D01*
X0132986Y0207112D01*
X0131696Y0206578D01*
X0131733Y0206487D01*
X0131733Y0204180D01*
X0130850Y0202048D01*
X0129219Y0200416D01*
X0127087Y0199533D01*
X0119580Y0199533D01*
X0117448Y0200416D01*
X0115816Y0202048D01*
X0114933Y0204180D01*
X0114933Y0206487D01*
X0114953Y0206533D01*
X0100170Y0206533D01*
X0100225Y0206364D01*
X0100333Y0205680D01*
X0100333Y0205333D01*
X0093333Y0205333D01*
X0093333Y0205333D01*
X0093333Y0200933D01*
X0090387Y0200933D01*
X0089703Y0201042D01*
X0089044Y0201256D01*
X0088427Y0201570D01*
X0087867Y0201977D01*
X0087377Y0202467D01*
X0086970Y0203027D01*
X0086656Y0203644D01*
X0086442Y0204303D01*
X0086333Y0204987D01*
X0086333Y0205333D01*
X0093333Y0205333D01*
X0093333Y0205333D01*
X0093333Y0200933D01*
X0096280Y0200933D01*
X0096964Y0201042D01*
X0097622Y0201256D01*
X0098239Y0201570D01*
X0098800Y0201977D01*
X0099289Y0202467D01*
X0099697Y0203027D01*
X0100011Y0203644D01*
X0100225Y0204303D01*
X0100333Y0204987D01*
X0100333Y0205333D01*
X0093333Y0205333D01*
X0086333Y0205333D01*
X0086333Y0205680D01*
X0086442Y0206364D01*
X0086497Y0206533D01*
X0077577Y0206533D01*
X0076181Y0207112D01*
X0073759Y0209533D01*
X0070931Y0209533D01*
X0069633Y0210831D01*
X0069633Y0174836D01*
X0070931Y0176133D01*
X0075736Y0176133D01*
X0078333Y0173536D01*
X0080931Y0176133D01*
X0085736Y0176133D01*
X0089133Y0172736D01*
X0089133Y0169133D01*
X0129259Y0169133D01*
X0132612Y0172486D01*
X0133681Y0173555D01*
X0135077Y0174133D01*
X0138931Y0174133D01*
X0140931Y0176133D01*
X0145736Y0176133D01*
X0148333Y0173536D01*
X0150931Y0176133D01*
X0155736Y0176133D01*
X0159133Y0172736D01*
X0159133Y0169133D01*
X0199259Y0169133D01*
X0202612Y0172486D01*
X0203681Y0173555D01*
X0205077Y0174133D01*
X0208931Y0174133D01*
X0210931Y0176133D01*
X0215736Y0176133D01*
X0218333Y0173536D01*
X0220931Y0176133D01*
X0225736Y0176133D01*
X0229133Y0172736D01*
X0229133Y0169133D01*
X0269259Y0169133D01*
X0272612Y0172486D01*
X0272612Y0172486D01*
X0273681Y0173555D01*
X0275077Y0174133D01*
X0278931Y0174133D01*
X0280931Y0176133D01*
X0285736Y0176133D01*
X0288333Y0173536D01*
X0290931Y0176133D01*
X0295736Y0176133D01*
X0299133Y0172736D01*
X0299133Y0167931D01*
X0296536Y0165333D01*
X0297033Y0164836D01*
X0297448Y0165250D01*
X0299580Y0166133D01*
X0307087Y0166133D01*
X0309219Y0165250D01*
X0310850Y0163619D01*
X0311733Y0161487D01*
X0311733Y0159180D01*
X0310850Y0157048D01*
X0309219Y0155416D01*
X0309018Y0155333D01*
X0309219Y0155250D01*
X0310850Y0153619D01*
X0311733Y0151487D01*
X0311733Y0149180D01*
X0311714Y0149133D01*
X0312217Y0149133D01*
X0312033Y0149577D01*
X0312033Y0172811D01*
X0310156Y0170933D01*
X0308333Y0170933D01*
X0308333Y0175333D01*
X0308333Y0175333D01*
X0303933Y0175333D01*
X0303933Y0173511D01*
X0306511Y0170933D01*
X0308333Y0170933D01*
X0308333Y0175333D01*
X0308333Y0175333D01*
X0303933Y0175333D01*
X0303933Y0177156D01*
X0306511Y0179733D01*
X0308333Y0179733D01*
X0308333Y0175333D01*
X0308333Y0175333D01*
X0308333Y0179733D01*
X0310156Y0179733D01*
X0312033Y0177856D01*
X0312033Y0181089D01*
X0312612Y0182486D01*
X0313681Y0183555D01*
X0314533Y0184407D01*
X0314533Y0185176D01*
X0314457Y0185152D01*
X0313711Y0185033D01*
X0313533Y0185033D01*
X0313533Y0192633D01*
X0313133Y0192633D01*
X0313133Y0185033D01*
X0312956Y0185033D01*
X0312209Y0185152D01*
X0311491Y0185385D01*
X0310818Y0185728D01*
X0310206Y0186172D01*
X0309672Y0186706D01*
X0309228Y0187318D01*
X0308885Y0187991D01*
X0308652Y0188709D01*
X0308533Y0189456D01*
X0308533Y0192633D01*
X0313133Y0192633D01*
X0313133Y0193033D01*
X0308533Y0193033D01*
X0308533Y0196211D01*
X0308652Y0196957D01*
X0308885Y0197676D01*
X0309228Y0198349D01*
X0309672Y0198960D01*
X0310206Y0199495D01*
X0310818Y0199939D01*
X0311491Y0200282D01*
X0312209Y0200515D01*
X0312700Y0200593D01*
X0312612Y0200681D01*
X0312033Y0202077D01*
X0312033Y0248589D01*
X0312612Y0249986D01*
X0313681Y0251055D01*
X0321181Y0258555D01*
X0322577Y0259133D01*
X0326331Y0259133D01*
X0327448Y0260250D01*
X0327648Y0260333D01*
X0327448Y0260416D01*
X0325816Y0262048D01*
X0324933Y0264180D01*
X0324933Y0266487D01*
X0325816Y0268619D01*
X0327448Y0270250D01*
X0327648Y0270333D01*
X0327448Y0270416D01*
X0325816Y0272048D01*
X0324933Y0274180D01*
X0324933Y0276487D01*
X0325816Y0278619D01*
X0327448Y0280250D01*
X0329580Y0281133D01*
X0337087Y0281133D01*
X0339219Y0280250D01*
X0340136Y0279333D01*
X0341629Y0279333D01*
X0343099Y0278724D01*
X0345599Y0276224D01*
X0346724Y0275099D01*
X0347333Y0273629D01*
X0347333Y0270136D01*
X0347448Y0270250D01*
X0349580Y0271133D01*
X0357087Y0271133D01*
X0359219Y0270250D01*
X0359656Y0269813D01*
X0361833Y0271990D01*
X0361833Y0275631D01*
X0360736Y0274533D01*
X0355931Y0274533D01*
X0352533Y0277931D01*
X0352533Y0282736D01*
X0355931Y0286133D01*
X0359333Y0286133D01*
X0359333Y0286459D01*
X0359259Y0286533D01*
X0355077Y0286533D01*
X0353681Y0287112D01*
X0352612Y0288181D01*
X0351759Y0289033D01*
X0345077Y0289033D01*
X0343870Y0289533D01*
X0340931Y0289533D01*
X0337533Y0292931D01*
X0337533Y0297736D01*
X0340931Y0301133D01*
X0345736Y0301133D01*
X0348333Y0298536D01*
X0350931Y0301133D01*
X0355736Y0301133D01*
X0359133Y0297736D01*
X0359133Y0294133D01*
X0361589Y0294133D01*
X0362986Y0293555D01*
X0364707Y0291833D01*
X0378631Y0291833D01*
X0377533Y0292931D01*
X0377533Y0297736D01*
X0380931Y0301133D01*
X0385736Y0301133D01*
X0389133Y0297736D01*
X0389133Y0294907D01*
X0393397Y0290644D01*
X0394580Y0291133D01*
X0402087Y0291133D01*
X0403211Y0290668D01*
X0402991Y0291049D01*
X0402234Y0293872D01*
X0402234Y0296795D01*
X0402991Y0299617D01*
X0404452Y0302148D01*
X0405237Y0302933D01*
X0041430Y0302933D01*
X0042215Y0302148D01*
X0043676Y0299617D01*
X0044433Y0296795D01*
X0044433Y0293872D01*
X0043676Y0291049D01*
X0042215Y0288518D01*
X0040148Y0286452D01*
X0037617Y0284991D01*
X0034795Y0284234D01*
X0031872Y0284234D01*
X0029049Y0284991D01*
X0026518Y0286452D01*
X0024452Y0288518D01*
X0023233Y0290629D01*
X0023233Y0090038D01*
X0024452Y0092148D01*
X0026518Y0094215D01*
X0029049Y0095676D01*
X0031872Y0096433D01*
X0034795Y0096433D01*
X0037617Y0095676D01*
X0040148Y0094215D01*
X0042215Y0092148D01*
X0043676Y0089617D01*
X0044433Y0086795D01*
X0044433Y0083872D01*
X0043676Y0081049D01*
X0042215Y0078518D01*
X0041744Y0078047D02*
X0052255Y0078047D01*
X0053233Y0078047D02*
X0053433Y0078047D01*
X0054412Y0078047D02*
X0059334Y0078047D01*
X0058035Y0079645D02*
X0056921Y0079645D01*
X0053433Y0079645D02*
X0053233Y0079645D01*
X0053233Y0081244D02*
X0053433Y0081244D01*
X0053433Y0082843D02*
X0053233Y0082843D01*
X0053233Y0084441D02*
X0053433Y0084441D01*
X0053433Y0086040D02*
X0053233Y0086040D01*
X0053233Y0087638D02*
X0053433Y0087638D01*
X0053433Y0089237D02*
X0053233Y0089237D01*
X0053233Y0090835D02*
X0053433Y0090835D01*
X0053433Y0092434D02*
X0053233Y0092434D01*
X0051682Y0092434D02*
X0041930Y0092434D01*
X0042973Y0090835D02*
X0049610Y0090835D01*
X0048855Y0089237D02*
X0043778Y0089237D01*
X0044207Y0087638D02*
X0048733Y0087638D01*
X0048733Y0086040D02*
X0044433Y0086040D01*
X0044433Y0084441D02*
X0048733Y0084441D01*
X0048733Y0082843D02*
X0044157Y0082843D01*
X0043728Y0081244D02*
X0048916Y0081244D01*
X0049746Y0079645D02*
X0042866Y0079645D01*
X0057056Y0090835D02*
X0057958Y0090835D01*
X0059148Y0092434D02*
X0054984Y0092434D01*
X0053564Y0097229D02*
X0023233Y0097229D01*
X0023233Y0095631D02*
X0028970Y0095631D01*
X0026335Y0094032D02*
X0023233Y0094032D01*
X0023233Y0092434D02*
X0024737Y0092434D01*
X0023694Y0090835D02*
X0023233Y0090835D01*
X0023233Y0098828D02*
X0051965Y0098828D01*
X0050366Y0100426D02*
X0023233Y0100426D01*
X0023233Y0102025D02*
X0048768Y0102025D01*
X0047169Y0103623D02*
X0023233Y0103623D01*
X0023233Y0105222D02*
X0045571Y0105222D01*
X0044640Y0106820D02*
X0023233Y0106820D01*
X0023233Y0108419D02*
X0044533Y0108419D01*
X0044533Y0110017D02*
X0038255Y0110017D01*
X0039219Y0110416D02*
X0040850Y0112048D01*
X0041733Y0114180D01*
X0041733Y0116487D01*
X0040850Y0118619D01*
X0039219Y0120250D01*
X0039018Y0120333D01*
X0039219Y0120416D01*
X0040850Y0122048D01*
X0041733Y0124180D01*
X0041733Y0126487D01*
X0040850Y0128619D01*
X0039219Y0130250D01*
X0039018Y0130333D01*
X0039219Y0130416D01*
X0040850Y0132048D01*
X0041733Y0134180D01*
X0041733Y0136487D01*
X0040850Y0138619D01*
X0039219Y0140250D01*
X0039018Y0140333D01*
X0039219Y0140416D01*
X0040850Y0142048D01*
X0041733Y0144180D01*
X0041733Y0146487D01*
X0040850Y0148619D01*
X0039219Y0150250D01*
X0039018Y0150333D01*
X0039219Y0150416D01*
X0040850Y0152048D01*
X0041733Y0154180D01*
X0041733Y0156487D01*
X0040850Y0158619D01*
X0039219Y0160250D01*
X0039018Y0160333D01*
X0039219Y0160416D01*
X0040850Y0162048D01*
X0041733Y0164180D01*
X0041733Y0166487D01*
X0040850Y0168619D01*
X0039219Y0170250D01*
X0039018Y0170333D01*
X0039219Y0170416D01*
X0040850Y0172048D01*
X0041733Y0174180D01*
X0041733Y0176487D01*
X0040850Y0178619D01*
X0039219Y0180250D01*
X0039018Y0180333D01*
X0039219Y0180416D01*
X0040850Y0182048D01*
X0041733Y0184180D01*
X0041733Y0186487D01*
X0040850Y0188619D01*
X0039219Y0190250D01*
X0037087Y0191133D01*
X0029580Y0191133D01*
X0027448Y0190250D01*
X0025816Y0188619D01*
X0024933Y0186487D01*
X0024933Y0184180D01*
X0025816Y0182048D01*
X0027448Y0180416D01*
X0027648Y0180333D01*
X0027448Y0180250D01*
X0025816Y0178619D01*
X0024933Y0176487D01*
X0024933Y0174180D01*
X0025816Y0172048D01*
X0027448Y0170416D01*
X0027648Y0170333D01*
X0027448Y0170250D01*
X0025816Y0168619D01*
X0024933Y0166487D01*
X0024933Y0164180D01*
X0025816Y0162048D01*
X0027448Y0160416D01*
X0027648Y0160333D01*
X0027448Y0160250D01*
X0025816Y0158619D01*
X0024933Y0156487D01*
X0024933Y0154180D01*
X0025816Y0152048D01*
X0027448Y0150416D01*
X0027648Y0150333D01*
X0027448Y0150250D01*
X0025816Y0148619D01*
X0024933Y0146487D01*
X0024933Y0144180D01*
X0025816Y0142048D01*
X0027448Y0140416D01*
X0027648Y0140333D01*
X0027448Y0140250D01*
X0025816Y0138619D01*
X0024933Y0136487D01*
X0024933Y0134180D01*
X0025816Y0132048D01*
X0027448Y0130416D01*
X0027648Y0130333D01*
X0027448Y0130250D01*
X0025816Y0128619D01*
X0024933Y0126487D01*
X0024933Y0124180D01*
X0025816Y0122048D01*
X0027448Y0120416D01*
X0027648Y0120333D01*
X0027448Y0120250D01*
X0025816Y0118619D01*
X0024933Y0116487D01*
X0024933Y0114180D01*
X0025816Y0112048D01*
X0027448Y0110416D01*
X0029580Y0109533D01*
X0037087Y0109533D01*
X0039219Y0110416D01*
X0040418Y0111616D02*
X0044533Y0111616D01*
X0044533Y0113214D02*
X0041333Y0113214D01*
X0041733Y0114813D02*
X0044533Y0114813D01*
X0044533Y0116411D02*
X0041733Y0116411D01*
X0041103Y0118010D02*
X0044533Y0118010D01*
X0044533Y0119608D02*
X0039861Y0119608D01*
X0040009Y0121207D02*
X0044533Y0121207D01*
X0044533Y0122805D02*
X0041164Y0122805D01*
X0041733Y0124404D02*
X0044533Y0124404D01*
X0044533Y0126002D02*
X0041733Y0126002D01*
X0041272Y0127601D02*
X0044533Y0127601D01*
X0044533Y0129199D02*
X0040270Y0129199D01*
X0039600Y0130798D02*
X0044533Y0130798D01*
X0044533Y0132396D02*
X0040995Y0132396D01*
X0041657Y0133995D02*
X0044533Y0133995D01*
X0044533Y0135593D02*
X0041733Y0135593D01*
X0041441Y0137192D02*
X0044533Y0137192D01*
X0044533Y0138790D02*
X0040679Y0138790D01*
X0039153Y0140389D02*
X0044533Y0140389D01*
X0044533Y0141987D02*
X0040790Y0141987D01*
X0041487Y0143586D02*
X0044533Y0143586D01*
X0044533Y0145184D02*
X0041733Y0145184D01*
X0041611Y0146783D02*
X0044533Y0146783D01*
X0044533Y0148381D02*
X0040949Y0148381D01*
X0039489Y0149980D02*
X0044533Y0149980D01*
X0044533Y0151579D02*
X0040381Y0151579D01*
X0041318Y0153177D02*
X0044533Y0153177D01*
X0044533Y0154776D02*
X0041733Y0154776D01*
X0041733Y0156374D02*
X0044533Y0156374D01*
X0044533Y0157973D02*
X0041118Y0157973D01*
X0039898Y0159571D02*
X0044533Y0159571D01*
X0044533Y0161170D02*
X0039972Y0161170D01*
X0041149Y0162768D02*
X0044533Y0162768D01*
X0044533Y0164367D02*
X0041733Y0164367D01*
X0041733Y0165965D02*
X0044533Y0165965D01*
X0044533Y0167564D02*
X0041287Y0167564D01*
X0040307Y0169162D02*
X0044533Y0169162D01*
X0044533Y0170761D02*
X0039563Y0170761D01*
X0040979Y0172359D02*
X0044533Y0172359D01*
X0044533Y0173958D02*
X0041641Y0173958D01*
X0041733Y0175556D02*
X0044533Y0175556D01*
X0044533Y0177155D02*
X0041457Y0177155D01*
X0040716Y0178753D02*
X0044533Y0178753D01*
X0044533Y0180352D02*
X0039063Y0180352D01*
X0040753Y0181950D02*
X0044533Y0181950D01*
X0044533Y0183549D02*
X0041472Y0183549D01*
X0041733Y0185147D02*
X0044533Y0185147D01*
X0044533Y0186746D02*
X0041626Y0186746D01*
X0040964Y0188344D02*
X0044533Y0188344D01*
X0044533Y0189943D02*
X0039526Y0189943D01*
X0044533Y0191541D02*
X0023233Y0191541D01*
X0023233Y0189943D02*
X0027140Y0189943D01*
X0025703Y0188344D02*
X0023233Y0188344D01*
X0023233Y0186746D02*
X0025041Y0186746D01*
X0024933Y0185147D02*
X0023233Y0185147D01*
X0023233Y0183549D02*
X0025195Y0183549D01*
X0025914Y0181950D02*
X0023233Y0181950D01*
X0023233Y0180352D02*
X0027604Y0180352D01*
X0025951Y0178753D02*
X0023233Y0178753D01*
X0023233Y0177155D02*
X0025210Y0177155D01*
X0024933Y0175556D02*
X0023233Y0175556D01*
X0023233Y0173958D02*
X0025025Y0173958D01*
X0025687Y0172359D02*
X0023233Y0172359D01*
X0023233Y0170761D02*
X0027104Y0170761D01*
X0026360Y0169162D02*
X0023233Y0169162D01*
X0023233Y0167564D02*
X0025379Y0167564D01*
X0024933Y0165965D02*
X0023233Y0165965D01*
X0023233Y0164367D02*
X0024933Y0164367D01*
X0025518Y0162768D02*
X0023233Y0162768D01*
X0023233Y0161170D02*
X0026695Y0161170D01*
X0026769Y0159571D02*
X0023233Y0159571D01*
X0023233Y0157973D02*
X0025549Y0157973D01*
X0024933Y0156374D02*
X0023233Y0156374D01*
X0023233Y0154776D02*
X0024933Y0154776D01*
X0025349Y0153177D02*
X0023233Y0153177D01*
X0023233Y0151579D02*
X0026286Y0151579D01*
X0027178Y0149980D02*
X0023233Y0149980D01*
X0023233Y0148381D02*
X0025718Y0148381D01*
X0025056Y0146783D02*
X0023233Y0146783D01*
X0023233Y0145184D02*
X0024933Y0145184D01*
X0025179Y0143586D02*
X0023233Y0143586D01*
X0023233Y0141987D02*
X0025877Y0141987D01*
X0027514Y0140389D02*
X0023233Y0140389D01*
X0023233Y0138790D02*
X0025988Y0138790D01*
X0025225Y0137192D02*
X0023233Y0137192D01*
X0023233Y0135593D02*
X0024933Y0135593D01*
X0025010Y0133995D02*
X0023233Y0133995D01*
X0023233Y0132396D02*
X0025672Y0132396D01*
X0027066Y0130798D02*
X0023233Y0130798D01*
X0023233Y0129199D02*
X0026397Y0129199D01*
X0025395Y0127601D02*
X0023233Y0127601D01*
X0023233Y0126002D02*
X0024933Y0126002D01*
X0024933Y0124404D02*
X0023233Y0124404D01*
X0023233Y0122805D02*
X0025503Y0122805D01*
X0026657Y0121207D02*
X0023233Y0121207D01*
X0023233Y0119608D02*
X0026806Y0119608D01*
X0025564Y0118010D02*
X0023233Y0118010D01*
X0023233Y0116411D02*
X0024933Y0116411D01*
X0024933Y0114813D02*
X0023233Y0114813D01*
X0023233Y0113214D02*
X0025333Y0113214D01*
X0026248Y0111616D02*
X0023233Y0111616D01*
X0023233Y0110017D02*
X0028411Y0110017D01*
X0037696Y0095631D02*
X0069834Y0095631D01*
X0067518Y0092434D02*
X0075859Y0092434D01*
X0074261Y0094032D02*
X0064771Y0094032D01*
X0061895Y0094032D02*
X0040331Y0094032D01*
X0068709Y0090835D02*
X0086358Y0090835D01*
X0086463Y0089237D02*
X0069333Y0089237D01*
X0069333Y0087638D02*
X0087253Y0087638D01*
X0089716Y0086040D02*
X0069333Y0086040D01*
X0093333Y0086040D02*
X0093333Y0086040D01*
X0093333Y0087638D02*
X0093333Y0087638D01*
X0093333Y0089237D02*
X0093333Y0089237D01*
X0093333Y0090333D02*
X0093333Y0090333D01*
X0096950Y0086040D02*
X0116825Y0086040D01*
X0115572Y0087638D02*
X0099414Y0087638D01*
X0100203Y0089237D02*
X0114933Y0089237D01*
X0114933Y0090835D02*
X0100309Y0090835D01*
X0133707Y0092833D02*
X0137407Y0096533D01*
X0138931Y0096533D01*
X0140931Y0094533D01*
X0143759Y0094533D01*
X0145112Y0093181D01*
X0146181Y0092112D01*
X0147577Y0091533D01*
X0156497Y0091533D01*
X0156442Y0091364D01*
X0156333Y0090680D01*
X0156333Y0090333D01*
X0156333Y0089987D01*
X0156442Y0089303D01*
X0156497Y0089133D01*
X0137407Y0089133D01*
X0134055Y0092486D01*
X0133707Y0092833D01*
X0134107Y0092434D02*
X0145859Y0092434D01*
X0144261Y0094032D02*
X0134906Y0094032D01*
X0136505Y0095631D02*
X0139834Y0095631D01*
X0135706Y0090835D02*
X0156358Y0090835D01*
X0156333Y0090333D02*
X0163333Y0090333D01*
X0156333Y0090333D01*
X0156463Y0089237D02*
X0137304Y0089237D01*
X0163333Y0090333D02*
X0163333Y0090333D01*
X0163333Y0090333D01*
X0170333Y0090333D01*
X0170333Y0089987D01*
X0170225Y0089303D01*
X0170170Y0089133D01*
X0184953Y0089133D01*
X0184933Y0089180D01*
X0184933Y0091487D01*
X0184953Y0091533D01*
X0170170Y0091533D01*
X0170225Y0091364D01*
X0170333Y0090680D01*
X0170333Y0090333D01*
X0163333Y0090333D01*
X0170203Y0089237D02*
X0184933Y0089237D01*
X0184933Y0090835D02*
X0170309Y0090835D01*
X0201696Y0091578D02*
X0202986Y0092112D01*
X0207407Y0096533D01*
X0208931Y0096533D01*
X0210931Y0094533D01*
X0213759Y0094533D01*
X0215112Y0093181D01*
X0216181Y0092112D01*
X0217577Y0091533D01*
X0226497Y0091533D01*
X0226442Y0091364D01*
X0226333Y0090680D01*
X0226333Y0090333D01*
X0226333Y0089987D01*
X0226442Y0089303D01*
X0226497Y0089133D01*
X0201714Y0089133D01*
X0201733Y0089180D01*
X0201733Y0091487D01*
X0201696Y0091578D01*
X0201733Y0090835D02*
X0226358Y0090835D01*
X0226333Y0090333D02*
X0233333Y0090333D01*
X0226333Y0090333D01*
X0226463Y0089237D02*
X0201733Y0089237D01*
X0203308Y0092434D02*
X0215859Y0092434D01*
X0214261Y0094032D02*
X0204906Y0094032D01*
X0206505Y0095631D02*
X0209834Y0095631D01*
X0233333Y0090333D02*
X0233333Y0090333D01*
X0233333Y0090333D01*
X0240333Y0090333D01*
X0240333Y0089987D01*
X0240225Y0089303D01*
X0240170Y0089133D01*
X0254953Y0089133D01*
X0254933Y0089180D01*
X0254933Y0091487D01*
X0254953Y0091533D01*
X0240170Y0091533D01*
X0240225Y0091364D01*
X0240333Y0090680D01*
X0240333Y0090333D01*
X0233333Y0090333D01*
X0240203Y0089237D02*
X0254933Y0089237D01*
X0254933Y0090835D02*
X0240309Y0090835D01*
X0271696Y0091577D02*
X0272986Y0092112D01*
X0277407Y0096533D01*
X0278931Y0096533D01*
X0280931Y0094533D01*
X0285736Y0094533D01*
X0288333Y0097131D01*
X0290931Y0094533D01*
X0295736Y0094533D01*
X0297033Y0095831D01*
X0297448Y0095416D01*
X0299510Y0094562D01*
X0299044Y0094411D01*
X0298427Y0094097D01*
X0297867Y0093689D01*
X0297377Y0093200D01*
X0296970Y0092639D01*
X0296656Y0092022D01*
X0296442Y0091364D01*
X0296333Y0090680D01*
X0296333Y0090333D01*
X0296333Y0089987D01*
X0296442Y0089303D01*
X0296497Y0089133D01*
X0271714Y0089133D01*
X0271733Y0089180D01*
X0271733Y0091487D01*
X0271696Y0091577D01*
X0271733Y0090835D02*
X0296358Y0090835D01*
X0296333Y0090333D02*
X0303333Y0090333D01*
X0296333Y0090333D01*
X0296463Y0089237D02*
X0271733Y0089237D01*
X0273308Y0092434D02*
X0296865Y0092434D01*
X0298339Y0094032D02*
X0274906Y0094032D01*
X0276505Y0095631D02*
X0279834Y0095631D01*
X0286833Y0095631D02*
X0289834Y0095631D01*
X0296833Y0095631D02*
X0297234Y0095631D01*
X0303333Y0090333D02*
X0303333Y0090333D01*
X0303333Y0090333D01*
X0310333Y0090333D01*
X0310333Y0089987D01*
X0310225Y0089303D01*
X0310170Y0089133D01*
X0319159Y0089133D01*
X0312612Y0095681D01*
X0312033Y0097077D01*
X0312033Y0141259D01*
X0311759Y0141533D01*
X0311714Y0141533D01*
X0311733Y0141487D01*
X0311733Y0139180D01*
X0310850Y0137048D01*
X0309219Y0135416D01*
X0309018Y0135333D01*
X0309219Y0135250D01*
X0310850Y0133619D01*
X0311733Y0131487D01*
X0311733Y0129180D01*
X0310850Y0127048D01*
X0309219Y0125416D01*
X0309018Y0125333D01*
X0309219Y0125250D01*
X0310850Y0123619D01*
X0311733Y0121487D01*
X0311733Y0119180D01*
X0310850Y0117048D01*
X0309219Y0115416D01*
X0309018Y0115333D01*
X0309219Y0115250D01*
X0310850Y0113619D01*
X0311733Y0111487D01*
X0311733Y0109180D01*
X0310850Y0107048D01*
X0309219Y0105416D01*
X0309018Y0105333D01*
X0309219Y0105250D01*
X0310850Y0103619D01*
X0311733Y0101487D01*
X0311733Y0099180D01*
X0310850Y0097048D01*
X0309219Y0095416D01*
X0307157Y0094562D01*
X0307622Y0094411D01*
X0308239Y0094097D01*
X0308800Y0093689D01*
X0309289Y0093200D01*
X0309697Y0092639D01*
X0310011Y0092022D01*
X0310225Y0091364D01*
X0310333Y0090680D01*
X0310333Y0090333D01*
X0303333Y0090333D01*
X0308328Y0094032D02*
X0314261Y0094032D01*
X0315859Y0092434D02*
X0309801Y0092434D01*
X0310309Y0090835D02*
X0317458Y0090835D01*
X0319056Y0089237D02*
X0310203Y0089237D01*
X0309433Y0095631D02*
X0312662Y0095631D01*
X0312033Y0097229D02*
X0310925Y0097229D01*
X0311588Y0098828D02*
X0312033Y0098828D01*
X0312033Y0100426D02*
X0311733Y0100426D01*
X0311511Y0102025D02*
X0312033Y0102025D01*
X0312033Y0103623D02*
X0310846Y0103623D01*
X0312033Y0105222D02*
X0309247Y0105222D01*
X0310623Y0106820D02*
X0312033Y0106820D01*
X0312033Y0108419D02*
X0311418Y0108419D01*
X0311733Y0110017D02*
X0312033Y0110017D01*
X0312033Y0111616D02*
X0311680Y0111616D01*
X0312033Y0113214D02*
X0311018Y0113214D01*
X0312033Y0114813D02*
X0309656Y0114813D01*
X0310214Y0116411D02*
X0312033Y0116411D01*
X0312033Y0118010D02*
X0311249Y0118010D01*
X0311733Y0119608D02*
X0312033Y0119608D01*
X0312033Y0121207D02*
X0311733Y0121207D01*
X0312033Y0122805D02*
X0311187Y0122805D01*
X0312033Y0124404D02*
X0310065Y0124404D01*
X0309805Y0126002D02*
X0312033Y0126002D01*
X0312033Y0127601D02*
X0311079Y0127601D01*
X0311733Y0129199D02*
X0312033Y0129199D01*
X0312033Y0130798D02*
X0311733Y0130798D01*
X0312033Y0132396D02*
X0311357Y0132396D01*
X0312033Y0133995D02*
X0310474Y0133995D01*
X0309396Y0135593D02*
X0312033Y0135593D01*
X0312033Y0137192D02*
X0310910Y0137192D01*
X0311572Y0138790D02*
X0312033Y0138790D01*
X0312033Y0140389D02*
X0311733Y0140389D01*
X0311733Y0149980D02*
X0312033Y0149980D01*
X0312033Y0151579D02*
X0311695Y0151579D01*
X0312033Y0153177D02*
X0311033Y0153177D01*
X0312033Y0154776D02*
X0309694Y0154776D01*
X0310176Y0156374D02*
X0312033Y0156374D01*
X0312033Y0157973D02*
X0311233Y0157973D01*
X0311733Y0159571D02*
X0312033Y0159571D01*
X0312033Y0161170D02*
X0311733Y0161170D01*
X0312033Y0162768D02*
X0311203Y0162768D01*
X0312033Y0164367D02*
X0310102Y0164367D01*
X0312033Y0165965D02*
X0307493Y0165965D01*
X0312033Y0167564D02*
X0298766Y0167564D01*
X0299133Y0169162D02*
X0312033Y0169162D01*
X0312033Y0170761D02*
X0299133Y0170761D01*
X0299133Y0172359D02*
X0305085Y0172359D01*
X0303933Y0173958D02*
X0297911Y0173958D01*
X0296313Y0175556D02*
X0303933Y0175556D01*
X0303933Y0177155D02*
X0124133Y0177155D01*
X0124133Y0177736D02*
X0120736Y0181133D01*
X0115931Y0181133D01*
X0112533Y0177736D01*
X0112533Y0172931D01*
X0115931Y0169533D01*
X0120736Y0169533D01*
X0124133Y0172931D01*
X0124133Y0177736D01*
X0123116Y0178753D02*
X0305531Y0178753D01*
X0308333Y0178753D02*
X0308333Y0178753D01*
X0308333Y0177155D02*
X0308333Y0177155D01*
X0308333Y0175556D02*
X0308333Y0175556D01*
X0308333Y0173958D02*
X0308333Y0173958D01*
X0308333Y0172359D02*
X0308333Y0172359D01*
X0311582Y0172359D02*
X0312033Y0172359D01*
X0312033Y0178753D02*
X0311136Y0178753D01*
X0312033Y0180352D02*
X0121517Y0180352D01*
X0115149Y0180352D02*
X0069633Y0180352D01*
X0069633Y0181950D02*
X0312390Y0181950D01*
X0313675Y0183549D02*
X0069633Y0183549D01*
X0069633Y0185147D02*
X0312236Y0185147D01*
X0313133Y0185147D02*
X0313533Y0185147D01*
X0314430Y0185147D02*
X0314533Y0185147D01*
X0313533Y0186746D02*
X0313133Y0186746D01*
X0313133Y0188344D02*
X0313533Y0188344D01*
X0313533Y0189943D02*
X0313133Y0189943D01*
X0313133Y0191541D02*
X0313533Y0191541D01*
X0308533Y0191541D02*
X0069633Y0191541D01*
X0069633Y0189943D02*
X0308533Y0189943D01*
X0308770Y0188344D02*
X0069633Y0188344D01*
X0069633Y0186746D02*
X0309643Y0186746D01*
X0308533Y0193140D02*
X0069633Y0193140D01*
X0069633Y0194738D02*
X0308533Y0194738D01*
X0308553Y0196337D02*
X0069633Y0196337D01*
X0069633Y0197935D02*
X0309017Y0197935D01*
X0310260Y0199534D02*
X0267088Y0199534D01*
X0269935Y0201132D02*
X0299424Y0201132D01*
X0297185Y0202731D02*
X0271133Y0202731D01*
X0271733Y0204329D02*
X0296437Y0204329D01*
X0296373Y0205928D02*
X0271733Y0205928D01*
X0275900Y0207526D02*
X0296913Y0207526D01*
X0298483Y0209125D02*
X0277499Y0209125D01*
X0279097Y0210723D02*
X0279741Y0210723D01*
X0286926Y0210723D02*
X0289741Y0210723D01*
X0296926Y0210723D02*
X0297141Y0210723D01*
X0303333Y0205333D02*
X0303333Y0205333D01*
X0303333Y0204329D02*
X0303333Y0204329D01*
X0303333Y0202731D02*
X0303333Y0202731D01*
X0303333Y0201132D02*
X0303333Y0201132D01*
X0307243Y0201132D02*
X0312425Y0201132D01*
X0312033Y0202731D02*
X0309481Y0202731D01*
X0310229Y0204329D02*
X0312033Y0204329D01*
X0312033Y0205928D02*
X0310294Y0205928D01*
X0309754Y0207526D02*
X0312033Y0207526D01*
X0312033Y0209125D02*
X0308184Y0209125D01*
X0309526Y0210723D02*
X0312033Y0210723D01*
X0312033Y0212322D02*
X0310964Y0212322D01*
X0311626Y0213920D02*
X0312033Y0213920D01*
X0312033Y0215519D02*
X0311733Y0215519D01*
X0311472Y0217117D02*
X0312033Y0217117D01*
X0312033Y0218716D02*
X0310753Y0218716D01*
X0312033Y0220314D02*
X0309064Y0220314D01*
X0310715Y0221913D02*
X0312033Y0221913D01*
X0312033Y0223512D02*
X0311457Y0223512D01*
X0311733Y0225110D02*
X0312033Y0225110D01*
X0312033Y0226709D02*
X0311642Y0226709D01*
X0312033Y0228307D02*
X0310979Y0228307D01*
X0312033Y0229906D02*
X0309564Y0229906D01*
X0310307Y0231504D02*
X0312033Y0231504D01*
X0312033Y0233103D02*
X0311287Y0233103D01*
X0311733Y0234701D02*
X0312033Y0234701D01*
X0312033Y0236300D02*
X0311733Y0236300D01*
X0312033Y0237898D02*
X0311149Y0237898D01*
X0312033Y0239497D02*
X0309972Y0239497D01*
X0309898Y0241095D02*
X0312033Y0241095D01*
X0312033Y0242694D02*
X0311118Y0242694D01*
X0311733Y0244292D02*
X0312033Y0244292D01*
X0312033Y0245891D02*
X0311733Y0245891D01*
X0312033Y0247489D02*
X0311318Y0247489D01*
X0312240Y0249088D02*
X0310381Y0249088D01*
X0309489Y0250686D02*
X0313312Y0250686D01*
X0314911Y0252285D02*
X0310948Y0252285D01*
X0311611Y0253883D02*
X0316509Y0253883D01*
X0318108Y0255482D02*
X0311733Y0255482D01*
X0311488Y0257080D02*
X0319706Y0257080D01*
X0321480Y0258679D02*
X0310790Y0258679D01*
X0309154Y0260277D02*
X0327513Y0260277D01*
X0325988Y0261876D02*
X0310678Y0261876D01*
X0311441Y0263474D02*
X0325225Y0263474D01*
X0324933Y0265073D02*
X0311733Y0265073D01*
X0311657Y0266671D02*
X0325010Y0266671D01*
X0325672Y0268270D02*
X0310995Y0268270D01*
X0309601Y0269868D02*
X0327066Y0269868D01*
X0326397Y0271467D02*
X0310269Y0271467D01*
X0311272Y0273065D02*
X0325395Y0273065D01*
X0324933Y0274664D02*
X0311733Y0274664D01*
X0311733Y0276262D02*
X0324933Y0276262D01*
X0325502Y0277861D02*
X0311164Y0277861D01*
X0310010Y0279459D02*
X0326657Y0279459D01*
X0329398Y0281058D02*
X0307269Y0281058D01*
X0299398Y0281058D02*
X0297260Y0281058D01*
X0298859Y0282656D02*
X0352533Y0282656D01*
X0352533Y0281058D02*
X0337269Y0281058D01*
X0340010Y0279459D02*
X0352533Y0279459D01*
X0352603Y0277861D02*
X0343963Y0277861D01*
X0345561Y0276262D02*
X0354202Y0276262D01*
X0355800Y0274664D02*
X0346905Y0274664D01*
X0347333Y0273065D02*
X0361833Y0273065D01*
X0361833Y0274664D02*
X0360866Y0274664D01*
X0361310Y0271467D02*
X0347333Y0271467D01*
X0343333Y0272833D02*
X0343333Y0267833D01*
X0345833Y0265333D01*
X0353333Y0265333D01*
X0360833Y0265333D01*
X0365833Y0270333D01*
X0365833Y0277833D01*
X0363333Y0280333D01*
X0363333Y0287833D01*
X0380833Y0287833D01*
X0393333Y0275333D01*
X0398333Y0275333D01*
X0394510Y0269562D02*
X0392448Y0270416D01*
X0390816Y0272048D01*
X0390713Y0272296D01*
X0382733Y0280276D01*
X0382733Y0278511D01*
X0380156Y0275933D01*
X0378333Y0275933D01*
X0378333Y0280333D01*
X0378333Y0280333D01*
X0373933Y0280333D01*
X0373933Y0278511D01*
X0376511Y0275933D01*
X0378333Y0275933D01*
X0378333Y0280333D01*
X0378333Y0280333D01*
X0373933Y0280333D01*
X0373933Y0282156D01*
X0375611Y0283833D01*
X0367333Y0283833D01*
X0367333Y0281990D01*
X0368099Y0281224D01*
X0369224Y0280099D01*
X0369833Y0278629D01*
X0369833Y0269538D01*
X0369224Y0268068D01*
X0368099Y0266942D01*
X0368099Y0266942D01*
X0364224Y0263068D01*
X0364224Y0263068D01*
X0363099Y0261942D01*
X0361629Y0261333D01*
X0360136Y0261333D01*
X0359219Y0260416D01*
X0359018Y0260333D01*
X0359219Y0260250D01*
X0360336Y0259133D01*
X0361589Y0259133D01*
X0362986Y0258555D01*
X0364055Y0257486D01*
X0366555Y0254986D01*
X0367133Y0253589D01*
X0367133Y0242077D01*
X0366555Y0240681D01*
X0365486Y0239612D01*
X0363707Y0237833D01*
X0364055Y0237486D01*
X0367407Y0234133D01*
X0374953Y0234133D01*
X0374933Y0234180D01*
X0374933Y0236487D01*
X0375816Y0238619D01*
X0377448Y0240250D01*
X0377648Y0240333D01*
X0377448Y0240416D01*
X0375816Y0242048D01*
X0374933Y0244180D01*
X0374933Y0246487D01*
X0375816Y0248619D01*
X0377448Y0250250D01*
X0377648Y0250333D01*
X0377448Y0250416D01*
X0375816Y0252048D01*
X0374933Y0254180D01*
X0374933Y0256487D01*
X0375816Y0258619D01*
X0377448Y0260250D01*
X0379510Y0261104D01*
X0379044Y0261256D01*
X0378427Y0261570D01*
X0377867Y0261977D01*
X0377377Y0262467D01*
X0376970Y0263027D01*
X0376656Y0263644D01*
X0376442Y0264303D01*
X0376333Y0264987D01*
X0376333Y0265333D01*
X0383333Y0265333D01*
X0383333Y0265333D01*
X0376333Y0265333D01*
X0376333Y0265680D01*
X0376442Y0266364D01*
X0376656Y0267022D01*
X0376970Y0267639D01*
X0377377Y0268200D01*
X0377867Y0268689D01*
X0378427Y0269097D01*
X0379044Y0269411D01*
X0379703Y0269625D01*
X0380387Y0269733D01*
X0383333Y0269733D01*
X0383333Y0265333D01*
X0383333Y0265333D01*
X0383333Y0265333D01*
X0390333Y0265333D01*
X0390333Y0264987D01*
X0390225Y0264303D01*
X0390011Y0263644D01*
X0389697Y0263027D01*
X0389289Y0262467D01*
X0388800Y0261977D01*
X0388239Y0261570D01*
X0387622Y0261256D01*
X0387157Y0261104D01*
X0389219Y0260250D01*
X0390336Y0259133D01*
X0391331Y0259133D01*
X0392448Y0260250D01*
X0394510Y0261104D01*
X0394044Y0261256D01*
X0393427Y0261570D01*
X0392867Y0261977D01*
X0392377Y0262467D01*
X0391970Y0263027D01*
X0391656Y0263644D01*
X0391442Y0264303D01*
X0391333Y0264987D01*
X0391333Y0265333D01*
X0398333Y0265333D01*
X0398333Y0265333D01*
X0391333Y0265333D01*
X0391333Y0265680D01*
X0391442Y0266364D01*
X0391656Y0267022D01*
X0391970Y0267639D01*
X0392377Y0268200D01*
X0392867Y0268689D01*
X0393427Y0269097D01*
X0394044Y0269411D01*
X0394510Y0269562D01*
X0393771Y0269868D02*
X0369833Y0269868D01*
X0369833Y0271467D02*
X0391397Y0271467D01*
X0389944Y0273065D02*
X0369833Y0273065D01*
X0369833Y0274664D02*
X0388346Y0274664D01*
X0386747Y0276262D02*
X0380485Y0276262D01*
X0378333Y0276262D02*
X0378333Y0276262D01*
X0378333Y0277861D02*
X0378333Y0277861D01*
X0378333Y0279459D02*
X0378333Y0279459D01*
X0376182Y0276262D02*
X0369833Y0276262D01*
X0369833Y0277861D02*
X0374583Y0277861D01*
X0373933Y0279459D02*
X0369489Y0279459D01*
X0368266Y0281058D02*
X0373933Y0281058D01*
X0374434Y0282656D02*
X0367333Y0282656D01*
X0363333Y0280333D02*
X0358333Y0280333D01*
X0354053Y0284255D02*
X0299133Y0284255D01*
X0299133Y0285853D02*
X0355651Y0285853D01*
X0353341Y0287452D02*
X0299133Y0287452D01*
X0297819Y0289050D02*
X0345036Y0289050D01*
X0339815Y0290649D02*
X0316851Y0290649D01*
X0315736Y0289533D02*
X0319133Y0292931D01*
X0319133Y0297736D01*
X0315736Y0301133D01*
X0310931Y0301133D01*
X0307533Y0297736D01*
X0307533Y0292931D01*
X0310931Y0289533D01*
X0315736Y0289533D01*
X0318450Y0292248D02*
X0338217Y0292248D01*
X0337533Y0293846D02*
X0319133Y0293846D01*
X0319133Y0295445D02*
X0337533Y0295445D01*
X0337533Y0297043D02*
X0319133Y0297043D01*
X0318228Y0298642D02*
X0338439Y0298642D01*
X0340038Y0300240D02*
X0316629Y0300240D01*
X0310038Y0300240D02*
X0043317Y0300240D01*
X0043938Y0298642D02*
X0308439Y0298642D01*
X0307533Y0297043D02*
X0044366Y0297043D01*
X0044433Y0295445D02*
X0115242Y0295445D01*
X0115931Y0296133D02*
X0112533Y0292736D01*
X0112533Y0287931D01*
X0115931Y0284533D01*
X0120736Y0284533D01*
X0124133Y0287931D01*
X0124133Y0292736D01*
X0120736Y0296133D01*
X0115931Y0296133D01*
X0113644Y0293846D02*
X0101043Y0293846D01*
X0100156Y0294733D02*
X0102733Y0292156D01*
X0102733Y0290333D01*
X0098333Y0290333D01*
X0098333Y0290333D01*
X0098333Y0285933D01*
X0096511Y0285933D01*
X0093933Y0288511D01*
X0093933Y0290333D01*
X0098333Y0290333D01*
X0098333Y0290333D01*
X0098333Y0285933D01*
X0100156Y0285933D01*
X0102733Y0288511D01*
X0102733Y0290333D01*
X0098333Y0290333D01*
X0093933Y0290333D01*
X0093933Y0292156D01*
X0096511Y0294733D01*
X0098333Y0294733D01*
X0098333Y0290333D01*
X0098333Y0290333D01*
X0098333Y0290333D01*
X0098333Y0294733D01*
X0100156Y0294733D01*
X0098333Y0293846D02*
X0098333Y0293846D01*
X0098333Y0292248D02*
X0098333Y0292248D01*
X0098333Y0290649D02*
X0098333Y0290649D01*
X0098333Y0289050D02*
X0098333Y0289050D01*
X0098333Y0287452D02*
X0098333Y0287452D01*
X0094992Y0287452D02*
X0089133Y0287452D01*
X0089133Y0285853D02*
X0114611Y0285853D01*
X0113012Y0287452D02*
X0101674Y0287452D01*
X0102733Y0289050D02*
X0112533Y0289050D01*
X0112533Y0290649D02*
X0102733Y0290649D01*
X0102642Y0292248D02*
X0112533Y0292248D01*
X0121425Y0295445D02*
X0307533Y0295445D01*
X0307533Y0293846D02*
X0123023Y0293846D01*
X0124133Y0292248D02*
X0308217Y0292248D01*
X0309815Y0290649D02*
X0296220Y0290649D01*
X0290447Y0290649D02*
X0286220Y0290649D01*
X0287819Y0289050D02*
X0288848Y0289050D01*
X0280447Y0290649D02*
X0226220Y0290649D01*
X0227819Y0289050D02*
X0274877Y0289050D01*
X0272578Y0287452D02*
X0229133Y0287452D01*
X0229133Y0285853D02*
X0270979Y0285853D01*
X0269381Y0284255D02*
X0229133Y0284255D01*
X0220447Y0290649D02*
X0216220Y0290649D01*
X0217819Y0289050D02*
X0218848Y0289050D01*
X0210447Y0290649D02*
X0156220Y0290649D01*
X0157819Y0289050D02*
X0204877Y0289050D01*
X0202578Y0287452D02*
X0159133Y0287452D01*
X0159133Y0285853D02*
X0200979Y0285853D01*
X0199381Y0284255D02*
X0159133Y0284255D01*
X0150447Y0290649D02*
X0146220Y0290649D01*
X0147819Y0289050D02*
X0148848Y0289050D01*
X0140447Y0290649D02*
X0124133Y0290649D01*
X0124133Y0289050D02*
X0134877Y0289050D01*
X0132578Y0287452D02*
X0123654Y0287452D01*
X0122056Y0285853D02*
X0130979Y0285853D01*
X0129381Y0284255D02*
X0089133Y0284255D01*
X0087819Y0289050D02*
X0093933Y0289050D01*
X0093933Y0290649D02*
X0086220Y0290649D01*
X0080447Y0290649D02*
X0076220Y0290649D01*
X0077819Y0289050D02*
X0078848Y0289050D01*
X0070447Y0290649D02*
X0043445Y0290649D01*
X0043997Y0292248D02*
X0094025Y0292248D01*
X0095623Y0293846D02*
X0044426Y0293846D01*
X0042522Y0289050D02*
X0068848Y0289050D01*
X0067533Y0287452D02*
X0041149Y0287452D01*
X0039112Y0285853D02*
X0067533Y0285853D01*
X0067533Y0284255D02*
X0034872Y0284255D01*
X0031794Y0284255D02*
X0023233Y0284255D01*
X0023233Y0285853D02*
X0027555Y0285853D01*
X0025518Y0287452D02*
X0023233Y0287452D01*
X0023233Y0289050D02*
X0024144Y0289050D01*
X0023233Y0282656D02*
X0027354Y0282656D01*
X0025791Y0281058D02*
X0023233Y0281058D01*
X0023233Y0279459D02*
X0025129Y0279459D01*
X0024933Y0277861D02*
X0023233Y0277861D01*
X0023233Y0276262D02*
X0025106Y0276262D01*
X0025768Y0274664D02*
X0023233Y0274664D01*
X0023233Y0273065D02*
X0027299Y0273065D01*
X0026164Y0271467D02*
X0023233Y0271467D01*
X0023233Y0269868D02*
X0025298Y0269868D01*
X0024933Y0268270D02*
X0023233Y0268270D01*
X0023233Y0266671D02*
X0024937Y0266671D01*
X0025599Y0265073D02*
X0023233Y0265073D01*
X0023233Y0263474D02*
X0026890Y0263474D01*
X0026573Y0261876D02*
X0023233Y0261876D01*
X0023233Y0260277D02*
X0025468Y0260277D01*
X0024933Y0258679D02*
X0023233Y0258679D01*
X0023233Y0257080D02*
X0024933Y0257080D01*
X0025430Y0255482D02*
X0023233Y0255482D01*
X0023233Y0253883D02*
X0026481Y0253883D01*
X0026982Y0252285D02*
X0023233Y0252285D01*
X0023233Y0250686D02*
X0025637Y0250686D01*
X0024975Y0249088D02*
X0023233Y0249088D01*
X0023233Y0247489D02*
X0024933Y0247489D01*
X0025260Y0245891D02*
X0023233Y0245891D01*
X0023233Y0244292D02*
X0026072Y0244292D01*
X0027391Y0242694D02*
X0023233Y0242694D01*
X0023233Y0241095D02*
X0025807Y0241095D01*
X0025144Y0239497D02*
X0023233Y0239497D01*
X0023233Y0237898D02*
X0024933Y0237898D01*
X0025091Y0236300D02*
X0023233Y0236300D01*
X0023233Y0234701D02*
X0025753Y0234701D01*
X0027262Y0233103D02*
X0023233Y0233103D01*
X0023233Y0231504D02*
X0026202Y0231504D01*
X0025314Y0229906D02*
X0023233Y0229906D01*
X0023233Y0228307D02*
X0024933Y0228307D01*
X0024933Y0226709D02*
X0023233Y0226709D01*
X0023233Y0225110D02*
X0025583Y0225110D01*
X0026853Y0223512D02*
X0023233Y0223512D01*
X0023233Y0221913D02*
X0026611Y0221913D01*
X0025483Y0220314D02*
X0023233Y0220314D01*
X0023233Y0218716D02*
X0024933Y0218716D01*
X0024933Y0217117D02*
X0023233Y0217117D01*
X0023233Y0215519D02*
X0025414Y0215519D01*
X0026444Y0213920D02*
X0023233Y0213920D01*
X0023233Y0212322D02*
X0027020Y0212322D01*
X0025653Y0210723D02*
X0023233Y0210723D01*
X0023233Y0209125D02*
X0024990Y0209125D01*
X0024933Y0207526D02*
X0023233Y0207526D01*
X0023233Y0205928D02*
X0025245Y0205928D01*
X0026035Y0204329D02*
X0023233Y0204329D01*
X0023233Y0202731D02*
X0027896Y0202731D01*
X0023233Y0201132D02*
X0044533Y0201132D01*
X0044533Y0199534D02*
X0023233Y0199534D01*
X0023233Y0197935D02*
X0044533Y0197935D01*
X0044533Y0196337D02*
X0023233Y0196337D01*
X0023233Y0194738D02*
X0044533Y0194738D01*
X0044533Y0193140D02*
X0023233Y0193140D01*
X0038771Y0202731D02*
X0043062Y0202731D01*
X0069633Y0202731D02*
X0087185Y0202731D01*
X0086437Y0204329D02*
X0069633Y0204329D01*
X0069633Y0205928D02*
X0086373Y0205928D01*
X0089424Y0201132D02*
X0069633Y0201132D01*
X0069633Y0199534D02*
X0119578Y0199534D01*
X0116732Y0201132D02*
X0097243Y0201132D01*
X0099481Y0202731D02*
X0115533Y0202731D01*
X0114933Y0204329D02*
X0100229Y0204329D01*
X0100294Y0205928D02*
X0114933Y0205928D01*
X0127088Y0199534D02*
X0189578Y0199534D01*
X0186732Y0201132D02*
X0167243Y0201132D01*
X0169481Y0202731D02*
X0185533Y0202731D01*
X0184933Y0204329D02*
X0170229Y0204329D01*
X0170294Y0205928D02*
X0184933Y0205928D01*
X0197088Y0199534D02*
X0259578Y0199534D01*
X0256732Y0201132D02*
X0237243Y0201132D01*
X0239481Y0202731D02*
X0255533Y0202731D01*
X0254933Y0204329D02*
X0240229Y0204329D01*
X0240294Y0205928D02*
X0254933Y0205928D01*
X0233333Y0205333D02*
X0233333Y0205333D01*
X0233333Y0204329D02*
X0233333Y0204329D01*
X0233333Y0202731D02*
X0233333Y0202731D01*
X0233333Y0201132D02*
X0233333Y0201132D01*
X0229424Y0201132D02*
X0199935Y0201132D01*
X0201133Y0202731D02*
X0227185Y0202731D01*
X0226437Y0204329D02*
X0201733Y0204329D01*
X0201733Y0205928D02*
X0226373Y0205928D01*
X0215766Y0207526D02*
X0205900Y0207526D01*
X0207499Y0209125D02*
X0214168Y0209125D01*
X0209741Y0210723D02*
X0209097Y0210723D01*
X0163333Y0205333D02*
X0163333Y0205333D01*
X0163333Y0204329D02*
X0163333Y0204329D01*
X0163333Y0202731D02*
X0163333Y0202731D01*
X0163333Y0201132D02*
X0163333Y0201132D01*
X0159424Y0201132D02*
X0129935Y0201132D01*
X0131133Y0202731D02*
X0157185Y0202731D01*
X0156437Y0204329D02*
X0131733Y0204329D01*
X0131733Y0205928D02*
X0156373Y0205928D01*
X0145766Y0207526D02*
X0133400Y0207526D01*
X0134999Y0209125D02*
X0144168Y0209125D01*
X0139741Y0210723D02*
X0136597Y0210723D01*
X0093333Y0205333D02*
X0093333Y0205333D01*
X0093333Y0204329D02*
X0093333Y0204329D01*
X0093333Y0202731D02*
X0093333Y0202731D01*
X0093333Y0201132D02*
X0093333Y0201132D01*
X0075766Y0207526D02*
X0069633Y0207526D01*
X0069633Y0209125D02*
X0074168Y0209125D01*
X0069741Y0210723D02*
X0069633Y0210723D01*
X0096511Y0179733D02*
X0093933Y0177156D01*
X0093933Y0175333D01*
X0093933Y0173511D01*
X0096511Y0170933D01*
X0098333Y0170933D01*
X0098333Y0175333D01*
X0098333Y0175333D01*
X0093933Y0175333D01*
X0098333Y0175333D01*
X0098333Y0175333D01*
X0098333Y0170933D01*
X0100156Y0170933D01*
X0102733Y0173511D01*
X0102733Y0175333D01*
X0098333Y0175333D01*
X0098333Y0175333D01*
X0098333Y0179733D01*
X0096511Y0179733D01*
X0095531Y0178753D02*
X0069633Y0178753D01*
X0069633Y0177155D02*
X0093933Y0177155D01*
X0093933Y0175556D02*
X0086313Y0175556D01*
X0087911Y0173958D02*
X0093933Y0173958D01*
X0095085Y0172359D02*
X0089133Y0172359D01*
X0089133Y0170761D02*
X0114704Y0170761D01*
X0113105Y0172359D02*
X0101582Y0172359D01*
X0102733Y0173958D02*
X0112533Y0173958D01*
X0112533Y0175556D02*
X0102733Y0175556D01*
X0102733Y0175333D02*
X0102733Y0177156D01*
X0100156Y0179733D01*
X0098333Y0179733D01*
X0098333Y0175333D01*
X0098333Y0175333D01*
X0102733Y0175333D01*
X0102733Y0177155D02*
X0112533Y0177155D01*
X0113551Y0178753D02*
X0101136Y0178753D01*
X0098333Y0178753D02*
X0098333Y0178753D01*
X0098333Y0177155D02*
X0098333Y0177155D01*
X0098333Y0175556D02*
X0098333Y0175556D01*
X0098333Y0173958D02*
X0098333Y0173958D01*
X0098333Y0172359D02*
X0098333Y0172359D01*
X0089133Y0169162D02*
X0129288Y0169162D01*
X0130887Y0170761D02*
X0121963Y0170761D01*
X0123562Y0172359D02*
X0132485Y0172359D01*
X0134653Y0173958D02*
X0124133Y0173958D01*
X0124133Y0175556D02*
X0140354Y0175556D01*
X0146313Y0175556D02*
X0150354Y0175556D01*
X0148755Y0173958D02*
X0147911Y0173958D01*
X0156313Y0175556D02*
X0210354Y0175556D01*
X0204653Y0173958D02*
X0157911Y0173958D01*
X0159133Y0172359D02*
X0202485Y0172359D01*
X0200887Y0170761D02*
X0159133Y0170761D01*
X0159133Y0169162D02*
X0199288Y0169162D01*
X0216313Y0175556D02*
X0220354Y0175556D01*
X0218755Y0173958D02*
X0217911Y0173958D01*
X0226313Y0175556D02*
X0280354Y0175556D01*
X0286313Y0175556D02*
X0290354Y0175556D01*
X0288755Y0173958D02*
X0287911Y0173958D01*
X0297168Y0165965D02*
X0299174Y0165965D01*
X0274653Y0173958D02*
X0227911Y0173958D01*
X0229133Y0172359D02*
X0272485Y0172359D01*
X0270887Y0170761D02*
X0229133Y0170761D01*
X0229133Y0169162D02*
X0269288Y0169162D01*
X0328333Y0175333D02*
X0328333Y0162833D01*
X0330833Y0160333D01*
X0333333Y0160333D01*
X0343333Y0160333D01*
X0343333Y0192833D01*
X0355970Y0180096D02*
X0374055Y0198181D01*
X0374633Y0199577D01*
X0374633Y0211259D01*
X0374907Y0211533D01*
X0376331Y0211533D01*
X0377448Y0210416D01*
X0377648Y0210333D01*
X0377448Y0210250D01*
X0375816Y0208619D01*
X0374933Y0206487D01*
X0374933Y0204180D01*
X0375816Y0202048D01*
X0377448Y0200416D01*
X0379580Y0199533D01*
X0387087Y0199533D01*
X0389219Y0200416D01*
X0390850Y0202048D01*
X0391733Y0204180D01*
X0391733Y0206487D01*
X0390850Y0208619D01*
X0389219Y0210250D01*
X0389018Y0210333D01*
X0389219Y0210416D01*
X0389798Y0210995D01*
X0394045Y0206748D01*
X0392533Y0205236D01*
X0392533Y0200431D01*
X0395931Y0197033D01*
X0400736Y0197033D01*
X0403333Y0199631D01*
X0405931Y0197033D01*
X0410736Y0197033D01*
X0414133Y0200431D01*
X0414133Y0205236D01*
X0410736Y0208633D01*
X0410407Y0208633D01*
X0400007Y0219033D01*
X0414089Y0219033D01*
X0415486Y0219612D01*
X0416555Y0220681D01*
X0419055Y0223181D01*
X0419633Y0224577D01*
X0419633Y0276089D01*
X0419055Y0277486D01*
X0417986Y0278555D01*
X0412307Y0284234D01*
X0414795Y0284234D01*
X0417617Y0284991D01*
X0420148Y0286452D01*
X0420933Y0287237D01*
X0420933Y0093430D01*
X0420148Y0094215D01*
X0417617Y0095676D01*
X0414795Y0096433D01*
X0411872Y0096433D01*
X0409049Y0095676D01*
X0406518Y0094215D01*
X0404452Y0092148D01*
X0402991Y0089617D01*
X0402234Y0086795D01*
X0402234Y0083872D01*
X0402991Y0081049D01*
X0404452Y0078518D01*
X0405237Y0077733D01*
X0401533Y0077733D01*
X0401533Y0079129D01*
X0401231Y0079860D01*
X0401533Y0080590D01*
X0401533Y0082082D01*
X0401204Y0082878D01*
X0400962Y0083460D01*
X0399978Y0084444D01*
X0398923Y0085499D01*
X0397545Y0086070D01*
X0393101Y0086070D01*
X0392100Y0085656D01*
X0391100Y0086070D01*
X0388213Y0086070D01*
X0388071Y0086413D01*
X0387017Y0087467D01*
X0385638Y0088038D01*
X0383162Y0088038D01*
X0381784Y0087467D01*
X0380729Y0086413D01*
X0380553Y0085989D01*
X0380357Y0086070D01*
X0379980Y0086070D01*
X0379838Y0086413D01*
X0378783Y0087467D01*
X0377405Y0088038D01*
X0375913Y0088038D01*
X0374534Y0087467D01*
X0373480Y0086413D01*
X0373338Y0086070D01*
X0370451Y0086070D01*
X0369073Y0085499D01*
X0368089Y0084515D01*
X0367034Y0083460D01*
X0366463Y0082082D01*
X0366463Y0077733D01*
X0349456Y0077733D01*
X0349563Y0077841D01*
X0354563Y0082841D01*
X0355233Y0084458D01*
X0355233Y0098511D01*
X0357656Y0100933D01*
X0371753Y0100933D01*
X0372736Y0099950D01*
X0375070Y0098983D01*
X0377596Y0098983D01*
X0379930Y0099950D01*
X0381717Y0101736D01*
X0382683Y0104070D01*
X0382683Y0106596D01*
X0381717Y0108930D01*
X0379930Y0110717D01*
X0377596Y0111683D01*
X0375070Y0111683D01*
X0372736Y0110717D01*
X0371753Y0109733D01*
X0360233Y0109733D01*
X0360233Y0139133D01*
X0363817Y0139133D01*
X0366095Y0140077D01*
X0366951Y0140933D01*
X0369209Y0140933D01*
X0369605Y0141097D01*
X0371087Y0140484D01*
X0378659Y0140484D01*
X0377926Y0139751D01*
X0376506Y0136323D01*
X0376506Y0132612D01*
X0377926Y0129184D01*
X0380550Y0126560D01*
X0383978Y0125140D01*
X0387689Y0125140D01*
X0391117Y0126560D01*
X0393741Y0129184D01*
X0395161Y0132612D01*
X0395161Y0136323D01*
X0393741Y0139751D01*
X0392516Y0140976D01*
X0397342Y0140976D01*
X0400840Y0144474D01*
X0400840Y0149421D01*
X0399180Y0151081D01*
X0400840Y0152742D01*
X0400840Y0157689D01*
X0398196Y0160333D01*
X0400840Y0162978D01*
X0400840Y0167925D01*
X0398190Y0170575D01*
X0399440Y0171826D01*
X0399440Y0173633D01*
X0394955Y0173633D01*
X0394955Y0173805D01*
X0399440Y0173805D01*
X0399440Y0175613D01*
X0396762Y0178291D01*
X0394955Y0178291D01*
X0394955Y0173805D01*
X0394783Y0173805D01*
X0394783Y0178291D01*
X0392975Y0178291D01*
X0390937Y0176253D01*
X0389548Y0177642D01*
X0391117Y0178292D01*
X0393741Y0180916D01*
X0395161Y0184344D01*
X0395161Y0188055D01*
X0393741Y0191483D01*
X0391117Y0194107D01*
X0387689Y0195527D01*
X0383978Y0195527D01*
X0380550Y0194107D01*
X0377926Y0191483D01*
X0376506Y0188055D01*
X0376506Y0184344D01*
X0377926Y0180916D01*
X0380550Y0178292D01*
X0380977Y0178115D01*
X0380764Y0177902D01*
X0380482Y0178107D01*
X0379827Y0178441D01*
X0379128Y0178668D01*
X0378402Y0178783D01*
X0375299Y0178783D01*
X0375299Y0174248D01*
X0375029Y0174248D01*
X0375029Y0178783D01*
X0371926Y0178783D01*
X0371200Y0178668D01*
X0370501Y0178441D01*
X0369846Y0178107D01*
X0369252Y0177675D01*
X0368732Y0177155D01*
X0368300Y0176561D01*
X0367966Y0175906D01*
X0367739Y0175206D01*
X0367624Y0174480D01*
X0367624Y0174248D01*
X0375029Y0174248D01*
X0375029Y0173978D01*
X0367624Y0173978D01*
X0367624Y0173745D01*
X0367739Y0173019D01*
X0367966Y0172320D01*
X0368300Y0171665D01*
X0368732Y0171070D01*
X0369252Y0170551D01*
X0369846Y0170119D01*
X0370162Y0169958D01*
X0368856Y0169416D01*
X0368573Y0169133D01*
X0367551Y0169133D01*
X0366095Y0170589D01*
X0364854Y0171103D01*
X0365099Y0171228D01*
X0365710Y0171672D01*
X0366245Y0172206D01*
X0366689Y0172818D01*
X0367032Y0173491D01*
X0367265Y0174209D01*
X0367383Y0174956D01*
X0367383Y0175133D01*
X0359783Y0175133D01*
X0359783Y0175533D01*
X0359383Y0175533D01*
X0359383Y0180133D01*
X0356206Y0180133D01*
X0355970Y0180096D01*
X0356226Y0180352D02*
X0378490Y0180352D01*
X0378589Y0178753D02*
X0380088Y0178753D01*
X0377497Y0181950D02*
X0357824Y0181950D01*
X0359423Y0183549D02*
X0376835Y0183549D01*
X0376506Y0185147D02*
X0361021Y0185147D01*
X0362620Y0186746D02*
X0376506Y0186746D01*
X0376626Y0188344D02*
X0364218Y0188344D01*
X0365817Y0189943D02*
X0377288Y0189943D01*
X0377984Y0191541D02*
X0367415Y0191541D01*
X0369014Y0193140D02*
X0379582Y0193140D01*
X0382074Y0194738D02*
X0370612Y0194738D01*
X0372211Y0196337D02*
X0420933Y0196337D01*
X0420933Y0197935D02*
X0411638Y0197935D01*
X0413236Y0199534D02*
X0420933Y0199534D01*
X0420933Y0201132D02*
X0414133Y0201132D01*
X0414133Y0202731D02*
X0420933Y0202731D01*
X0420933Y0204329D02*
X0414133Y0204329D01*
X0413441Y0205928D02*
X0420933Y0205928D01*
X0420933Y0207526D02*
X0411843Y0207526D01*
X0409916Y0209125D02*
X0420933Y0209125D01*
X0420933Y0210723D02*
X0408317Y0210723D01*
X0406719Y0212322D02*
X0420933Y0212322D01*
X0420933Y0213920D02*
X0405120Y0213920D01*
X0403522Y0215519D02*
X0420933Y0215519D01*
X0420933Y0217117D02*
X0401923Y0217117D01*
X0400325Y0218716D02*
X0420933Y0218716D01*
X0420933Y0220314D02*
X0416188Y0220314D01*
X0417787Y0221913D02*
X0420933Y0221913D01*
X0420933Y0223512D02*
X0419192Y0223512D01*
X0419633Y0225110D02*
X0420933Y0225110D01*
X0420933Y0226709D02*
X0419633Y0226709D01*
X0419633Y0228307D02*
X0420933Y0228307D01*
X0420933Y0229906D02*
X0419633Y0229906D01*
X0419633Y0231504D02*
X0420933Y0231504D01*
X0420933Y0233103D02*
X0419633Y0233103D01*
X0419633Y0234701D02*
X0420933Y0234701D01*
X0420933Y0236300D02*
X0419633Y0236300D01*
X0419633Y0237898D02*
X0420933Y0237898D01*
X0420933Y0239497D02*
X0419633Y0239497D01*
X0419633Y0241095D02*
X0420933Y0241095D01*
X0420933Y0242694D02*
X0419633Y0242694D01*
X0419633Y0244292D02*
X0420933Y0244292D01*
X0420933Y0245891D02*
X0419633Y0245891D01*
X0419633Y0247489D02*
X0420933Y0247489D01*
X0420933Y0249088D02*
X0419633Y0249088D01*
X0419633Y0250686D02*
X0420933Y0250686D01*
X0420933Y0252285D02*
X0419633Y0252285D01*
X0419633Y0253883D02*
X0420933Y0253883D01*
X0420933Y0255482D02*
X0419633Y0255482D01*
X0419633Y0257080D02*
X0420933Y0257080D01*
X0420933Y0258679D02*
X0419633Y0258679D01*
X0419633Y0260277D02*
X0420933Y0260277D01*
X0420933Y0261876D02*
X0419633Y0261876D01*
X0419633Y0263474D02*
X0420933Y0263474D01*
X0420933Y0265073D02*
X0419633Y0265073D01*
X0419633Y0266671D02*
X0420933Y0266671D01*
X0420933Y0268270D02*
X0419633Y0268270D01*
X0419633Y0269868D02*
X0420933Y0269868D01*
X0420933Y0271467D02*
X0419633Y0271467D01*
X0419633Y0273065D02*
X0420933Y0273065D01*
X0420933Y0274664D02*
X0419633Y0274664D01*
X0419562Y0276262D02*
X0420933Y0276262D01*
X0420933Y0277861D02*
X0418680Y0277861D01*
X0417081Y0279459D02*
X0420933Y0279459D01*
X0420933Y0281058D02*
X0415483Y0281058D01*
X0413884Y0282656D02*
X0420933Y0282656D01*
X0420933Y0284255D02*
X0414872Y0284255D01*
X0419112Y0285853D02*
X0420933Y0285853D01*
X0402669Y0292248D02*
X0391793Y0292248D01*
X0390195Y0293846D02*
X0402241Y0293846D01*
X0402234Y0295445D02*
X0389133Y0295445D01*
X0389133Y0297043D02*
X0402301Y0297043D01*
X0402729Y0298642D02*
X0388228Y0298642D01*
X0386629Y0300240D02*
X0403350Y0300240D01*
X0404273Y0301839D02*
X0042394Y0301839D01*
X0039313Y0282656D02*
X0067808Y0282656D01*
X0069406Y0281058D02*
X0062978Y0281058D01*
X0064581Y0279459D02*
X0069257Y0279459D01*
X0067658Y0277861D02*
X0066180Y0277861D01*
X0069633Y0175556D02*
X0070354Y0175556D01*
X0076313Y0175556D02*
X0080354Y0175556D01*
X0078755Y0173958D02*
X0077911Y0173958D01*
X0333333Y0275333D02*
X0340833Y0275333D01*
X0343333Y0272833D01*
X0359601Y0269868D02*
X0359712Y0269868D01*
X0366230Y0265073D02*
X0376333Y0265073D01*
X0376542Y0266671D02*
X0367828Y0266671D01*
X0369308Y0268270D02*
X0377447Y0268270D01*
X0383333Y0268270D02*
X0383333Y0268270D01*
X0383333Y0269733D02*
X0383333Y0265333D01*
X0390333Y0265333D01*
X0390333Y0265680D01*
X0390225Y0266364D01*
X0390011Y0267022D01*
X0389697Y0267639D01*
X0389289Y0268200D01*
X0388800Y0268689D01*
X0388239Y0269097D01*
X0387622Y0269411D01*
X0386964Y0269625D01*
X0386280Y0269733D01*
X0383333Y0269733D01*
X0383333Y0266671D02*
X0383333Y0266671D01*
X0389219Y0268270D02*
X0392447Y0268270D01*
X0391542Y0266671D02*
X0390125Y0266671D01*
X0390333Y0265073D02*
X0391333Y0265073D01*
X0391742Y0263474D02*
X0389924Y0263474D01*
X0388660Y0261876D02*
X0393006Y0261876D01*
X0392513Y0260277D02*
X0389154Y0260277D01*
X0398333Y0265333D02*
X0398333Y0265333D01*
X0405333Y0265333D01*
X0405333Y0264987D01*
X0405225Y0264303D01*
X0405011Y0263644D01*
X0404697Y0263027D01*
X0404289Y0262467D01*
X0403800Y0261977D01*
X0403239Y0261570D01*
X0402622Y0261256D01*
X0402157Y0261104D01*
X0404219Y0260250D01*
X0405850Y0258619D01*
X0406733Y0256487D01*
X0406733Y0254180D01*
X0405850Y0252048D01*
X0404219Y0250416D01*
X0404018Y0250333D01*
X0404219Y0250250D01*
X0405850Y0248619D01*
X0406733Y0246487D01*
X0406733Y0244180D01*
X0405850Y0242048D01*
X0405436Y0241633D01*
X0406759Y0241633D01*
X0407033Y0241907D01*
X0407033Y0271259D01*
X0406759Y0271533D01*
X0405336Y0271533D01*
X0404219Y0270416D01*
X0402157Y0269562D01*
X0402622Y0269411D01*
X0403239Y0269097D01*
X0403800Y0268689D01*
X0404289Y0268200D01*
X0404697Y0267639D01*
X0405011Y0267022D01*
X0405225Y0266364D01*
X0405333Y0265680D01*
X0405333Y0265333D01*
X0398333Y0265333D01*
X0403660Y0261876D02*
X0407033Y0261876D01*
X0407033Y0263474D02*
X0404924Y0263474D01*
X0405333Y0265073D02*
X0407033Y0265073D01*
X0407033Y0266671D02*
X0405125Y0266671D01*
X0404219Y0268270D02*
X0407033Y0268270D01*
X0407033Y0269868D02*
X0402896Y0269868D01*
X0405269Y0271467D02*
X0406826Y0271467D01*
X0407033Y0260277D02*
X0404154Y0260277D01*
X0405790Y0258679D02*
X0407033Y0258679D01*
X0407033Y0257080D02*
X0406488Y0257080D01*
X0406733Y0255482D02*
X0407033Y0255482D01*
X0407033Y0253883D02*
X0406611Y0253883D01*
X0407033Y0252285D02*
X0405948Y0252285D01*
X0407033Y0250686D02*
X0404489Y0250686D01*
X0405381Y0249088D02*
X0407033Y0249088D01*
X0407033Y0247489D02*
X0406318Y0247489D01*
X0406733Y0245891D02*
X0407033Y0245891D01*
X0407033Y0244292D02*
X0406733Y0244292D01*
X0407033Y0242694D02*
X0406118Y0242694D01*
X0376769Y0241095D02*
X0366726Y0241095D01*
X0367133Y0242694D02*
X0375549Y0242694D01*
X0374933Y0244292D02*
X0367133Y0244292D01*
X0367133Y0245891D02*
X0374933Y0245891D01*
X0375348Y0247489D02*
X0367133Y0247489D01*
X0367133Y0249088D02*
X0376285Y0249088D01*
X0377178Y0250686D02*
X0367133Y0250686D01*
X0367133Y0252285D02*
X0375718Y0252285D01*
X0375056Y0253883D02*
X0367012Y0253883D01*
X0366059Y0255482D02*
X0374933Y0255482D01*
X0375179Y0257080D02*
X0364460Y0257080D01*
X0362687Y0258679D02*
X0375876Y0258679D01*
X0377513Y0260277D02*
X0359154Y0260277D01*
X0362939Y0261876D02*
X0378006Y0261876D01*
X0376742Y0263474D02*
X0364631Y0263474D01*
X0382083Y0277861D02*
X0385149Y0277861D01*
X0383550Y0279459D02*
X0382733Y0279459D01*
X0378217Y0292248D02*
X0364293Y0292248D01*
X0362283Y0293846D02*
X0377533Y0293846D01*
X0377533Y0295445D02*
X0359133Y0295445D01*
X0359133Y0297043D02*
X0377533Y0297043D01*
X0378439Y0298642D02*
X0358228Y0298642D01*
X0356629Y0300240D02*
X0380038Y0300240D01*
X0393392Y0290649D02*
X0393410Y0290649D01*
X0350038Y0300240D02*
X0346629Y0300240D01*
X0348228Y0298642D02*
X0348439Y0298642D01*
X0365371Y0239497D02*
X0376694Y0239497D01*
X0375518Y0237898D02*
X0363772Y0237898D01*
X0365241Y0236300D02*
X0374933Y0236300D01*
X0374933Y0234701D02*
X0366840Y0234701D01*
X0374633Y0210723D02*
X0377141Y0210723D01*
X0376322Y0209125D02*
X0374633Y0209125D01*
X0374633Y0207526D02*
X0375364Y0207526D01*
X0374933Y0205928D02*
X0374633Y0205928D01*
X0374633Y0204329D02*
X0374933Y0204329D01*
X0374633Y0202731D02*
X0375533Y0202731D01*
X0374633Y0201132D02*
X0376732Y0201132D01*
X0374615Y0199534D02*
X0379578Y0199534D01*
X0373809Y0197935D02*
X0395029Y0197935D01*
X0393430Y0199534D02*
X0387088Y0199534D01*
X0389935Y0201132D02*
X0392533Y0201132D01*
X0392533Y0202731D02*
X0391133Y0202731D01*
X0391733Y0204329D02*
X0392533Y0204329D01*
X0393225Y0205928D02*
X0391733Y0205928D01*
X0391303Y0207526D02*
X0393266Y0207526D01*
X0391668Y0209125D02*
X0390344Y0209125D01*
X0390069Y0210723D02*
X0389526Y0210723D01*
X0403236Y0199534D02*
X0403430Y0199534D01*
X0405029Y0197935D02*
X0401638Y0197935D01*
X0401724Y0194738D02*
X0389593Y0194738D01*
X0392084Y0193140D02*
X0399999Y0193140D01*
X0398939Y0192080D02*
X0401508Y0194649D01*
X0404864Y0196039D01*
X0408496Y0196039D01*
X0411852Y0194649D01*
X0414420Y0192080D01*
X0415810Y0188724D01*
X0415810Y0185092D01*
X0414420Y0181736D01*
X0411852Y0179167D01*
X0408496Y0177777D01*
X0404864Y0177777D01*
X0401508Y0179167D01*
X0398939Y0181736D01*
X0397549Y0185092D01*
X0397549Y0188724D01*
X0398939Y0192080D01*
X0398716Y0191541D02*
X0393683Y0191541D01*
X0394379Y0189943D02*
X0398054Y0189943D01*
X0397549Y0188344D02*
X0395041Y0188344D01*
X0395161Y0186746D02*
X0397549Y0186746D01*
X0397549Y0185147D02*
X0395161Y0185147D01*
X0394831Y0183549D02*
X0398188Y0183549D01*
X0398850Y0181950D02*
X0394169Y0181950D01*
X0393177Y0180352D02*
X0400323Y0180352D01*
X0402508Y0178753D02*
X0391578Y0178753D01*
X0391839Y0177155D02*
X0390036Y0177155D01*
X0394783Y0177155D02*
X0394955Y0177155D01*
X0394955Y0175556D02*
X0394783Y0175556D01*
X0394783Y0173958D02*
X0394955Y0173958D01*
X0397898Y0177155D02*
X0420933Y0177155D01*
X0420933Y0178753D02*
X0410852Y0178753D01*
X0413036Y0180352D02*
X0420933Y0180352D01*
X0420933Y0181950D02*
X0414509Y0181950D01*
X0415171Y0183549D02*
X0420933Y0183549D01*
X0420933Y0185147D02*
X0415810Y0185147D01*
X0415810Y0186746D02*
X0420933Y0186746D01*
X0420933Y0188344D02*
X0415810Y0188344D01*
X0415306Y0189943D02*
X0420933Y0189943D01*
X0420933Y0191541D02*
X0414644Y0191541D01*
X0413361Y0193140D02*
X0420933Y0193140D01*
X0420933Y0194738D02*
X0411636Y0194738D01*
X0420933Y0175556D02*
X0399440Y0175556D01*
X0399440Y0173958D02*
X0420933Y0173958D01*
X0420933Y0172359D02*
X0399440Y0172359D01*
X0398376Y0170761D02*
X0420933Y0170761D01*
X0420933Y0169162D02*
X0412374Y0169162D01*
X0411646Y0169464D02*
X0408013Y0169464D01*
X0404657Y0168074D01*
X0402089Y0165505D01*
X0400699Y0162150D01*
X0400699Y0158517D01*
X0402089Y0155161D01*
X0404657Y0152593D01*
X0408013Y0151203D01*
X0411646Y0151203D01*
X0415002Y0152593D01*
X0417570Y0155161D01*
X0418960Y0158517D01*
X0418960Y0162150D01*
X0417570Y0165505D01*
X0415002Y0168074D01*
X0411646Y0169464D01*
X0415512Y0167564D02*
X0420933Y0167564D01*
X0420933Y0165965D02*
X0417110Y0165965D01*
X0418042Y0164367D02*
X0420933Y0164367D01*
X0420933Y0162768D02*
X0418704Y0162768D01*
X0418960Y0161170D02*
X0420933Y0161170D01*
X0420933Y0159571D02*
X0418960Y0159571D01*
X0418735Y0157973D02*
X0420933Y0157973D01*
X0420933Y0156374D02*
X0418072Y0156374D01*
X0417184Y0154776D02*
X0420933Y0154776D01*
X0420933Y0153177D02*
X0415586Y0153177D01*
X0412553Y0151579D02*
X0420933Y0151579D01*
X0420933Y0149980D02*
X0400281Y0149980D01*
X0400840Y0148381D02*
X0420933Y0148381D01*
X0420933Y0146783D02*
X0400840Y0146783D01*
X0400840Y0145184D02*
X0420933Y0145184D01*
X0420933Y0143586D02*
X0399952Y0143586D01*
X0398354Y0141987D02*
X0402686Y0141987D01*
X0401508Y0141499D02*
X0398939Y0138931D01*
X0397549Y0135575D01*
X0397549Y0131942D01*
X0398939Y0128586D01*
X0401508Y0126018D01*
X0404864Y0124628D01*
X0408496Y0124628D01*
X0411852Y0126018D01*
X0414420Y0128586D01*
X0415810Y0131942D01*
X0415810Y0135575D01*
X0414420Y0138931D01*
X0411852Y0141499D01*
X0408496Y0142889D01*
X0404864Y0142889D01*
X0401508Y0141499D01*
X0400397Y0140389D02*
X0393103Y0140389D01*
X0394139Y0138790D02*
X0398881Y0138790D01*
X0398219Y0137192D02*
X0394801Y0137192D01*
X0395161Y0135593D02*
X0397557Y0135593D01*
X0397549Y0133995D02*
X0395161Y0133995D01*
X0395072Y0132396D02*
X0397549Y0132396D01*
X0398023Y0130798D02*
X0394410Y0130798D01*
X0393747Y0129199D02*
X0398685Y0129199D01*
X0399925Y0127601D02*
X0392158Y0127601D01*
X0389771Y0126002D02*
X0401545Y0126002D01*
X0411814Y0126002D02*
X0420933Y0126002D01*
X0420933Y0124404D02*
X0360233Y0124404D01*
X0360233Y0126002D02*
X0381895Y0126002D01*
X0379509Y0127601D02*
X0360233Y0127601D01*
X0360233Y0129199D02*
X0377919Y0129199D01*
X0377257Y0130798D02*
X0360233Y0130798D01*
X0360233Y0132396D02*
X0376595Y0132396D01*
X0376506Y0133995D02*
X0360233Y0133995D01*
X0360233Y0135593D02*
X0376506Y0135593D01*
X0376866Y0137192D02*
X0360233Y0137192D01*
X0360233Y0138790D02*
X0377528Y0138790D01*
X0378564Y0140389D02*
X0366407Y0140389D01*
X0355833Y0142833D02*
X0348333Y0142833D01*
X0345833Y0145333D01*
X0345833Y0157833D01*
X0343333Y0160333D01*
X0359383Y0175556D02*
X0359783Y0175556D01*
X0359783Y0175533D02*
X0359783Y0180133D01*
X0362961Y0180133D01*
X0363707Y0180015D01*
X0364426Y0179782D01*
X0365099Y0179439D01*
X0365710Y0178995D01*
X0366245Y0178460D01*
X0366689Y0177849D01*
X0367032Y0177176D01*
X0367265Y0176457D01*
X0367383Y0175711D01*
X0367383Y0175533D01*
X0359783Y0175533D01*
X0359783Y0177155D02*
X0359383Y0177155D01*
X0359383Y0178753D02*
X0359783Y0178753D01*
X0365952Y0178753D02*
X0371739Y0178753D01*
X0375029Y0178753D02*
X0375299Y0178753D01*
X0375299Y0177155D02*
X0375029Y0177155D01*
X0375029Y0175556D02*
X0375299Y0175556D01*
X0368731Y0177155D02*
X0367039Y0177155D01*
X0367383Y0175556D02*
X0367853Y0175556D01*
X0367624Y0173958D02*
X0367183Y0173958D01*
X0367953Y0172359D02*
X0366356Y0172359D01*
X0365682Y0170761D02*
X0369042Y0170761D01*
X0368601Y0169162D02*
X0367523Y0169162D01*
X0399032Y0161170D02*
X0400699Y0161170D01*
X0400699Y0159571D02*
X0398958Y0159571D01*
X0400557Y0157973D02*
X0400924Y0157973D01*
X0400840Y0156374D02*
X0401586Y0156374D01*
X0400840Y0154776D02*
X0402474Y0154776D01*
X0404073Y0153177D02*
X0400840Y0153177D01*
X0399677Y0151579D02*
X0407106Y0151579D01*
X0410673Y0141987D02*
X0420933Y0141987D01*
X0420933Y0140389D02*
X0412962Y0140389D01*
X0414479Y0138790D02*
X0420933Y0138790D01*
X0420933Y0137192D02*
X0415141Y0137192D01*
X0415803Y0135593D02*
X0420933Y0135593D01*
X0420933Y0133995D02*
X0415810Y0133995D01*
X0415810Y0132396D02*
X0420933Y0132396D01*
X0420933Y0130798D02*
X0415336Y0130798D01*
X0414674Y0129199D02*
X0420933Y0129199D01*
X0420933Y0127601D02*
X0413435Y0127601D01*
X0420933Y0122805D02*
X0360233Y0122805D01*
X0360233Y0121207D02*
X0420933Y0121207D01*
X0420933Y0119608D02*
X0360233Y0119608D01*
X0360233Y0118010D02*
X0420933Y0118010D01*
X0420933Y0116411D02*
X0360233Y0116411D01*
X0360233Y0114813D02*
X0420933Y0114813D01*
X0420933Y0113214D02*
X0360233Y0113214D01*
X0360233Y0111616D02*
X0374907Y0111616D01*
X0377760Y0111616D02*
X0420933Y0111616D01*
X0420933Y0110017D02*
X0392650Y0110017D01*
X0392384Y0110283D02*
X0390333Y0110283D01*
X0388283Y0110283D01*
X0385383Y0107384D01*
X0385383Y0105333D01*
X0385383Y0103283D01*
X0388283Y0100383D01*
X0390333Y0100383D01*
X0390333Y0105333D01*
X0390333Y0105333D01*
X0385383Y0105333D01*
X0390333Y0105333D01*
X0390333Y0105333D01*
X0390333Y0100383D01*
X0392384Y0100383D01*
X0395283Y0103283D01*
X0395283Y0105333D01*
X0390333Y0105333D01*
X0390333Y0105333D01*
X0390333Y0110283D01*
X0390333Y0105333D01*
X0390333Y0105333D01*
X0395283Y0105333D01*
X0395283Y0107384D01*
X0392384Y0110283D01*
X0390333Y0110017D02*
X0390333Y0110017D01*
X0390333Y0108419D02*
X0390333Y0108419D01*
X0390333Y0106820D02*
X0390333Y0106820D01*
X0390333Y0105222D02*
X0390333Y0105222D01*
X0390333Y0103623D02*
X0390333Y0103623D01*
X0390333Y0102025D02*
X0390333Y0102025D01*
X0390333Y0100426D02*
X0390333Y0100426D01*
X0388240Y0100426D02*
X0380406Y0100426D01*
X0381836Y0102025D02*
X0386642Y0102025D01*
X0385383Y0103623D02*
X0382498Y0103623D01*
X0382683Y0105222D02*
X0385383Y0105222D01*
X0385383Y0106820D02*
X0382591Y0106820D01*
X0381929Y0108419D02*
X0386418Y0108419D01*
X0388017Y0110017D02*
X0380630Y0110017D01*
X0372037Y0110017D02*
X0360233Y0110017D01*
X0357149Y0100426D02*
X0372260Y0100426D01*
X0374946Y0087638D02*
X0355233Y0087638D01*
X0355233Y0086040D02*
X0370378Y0086040D01*
X0368015Y0084441D02*
X0355226Y0084441D01*
X0354564Y0082843D02*
X0366778Y0082843D01*
X0366463Y0081244D02*
X0352967Y0081244D01*
X0351368Y0079645D02*
X0366463Y0079645D01*
X0366463Y0078047D02*
X0349770Y0078047D01*
X0355233Y0089237D02*
X0402888Y0089237D01*
X0402460Y0087638D02*
X0386605Y0087638D01*
X0382196Y0087638D02*
X0378371Y0087638D01*
X0380431Y0086040D02*
X0380575Y0086040D01*
X0391173Y0086040D02*
X0393027Y0086040D01*
X0397619Y0086040D02*
X0402234Y0086040D01*
X0402234Y0084441D02*
X0399981Y0084441D01*
X0401218Y0082843D02*
X0402510Y0082843D01*
X0402938Y0081244D02*
X0401533Y0081244D01*
X0401319Y0079645D02*
X0403801Y0079645D01*
X0404923Y0078047D02*
X0401533Y0078047D01*
X0403694Y0090835D02*
X0355233Y0090835D01*
X0355233Y0092434D02*
X0404737Y0092434D01*
X0406335Y0094032D02*
X0355233Y0094032D01*
X0355233Y0095631D02*
X0408970Y0095631D01*
X0417696Y0095631D02*
X0420933Y0095631D01*
X0420933Y0097229D02*
X0355233Y0097229D01*
X0355550Y0098828D02*
X0420933Y0098828D01*
X0420933Y0100426D02*
X0392426Y0100426D01*
X0394025Y0102025D02*
X0420933Y0102025D01*
X0420933Y0103623D02*
X0395283Y0103623D01*
X0395283Y0105222D02*
X0420933Y0105222D01*
X0420933Y0106820D02*
X0395283Y0106820D01*
X0394248Y0108419D02*
X0420933Y0108419D01*
X0420933Y0094032D02*
X0420331Y0094032D01*
X0400955Y0162768D02*
X0400631Y0162768D01*
X0400840Y0164367D02*
X0401617Y0164367D01*
X0400840Y0165965D02*
X0402548Y0165965D01*
X0404147Y0167564D02*
X0400840Y0167564D01*
X0399603Y0169162D02*
X0407284Y0169162D01*
D20*
X0394869Y0165451D02*
X0388451Y0165451D01*
X0379396Y0156396D01*
X0375164Y0156396D01*
X0369396Y0156396D01*
X0368333Y0155333D01*
X0359583Y0155333D01*
X0353333Y0155333D01*
X0350833Y0157833D01*
X0350833Y0162833D01*
X0347708Y0165958D01*
X0347708Y0182208D01*
X0365833Y0200333D01*
X0365833Y0220333D01*
X0370833Y0225333D01*
X0383333Y0225333D01*
X0388333Y0225333D01*
X0408333Y0205333D01*
X0408333Y0202833D01*
X0398333Y0202833D02*
X0398333Y0207833D01*
X0390833Y0215333D01*
X0383333Y0215333D01*
X0373333Y0215333D01*
X0370833Y0212833D01*
X0370833Y0200333D01*
X0350833Y0180333D01*
X0350833Y0167833D01*
X0353333Y0165333D01*
X0359583Y0165333D01*
X0368333Y0165333D01*
X0369396Y0164270D01*
X0375164Y0164270D01*
X0379770Y0164270D01*
X0385026Y0169526D01*
X0385026Y0173719D01*
X0340833Y0200333D02*
X0340833Y0220333D01*
X0343958Y0223458D01*
X0343958Y0237833D01*
X0346458Y0240333D01*
X0360833Y0240333D01*
X0363333Y0242833D01*
X0363333Y0252833D01*
X0360833Y0255333D01*
X0353333Y0255333D01*
X0348333Y0255333D01*
X0343333Y0250333D01*
X0325833Y0250333D01*
X0323333Y0247833D01*
X0323333Y0237833D01*
X0325833Y0235333D01*
X0333333Y0235333D01*
X0340833Y0242833D02*
X0340833Y0227833D01*
X0338333Y0225333D01*
X0333333Y0225333D01*
X0325833Y0225333D01*
X0323333Y0222833D01*
X0323333Y0205333D01*
X0328333Y0200333D01*
X0328333Y0187833D01*
X0318333Y0177833D01*
X0318333Y0152833D01*
X0323333Y0147833D01*
X0323333Y0112833D01*
X0325833Y0110333D01*
X0333333Y0110333D01*
X0333333Y0120333D02*
X0328333Y0120333D01*
X0325833Y0122833D01*
X0325833Y0150333D01*
X0320833Y0155333D01*
X0320833Y0175333D01*
X0328333Y0182833D01*
X0335833Y0182833D01*
X0338333Y0185333D01*
X0338333Y0197833D01*
X0340833Y0200333D01*
X0318333Y0200333D02*
X0318333Y0182833D01*
X0315833Y0180333D01*
X0315833Y0150333D01*
X0320833Y0145333D01*
X0320833Y0100333D01*
X0325833Y0095333D01*
X0340833Y0095333D01*
X0343333Y0092833D01*
X0343333Y0087833D01*
X0340833Y0085333D01*
X0135833Y0085333D01*
X0130833Y0090333D01*
X0123333Y0090333D01*
X0130833Y0095333D02*
X0135833Y0100333D01*
X0143333Y0100333D01*
X0148333Y0095333D01*
X0200833Y0095333D01*
X0205833Y0100333D01*
X0213333Y0100333D01*
X0218333Y0095333D01*
X0270833Y0095333D01*
X0275833Y0100333D01*
X0283333Y0100333D01*
X0293333Y0100333D02*
X0303333Y0100333D01*
X0315833Y0097833D02*
X0323333Y0090333D01*
X0333333Y0090333D01*
X0345833Y0100333D02*
X0350833Y0100333D01*
X0315833Y0097833D02*
X0315833Y0142833D01*
X0313333Y0145333D01*
X0275833Y0145333D01*
X0270833Y0140333D01*
X0263333Y0140333D01*
X0270833Y0145333D02*
X0218333Y0145333D01*
X0213333Y0150333D01*
X0205833Y0150333D01*
X0200833Y0145333D01*
X0148333Y0145333D01*
X0143333Y0150333D01*
X0135833Y0150333D01*
X0130833Y0145333D01*
X0078333Y0145333D01*
X0073333Y0150333D01*
X0065833Y0150333D01*
X0060833Y0155333D01*
X0060833Y0252833D01*
X0055833Y0257833D01*
X0033333Y0257833D01*
X0033333Y0247833D02*
X0053333Y0247833D01*
X0058333Y0242833D01*
X0058333Y0145333D01*
X0063333Y0140333D01*
X0073333Y0140333D01*
X0078333Y0135333D01*
X0130833Y0135333D01*
X0135833Y0140333D01*
X0143333Y0140333D01*
X0148333Y0135333D01*
X0168333Y0135333D01*
X0173333Y0140333D01*
X0183333Y0140333D01*
X0188333Y0135333D01*
X0200833Y0135333D01*
X0205833Y0140333D01*
X0213333Y0140333D01*
X0218333Y0135333D01*
X0270833Y0135333D01*
X0275833Y0140333D01*
X0283333Y0140333D01*
X0293333Y0140333D02*
X0303333Y0140333D01*
X0303333Y0130333D02*
X0293333Y0130333D01*
X0283333Y0130333D02*
X0280833Y0130333D01*
X0275833Y0125333D01*
X0218333Y0125333D01*
X0213333Y0130333D01*
X0210833Y0130333D01*
X0205833Y0125333D01*
X0148333Y0125333D01*
X0143333Y0130333D01*
X0140833Y0130333D01*
X0135833Y0125333D01*
X0078333Y0125333D01*
X0073333Y0130333D01*
X0060833Y0130333D01*
X0055833Y0135333D01*
X0055833Y0232833D01*
X0050833Y0237833D01*
X0033333Y0237833D01*
X0033333Y0227833D02*
X0048333Y0227833D01*
X0053333Y0222833D01*
X0053333Y0125333D01*
X0058333Y0120333D01*
X0073333Y0120333D01*
X0078333Y0115333D01*
X0130833Y0115333D01*
X0135833Y0120333D01*
X0143333Y0120333D01*
X0148333Y0115333D01*
X0200833Y0115333D01*
X0205833Y0120333D01*
X0213333Y0120333D01*
X0218333Y0115333D01*
X0270833Y0115333D01*
X0275833Y0120333D01*
X0283333Y0120333D01*
X0293333Y0120333D02*
X0303333Y0120333D01*
X0303333Y0110333D02*
X0293333Y0110333D01*
X0283333Y0110333D02*
X0275833Y0110333D01*
X0270833Y0105333D01*
X0218333Y0105333D01*
X0213333Y0110333D01*
X0205833Y0110333D01*
X0200833Y0105333D01*
X0148333Y0105333D01*
X0143333Y0110333D01*
X0135833Y0110333D01*
X0130833Y0105333D01*
X0078333Y0105333D01*
X0073333Y0110333D01*
X0058333Y0110333D01*
X0050833Y0117833D01*
X0050833Y0212833D01*
X0045833Y0217833D01*
X0033333Y0217833D01*
X0033333Y0207833D02*
X0043333Y0207833D01*
X0048333Y0202833D01*
X0048333Y0107833D01*
X0055833Y0100333D01*
X0073333Y0100333D01*
X0078333Y0095333D01*
X0130833Y0095333D01*
X0153333Y0100333D02*
X0163333Y0100333D01*
X0163333Y0110333D02*
X0153333Y0110333D01*
X0153333Y0120333D02*
X0163333Y0120333D01*
X0163333Y0130333D02*
X0153333Y0130333D01*
X0153333Y0140333D02*
X0163333Y0140333D01*
X0163333Y0150333D02*
X0153333Y0150333D01*
X0148333Y0155333D02*
X0205833Y0155333D01*
X0210833Y0160333D01*
X0213333Y0160333D01*
X0218333Y0155333D01*
X0275833Y0155333D01*
X0280833Y0160333D01*
X0283333Y0160333D01*
X0273333Y0160333D02*
X0263333Y0160333D01*
X0270833Y0165333D02*
X0275833Y0170333D01*
X0283333Y0170333D01*
X0270833Y0165333D02*
X0218333Y0165333D01*
X0213333Y0170333D01*
X0205833Y0170333D01*
X0200833Y0165333D01*
X0148333Y0165333D01*
X0143333Y0170333D01*
X0135833Y0170333D01*
X0130833Y0165333D01*
X0078333Y0165333D01*
X0073333Y0170333D01*
X0068333Y0170333D01*
X0065833Y0172833D01*
X0065833Y0272833D01*
X0060833Y0277833D01*
X0033333Y0277833D01*
X0033333Y0267833D02*
X0060833Y0267833D01*
X0063333Y0265333D01*
X0063333Y0162833D01*
X0065833Y0160333D01*
X0073333Y0160333D01*
X0078333Y0155333D01*
X0135833Y0155333D01*
X0140833Y0160333D01*
X0143333Y0160333D01*
X0148333Y0155333D01*
X0153333Y0160333D02*
X0163333Y0160333D01*
X0133333Y0160333D02*
X0123333Y0160333D01*
X0093333Y0160333D02*
X0083333Y0160333D01*
X0083333Y0150333D02*
X0093333Y0150333D01*
X0093333Y0140333D02*
X0083333Y0140333D01*
X0083333Y0130333D02*
X0093333Y0130333D01*
X0093333Y0120333D02*
X0083333Y0120333D01*
X0083333Y0110333D02*
X0093333Y0110333D01*
X0093333Y0100333D02*
X0083333Y0100333D01*
X0193333Y0130333D02*
X0203333Y0130333D01*
X0223333Y0130333D02*
X0233333Y0130333D01*
X0233333Y0140333D02*
X0223333Y0140333D01*
X0223333Y0150333D02*
X0233333Y0150333D01*
X0233333Y0160333D02*
X0223333Y0160333D01*
X0203333Y0160333D02*
X0193333Y0160333D01*
X0223333Y0120333D02*
X0233333Y0120333D01*
X0243333Y0120333D02*
X0263333Y0120333D01*
X0263333Y0110333D02*
X0243333Y0110333D01*
X0233333Y0110333D02*
X0223333Y0110333D01*
X0223333Y0100333D02*
X0233333Y0100333D01*
X0243333Y0100333D02*
X0263333Y0100333D01*
X0263333Y0130333D02*
X0273333Y0130333D01*
X0270833Y0145333D02*
X0275833Y0150333D01*
X0283333Y0150333D01*
X0293333Y0150333D02*
X0303333Y0150333D01*
X0303333Y0160333D02*
X0293333Y0160333D01*
X0333333Y0130333D02*
X0345833Y0130333D01*
X0318333Y0200333D02*
X0315833Y0202833D01*
X0315833Y0247833D01*
X0323333Y0255333D01*
X0333333Y0255333D01*
X0343333Y0245333D02*
X0340833Y0242833D01*
X0343333Y0245333D02*
X0353333Y0245333D01*
X0353333Y0235333D02*
X0360833Y0235333D01*
X0365833Y0230333D01*
X0390833Y0230333D01*
X0398333Y0222833D01*
X0413333Y0222833D01*
X0415833Y0225333D01*
X0415833Y0275333D01*
X0405833Y0285333D01*
X0398333Y0285333D01*
X0393333Y0285333D01*
X0383333Y0295333D01*
X0363333Y0287833D02*
X0360833Y0290333D01*
X0355833Y0290333D01*
X0353333Y0292833D01*
X0345833Y0292833D01*
X0343333Y0295333D01*
X0353333Y0295333D02*
X0353333Y0292833D01*
X0398333Y0275333D02*
X0408333Y0275333D01*
X0410833Y0272833D01*
X0410833Y0240333D01*
X0408333Y0237833D01*
X0408333Y0232833D01*
X0408333Y0237833D02*
X0403333Y0237833D01*
X0398333Y0232833D01*
X0398333Y0245333D02*
X0383333Y0245333D01*
X0383333Y0255333D02*
X0398333Y0255333D01*
X0303333Y0255333D02*
X0293333Y0255333D01*
X0283333Y0255333D02*
X0278333Y0255333D01*
X0273333Y0250333D01*
X0218333Y0250333D01*
X0213333Y0255333D01*
X0205833Y0255333D01*
X0200833Y0250333D01*
X0148333Y0250333D01*
X0143333Y0255333D01*
X0135833Y0255333D01*
X0130833Y0250333D01*
X0078333Y0250333D01*
X0073333Y0255333D01*
X0078333Y0260333D02*
X0073333Y0265333D01*
X0078333Y0260333D02*
X0130833Y0260333D01*
X0135833Y0265333D01*
X0143333Y0265333D01*
X0148333Y0260333D01*
X0200833Y0260333D01*
X0205833Y0265333D01*
X0213333Y0265333D01*
X0218333Y0260333D01*
X0273333Y0260333D01*
X0278333Y0265333D01*
X0283333Y0265333D01*
X0275833Y0270333D02*
X0280833Y0275333D01*
X0283333Y0275333D01*
X0275833Y0270333D02*
X0218333Y0270333D01*
X0213333Y0275333D01*
X0210833Y0275333D01*
X0205833Y0270333D01*
X0148333Y0270333D01*
X0143333Y0275333D01*
X0140833Y0275333D01*
X0135833Y0270333D01*
X0078333Y0270333D01*
X0073333Y0275333D01*
X0078333Y0280333D02*
X0073333Y0285333D01*
X0078333Y0280333D02*
X0130833Y0280333D01*
X0135833Y0285333D01*
X0143333Y0285333D01*
X0148333Y0280333D01*
X0200833Y0280333D01*
X0205833Y0285333D01*
X0213333Y0285333D01*
X0218333Y0280333D01*
X0270833Y0280333D01*
X0275833Y0285333D01*
X0283333Y0285333D01*
X0273333Y0275333D02*
X0263333Y0275333D01*
X0293333Y0275333D02*
X0303333Y0275333D01*
X0303333Y0265333D02*
X0293333Y0265333D01*
X0293333Y0245333D02*
X0303333Y0245333D01*
X0303333Y0235333D02*
X0293333Y0235333D01*
X0283333Y0235333D02*
X0278333Y0235333D01*
X0273333Y0230333D01*
X0218333Y0230333D01*
X0213333Y0235333D01*
X0205833Y0235333D01*
X0200833Y0230333D01*
X0148333Y0230333D01*
X0143333Y0235333D01*
X0135833Y0235333D01*
X0130833Y0230333D01*
X0078333Y0230333D01*
X0073333Y0235333D01*
X0078333Y0240333D02*
X0135833Y0240333D01*
X0140833Y0245333D01*
X0143333Y0245333D01*
X0145833Y0245333D01*
X0150833Y0240333D01*
X0205833Y0240333D01*
X0210833Y0245333D01*
X0213333Y0245333D01*
X0218333Y0240333D01*
X0275833Y0240333D01*
X0280833Y0245333D01*
X0283333Y0245333D01*
X0273333Y0245333D02*
X0263333Y0245333D01*
X0263333Y0235333D02*
X0243333Y0235333D01*
X0233333Y0235333D02*
X0223333Y0235333D01*
X0223333Y0225333D02*
X0233333Y0225333D01*
X0243333Y0225333D02*
X0263333Y0225333D01*
X0273333Y0220333D02*
X0218333Y0220333D01*
X0213333Y0225333D01*
X0205833Y0225333D01*
X0200833Y0220333D01*
X0148333Y0220333D01*
X0143333Y0225333D01*
X0135833Y0225333D01*
X0130833Y0220333D01*
X0078333Y0220333D01*
X0073333Y0225333D01*
X0073333Y0215333D02*
X0078333Y0210333D01*
X0130833Y0210333D01*
X0135833Y0215333D01*
X0143333Y0215333D01*
X0148333Y0210333D01*
X0203333Y0210333D01*
X0208333Y0215333D01*
X0213333Y0215333D01*
X0218333Y0210333D01*
X0273333Y0210333D01*
X0278333Y0215333D01*
X0283333Y0215333D01*
X0293333Y0215333D02*
X0303333Y0215333D01*
X0303333Y0225333D02*
X0293333Y0225333D01*
X0283333Y0225333D02*
X0278333Y0225333D01*
X0273333Y0220333D01*
X0263333Y0215333D02*
X0243333Y0215333D01*
X0233333Y0215333D02*
X0223333Y0215333D01*
X0223333Y0245333D02*
X0233333Y0245333D01*
X0233333Y0255333D02*
X0223333Y0255333D01*
X0223333Y0265333D02*
X0233333Y0265333D01*
X0233333Y0275333D02*
X0223333Y0275333D01*
X0203333Y0275333D02*
X0193333Y0275333D01*
X0163333Y0275333D02*
X0153333Y0275333D01*
X0153333Y0265333D02*
X0163333Y0265333D01*
X0163333Y0255333D02*
X0153333Y0255333D01*
X0153333Y0245333D02*
X0163333Y0245333D01*
X0163333Y0235333D02*
X0153333Y0235333D01*
X0153333Y0225333D02*
X0163333Y0225333D01*
X0163333Y0215333D02*
X0153333Y0215333D01*
X0133333Y0245333D02*
X0123333Y0245333D01*
X0093333Y0245333D02*
X0083333Y0245333D01*
X0078333Y0240333D02*
X0073333Y0245333D01*
X0083333Y0235333D02*
X0093333Y0235333D01*
X0093333Y0225333D02*
X0083333Y0225333D01*
X0083333Y0215333D02*
X0093333Y0215333D01*
X0093333Y0255333D02*
X0083333Y0255333D01*
X0083333Y0265333D02*
X0093333Y0265333D01*
X0093333Y0275333D02*
X0083333Y0275333D01*
X0123333Y0275333D02*
X0133333Y0275333D01*
X0193333Y0245333D02*
X0203333Y0245333D01*
D21*
X0355833Y0142833D02*
X0355833Y0105333D01*
X0376333Y0105333D01*
X0355833Y0105333D02*
X0350833Y0100333D01*
X0350833Y0085333D01*
X0345833Y0080333D01*
X0063333Y0080333D01*
X0063333Y0085333D01*
X0355833Y0142833D02*
X0358333Y0145333D01*
X0359583Y0145333D01*
X0368333Y0145333D01*
X0369554Y0146554D01*
X0375164Y0146554D01*
X0377054Y0146554D01*
X0383333Y0152833D01*
X0388983Y0152833D01*
X0394869Y0146948D01*
D22*
X0243333Y0120333D03*
X0243333Y0110333D03*
X0243333Y0100333D03*
X0243333Y0215333D03*
X0243333Y0225333D03*
X0243333Y0235333D03*
M02*
