%
M48
M72
T01C0.02756
T02C0.03200
T03C0.03543
T04C0.03600
T05C0.03740
T06C0.04000
T07C0.08661
T08C0.09055
T09C0.12598
%
T01
X243333Y100333
X243333Y110333
X243333Y120333
X243333Y215333
X243333Y225333
X243333Y235333
T02
X233333Y235333
X223333Y235333
X213333Y235333
X213333Y225333
X223333Y225333
X233333Y225333
X233333Y215333
X223333Y215333
X213333Y215333
X193333Y215333
X193333Y205333
X193333Y225333
X193333Y235333
X193333Y245333
X203333Y245333
X213333Y245333
X223333Y245333
X233333Y245333
X233333Y255333
X223333Y255333
X213333Y255333
X213333Y265333
X223333Y265333
X233333Y265333
X233333Y275333
X223333Y275333
X213333Y275333
X203333Y275333
X193333Y275333
X193333Y265333
X193333Y255333
X163333Y255333
X153333Y255333
X143333Y255333
X143333Y245333
X133333Y245333
X123333Y245333
X123333Y235333
X123333Y225333
X123333Y215333
X123333Y205333
X143333Y215333
X153333Y215333
X163333Y215333
X163333Y205333
X163333Y225333
X153333Y225333
X143333Y225333
X143333Y235333
X153333Y235333
X163333Y235333
X163333Y245333
X153333Y245333
X153333Y265333
X143333Y265333
X143333Y275333
X133333Y275333
X123333Y275333
X123333Y265333
X123333Y255333
X93333Y255333
X83333Y255333
X83333Y245333
X93333Y245333
X93333Y235333
X83333Y235333
X83333Y225333
X93333Y225333
X93333Y215333
X83333Y215333
X73333Y215333
X73333Y225333
X73333Y235333
X73333Y245333
X73333Y255333
X73333Y265333
X73333Y275333
X73333Y285333
X83333Y285333
X83333Y275333
X93333Y275333
X93333Y265333
X83333Y265333
X98333Y290333
X118333Y290333
X143333Y285333
X153333Y285333
X153333Y275333
X163333Y275333
X163333Y265333
X213333Y285333
X223333Y285333
X263333Y275333
X273333Y275333
X283333Y275333
X293333Y275333
X293333Y265333
X283333Y265333
X283333Y255333
X293333Y255333
X293333Y245333
X283333Y245333
X273333Y245333
X263333Y245333
X263333Y235333
X263333Y225333
X263333Y215333
X263333Y205333
X283333Y215333
X293333Y215333
X293333Y225333
X283333Y225333
X283333Y235333
X293333Y235333
X303333Y235333
X303333Y225333
X303333Y215333
X303333Y205333
X333333Y205333
X333333Y215333
X333333Y225333
X333333Y235333
X333333Y245333
X333333Y255333
X333333Y265333
X333333Y275333
X353333Y265333
X353333Y255333
X353333Y245333
X353333Y235333
X353333Y225333
X353333Y215333
X353333Y205333
X383333Y205333
X383333Y215333
X383333Y225333
X383333Y235333
X383333Y245333
X383333Y255333
X383333Y265333
X398333Y265333
X398333Y255333
X398333Y245333
X398333Y232833
X408333Y232833
X408333Y202833
X398333Y202833
X333333Y160333
X333333Y150333
X333333Y140333
X333333Y130333
X345833Y130333
X333333Y120333
X333333Y110333
X333333Y100333
X333333Y90333
X345833Y100333
X376333Y105333
X390333Y105333
X303333Y100333
X303333Y90333
X293333Y100333
X283333Y100333
X283333Y110333
X293333Y110333
X293333Y120333
X283333Y120333
X283333Y130333
X273333Y130333
X263333Y130333
X263333Y140333
X263333Y150333
X263333Y160333
X273333Y160333
X283333Y160333
X293333Y160333
X293333Y150333
X283333Y150333
X283333Y140333
X293333Y140333
X293333Y130333
X303333Y130333
X303333Y140333
X303333Y150333
X303333Y160333
X293333Y170333
X283333Y170333
X308333Y175333
X328333Y175333
X303333Y120333
X303333Y110333
X263333Y110333
X263333Y100333
X263333Y90333
X233333Y90333
X233333Y100333
X223333Y100333
X213333Y100333
X213333Y110333
X223333Y110333
X233333Y110333
X233333Y120333
X223333Y120333
X213333Y120333
X213333Y130333
X203333Y130333
X193333Y130333
X193333Y140333
X193333Y150333
X193333Y160333
X203333Y160333
X213333Y160333
X223333Y160333
X233333Y160333
X233333Y150333
X223333Y150333
X213333Y150333
X213333Y140333
X223333Y140333
X233333Y140333
X233333Y130333
X223333Y130333
X193333Y120333
X193333Y110333
X193333Y100333
X193333Y90333
X163333Y90333
X163333Y100333
X153333Y100333
X143333Y100333
X143333Y110333
X153333Y110333
X163333Y110333
X163333Y120333
X153333Y120333
X143333Y120333
X143333Y130333
X133333Y130333
X123333Y130333
X123333Y140333
X123333Y150333
X123333Y160333
X133333Y160333
X143333Y160333
X153333Y160333
X163333Y160333
X163333Y150333
X153333Y150333
X143333Y150333
X143333Y140333
X153333Y140333
X163333Y140333
X163333Y130333
X153333Y130333
X123333Y120333
X123333Y110333
X123333Y100333
X123333Y90333
X93333Y90333
X93333Y100333
X83333Y100333
X73333Y100333
X73333Y110333
X73333Y120333
X83333Y120333
X93333Y120333
X93333Y110333
X83333Y110333
X83333Y130333
X93333Y130333
X93333Y140333
X83333Y140333
X73333Y140333
X73333Y130333
X73333Y150333
X73333Y160333
X73333Y170333
X83333Y170333
X83333Y160333
X93333Y160333
X93333Y150333
X83333Y150333
X98333Y175333
X118333Y175333
X143333Y170333
X153333Y170333
X213333Y170333
X223333Y170333
X233333Y205333
X263333Y255333
X263333Y265333
X283333Y285333
X293333Y285333
X303333Y275333
X303333Y265333
X303333Y255333
X303333Y245333
X358333Y280333
X353333Y295333
X343333Y295333
X313333Y295333
X378333Y280333
X383333Y295333
X398333Y285333
X398333Y275333
X263333Y120333
X93333Y205333
X33333Y207833
X33333Y217833
X33333Y227833
X33333Y237833
X33333Y247833
X33333Y257833
X33333Y267833
X33333Y277833
X33333Y185333
X33333Y175333
X33333Y165333
X33333Y155333
X33333Y145333
X33333Y135333
X33333Y125333
X33333Y115333
T03
X385026Y146948
X394869Y146948
X394869Y155215
X394869Y165451
X394869Y173719
X385026Y173719
T04
X63333Y85333
X53333Y85333
T05
X375164Y146554
X375164Y156396
X375164Y164270
X375164Y174113
T06
X359583Y175333
X359583Y165333
X359583Y155333
X359583Y145333
X343333Y192833
X333333Y192833
X323333Y192833
X313333Y192833
T07
X406680Y186908
X409829Y160333
X406680Y133759
T08
X385833Y134467
X385833Y186199
T09
X33333Y85333
X33333Y295333
X413333Y295333
X413333Y85333
M30
