G75*
%MOIN*%
%OFA0B0*%
%FSLAX25Y25*%
%IPPOS*%
%LPD*%
%AMOC8*
5,1,8,0,0,1.08239X$1,22.5*
%
%ADD10C,0.01100*%
%ADD11OC8,0.05200*%
%ADD12OC8,0.05543*%
%ADD13C,0.05200*%
%ADD14C,0.06000*%
%ADD15C,0.05740*%
%ADD16OC8,0.06300*%
%ADD17C,0.06300*%
%ADD18C,0.05600*%
%ADD19C,0.01600*%
%ADD20C,0.01200*%
%ADD21C,0.04356*%
%ADD22C,0.04000*%
D10*
X0373883Y0079367D02*
X0374867Y0078383D01*
X0377820Y0078383D01*
X0380329Y0079367D02*
X0381313Y0078383D01*
X0383281Y0078383D01*
X0384266Y0079367D01*
X0384266Y0081336D01*
X0383281Y0082320D01*
X0381313Y0082320D01*
X0380329Y0081336D01*
X0380329Y0079367D01*
X0377820Y0082320D02*
X0374867Y0082320D01*
X0373883Y0081336D01*
X0373883Y0079367D01*
X0386774Y0078383D02*
X0386774Y0082320D01*
X0387758Y0082320D01*
X0388743Y0081336D01*
X0389727Y0082320D01*
X0390711Y0081336D01*
X0390711Y0078383D01*
X0388743Y0078383D02*
X0388743Y0081336D01*
X0393220Y0082320D02*
X0393220Y0076415D01*
X0393220Y0078383D02*
X0396172Y0078383D01*
X0397157Y0079367D01*
X0397157Y0081336D01*
X0396172Y0082320D01*
X0393220Y0082320D01*
D11*
X0345833Y0100333D03*
X0345833Y0130333D03*
X0293333Y0130333D03*
X0283333Y0130333D03*
X0273333Y0130333D03*
X0283333Y0140333D03*
X0293333Y0140333D03*
X0293333Y0150333D03*
X0283333Y0150333D03*
X0283333Y0160333D03*
X0273333Y0160333D03*
X0283333Y0170333D03*
X0293333Y0170333D03*
X0293333Y0160333D03*
X0308333Y0175333D03*
X0328333Y0175333D03*
X0293333Y0215333D03*
X0283333Y0215333D03*
X0283333Y0225333D03*
X0293333Y0225333D03*
X0293333Y0235333D03*
X0283333Y0235333D03*
X0283333Y0245333D03*
X0273333Y0245333D03*
X0283333Y0255333D03*
X0293333Y0255333D03*
X0293333Y0245333D03*
X0293333Y0265333D03*
X0283333Y0265333D03*
X0283333Y0275333D03*
X0273333Y0275333D03*
X0283333Y0285333D03*
X0293333Y0285333D03*
X0293333Y0275333D03*
X0313333Y0295333D03*
X0343333Y0295333D03*
X0353333Y0295333D03*
X0358333Y0280333D03*
X0378333Y0280333D03*
X0383333Y0295333D03*
X0398333Y0232833D03*
X0408333Y0232833D03*
X0408333Y0202833D03*
X0398333Y0202833D03*
X0293333Y0120333D03*
X0283333Y0120333D03*
X0283333Y0110333D03*
X0293333Y0110333D03*
X0293333Y0100333D03*
X0283333Y0100333D03*
X0223333Y0100333D03*
X0213333Y0100333D03*
X0213333Y0110333D03*
X0223333Y0110333D03*
X0223333Y0120333D03*
X0213333Y0120333D03*
X0213333Y0130333D03*
X0203333Y0130333D03*
X0213333Y0140333D03*
X0223333Y0140333D03*
X0223333Y0130333D03*
X0223333Y0150333D03*
X0213333Y0150333D03*
X0213333Y0160333D03*
X0203333Y0160333D03*
X0213333Y0170333D03*
X0223333Y0170333D03*
X0223333Y0160333D03*
X0153333Y0160333D03*
X0143333Y0160333D03*
X0133333Y0160333D03*
X0143333Y0150333D03*
X0153333Y0150333D03*
X0153333Y0140333D03*
X0143333Y0140333D03*
X0143333Y0130333D03*
X0133333Y0130333D03*
X0143333Y0120333D03*
X0153333Y0120333D03*
X0153333Y0110333D03*
X0143333Y0110333D03*
X0143333Y0100333D03*
X0153333Y0100333D03*
X0153333Y0130333D03*
X0153333Y0170333D03*
X0143333Y0170333D03*
X0118333Y0175333D03*
X0098333Y0175333D03*
X0083333Y0170333D03*
X0083333Y0160333D03*
X0083333Y0150333D03*
X0083333Y0140333D03*
X0083333Y0130333D03*
X0073333Y0130333D03*
X0073333Y0140333D03*
X0073333Y0150333D03*
X0073333Y0160333D03*
X0073333Y0170333D03*
X0073333Y0215333D03*
X0073333Y0225333D03*
X0073333Y0235333D03*
X0073333Y0245333D03*
X0073333Y0255333D03*
X0073333Y0265333D03*
X0073333Y0275333D03*
X0073333Y0285333D03*
X0083333Y0285333D03*
X0083333Y0275333D03*
X0083333Y0265333D03*
X0083333Y0255333D03*
X0083333Y0245333D03*
X0083333Y0235333D03*
X0083333Y0225333D03*
X0083333Y0215333D03*
X0133333Y0245333D03*
X0143333Y0245333D03*
X0153333Y0245333D03*
X0153333Y0235333D03*
X0143333Y0235333D03*
X0143333Y0225333D03*
X0153333Y0225333D03*
X0153333Y0215333D03*
X0143333Y0215333D03*
X0143333Y0255333D03*
X0153333Y0255333D03*
X0153333Y0265333D03*
X0143333Y0265333D03*
X0143333Y0275333D03*
X0133333Y0275333D03*
X0143333Y0285333D03*
X0153333Y0285333D03*
X0153333Y0275333D03*
X0118333Y0290333D03*
X0098333Y0290333D03*
X0203333Y0275333D03*
X0213333Y0275333D03*
X0223333Y0275333D03*
X0223333Y0265333D03*
X0213333Y0265333D03*
X0213333Y0255333D03*
X0223333Y0255333D03*
X0223333Y0245333D03*
X0213333Y0245333D03*
X0203333Y0245333D03*
X0213333Y0235333D03*
X0223333Y0235333D03*
X0223333Y0225333D03*
X0213333Y0225333D03*
X0213333Y0215333D03*
X0223333Y0215333D03*
X0223333Y0285333D03*
X0213333Y0285333D03*
X0083333Y0120333D03*
X0083333Y0110333D03*
X0083333Y0100333D03*
X0073333Y0100333D03*
X0073333Y0110333D03*
X0073333Y0120333D03*
D12*
X0385026Y0146948D03*
X0394869Y0146948D03*
X0394869Y0155215D03*
X0394869Y0165451D03*
X0394869Y0173719D03*
X0385026Y0173719D03*
D13*
X0385933Y0205333D02*
X0380733Y0205333D01*
X0380733Y0215333D02*
X0385933Y0215333D01*
X0385933Y0225333D02*
X0380733Y0225333D01*
X0380733Y0235333D02*
X0385933Y0235333D01*
X0385933Y0245333D02*
X0380733Y0245333D01*
X0380733Y0255333D02*
X0385933Y0255333D01*
X0395733Y0255333D02*
X0400933Y0255333D01*
X0400933Y0245333D02*
X0395733Y0245333D01*
X0395733Y0265333D02*
X0400933Y0265333D01*
X0400933Y0275333D02*
X0395733Y0275333D01*
X0395733Y0285333D02*
X0400933Y0285333D01*
X0385933Y0265333D02*
X0380733Y0265333D01*
X0355933Y0265333D02*
X0350733Y0265333D01*
X0350733Y0255333D02*
X0355933Y0255333D01*
X0355933Y0245333D02*
X0350733Y0245333D01*
X0350733Y0235333D02*
X0355933Y0235333D01*
X0355933Y0225333D02*
X0350733Y0225333D01*
X0350733Y0215333D02*
X0355933Y0215333D01*
X0355933Y0205333D02*
X0350733Y0205333D01*
X0335933Y0205333D02*
X0330733Y0205333D01*
X0330733Y0215333D02*
X0335933Y0215333D01*
X0335933Y0225333D02*
X0330733Y0225333D01*
X0330733Y0235333D02*
X0335933Y0235333D01*
X0335933Y0245333D02*
X0330733Y0245333D01*
X0330733Y0255333D02*
X0335933Y0255333D01*
X0335933Y0265333D02*
X0330733Y0265333D01*
X0330733Y0275333D02*
X0335933Y0275333D01*
X0305933Y0275333D02*
X0300733Y0275333D01*
X0300733Y0265333D02*
X0305933Y0265333D01*
X0305933Y0255333D02*
X0300733Y0255333D01*
X0300733Y0245333D02*
X0305933Y0245333D01*
X0305933Y0235333D02*
X0300733Y0235333D01*
X0300733Y0225333D02*
X0305933Y0225333D01*
X0305933Y0215333D02*
X0300733Y0215333D01*
X0300733Y0205333D02*
X0305933Y0205333D01*
X0265933Y0205333D02*
X0260733Y0205333D01*
X0260733Y0215333D02*
X0265933Y0215333D01*
X0265933Y0225333D02*
X0260733Y0225333D01*
X0260733Y0235333D02*
X0265933Y0235333D01*
X0265933Y0245333D02*
X0260733Y0245333D01*
X0260733Y0255333D02*
X0265933Y0255333D01*
X0265933Y0265333D02*
X0260733Y0265333D01*
X0260733Y0275333D02*
X0265933Y0275333D01*
X0235933Y0275333D02*
X0230733Y0275333D01*
X0230733Y0265333D02*
X0235933Y0265333D01*
X0235933Y0255333D02*
X0230733Y0255333D01*
X0230733Y0245333D02*
X0235933Y0245333D01*
X0235933Y0235333D02*
X0230733Y0235333D01*
X0230733Y0225333D02*
X0235933Y0225333D01*
X0235933Y0215333D02*
X0230733Y0215333D01*
X0230733Y0205333D02*
X0235933Y0205333D01*
X0195933Y0205333D02*
X0190733Y0205333D01*
X0190733Y0215333D02*
X0195933Y0215333D01*
X0195933Y0225333D02*
X0190733Y0225333D01*
X0190733Y0235333D02*
X0195933Y0235333D01*
X0195933Y0245333D02*
X0190733Y0245333D01*
X0190733Y0255333D02*
X0195933Y0255333D01*
X0195933Y0265333D02*
X0190733Y0265333D01*
X0190733Y0275333D02*
X0195933Y0275333D01*
X0165933Y0275333D02*
X0160733Y0275333D01*
X0160733Y0265333D02*
X0165933Y0265333D01*
X0165933Y0255333D02*
X0160733Y0255333D01*
X0160733Y0245333D02*
X0165933Y0245333D01*
X0165933Y0235333D02*
X0160733Y0235333D01*
X0160733Y0225333D02*
X0165933Y0225333D01*
X0165933Y0215333D02*
X0160733Y0215333D01*
X0160733Y0205333D02*
X0165933Y0205333D01*
X0125933Y0205333D02*
X0120733Y0205333D01*
X0120733Y0215333D02*
X0125933Y0215333D01*
X0125933Y0225333D02*
X0120733Y0225333D01*
X0120733Y0235333D02*
X0125933Y0235333D01*
X0125933Y0245333D02*
X0120733Y0245333D01*
X0120733Y0255333D02*
X0125933Y0255333D01*
X0125933Y0265333D02*
X0120733Y0265333D01*
X0120733Y0275333D02*
X0125933Y0275333D01*
X0095933Y0275333D02*
X0090733Y0275333D01*
X0090733Y0265333D02*
X0095933Y0265333D01*
X0095933Y0255333D02*
X0090733Y0255333D01*
X0090733Y0245333D02*
X0095933Y0245333D01*
X0095933Y0235333D02*
X0090733Y0235333D01*
X0090733Y0225333D02*
X0095933Y0225333D01*
X0095933Y0215333D02*
X0090733Y0215333D01*
X0090733Y0205333D02*
X0095933Y0205333D01*
X0035933Y0207833D02*
X0030733Y0207833D01*
X0030733Y0217833D02*
X0035933Y0217833D01*
X0035933Y0227833D02*
X0030733Y0227833D01*
X0030733Y0237833D02*
X0035933Y0237833D01*
X0035933Y0247833D02*
X0030733Y0247833D01*
X0030733Y0257833D02*
X0035933Y0257833D01*
X0035933Y0267833D02*
X0030733Y0267833D01*
X0030733Y0277833D02*
X0035933Y0277833D01*
X0035933Y0185333D02*
X0030733Y0185333D01*
X0030733Y0175333D02*
X0035933Y0175333D01*
X0035933Y0165333D02*
X0030733Y0165333D01*
X0030733Y0155333D02*
X0035933Y0155333D01*
X0035933Y0145333D02*
X0030733Y0145333D01*
X0030733Y0135333D02*
X0035933Y0135333D01*
X0035933Y0125333D02*
X0030733Y0125333D01*
X0030733Y0115333D02*
X0035933Y0115333D01*
X0090733Y0110333D02*
X0095933Y0110333D01*
X0095933Y0100333D02*
X0090733Y0100333D01*
X0090733Y0090333D02*
X0095933Y0090333D01*
X0120733Y0090333D02*
X0125933Y0090333D01*
X0125933Y0100333D02*
X0120733Y0100333D01*
X0120733Y0110333D02*
X0125933Y0110333D01*
X0125933Y0120333D02*
X0120733Y0120333D01*
X0120733Y0130333D02*
X0125933Y0130333D01*
X0125933Y0140333D02*
X0120733Y0140333D01*
X0120733Y0150333D02*
X0125933Y0150333D01*
X0125933Y0160333D02*
X0120733Y0160333D01*
X0095933Y0160333D02*
X0090733Y0160333D01*
X0090733Y0150333D02*
X0095933Y0150333D01*
X0095933Y0140333D02*
X0090733Y0140333D01*
X0090733Y0130333D02*
X0095933Y0130333D01*
X0095933Y0120333D02*
X0090733Y0120333D01*
X0160733Y0120333D02*
X0165933Y0120333D01*
X0165933Y0110333D02*
X0160733Y0110333D01*
X0160733Y0100333D02*
X0165933Y0100333D01*
X0165933Y0090333D02*
X0160733Y0090333D01*
X0190733Y0090333D02*
X0195933Y0090333D01*
X0195933Y0100333D02*
X0190733Y0100333D01*
X0190733Y0110333D02*
X0195933Y0110333D01*
X0195933Y0120333D02*
X0190733Y0120333D01*
X0190733Y0130333D02*
X0195933Y0130333D01*
X0195933Y0140333D02*
X0190733Y0140333D01*
X0190733Y0150333D02*
X0195933Y0150333D01*
X0195933Y0160333D02*
X0190733Y0160333D01*
X0165933Y0160333D02*
X0160733Y0160333D01*
X0160733Y0150333D02*
X0165933Y0150333D01*
X0165933Y0140333D02*
X0160733Y0140333D01*
X0160733Y0130333D02*
X0165933Y0130333D01*
X0230733Y0130333D02*
X0235933Y0130333D01*
X0235933Y0140333D02*
X0230733Y0140333D01*
X0230733Y0150333D02*
X0235933Y0150333D01*
X0235933Y0160333D02*
X0230733Y0160333D01*
X0260733Y0160333D02*
X0265933Y0160333D01*
X0265933Y0150333D02*
X0260733Y0150333D01*
X0260733Y0140333D02*
X0265933Y0140333D01*
X0265933Y0130333D02*
X0260733Y0130333D01*
X0260733Y0120333D02*
X0265933Y0120333D01*
X0265933Y0110333D02*
X0260733Y0110333D01*
X0260733Y0100333D02*
X0265933Y0100333D01*
X0265933Y0090333D02*
X0260733Y0090333D01*
X0235933Y0090333D02*
X0230733Y0090333D01*
X0230733Y0100333D02*
X0235933Y0100333D01*
X0235933Y0110333D02*
X0230733Y0110333D01*
X0230733Y0120333D02*
X0235933Y0120333D01*
X0300733Y0120333D02*
X0305933Y0120333D01*
X0305933Y0110333D02*
X0300733Y0110333D01*
X0300733Y0100333D02*
X0305933Y0100333D01*
X0305933Y0090333D02*
X0300733Y0090333D01*
X0330733Y0090333D02*
X0335933Y0090333D01*
X0335933Y0100333D02*
X0330733Y0100333D01*
X0330733Y0110333D02*
X0335933Y0110333D01*
X0335933Y0120333D02*
X0330733Y0120333D01*
X0330733Y0130333D02*
X0335933Y0130333D01*
X0335933Y0140333D02*
X0330733Y0140333D01*
X0330733Y0150333D02*
X0335933Y0150333D01*
X0335933Y0160333D02*
X0330733Y0160333D01*
X0305933Y0160333D02*
X0300733Y0160333D01*
X0300733Y0150333D02*
X0305933Y0150333D01*
X0305933Y0140333D02*
X0300733Y0140333D01*
X0300733Y0130333D02*
X0305933Y0130333D01*
D14*
X0356583Y0145333D02*
X0362583Y0145333D01*
X0362583Y0155333D02*
X0356583Y0155333D01*
X0356583Y0165333D02*
X0362583Y0165333D01*
X0362583Y0175333D02*
X0356583Y0175333D01*
X0343333Y0189833D02*
X0343333Y0195833D01*
X0333333Y0195833D02*
X0333333Y0189833D01*
X0323333Y0189833D02*
X0323333Y0195833D01*
X0313333Y0195833D02*
X0313333Y0189833D01*
D15*
X0372294Y0174113D02*
X0378034Y0174113D01*
X0378034Y0164270D02*
X0372294Y0164270D01*
X0372294Y0156396D02*
X0378034Y0156396D01*
X0378034Y0146554D02*
X0372294Y0146554D01*
D16*
X0390333Y0105333D03*
D17*
X0376333Y0105333D03*
D18*
X0063333Y0088133D02*
X0063333Y0082533D01*
X0053333Y0082533D02*
X0053333Y0088133D01*
D19*
X0042215Y0078518D02*
X0041430Y0077733D01*
X0059648Y0077733D01*
X0058247Y0079135D01*
X0057582Y0080739D01*
X0057268Y0080122D01*
X0056842Y0079537D01*
X0056330Y0079025D01*
X0055744Y0078599D01*
X0055099Y0078270D01*
X0054410Y0078047D01*
X0053695Y0077933D01*
X0053433Y0077933D01*
X0053433Y0085233D01*
X0053233Y0085233D01*
X0053233Y0077933D01*
X0052971Y0077933D01*
X0052256Y0078047D01*
X0051568Y0078270D01*
X0050922Y0078599D01*
X0050337Y0079025D01*
X0049825Y0079537D01*
X0049399Y0080122D01*
X0049070Y0080768D01*
X0048847Y0081456D01*
X0048733Y0082171D01*
X0048733Y0085233D01*
X0053233Y0085233D01*
X0053233Y0085433D01*
X0048733Y0085433D01*
X0048733Y0088495D01*
X0048847Y0089210D01*
X0049070Y0089899D01*
X0049399Y0090544D01*
X0049825Y0091130D01*
X0050337Y0091642D01*
X0050922Y0092068D01*
X0051568Y0092396D01*
X0052256Y0092620D01*
X0052971Y0092733D01*
X0053233Y0092733D01*
X0053233Y0085433D01*
X0053433Y0085433D01*
X0053433Y0092733D01*
X0053695Y0092733D01*
X0054410Y0092620D01*
X0055099Y0092396D01*
X0055744Y0092068D01*
X0056330Y0091642D01*
X0056842Y0091130D01*
X0057268Y0090544D01*
X0057582Y0089927D01*
X0058247Y0091532D01*
X0059935Y0093220D01*
X0062140Y0094133D01*
X0064527Y0094133D01*
X0066732Y0093220D01*
X0068420Y0091532D01*
X0069333Y0089327D01*
X0069333Y0081340D01*
X0068420Y0079135D01*
X0067019Y0077733D01*
X0370501Y0077733D01*
X0370133Y0078622D01*
X0370133Y0082082D01*
X0370704Y0083460D01*
X0371759Y0084515D01*
X0372743Y0085499D01*
X0374122Y0086070D01*
X0378566Y0086070D01*
X0379566Y0085656D01*
X0380567Y0086070D01*
X0384027Y0086070D01*
X0385028Y0085656D01*
X0386028Y0086070D01*
X0388504Y0086070D01*
X0388743Y0085971D01*
X0388981Y0086070D01*
X0390473Y0086070D01*
X0391269Y0085740D01*
X0391473Y0085656D01*
X0392474Y0086070D01*
X0396918Y0086070D01*
X0398297Y0085499D01*
X0399281Y0084515D01*
X0400336Y0083460D01*
X0400906Y0082082D01*
X0400906Y0078622D01*
X0400539Y0077733D01*
X0405237Y0077733D01*
X0404452Y0078518D01*
X0402991Y0081049D01*
X0402234Y0083872D01*
X0402234Y0086795D01*
X0402991Y0089617D01*
X0404452Y0092148D01*
X0406518Y0094215D01*
X0409049Y0095676D01*
X0411872Y0096433D01*
X0414795Y0096433D01*
X0417617Y0095676D01*
X0420148Y0094215D01*
X0420933Y0093430D01*
X0420933Y0287237D01*
X0420148Y0286452D01*
X0417617Y0284991D01*
X0414795Y0284234D01*
X0411872Y0284234D01*
X0409049Y0284991D01*
X0406733Y0286328D01*
X0406733Y0284180D01*
X0405850Y0282048D01*
X0404219Y0280416D01*
X0404018Y0280333D01*
X0404219Y0280250D01*
X0405850Y0278619D01*
X0406733Y0276487D01*
X0406733Y0274180D01*
X0405850Y0272048D01*
X0404219Y0270416D01*
X0402157Y0269562D01*
X0402622Y0269411D01*
X0403239Y0269097D01*
X0403800Y0268689D01*
X0404289Y0268200D01*
X0404697Y0267639D01*
X0405011Y0267022D01*
X0405225Y0266364D01*
X0405333Y0265680D01*
X0405333Y0265333D01*
X0398333Y0265333D01*
X0391333Y0265333D01*
X0391333Y0264987D01*
X0391442Y0264303D01*
X0391656Y0263644D01*
X0391970Y0263027D01*
X0392377Y0262467D01*
X0392867Y0261977D01*
X0393427Y0261570D01*
X0394044Y0261256D01*
X0394510Y0261104D01*
X0392448Y0260250D01*
X0390833Y0258636D01*
X0389219Y0260250D01*
X0387157Y0261104D01*
X0387622Y0261256D01*
X0388239Y0261570D01*
X0388800Y0261977D01*
X0389289Y0262467D01*
X0389697Y0263027D01*
X0390011Y0263644D01*
X0390225Y0264303D01*
X0390333Y0264987D01*
X0390333Y0265333D01*
X0383333Y0265333D01*
X0383333Y0269733D01*
X0380387Y0269733D01*
X0379703Y0269625D01*
X0379044Y0269411D01*
X0378427Y0269097D01*
X0377867Y0268689D01*
X0377377Y0268200D01*
X0377133Y0267864D01*
X0377133Y0275933D01*
X0378333Y0275933D01*
X0378333Y0280333D01*
X0378333Y0280333D01*
X0378333Y0275933D01*
X0380156Y0275933D01*
X0382733Y0278511D01*
X0382733Y0280333D01*
X0378333Y0280333D01*
X0378333Y0280333D01*
X0378333Y0284733D01*
X0377133Y0284733D01*
X0377133Y0288589D01*
X0376555Y0289986D01*
X0375486Y0291055D01*
X0363607Y0302933D01*
X0405237Y0302933D01*
X0404452Y0302148D01*
X0402991Y0299617D01*
X0402234Y0296795D01*
X0402234Y0293872D01*
X0402991Y0291049D01*
X0403211Y0290668D01*
X0402087Y0291133D01*
X0394580Y0291133D01*
X0392448Y0290250D01*
X0390816Y0288619D01*
X0389933Y0286487D01*
X0389933Y0284180D01*
X0390816Y0282048D01*
X0392448Y0280416D01*
X0392648Y0280333D01*
X0392448Y0280250D01*
X0390816Y0278619D01*
X0389933Y0276487D01*
X0389933Y0274180D01*
X0390816Y0272048D01*
X0392448Y0270416D01*
X0394510Y0269562D01*
X0394044Y0269411D01*
X0393427Y0269097D01*
X0392867Y0268689D01*
X0392377Y0268200D01*
X0391970Y0267639D01*
X0391656Y0267022D01*
X0391442Y0266364D01*
X0391333Y0265680D01*
X0391333Y0265333D01*
X0398333Y0265333D01*
X0398333Y0265333D01*
X0398333Y0265333D01*
X0405333Y0265333D01*
X0405333Y0264987D01*
X0405225Y0264303D01*
X0405011Y0263644D01*
X0404697Y0263027D01*
X0404289Y0262467D01*
X0403800Y0261977D01*
X0403239Y0261570D01*
X0402622Y0261256D01*
X0402157Y0261104D01*
X0404219Y0260250D01*
X0405850Y0258619D01*
X0406733Y0256487D01*
X0406733Y0254180D01*
X0405850Y0252048D01*
X0404219Y0250416D01*
X0404018Y0250333D01*
X0404219Y0250250D01*
X0405850Y0248619D01*
X0406733Y0246487D01*
X0406733Y0244180D01*
X0405850Y0242048D01*
X0404219Y0240416D01*
X0402087Y0239533D01*
X0394580Y0239533D01*
X0392448Y0240416D01*
X0390833Y0242031D01*
X0389219Y0240416D01*
X0389018Y0240333D01*
X0389219Y0240250D01*
X0390850Y0238619D01*
X0391733Y0236487D01*
X0391733Y0234180D01*
X0390850Y0232048D01*
X0389219Y0230416D01*
X0389018Y0230333D01*
X0389219Y0230250D01*
X0390850Y0228619D01*
X0391733Y0226487D01*
X0391733Y0224180D01*
X0390850Y0222048D01*
X0389219Y0220416D01*
X0389018Y0220333D01*
X0389219Y0220250D01*
X0390850Y0218619D01*
X0391733Y0216487D01*
X0391733Y0214180D01*
X0390850Y0212048D01*
X0389219Y0210416D01*
X0389018Y0210333D01*
X0389219Y0210250D01*
X0390850Y0208619D01*
X0391733Y0206487D01*
X0391733Y0204180D01*
X0390850Y0202048D01*
X0389219Y0200416D01*
X0387087Y0199533D01*
X0382737Y0199533D01*
X0383992Y0198279D01*
X0384783Y0196368D01*
X0384783Y0195527D01*
X0387689Y0195527D01*
X0391117Y0194107D01*
X0393741Y0191483D01*
X0395161Y0188055D01*
X0395161Y0184344D01*
X0393741Y0180916D01*
X0391117Y0178292D01*
X0389548Y0177642D01*
X0390937Y0176253D01*
X0392975Y0178291D01*
X0394783Y0178291D01*
X0394783Y0173805D01*
X0394955Y0173805D01*
X0399440Y0173805D01*
X0399440Y0175613D01*
X0396762Y0178291D01*
X0394955Y0178291D01*
X0394955Y0173805D01*
X0394955Y0173633D01*
X0399440Y0173633D01*
X0399440Y0171826D01*
X0398190Y0170575D01*
X0400840Y0167925D01*
X0400840Y0162978D01*
X0398196Y0160333D01*
X0400840Y0157689D01*
X0400840Y0152742D01*
X0399180Y0151081D01*
X0400840Y0149421D01*
X0400840Y0144474D01*
X0397342Y0140976D01*
X0392516Y0140976D01*
X0393741Y0139751D01*
X0395161Y0136323D01*
X0395161Y0132612D01*
X0393741Y0129184D01*
X0391117Y0126560D01*
X0387689Y0125140D01*
X0383978Y0125140D01*
X0380550Y0126560D01*
X0377926Y0129184D01*
X0376506Y0132612D01*
X0376506Y0136323D01*
X0377926Y0139751D01*
X0378659Y0140484D01*
X0371087Y0140484D01*
X0368856Y0141408D01*
X0368016Y0142247D01*
X0367839Y0141821D01*
X0366095Y0140077D01*
X0363817Y0139133D01*
X0355350Y0139133D01*
X0353071Y0140077D01*
X0351822Y0141326D01*
X0351555Y0140681D01*
X0350486Y0139612D01*
X0347986Y0137112D01*
X0346589Y0136533D01*
X0340336Y0136533D01*
X0339219Y0135416D01*
X0339018Y0135333D01*
X0339219Y0135250D01*
X0340850Y0133619D01*
X0340870Y0133572D01*
X0343431Y0136133D01*
X0348236Y0136133D01*
X0351633Y0132736D01*
X0351633Y0127931D01*
X0348236Y0124533D01*
X0343431Y0124533D01*
X0340870Y0127095D01*
X0340850Y0127048D01*
X0339219Y0125416D01*
X0339018Y0125333D01*
X0339219Y0125250D01*
X0340850Y0123619D01*
X0341733Y0121487D01*
X0341733Y0119180D01*
X0340850Y0117048D01*
X0339219Y0115416D01*
X0339018Y0115333D01*
X0339219Y0115250D01*
X0340850Y0113619D01*
X0341733Y0111487D01*
X0341733Y0109180D01*
X0340850Y0107048D01*
X0339219Y0105416D01*
X0339018Y0105333D01*
X0339219Y0105250D01*
X0340336Y0104133D01*
X0341431Y0104133D01*
X0343431Y0106133D01*
X0348236Y0106133D01*
X0351633Y0102736D01*
X0351633Y0097931D01*
X0348236Y0094533D01*
X0343431Y0094533D01*
X0341431Y0096533D01*
X0340336Y0096533D01*
X0339219Y0095416D01*
X0339018Y0095333D01*
X0339219Y0095250D01*
X0340850Y0093619D01*
X0341733Y0091487D01*
X0341733Y0089180D01*
X0340850Y0087048D01*
X0339219Y0085416D01*
X0337087Y0084533D01*
X0329580Y0084533D01*
X0327448Y0085416D01*
X0325816Y0087048D01*
X0324933Y0089180D01*
X0324933Y0091487D01*
X0325816Y0093619D01*
X0327448Y0095250D01*
X0327648Y0095333D01*
X0327448Y0095416D01*
X0326331Y0096533D01*
X0322407Y0096533D01*
X0317986Y0092112D01*
X0316589Y0091533D01*
X0310170Y0091533D01*
X0310225Y0091364D01*
X0310333Y0090680D01*
X0310333Y0090333D01*
X0303333Y0090333D01*
X0303333Y0090333D01*
X0303333Y0085933D01*
X0300387Y0085933D01*
X0299703Y0086042D01*
X0299044Y0086256D01*
X0298427Y0086570D01*
X0297867Y0086977D01*
X0297377Y0087467D01*
X0296970Y0088027D01*
X0296656Y0088644D01*
X0296442Y0089303D01*
X0296333Y0089987D01*
X0296333Y0090333D01*
X0303333Y0090333D01*
X0303333Y0090333D01*
X0303333Y0085933D01*
X0306280Y0085933D01*
X0306964Y0086042D01*
X0307622Y0086256D01*
X0308239Y0086570D01*
X0308800Y0086977D01*
X0309289Y0087467D01*
X0309697Y0088027D01*
X0310011Y0088644D01*
X0310225Y0089303D01*
X0310333Y0089987D01*
X0310333Y0090333D01*
X0303333Y0090333D01*
X0296333Y0090333D01*
X0296333Y0090680D01*
X0296442Y0091364D01*
X0296497Y0091533D01*
X0277577Y0091533D01*
X0276819Y0091847D01*
X0277133Y0091089D01*
X0277133Y0087077D01*
X0276555Y0085681D01*
X0274055Y0083181D01*
X0272986Y0082112D01*
X0271589Y0081533D01*
X0247407Y0081533D01*
X0246555Y0080681D01*
X0245486Y0079612D01*
X0244089Y0079033D01*
X0085077Y0079033D01*
X0083681Y0079612D01*
X0078681Y0084612D01*
X0077612Y0085681D01*
X0077033Y0087077D01*
X0077033Y0093589D01*
X0077612Y0094986D01*
X0079045Y0096419D01*
X0078333Y0097131D01*
X0075736Y0094533D01*
X0070931Y0094533D01*
X0067533Y0097931D01*
X0067533Y0102736D01*
X0070131Y0105333D01*
X0067533Y0107931D01*
X0067533Y0111533D01*
X0040336Y0111533D01*
X0039219Y0110416D01*
X0037087Y0109533D01*
X0029580Y0109533D01*
X0027448Y0110416D01*
X0025816Y0112048D01*
X0024933Y0114180D01*
X0024933Y0116487D01*
X0024971Y0116578D01*
X0023681Y0117112D01*
X0023233Y0117559D01*
X0023233Y0090038D01*
X0024452Y0092148D01*
X0026518Y0094215D01*
X0029049Y0095676D01*
X0031872Y0096433D01*
X0034795Y0096433D01*
X0037617Y0095676D01*
X0040148Y0094215D01*
X0042215Y0092148D01*
X0043676Y0089617D01*
X0044433Y0086795D01*
X0044433Y0083872D01*
X0043676Y0081049D01*
X0042215Y0078518D01*
X0041744Y0078047D02*
X0052255Y0078047D01*
X0053233Y0078047D02*
X0053433Y0078047D01*
X0054412Y0078047D02*
X0059334Y0078047D01*
X0058035Y0079645D02*
X0056921Y0079645D01*
X0053433Y0079645D02*
X0053233Y0079645D01*
X0053233Y0081244D02*
X0053433Y0081244D01*
X0053433Y0082843D02*
X0053233Y0082843D01*
X0053233Y0084441D02*
X0053433Y0084441D01*
X0053433Y0086040D02*
X0053233Y0086040D01*
X0053233Y0087638D02*
X0053433Y0087638D01*
X0053433Y0089237D02*
X0053233Y0089237D01*
X0053233Y0090835D02*
X0053433Y0090835D01*
X0053433Y0092434D02*
X0053233Y0092434D01*
X0051682Y0092434D02*
X0041930Y0092434D01*
X0042973Y0090835D02*
X0049610Y0090835D01*
X0048855Y0089237D02*
X0043778Y0089237D01*
X0044207Y0087638D02*
X0048733Y0087638D01*
X0048733Y0086040D02*
X0044433Y0086040D01*
X0044433Y0084441D02*
X0048733Y0084441D01*
X0048733Y0082843D02*
X0044157Y0082843D01*
X0043728Y0081244D02*
X0048916Y0081244D01*
X0049746Y0079645D02*
X0042866Y0079645D01*
X0057056Y0090835D02*
X0057958Y0090835D01*
X0059148Y0092434D02*
X0054984Y0092434D01*
X0061895Y0094032D02*
X0040331Y0094032D01*
X0037696Y0095631D02*
X0069834Y0095631D01*
X0068235Y0097229D02*
X0023233Y0097229D01*
X0023233Y0095631D02*
X0028970Y0095631D01*
X0026335Y0094032D02*
X0023233Y0094032D01*
X0023233Y0092434D02*
X0024737Y0092434D01*
X0023694Y0090835D02*
X0023233Y0090835D01*
X0023233Y0098828D02*
X0067533Y0098828D01*
X0067533Y0100426D02*
X0023233Y0100426D01*
X0023233Y0102025D02*
X0067533Y0102025D01*
X0068421Y0103623D02*
X0023233Y0103623D01*
X0023233Y0105222D02*
X0070019Y0105222D01*
X0068644Y0106820D02*
X0023233Y0106820D01*
X0023233Y0108419D02*
X0067533Y0108419D01*
X0067533Y0110017D02*
X0038255Y0110017D01*
X0028411Y0110017D02*
X0023233Y0110017D01*
X0023233Y0111616D02*
X0026248Y0111616D01*
X0025333Y0113214D02*
X0023233Y0113214D01*
X0023233Y0114813D02*
X0024933Y0114813D01*
X0024933Y0116411D02*
X0023233Y0116411D01*
X0064771Y0094032D02*
X0077217Y0094032D01*
X0077033Y0092434D02*
X0067518Y0092434D01*
X0068709Y0090835D02*
X0077033Y0090835D01*
X0077033Y0089237D02*
X0069333Y0089237D01*
X0069333Y0087638D02*
X0077033Y0087638D01*
X0077463Y0086040D02*
X0069333Y0086040D01*
X0069333Y0084441D02*
X0078852Y0084441D01*
X0080450Y0082843D02*
X0069333Y0082843D01*
X0069294Y0081244D02*
X0082049Y0081244D01*
X0083647Y0079645D02*
X0068631Y0079645D01*
X0067332Y0078047D02*
X0370371Y0078047D01*
X0370133Y0079645D02*
X0245520Y0079645D01*
X0247118Y0081244D02*
X0370133Y0081244D01*
X0370448Y0082843D02*
X0273717Y0082843D01*
X0275315Y0084441D02*
X0371685Y0084441D01*
X0374048Y0086040D02*
X0339842Y0086040D01*
X0341095Y0087638D02*
X0402460Y0087638D01*
X0402234Y0086040D02*
X0396992Y0086040D01*
X0399355Y0084441D02*
X0402234Y0084441D01*
X0402510Y0082843D02*
X0400591Y0082843D01*
X0400906Y0081244D02*
X0402938Y0081244D01*
X0403801Y0079645D02*
X0400906Y0079645D01*
X0400668Y0078047D02*
X0404923Y0078047D01*
X0392400Y0086040D02*
X0390546Y0086040D01*
X0388907Y0086040D02*
X0388578Y0086040D01*
X0385955Y0086040D02*
X0384101Y0086040D01*
X0380494Y0086040D02*
X0378639Y0086040D01*
X0377596Y0098983D02*
X0375070Y0098983D01*
X0372736Y0099950D01*
X0370950Y0101736D01*
X0369983Y0104070D01*
X0369983Y0106596D01*
X0370950Y0108930D01*
X0372736Y0110717D01*
X0375070Y0111683D01*
X0377596Y0111683D01*
X0379930Y0110717D01*
X0381717Y0108930D01*
X0382683Y0106596D01*
X0382683Y0104070D01*
X0381717Y0101736D01*
X0379930Y0099950D01*
X0377596Y0098983D01*
X0380406Y0100426D02*
X0388240Y0100426D01*
X0388283Y0100383D02*
X0390333Y0100383D01*
X0390333Y0105333D01*
X0390333Y0105333D01*
X0385383Y0105333D01*
X0385383Y0103283D01*
X0388283Y0100383D01*
X0390333Y0100383D02*
X0392384Y0100383D01*
X0395283Y0103283D01*
X0395283Y0105333D01*
X0390333Y0105333D01*
X0390333Y0105333D01*
X0390333Y0100383D01*
X0390333Y0100426D02*
X0390333Y0100426D01*
X0390333Y0102025D02*
X0390333Y0102025D01*
X0390333Y0103623D02*
X0390333Y0103623D01*
X0390333Y0105222D02*
X0390333Y0105222D01*
X0390333Y0105333D02*
X0390333Y0105333D01*
X0385383Y0105333D01*
X0385383Y0107384D01*
X0388283Y0110283D01*
X0390333Y0110283D01*
X0390333Y0105333D01*
X0390333Y0105333D01*
X0395283Y0105333D01*
X0395283Y0107384D01*
X0392384Y0110283D01*
X0390333Y0110283D01*
X0390333Y0105333D01*
X0390333Y0106820D02*
X0390333Y0106820D01*
X0390333Y0108419D02*
X0390333Y0108419D01*
X0390333Y0110017D02*
X0390333Y0110017D01*
X0388017Y0110017D02*
X0380630Y0110017D01*
X0381929Y0108419D02*
X0386418Y0108419D01*
X0385383Y0106820D02*
X0382591Y0106820D01*
X0382683Y0105222D02*
X0385383Y0105222D01*
X0385383Y0103623D02*
X0382498Y0103623D01*
X0381836Y0102025D02*
X0386642Y0102025D01*
X0392426Y0100426D02*
X0420933Y0100426D01*
X0420933Y0098828D02*
X0351633Y0098828D01*
X0351633Y0100426D02*
X0372260Y0100426D01*
X0370831Y0102025D02*
X0351633Y0102025D01*
X0350746Y0103623D02*
X0370169Y0103623D01*
X0369983Y0105222D02*
X0349147Y0105222D01*
X0342519Y0105222D02*
X0339247Y0105222D01*
X0340623Y0106820D02*
X0370076Y0106820D01*
X0370738Y0108419D02*
X0341418Y0108419D01*
X0341733Y0110017D02*
X0372037Y0110017D01*
X0374907Y0111616D02*
X0341680Y0111616D01*
X0341018Y0113214D02*
X0420933Y0113214D01*
X0420933Y0111616D02*
X0377760Y0111616D01*
X0392650Y0110017D02*
X0420933Y0110017D01*
X0420933Y0108419D02*
X0394248Y0108419D01*
X0395283Y0106820D02*
X0420933Y0106820D01*
X0420933Y0105222D02*
X0395283Y0105222D01*
X0395283Y0103623D02*
X0420933Y0103623D01*
X0420933Y0102025D02*
X0394025Y0102025D01*
X0404737Y0092434D02*
X0341341Y0092434D01*
X0341733Y0090835D02*
X0403694Y0090835D01*
X0402888Y0089237D02*
X0341733Y0089237D01*
X0340437Y0094032D02*
X0406335Y0094032D01*
X0408970Y0095631D02*
X0349333Y0095631D01*
X0350932Y0097229D02*
X0420933Y0097229D01*
X0420933Y0095631D02*
X0417696Y0095631D01*
X0420331Y0094032D02*
X0420933Y0094032D01*
X0420933Y0114813D02*
X0339656Y0114813D01*
X0340214Y0116411D02*
X0420933Y0116411D01*
X0420933Y0118010D02*
X0341249Y0118010D01*
X0341733Y0119608D02*
X0420933Y0119608D01*
X0420933Y0121207D02*
X0341733Y0121207D01*
X0341187Y0122805D02*
X0420933Y0122805D01*
X0420933Y0124404D02*
X0340065Y0124404D01*
X0339805Y0126002D02*
X0341962Y0126002D01*
X0349705Y0126002D02*
X0381895Y0126002D01*
X0379509Y0127601D02*
X0351303Y0127601D01*
X0351633Y0129199D02*
X0377919Y0129199D01*
X0377257Y0130798D02*
X0351633Y0130798D01*
X0351633Y0132396D02*
X0376595Y0132396D01*
X0376506Y0133995D02*
X0350374Y0133995D01*
X0348776Y0135593D02*
X0376506Y0135593D01*
X0376866Y0137192D02*
X0348066Y0137192D01*
X0349664Y0138790D02*
X0377528Y0138790D01*
X0378564Y0140389D02*
X0366407Y0140389D01*
X0367908Y0141987D02*
X0368276Y0141987D01*
X0352760Y0140389D02*
X0351263Y0140389D01*
X0342891Y0135593D02*
X0339396Y0135593D01*
X0340474Y0133995D02*
X0341292Y0133995D01*
X0326869Y0154672D02*
X0310382Y0171159D01*
X0312733Y0173511D01*
X0312733Y0175333D01*
X0308333Y0175333D01*
X0303933Y0175333D01*
X0303933Y0174133D01*
X0297736Y0174133D01*
X0295736Y0176133D01*
X0290931Y0176133D01*
X0288333Y0173536D01*
X0285736Y0176133D01*
X0280931Y0176133D01*
X0277533Y0172736D01*
X0277533Y0167931D01*
X0280131Y0165333D01*
X0278333Y0163536D01*
X0275736Y0166133D01*
X0270931Y0166133D01*
X0269633Y0164836D01*
X0269219Y0165250D01*
X0267087Y0166133D01*
X0259580Y0166133D01*
X0257448Y0165250D01*
X0257333Y0165136D01*
X0257333Y0171333D01*
X0274129Y0171333D01*
X0275599Y0171942D01*
X0276724Y0173068D01*
X0279990Y0176333D01*
X0303933Y0176333D01*
X0303933Y0175333D01*
X0308333Y0175333D01*
X0308333Y0175333D01*
X0308333Y0175333D01*
X0312733Y0175333D01*
X0312733Y0176333D01*
X0316676Y0176333D01*
X0321068Y0171942D01*
X0322538Y0171333D01*
X0324131Y0171333D01*
X0325931Y0169533D01*
X0330736Y0169533D01*
X0334133Y0172931D01*
X0334133Y0177736D01*
X0330736Y0181133D01*
X0325931Y0181133D01*
X0324561Y0179763D01*
X0322133Y0182190D01*
X0322133Y0183633D01*
X0324567Y0183633D01*
X0326845Y0184577D01*
X0328333Y0186065D01*
X0329533Y0184865D01*
X0329533Y0184577D01*
X0330112Y0183181D01*
X0332612Y0180681D01*
X0333681Y0179612D01*
X0335077Y0179033D01*
X0340126Y0179033D01*
X0339942Y0178849D01*
X0339333Y0177379D01*
X0339333Y0165136D01*
X0339219Y0165250D01*
X0337087Y0166133D01*
X0329580Y0166133D01*
X0327448Y0165250D01*
X0325816Y0163619D01*
X0324933Y0161487D01*
X0324933Y0159180D01*
X0325816Y0157048D01*
X0327448Y0155416D01*
X0327648Y0155333D01*
X0327448Y0155250D01*
X0326869Y0154672D01*
X0326765Y0154776D02*
X0326973Y0154776D01*
X0326490Y0156374D02*
X0325167Y0156374D01*
X0325433Y0157973D02*
X0323568Y0157973D01*
X0324933Y0159571D02*
X0321970Y0159571D01*
X0320371Y0161170D02*
X0324933Y0161170D01*
X0325464Y0162768D02*
X0318773Y0162768D01*
X0317174Y0164367D02*
X0326564Y0164367D01*
X0329174Y0165965D02*
X0315576Y0165965D01*
X0313977Y0167564D02*
X0339333Y0167564D01*
X0339333Y0169162D02*
X0312379Y0169162D01*
X0310780Y0170761D02*
X0324704Y0170761D01*
X0320651Y0172359D02*
X0311582Y0172359D01*
X0312733Y0173958D02*
X0319052Y0173958D01*
X0317454Y0175556D02*
X0312733Y0175556D01*
X0318333Y0180333D02*
X0278333Y0180333D01*
X0273333Y0175333D01*
X0253333Y0175333D01*
X0250833Y0177833D01*
X0208333Y0177833D01*
X0205833Y0175333D01*
X0183333Y0175333D01*
X0180833Y0177833D01*
X0130833Y0177833D01*
X0128333Y0175333D01*
X0128333Y0162833D01*
X0125833Y0160333D01*
X0123333Y0160333D01*
X0119580Y0166133D02*
X0117448Y0165250D01*
X0115816Y0163619D01*
X0114933Y0161487D01*
X0114933Y0159180D01*
X0115816Y0157048D01*
X0117448Y0155416D01*
X0117648Y0155333D01*
X0117448Y0155250D01*
X0116869Y0154672D01*
X0100382Y0171159D01*
X0102733Y0173511D01*
X0102733Y0175333D01*
X0098333Y0175333D01*
X0093933Y0175333D01*
X0093933Y0174133D01*
X0087736Y0174133D01*
X0085736Y0176133D01*
X0080931Y0176133D01*
X0078333Y0173536D01*
X0075736Y0176133D01*
X0074507Y0176133D01*
X0079907Y0181533D01*
X0101589Y0181533D01*
X0102986Y0182112D01*
X0104055Y0183181D01*
X0104907Y0184033D01*
X0145077Y0184033D01*
X0146589Y0184033D01*
X0147986Y0184612D01*
X0154907Y0191533D01*
X0266589Y0191533D01*
X0267986Y0192112D01*
X0269055Y0193181D01*
X0276555Y0200681D01*
X0277133Y0202077D01*
X0277133Y0206533D01*
X0296497Y0206533D01*
X0296442Y0206364D01*
X0296333Y0205680D01*
X0296333Y0205333D01*
X0296333Y0204987D01*
X0296442Y0204303D01*
X0296656Y0203644D01*
X0296970Y0203027D01*
X0297377Y0202467D01*
X0297867Y0201977D01*
X0298427Y0201570D01*
X0299044Y0201256D01*
X0299703Y0201042D01*
X0300387Y0200933D01*
X0303333Y0200933D01*
X0303333Y0205333D01*
X0303333Y0205333D01*
X0296333Y0205333D01*
X0303333Y0205333D01*
X0303333Y0205333D01*
X0303333Y0200933D01*
X0306280Y0200933D01*
X0306964Y0201042D01*
X0307622Y0201256D01*
X0308239Y0201570D01*
X0308800Y0201977D01*
X0309289Y0202467D01*
X0309697Y0203027D01*
X0310011Y0203644D01*
X0310225Y0204303D01*
X0310333Y0204987D01*
X0310333Y0205333D01*
X0303333Y0205333D01*
X0303333Y0205333D01*
X0310333Y0205333D01*
X0310333Y0205680D01*
X0310225Y0206364D01*
X0310170Y0206533D01*
X0314533Y0206533D01*
X0314533Y0200490D01*
X0314457Y0200515D01*
X0313711Y0200633D01*
X0313533Y0200633D01*
X0313533Y0193033D01*
X0313133Y0193033D01*
X0313133Y0192633D01*
X0313533Y0192633D01*
X0313533Y0185033D01*
X0313711Y0185033D01*
X0314457Y0185152D01*
X0314533Y0185176D01*
X0314533Y0184333D01*
X0277538Y0184333D01*
X0276068Y0183724D01*
X0271676Y0179333D01*
X0254990Y0179333D01*
X0254224Y0180099D01*
X0254224Y0180099D01*
X0253099Y0181224D01*
X0251629Y0181833D01*
X0207538Y0181833D01*
X0206068Y0181224D01*
X0204176Y0179333D01*
X0184990Y0179333D01*
X0184224Y0180099D01*
X0183099Y0181224D01*
X0181629Y0181833D01*
X0130038Y0181833D01*
X0128568Y0181224D01*
X0127442Y0180099D01*
X0126676Y0179333D01*
X0122536Y0179333D01*
X0120736Y0181133D01*
X0115931Y0181133D01*
X0112533Y0177736D01*
X0112533Y0172931D01*
X0115931Y0169533D01*
X0120736Y0169533D01*
X0122536Y0171333D01*
X0124333Y0171333D01*
X0124333Y0166133D01*
X0119580Y0166133D01*
X0119174Y0165965D02*
X0105576Y0165965D01*
X0107174Y0164367D02*
X0116564Y0164367D01*
X0115464Y0162768D02*
X0108773Y0162768D01*
X0110371Y0161170D02*
X0114933Y0161170D01*
X0114933Y0159571D02*
X0111970Y0159571D01*
X0113568Y0157973D02*
X0115433Y0157973D01*
X0115167Y0156374D02*
X0116490Y0156374D01*
X0116765Y0154776D02*
X0116973Y0154776D01*
X0124333Y0167564D02*
X0103977Y0167564D01*
X0102379Y0169162D02*
X0124333Y0169162D01*
X0124333Y0170761D02*
X0121963Y0170761D01*
X0118333Y0175333D02*
X0128333Y0175333D01*
X0127695Y0180352D02*
X0121517Y0180352D01*
X0115149Y0180352D02*
X0078726Y0180352D01*
X0077127Y0178753D02*
X0095531Y0178753D01*
X0096511Y0179733D02*
X0093933Y0177156D01*
X0093933Y0175333D01*
X0098333Y0175333D01*
X0098333Y0175333D01*
X0098333Y0179733D01*
X0096511Y0179733D01*
X0098333Y0179733D02*
X0098333Y0175333D01*
X0098333Y0175333D01*
X0098333Y0175333D01*
X0102733Y0175333D01*
X0102733Y0177156D01*
X0100156Y0179733D01*
X0098333Y0179733D01*
X0098333Y0178753D02*
X0098333Y0178753D01*
X0098333Y0177155D02*
X0098333Y0177155D01*
X0098333Y0175556D02*
X0098333Y0175556D01*
X0101136Y0178753D02*
X0113551Y0178753D01*
X0112533Y0177155D02*
X0102733Y0177155D01*
X0102733Y0175556D02*
X0112533Y0175556D01*
X0112533Y0173958D02*
X0102733Y0173958D01*
X0101582Y0172359D02*
X0113105Y0172359D01*
X0114704Y0170761D02*
X0100780Y0170761D01*
X0093933Y0175556D02*
X0086313Y0175556D01*
X0080354Y0175556D02*
X0076313Y0175556D01*
X0075529Y0177155D02*
X0093933Y0177155D01*
X0102596Y0181950D02*
X0274293Y0181950D01*
X0272695Y0180352D02*
X0253972Y0180352D01*
X0253333Y0175333D02*
X0253333Y0162833D01*
X0255833Y0160333D01*
X0263333Y0160333D01*
X0259174Y0165965D02*
X0257333Y0165965D01*
X0257333Y0167564D02*
X0277901Y0167564D01*
X0277533Y0169162D02*
X0257333Y0169162D01*
X0257333Y0170761D02*
X0277533Y0170761D01*
X0277533Y0172359D02*
X0276016Y0172359D01*
X0277615Y0173958D02*
X0278755Y0173958D01*
X0279213Y0175556D02*
X0280354Y0175556D01*
X0286313Y0175556D02*
X0290354Y0175556D01*
X0288755Y0173958D02*
X0287911Y0173958D01*
X0296313Y0175556D02*
X0303933Y0175556D01*
X0310818Y0185728D02*
X0311491Y0185385D01*
X0312209Y0185152D01*
X0312956Y0185033D01*
X0313133Y0185033D01*
X0313133Y0192633D01*
X0308533Y0192633D01*
X0308533Y0189456D01*
X0308652Y0188709D01*
X0308885Y0187991D01*
X0309228Y0187318D01*
X0309672Y0186706D01*
X0310206Y0186172D01*
X0310818Y0185728D01*
X0312236Y0185147D02*
X0148521Y0185147D01*
X0150120Y0186746D02*
X0309643Y0186746D01*
X0308770Y0188344D02*
X0151718Y0188344D01*
X0153317Y0189943D02*
X0308533Y0189943D01*
X0308533Y0191541D02*
X0266608Y0191541D01*
X0269014Y0193140D02*
X0308533Y0193140D01*
X0308533Y0193033D02*
X0313133Y0193033D01*
X0313133Y0200633D01*
X0312956Y0200633D01*
X0312209Y0200515D01*
X0311491Y0200282D01*
X0310818Y0199939D01*
X0310206Y0199495D01*
X0309672Y0198960D01*
X0309228Y0198349D01*
X0308885Y0197676D01*
X0308652Y0196957D01*
X0308533Y0196211D01*
X0308533Y0193033D01*
X0308533Y0194738D02*
X0270612Y0194738D01*
X0272211Y0196337D02*
X0308553Y0196337D01*
X0309017Y0197935D02*
X0273809Y0197935D01*
X0275408Y0199534D02*
X0310260Y0199534D01*
X0313133Y0199534D02*
X0313533Y0199534D01*
X0313533Y0197935D02*
X0313133Y0197935D01*
X0313133Y0196337D02*
X0313533Y0196337D01*
X0313533Y0194738D02*
X0313133Y0194738D01*
X0313133Y0193140D02*
X0313533Y0193140D01*
X0313533Y0191541D02*
X0313133Y0191541D01*
X0313133Y0189943D02*
X0313533Y0189943D01*
X0313533Y0188344D02*
X0313133Y0188344D01*
X0313133Y0186746D02*
X0313533Y0186746D01*
X0313533Y0185147D02*
X0313133Y0185147D01*
X0314430Y0185147D02*
X0314533Y0185147D01*
X0318333Y0180333D02*
X0323333Y0175333D01*
X0328333Y0175333D01*
X0334133Y0175556D02*
X0339333Y0175556D01*
X0339333Y0173958D02*
X0334133Y0173958D01*
X0333562Y0172359D02*
X0339333Y0172359D01*
X0339333Y0170761D02*
X0331963Y0170761D01*
X0334133Y0177155D02*
X0339333Y0177155D01*
X0339903Y0178753D02*
X0333116Y0178753D01*
X0332941Y0180352D02*
X0331517Y0180352D01*
X0331342Y0181950D02*
X0322373Y0181950D01*
X0322133Y0183549D02*
X0329959Y0183549D01*
X0329251Y0185147D02*
X0327415Y0185147D01*
X0325149Y0180352D02*
X0323972Y0180352D01*
X0343333Y0176583D02*
X0343333Y0162833D01*
X0340833Y0160333D01*
X0333333Y0160333D01*
X0337493Y0165965D02*
X0339333Y0165965D01*
X0343333Y0176583D02*
X0368333Y0201583D01*
X0368333Y0262833D01*
X0365833Y0265333D01*
X0353333Y0265333D01*
X0333333Y0275333D02*
X0323333Y0275333D01*
X0305833Y0292833D01*
X0278333Y0292833D01*
X0275833Y0290333D01*
X0253333Y0290333D01*
X0250833Y0292833D01*
X0188333Y0292833D01*
X0185833Y0290333D01*
X0185833Y0277833D01*
X0188333Y0275333D01*
X0193333Y0275333D01*
X0185833Y0290333D02*
X0170833Y0290333D01*
X0168333Y0292833D01*
X0133333Y0292833D01*
X0130833Y0290333D01*
X0130833Y0280333D01*
X0125833Y0275333D01*
X0123333Y0275333D01*
X0117648Y0270333D02*
X0117448Y0270250D01*
X0116869Y0269672D01*
X0100382Y0286159D01*
X0102733Y0288511D01*
X0102733Y0290333D01*
X0098333Y0290333D01*
X0093933Y0290333D01*
X0093933Y0289133D01*
X0087736Y0289133D01*
X0085736Y0291133D01*
X0080931Y0291133D01*
X0078333Y0288536D01*
X0075736Y0291133D01*
X0070931Y0291133D01*
X0068931Y0289133D01*
X0066987Y0289133D01*
X0067742Y0289888D01*
X0068533Y0291799D01*
X0068533Y0292659D01*
X0072407Y0296533D01*
X0131813Y0296533D01*
X0131068Y0296224D01*
X0129942Y0295099D01*
X0129176Y0294333D01*
X0122536Y0294333D01*
X0120736Y0296133D01*
X0115931Y0296133D01*
X0112533Y0292736D01*
X0112533Y0287931D01*
X0115931Y0284533D01*
X0120736Y0284533D01*
X0122536Y0286333D01*
X0126833Y0286333D01*
X0126833Y0281990D01*
X0125976Y0281133D01*
X0119580Y0281133D01*
X0117448Y0280250D01*
X0115816Y0278619D01*
X0114933Y0276487D01*
X0114933Y0274180D01*
X0115816Y0272048D01*
X0117448Y0270416D01*
X0117648Y0270333D01*
X0117066Y0269868D02*
X0116672Y0269868D01*
X0116397Y0271467D02*
X0115074Y0271467D01*
X0115395Y0273065D02*
X0113475Y0273065D01*
X0114933Y0274664D02*
X0111877Y0274664D01*
X0110278Y0276262D02*
X0114933Y0276262D01*
X0115502Y0277861D02*
X0108680Y0277861D01*
X0107081Y0279459D02*
X0116657Y0279459D01*
X0119398Y0281058D02*
X0105483Y0281058D01*
X0103884Y0282656D02*
X0126833Y0282656D01*
X0126833Y0284255D02*
X0102286Y0284255D01*
X0100687Y0285853D02*
X0114611Y0285853D01*
X0113012Y0287452D02*
X0101674Y0287452D01*
X0102733Y0289050D02*
X0112533Y0289050D01*
X0112533Y0290649D02*
X0102733Y0290649D01*
X0102733Y0290333D02*
X0102733Y0292156D01*
X0100156Y0294733D01*
X0098333Y0294733D01*
X0096511Y0294733D01*
X0093933Y0292156D01*
X0093933Y0290333D01*
X0098333Y0290333D01*
X0098333Y0290333D01*
X0098333Y0294733D01*
X0098333Y0290333D01*
X0098333Y0290333D01*
X0098333Y0290333D01*
X0102733Y0290333D01*
X0102642Y0292248D02*
X0112533Y0292248D01*
X0113644Y0293846D02*
X0101043Y0293846D01*
X0098333Y0293846D02*
X0098333Y0293846D01*
X0098333Y0292248D02*
X0098333Y0292248D01*
X0098333Y0290649D02*
X0098333Y0290649D01*
X0095623Y0293846D02*
X0069720Y0293846D01*
X0068533Y0292248D02*
X0094025Y0292248D01*
X0093933Y0290649D02*
X0086220Y0290649D01*
X0080447Y0290649D02*
X0076220Y0290649D01*
X0077819Y0289050D02*
X0078848Y0289050D01*
X0070447Y0290649D02*
X0068057Y0290649D01*
X0071319Y0295445D02*
X0115242Y0295445D01*
X0118333Y0290333D02*
X0130833Y0290333D01*
X0129942Y0295099D02*
X0129942Y0295099D01*
X0130288Y0295445D02*
X0121425Y0295445D01*
X0122056Y0285853D02*
X0126833Y0285853D01*
X0058724Y0285578D02*
X0056425Y0283279D01*
X0055743Y0281633D01*
X0040336Y0281633D01*
X0039219Y0282750D01*
X0037087Y0283633D01*
X0029580Y0283633D01*
X0027448Y0282750D01*
X0025816Y0281119D01*
X0024933Y0278987D01*
X0024933Y0276680D01*
X0025816Y0274548D01*
X0027448Y0272916D01*
X0027648Y0272833D01*
X0027448Y0272750D01*
X0025816Y0271119D01*
X0024933Y0268987D01*
X0024933Y0266680D01*
X0025816Y0264548D01*
X0027448Y0262916D01*
X0027648Y0262833D01*
X0027448Y0262750D01*
X0025816Y0261119D01*
X0024933Y0258987D01*
X0024933Y0256680D01*
X0025816Y0254548D01*
X0027448Y0252916D01*
X0027648Y0252833D01*
X0027448Y0252750D01*
X0025816Y0251119D01*
X0024933Y0248987D01*
X0024933Y0246680D01*
X0025816Y0244548D01*
X0027448Y0242916D01*
X0027648Y0242833D01*
X0027448Y0242750D01*
X0025816Y0241119D01*
X0024933Y0238987D01*
X0024933Y0236680D01*
X0025816Y0234548D01*
X0027448Y0232916D01*
X0027648Y0232833D01*
X0027448Y0232750D01*
X0025816Y0231119D01*
X0024933Y0228987D01*
X0024933Y0226680D01*
X0025816Y0224548D01*
X0027448Y0222916D01*
X0027648Y0222833D01*
X0027448Y0222750D01*
X0025816Y0221119D01*
X0024933Y0218987D01*
X0024933Y0216680D01*
X0025816Y0214548D01*
X0027448Y0212916D01*
X0027648Y0212833D01*
X0027448Y0212750D01*
X0025816Y0211119D01*
X0024933Y0208987D01*
X0024933Y0206680D01*
X0025816Y0204548D01*
X0027448Y0202916D01*
X0029580Y0202033D01*
X0037087Y0202033D01*
X0039219Y0202916D01*
X0040336Y0204033D01*
X0059089Y0204033D01*
X0060486Y0204612D01*
X0061007Y0205133D01*
X0061868Y0205133D01*
X0063779Y0205925D01*
X0067742Y0209888D01*
X0068423Y0211533D01*
X0068931Y0211533D01*
X0070931Y0209533D01*
X0075736Y0209533D01*
X0078333Y0212131D01*
X0080931Y0209533D01*
X0085736Y0209533D01*
X0087033Y0210831D01*
X0087448Y0210416D01*
X0089510Y0209562D01*
X0089044Y0209411D01*
X0088427Y0209097D01*
X0087867Y0208689D01*
X0087377Y0208200D01*
X0086970Y0207639D01*
X0086656Y0207022D01*
X0086442Y0206364D01*
X0086333Y0205680D01*
X0086333Y0205333D01*
X0086333Y0204987D01*
X0086442Y0204303D01*
X0086656Y0203644D01*
X0086970Y0203027D01*
X0087377Y0202467D01*
X0087867Y0201977D01*
X0088427Y0201570D01*
X0089044Y0201256D01*
X0089703Y0201042D01*
X0090387Y0200933D01*
X0093333Y0200933D01*
X0093333Y0205333D01*
X0093333Y0205333D01*
X0086333Y0205333D01*
X0093333Y0205333D01*
X0093333Y0205333D01*
X0093333Y0200933D01*
X0096059Y0200933D01*
X0091759Y0196633D01*
X0025077Y0196633D01*
X0023681Y0196055D01*
X0023233Y0195607D01*
X0023233Y0290629D01*
X0024452Y0288518D01*
X0026518Y0286452D01*
X0029049Y0284991D01*
X0031872Y0284234D01*
X0034795Y0284234D01*
X0037617Y0284991D01*
X0040148Y0286452D01*
X0042215Y0288518D01*
X0043676Y0291049D01*
X0044433Y0293872D01*
X0044433Y0296795D01*
X0043676Y0299617D01*
X0042215Y0302148D01*
X0041430Y0302933D01*
X0057329Y0302933D01*
X0056425Y0302029D01*
X0055633Y0300118D01*
X0055633Y0298049D01*
X0056425Y0296138D01*
X0057854Y0294708D01*
X0056425Y0293279D01*
X0055633Y0291368D01*
X0055633Y0289299D01*
X0056425Y0287388D01*
X0057888Y0285925D01*
X0058724Y0285578D01*
X0058060Y0285853D02*
X0039112Y0285853D01*
X0041149Y0287452D02*
X0056398Y0287452D01*
X0055736Y0289050D02*
X0042522Y0289050D01*
X0043445Y0290649D02*
X0055633Y0290649D01*
X0055998Y0292248D02*
X0043997Y0292248D01*
X0044426Y0293846D02*
X0056992Y0293846D01*
X0057118Y0295445D02*
X0044433Y0295445D01*
X0044366Y0297043D02*
X0056050Y0297043D01*
X0055633Y0298642D02*
X0043938Y0298642D01*
X0043317Y0300240D02*
X0055684Y0300240D01*
X0056346Y0301839D02*
X0042394Y0301839D01*
X0025518Y0287452D02*
X0023233Y0287452D01*
X0023233Y0289050D02*
X0024144Y0289050D01*
X0023233Y0285853D02*
X0027555Y0285853D01*
X0027354Y0282656D02*
X0023233Y0282656D01*
X0023233Y0281058D02*
X0025791Y0281058D01*
X0025129Y0279459D02*
X0023233Y0279459D01*
X0023233Y0277861D02*
X0024933Y0277861D01*
X0025106Y0276262D02*
X0023233Y0276262D01*
X0023233Y0274664D02*
X0025768Y0274664D01*
X0027299Y0273065D02*
X0023233Y0273065D01*
X0023233Y0271467D02*
X0026164Y0271467D01*
X0025298Y0269868D02*
X0023233Y0269868D01*
X0023233Y0268270D02*
X0024933Y0268270D01*
X0024937Y0266671D02*
X0023233Y0266671D01*
X0023233Y0265073D02*
X0025599Y0265073D01*
X0026890Y0263474D02*
X0023233Y0263474D01*
X0023233Y0261876D02*
X0026573Y0261876D01*
X0025468Y0260277D02*
X0023233Y0260277D01*
X0023233Y0258679D02*
X0024933Y0258679D01*
X0024933Y0257080D02*
X0023233Y0257080D01*
X0023233Y0255482D02*
X0025430Y0255482D01*
X0026481Y0253883D02*
X0023233Y0253883D01*
X0023233Y0252285D02*
X0026982Y0252285D01*
X0025637Y0250686D02*
X0023233Y0250686D01*
X0023233Y0249088D02*
X0024975Y0249088D01*
X0024933Y0247489D02*
X0023233Y0247489D01*
X0023233Y0245891D02*
X0025260Y0245891D01*
X0026072Y0244292D02*
X0023233Y0244292D01*
X0023233Y0242694D02*
X0027391Y0242694D01*
X0025807Y0241095D02*
X0023233Y0241095D01*
X0023233Y0239497D02*
X0025144Y0239497D01*
X0024933Y0237898D02*
X0023233Y0237898D01*
X0023233Y0236300D02*
X0025091Y0236300D01*
X0025753Y0234701D02*
X0023233Y0234701D01*
X0023233Y0233103D02*
X0027262Y0233103D01*
X0026202Y0231504D02*
X0023233Y0231504D01*
X0023233Y0229906D02*
X0025314Y0229906D01*
X0024933Y0228307D02*
X0023233Y0228307D01*
X0023233Y0226709D02*
X0024933Y0226709D01*
X0025583Y0225110D02*
X0023233Y0225110D01*
X0023233Y0223512D02*
X0026853Y0223512D01*
X0026611Y0221913D02*
X0023233Y0221913D01*
X0023233Y0220314D02*
X0025483Y0220314D01*
X0024933Y0218716D02*
X0023233Y0218716D01*
X0023233Y0217117D02*
X0024933Y0217117D01*
X0025414Y0215519D02*
X0023233Y0215519D01*
X0023233Y0213920D02*
X0026444Y0213920D01*
X0027020Y0212322D02*
X0023233Y0212322D01*
X0023233Y0210723D02*
X0025653Y0210723D01*
X0024990Y0209125D02*
X0023233Y0209125D01*
X0023233Y0207526D02*
X0024933Y0207526D01*
X0025245Y0205928D02*
X0023233Y0205928D01*
X0023233Y0204329D02*
X0026035Y0204329D01*
X0027896Y0202731D02*
X0023233Y0202731D01*
X0023233Y0201132D02*
X0089424Y0201132D01*
X0087185Y0202731D02*
X0038771Y0202731D01*
X0024362Y0196337D02*
X0023233Y0196337D01*
X0023233Y0197935D02*
X0093061Y0197935D01*
X0094660Y0199534D02*
X0023233Y0199534D01*
X0059804Y0204329D02*
X0086437Y0204329D01*
X0086373Y0205928D02*
X0063782Y0205928D01*
X0065380Y0207526D02*
X0086913Y0207526D01*
X0088483Y0209125D02*
X0066979Y0209125D01*
X0068088Y0210723D02*
X0069741Y0210723D01*
X0076926Y0210723D02*
X0079741Y0210723D01*
X0086926Y0210723D02*
X0087141Y0210723D01*
X0093333Y0204329D02*
X0093333Y0204329D01*
X0093333Y0202731D02*
X0093333Y0202731D01*
X0093333Y0201132D02*
X0093333Y0201132D01*
X0104423Y0183549D02*
X0275892Y0183549D01*
X0276742Y0201132D02*
X0299424Y0201132D01*
X0297185Y0202731D02*
X0277133Y0202731D01*
X0277133Y0204329D02*
X0296437Y0204329D01*
X0296373Y0205928D02*
X0277133Y0205928D01*
X0303333Y0204329D02*
X0303333Y0204329D01*
X0303333Y0202731D02*
X0303333Y0202731D01*
X0303333Y0201132D02*
X0303333Y0201132D01*
X0307243Y0201132D02*
X0314533Y0201132D01*
X0314533Y0202731D02*
X0309481Y0202731D01*
X0310229Y0204329D02*
X0314533Y0204329D01*
X0314533Y0205928D02*
X0310294Y0205928D01*
X0357257Y0180133D02*
X0357407Y0180283D01*
X0360339Y0180283D01*
X0361736Y0180862D01*
X0372343Y0191469D01*
X0372888Y0190925D01*
X0374799Y0190133D01*
X0377367Y0190133D01*
X0376506Y0188055D01*
X0376506Y0184344D01*
X0377926Y0180916D01*
X0380550Y0178292D01*
X0380977Y0178115D01*
X0380764Y0177902D01*
X0380482Y0178107D01*
X0379827Y0178441D01*
X0379128Y0178668D01*
X0378402Y0178783D01*
X0375299Y0178783D01*
X0375299Y0174248D01*
X0375029Y0174248D01*
X0375029Y0178783D01*
X0371926Y0178783D01*
X0371200Y0178668D01*
X0370501Y0178441D01*
X0369846Y0178107D01*
X0369252Y0177675D01*
X0368732Y0177155D01*
X0368300Y0176561D01*
X0367966Y0175906D01*
X0367739Y0175206D01*
X0367624Y0174480D01*
X0367624Y0174248D01*
X0375029Y0174248D01*
X0375029Y0173978D01*
X0367624Y0173978D01*
X0367624Y0173745D01*
X0367739Y0173019D01*
X0367966Y0172320D01*
X0368300Y0171665D01*
X0368732Y0171070D01*
X0369252Y0170551D01*
X0369846Y0170119D01*
X0370162Y0169958D01*
X0368856Y0169416D01*
X0367970Y0168531D01*
X0367839Y0168845D01*
X0366095Y0170589D01*
X0364855Y0171103D01*
X0365099Y0171228D01*
X0365710Y0171672D01*
X0366245Y0172206D01*
X0366689Y0172818D01*
X0367032Y0173491D01*
X0367265Y0174209D01*
X0367383Y0174956D01*
X0367383Y0175133D01*
X0359783Y0175133D01*
X0359783Y0175533D01*
X0359383Y0175533D01*
X0359383Y0180133D01*
X0357257Y0180133D01*
X0359783Y0180133D02*
X0359783Y0175533D01*
X0367383Y0175533D01*
X0367383Y0175711D01*
X0367265Y0176457D01*
X0367032Y0177176D01*
X0366689Y0177849D01*
X0366245Y0178460D01*
X0365710Y0178995D01*
X0365099Y0179439D01*
X0364426Y0179782D01*
X0363707Y0180015D01*
X0362961Y0180133D01*
X0359783Y0180133D01*
X0360504Y0180352D02*
X0378490Y0180352D01*
X0378589Y0178753D02*
X0380088Y0178753D01*
X0377497Y0181950D02*
X0362824Y0181950D01*
X0364423Y0183549D02*
X0376835Y0183549D01*
X0376506Y0185147D02*
X0366021Y0185147D01*
X0367620Y0186746D02*
X0376506Y0186746D01*
X0376626Y0188344D02*
X0369218Y0188344D01*
X0370817Y0189943D02*
X0377288Y0189943D01*
X0384783Y0196337D02*
X0420933Y0196337D01*
X0420933Y0197935D02*
X0411638Y0197935D01*
X0410736Y0197033D02*
X0414133Y0200431D01*
X0414133Y0205236D01*
X0410736Y0208633D01*
X0405931Y0208633D01*
X0403333Y0206036D01*
X0400736Y0208633D01*
X0395931Y0208633D01*
X0392533Y0205236D01*
X0392533Y0200431D01*
X0395931Y0197033D01*
X0400736Y0197033D01*
X0403333Y0199631D01*
X0405931Y0197033D01*
X0410736Y0197033D01*
X0408496Y0196039D02*
X0411852Y0194649D01*
X0414420Y0192080D01*
X0415810Y0188724D01*
X0415810Y0185092D01*
X0414420Y0181736D01*
X0411852Y0179167D01*
X0408496Y0177777D01*
X0404864Y0177777D01*
X0401508Y0179167D01*
X0398939Y0181736D01*
X0397549Y0185092D01*
X0397549Y0188724D01*
X0398939Y0192080D01*
X0401508Y0194649D01*
X0404864Y0196039D01*
X0408496Y0196039D01*
X0411636Y0194738D02*
X0420933Y0194738D01*
X0420933Y0193140D02*
X0413361Y0193140D01*
X0414644Y0191541D02*
X0420933Y0191541D01*
X0420933Y0189943D02*
X0415306Y0189943D01*
X0415810Y0188344D02*
X0420933Y0188344D01*
X0420933Y0186746D02*
X0415810Y0186746D01*
X0415810Y0185147D02*
X0420933Y0185147D01*
X0420933Y0183549D02*
X0415171Y0183549D01*
X0414509Y0181950D02*
X0420933Y0181950D01*
X0420933Y0180352D02*
X0413036Y0180352D01*
X0410852Y0178753D02*
X0420933Y0178753D01*
X0420933Y0177155D02*
X0397898Y0177155D01*
X0399440Y0175556D02*
X0420933Y0175556D01*
X0420933Y0173958D02*
X0399440Y0173958D01*
X0399440Y0172359D02*
X0420933Y0172359D01*
X0420933Y0170761D02*
X0398376Y0170761D01*
X0399603Y0169162D02*
X0407284Y0169162D01*
X0408013Y0169464D02*
X0404657Y0168074D01*
X0402089Y0165505D01*
X0400699Y0162150D01*
X0400699Y0158517D01*
X0402089Y0155161D01*
X0404657Y0152593D01*
X0408013Y0151203D01*
X0411646Y0151203D01*
X0415002Y0152593D01*
X0417570Y0155161D01*
X0418960Y0158517D01*
X0418960Y0162150D01*
X0417570Y0165505D01*
X0415002Y0168074D01*
X0411646Y0169464D01*
X0408013Y0169464D01*
X0404147Y0167564D02*
X0400840Y0167564D01*
X0400840Y0165965D02*
X0402548Y0165965D01*
X0401617Y0164367D02*
X0400840Y0164367D01*
X0400955Y0162768D02*
X0400631Y0162768D01*
X0400699Y0161170D02*
X0399032Y0161170D01*
X0398958Y0159571D02*
X0400699Y0159571D01*
X0400557Y0157973D02*
X0400924Y0157973D01*
X0400840Y0156374D02*
X0401586Y0156374D01*
X0400840Y0154776D02*
X0402474Y0154776D01*
X0404073Y0153177D02*
X0400840Y0153177D01*
X0399677Y0151579D02*
X0407106Y0151579D01*
X0412553Y0151579D02*
X0420933Y0151579D01*
X0420933Y0153177D02*
X0415586Y0153177D01*
X0417184Y0154776D02*
X0420933Y0154776D01*
X0420933Y0156374D02*
X0418072Y0156374D01*
X0418735Y0157973D02*
X0420933Y0157973D01*
X0420933Y0159571D02*
X0418960Y0159571D01*
X0418960Y0161170D02*
X0420933Y0161170D01*
X0420933Y0162768D02*
X0418704Y0162768D01*
X0418042Y0164367D02*
X0420933Y0164367D01*
X0420933Y0165965D02*
X0417110Y0165965D01*
X0415512Y0167564D02*
X0420933Y0167564D01*
X0420933Y0169162D02*
X0412374Y0169162D01*
X0402508Y0178753D02*
X0391578Y0178753D01*
X0391839Y0177155D02*
X0390036Y0177155D01*
X0393177Y0180352D02*
X0400323Y0180352D01*
X0398850Y0181950D02*
X0394169Y0181950D01*
X0394831Y0183549D02*
X0398188Y0183549D01*
X0397549Y0185147D02*
X0395161Y0185147D01*
X0395161Y0186746D02*
X0397549Y0186746D01*
X0397549Y0188344D02*
X0395041Y0188344D01*
X0394379Y0189943D02*
X0398054Y0189943D01*
X0398716Y0191541D02*
X0393683Y0191541D01*
X0392084Y0193140D02*
X0399999Y0193140D01*
X0401724Y0194738D02*
X0389593Y0194738D01*
X0395029Y0197935D02*
X0384134Y0197935D01*
X0387088Y0199534D02*
X0393430Y0199534D01*
X0392533Y0201132D02*
X0389935Y0201132D01*
X0391133Y0202731D02*
X0392533Y0202731D01*
X0392533Y0204329D02*
X0391733Y0204329D01*
X0391733Y0205928D02*
X0393225Y0205928D01*
X0394824Y0207526D02*
X0391303Y0207526D01*
X0390344Y0209125D02*
X0420933Y0209125D01*
X0420933Y0210723D02*
X0389526Y0210723D01*
X0390964Y0212322D02*
X0420933Y0212322D01*
X0420933Y0213920D02*
X0391626Y0213920D01*
X0391733Y0215519D02*
X0420933Y0215519D01*
X0420933Y0217117D02*
X0391472Y0217117D01*
X0390753Y0218716D02*
X0420933Y0218716D01*
X0420933Y0220314D02*
X0389064Y0220314D01*
X0390715Y0221913D02*
X0420933Y0221913D01*
X0420933Y0223512D02*
X0391457Y0223512D01*
X0391733Y0225110D02*
X0420933Y0225110D01*
X0420933Y0226709D02*
X0391642Y0226709D01*
X0390979Y0228307D02*
X0394657Y0228307D01*
X0395931Y0227033D02*
X0392533Y0230431D01*
X0392533Y0235236D01*
X0395931Y0238633D01*
X0400736Y0238633D01*
X0403333Y0236036D01*
X0405931Y0238633D01*
X0410736Y0238633D01*
X0414133Y0235236D01*
X0414133Y0230431D01*
X0410736Y0227033D01*
X0405931Y0227033D01*
X0403333Y0229631D01*
X0400736Y0227033D01*
X0395931Y0227033D01*
X0393059Y0229906D02*
X0389564Y0229906D01*
X0390307Y0231504D02*
X0392533Y0231504D01*
X0392533Y0233103D02*
X0391287Y0233103D01*
X0391733Y0234701D02*
X0392533Y0234701D01*
X0391733Y0236300D02*
X0393597Y0236300D01*
X0395196Y0237898D02*
X0391149Y0237898D01*
X0389972Y0239497D02*
X0420933Y0239497D01*
X0420933Y0241095D02*
X0404898Y0241095D01*
X0406118Y0242694D02*
X0420933Y0242694D01*
X0420933Y0244292D02*
X0406733Y0244292D01*
X0406733Y0245891D02*
X0420933Y0245891D01*
X0420933Y0247489D02*
X0406318Y0247489D01*
X0405381Y0249088D02*
X0420933Y0249088D01*
X0420933Y0250686D02*
X0404489Y0250686D01*
X0405948Y0252285D02*
X0420933Y0252285D01*
X0420933Y0253883D02*
X0406611Y0253883D01*
X0406733Y0255482D02*
X0420933Y0255482D01*
X0420933Y0257080D02*
X0406488Y0257080D01*
X0405790Y0258679D02*
X0420933Y0258679D01*
X0420933Y0260277D02*
X0404154Y0260277D01*
X0403660Y0261876D02*
X0420933Y0261876D01*
X0420933Y0263474D02*
X0404924Y0263474D01*
X0405333Y0265073D02*
X0420933Y0265073D01*
X0420933Y0266671D02*
X0405125Y0266671D01*
X0404219Y0268270D02*
X0420933Y0268270D01*
X0420933Y0269868D02*
X0402896Y0269868D01*
X0405269Y0271467D02*
X0420933Y0271467D01*
X0420933Y0273065D02*
X0406272Y0273065D01*
X0406733Y0274664D02*
X0420933Y0274664D01*
X0420933Y0276262D02*
X0406733Y0276262D01*
X0406164Y0277861D02*
X0420933Y0277861D01*
X0420933Y0279459D02*
X0405010Y0279459D01*
X0404860Y0281058D02*
X0420933Y0281058D01*
X0420933Y0282656D02*
X0406102Y0282656D01*
X0406733Y0284255D02*
X0411794Y0284255D01*
X0414872Y0284255D02*
X0420933Y0284255D01*
X0420933Y0285853D02*
X0419112Y0285853D01*
X0407555Y0285853D02*
X0406733Y0285853D01*
X0402669Y0292248D02*
X0388450Y0292248D01*
X0389133Y0292931D02*
X0385736Y0289533D01*
X0380931Y0289533D01*
X0377533Y0292931D01*
X0377533Y0297736D01*
X0380931Y0301133D01*
X0385736Y0301133D01*
X0389133Y0297736D01*
X0389133Y0292931D01*
X0389133Y0293846D02*
X0402241Y0293846D01*
X0402234Y0295445D02*
X0389133Y0295445D01*
X0389133Y0297043D02*
X0402301Y0297043D01*
X0402729Y0298642D02*
X0388228Y0298642D01*
X0386629Y0300240D02*
X0403350Y0300240D01*
X0404273Y0301839D02*
X0364702Y0301839D01*
X0366301Y0300240D02*
X0380038Y0300240D01*
X0378439Y0298642D02*
X0367899Y0298642D01*
X0369498Y0297043D02*
X0377533Y0297043D01*
X0377533Y0295445D02*
X0371096Y0295445D01*
X0372695Y0293846D02*
X0377533Y0293846D01*
X0378217Y0292248D02*
X0374293Y0292248D01*
X0375486Y0291055D02*
X0375486Y0291055D01*
X0375892Y0290649D02*
X0379815Y0290649D01*
X0376942Y0289050D02*
X0391248Y0289050D01*
X0390333Y0287452D02*
X0377133Y0287452D01*
X0377133Y0285853D02*
X0389933Y0285853D01*
X0389933Y0284255D02*
X0380634Y0284255D01*
X0380156Y0284733D02*
X0378333Y0284733D01*
X0378333Y0280333D01*
X0378333Y0280333D01*
X0382733Y0280333D01*
X0382733Y0282156D01*
X0380156Y0284733D01*
X0378333Y0284255D02*
X0378333Y0284255D01*
X0378333Y0282656D02*
X0378333Y0282656D01*
X0378333Y0281058D02*
X0378333Y0281058D01*
X0378333Y0279459D02*
X0378333Y0279459D01*
X0378333Y0277861D02*
X0378333Y0277861D01*
X0378333Y0276262D02*
X0378333Y0276262D01*
X0377133Y0274664D02*
X0389933Y0274664D01*
X0389933Y0276262D02*
X0380485Y0276262D01*
X0382083Y0277861D02*
X0390502Y0277861D01*
X0391657Y0279459D02*
X0382733Y0279459D01*
X0382733Y0281058D02*
X0391806Y0281058D01*
X0390564Y0282656D02*
X0382233Y0282656D01*
X0386851Y0290649D02*
X0393410Y0290649D01*
X0390395Y0273065D02*
X0377133Y0273065D01*
X0377133Y0271467D02*
X0391397Y0271467D01*
X0393771Y0269868D02*
X0377133Y0269868D01*
X0377133Y0268270D02*
X0377447Y0268270D01*
X0383333Y0268270D02*
X0383333Y0268270D01*
X0383333Y0269733D02*
X0383333Y0265333D01*
X0383333Y0265333D01*
X0383333Y0265333D01*
X0390333Y0265333D01*
X0390333Y0265680D01*
X0390225Y0266364D01*
X0390011Y0267022D01*
X0389697Y0267639D01*
X0389289Y0268200D01*
X0388800Y0268689D01*
X0388239Y0269097D01*
X0387622Y0269411D01*
X0386964Y0269625D01*
X0386280Y0269733D01*
X0383333Y0269733D01*
X0383333Y0266671D02*
X0383333Y0266671D01*
X0389219Y0268270D02*
X0392447Y0268270D01*
X0391542Y0266671D02*
X0390125Y0266671D01*
X0390333Y0265073D02*
X0391333Y0265073D01*
X0391742Y0263474D02*
X0389924Y0263474D01*
X0388660Y0261876D02*
X0393006Y0261876D01*
X0392513Y0260277D02*
X0389154Y0260277D01*
X0390790Y0258679D02*
X0390876Y0258679D01*
X0391769Y0241095D02*
X0389898Y0241095D01*
X0401471Y0237898D02*
X0405196Y0237898D01*
X0403597Y0236300D02*
X0403069Y0236300D01*
X0402009Y0228307D02*
X0404657Y0228307D01*
X0412009Y0228307D02*
X0420933Y0228307D01*
X0420933Y0229906D02*
X0413608Y0229906D01*
X0414133Y0231504D02*
X0420933Y0231504D01*
X0420933Y0233103D02*
X0414133Y0233103D01*
X0414133Y0234701D02*
X0420933Y0234701D01*
X0420933Y0236300D02*
X0413069Y0236300D01*
X0411471Y0237898D02*
X0420933Y0237898D01*
X0420933Y0207526D02*
X0411843Y0207526D01*
X0413441Y0205928D02*
X0420933Y0205928D01*
X0420933Y0204329D02*
X0414133Y0204329D01*
X0414133Y0202731D02*
X0420933Y0202731D01*
X0420933Y0201132D02*
X0414133Y0201132D01*
X0413236Y0199534D02*
X0420933Y0199534D01*
X0405029Y0197935D02*
X0401638Y0197935D01*
X0403236Y0199534D02*
X0403430Y0199534D01*
X0404824Y0207526D02*
X0401843Y0207526D01*
X0394955Y0177155D02*
X0394783Y0177155D01*
X0394783Y0175556D02*
X0394955Y0175556D01*
X0394955Y0173958D02*
X0394783Y0173958D01*
X0375299Y0175556D02*
X0375029Y0175556D01*
X0375029Y0177155D02*
X0375299Y0177155D01*
X0375299Y0178753D02*
X0375029Y0178753D01*
X0371739Y0178753D02*
X0365952Y0178753D01*
X0367039Y0177155D02*
X0368731Y0177155D01*
X0367853Y0175556D02*
X0367383Y0175556D01*
X0367183Y0173958D02*
X0367624Y0173958D01*
X0367953Y0172359D02*
X0366356Y0172359D01*
X0365682Y0170761D02*
X0369042Y0170761D01*
X0368601Y0169162D02*
X0367523Y0169162D01*
X0359783Y0175556D02*
X0359383Y0175556D01*
X0359383Y0177155D02*
X0359783Y0177155D01*
X0359783Y0178753D02*
X0359383Y0178753D01*
X0400281Y0149980D02*
X0420933Y0149980D01*
X0420933Y0148381D02*
X0400840Y0148381D01*
X0400840Y0146783D02*
X0420933Y0146783D01*
X0420933Y0145184D02*
X0400840Y0145184D01*
X0399952Y0143586D02*
X0420933Y0143586D01*
X0420933Y0141987D02*
X0410673Y0141987D01*
X0411852Y0141499D02*
X0408496Y0142889D01*
X0404864Y0142889D01*
X0401508Y0141499D01*
X0398939Y0138931D01*
X0397549Y0135575D01*
X0397549Y0131942D01*
X0398939Y0128586D01*
X0401508Y0126018D01*
X0404864Y0124628D01*
X0408496Y0124628D01*
X0411852Y0126018D01*
X0414420Y0128586D01*
X0415810Y0131942D01*
X0415810Y0135575D01*
X0414420Y0138931D01*
X0411852Y0141499D01*
X0412962Y0140389D02*
X0420933Y0140389D01*
X0420933Y0138790D02*
X0414479Y0138790D01*
X0415141Y0137192D02*
X0420933Y0137192D01*
X0420933Y0135593D02*
X0415803Y0135593D01*
X0415810Y0133995D02*
X0420933Y0133995D01*
X0420933Y0132396D02*
X0415810Y0132396D01*
X0415336Y0130798D02*
X0420933Y0130798D01*
X0420933Y0129199D02*
X0414674Y0129199D01*
X0413435Y0127601D02*
X0420933Y0127601D01*
X0420933Y0126002D02*
X0411814Y0126002D01*
X0401545Y0126002D02*
X0389771Y0126002D01*
X0392158Y0127601D02*
X0399925Y0127601D01*
X0398685Y0129199D02*
X0393747Y0129199D01*
X0394410Y0130798D02*
X0398023Y0130798D01*
X0397549Y0132396D02*
X0395072Y0132396D01*
X0395161Y0133995D02*
X0397549Y0133995D01*
X0397557Y0135593D02*
X0395161Y0135593D01*
X0394801Y0137192D02*
X0398219Y0137192D01*
X0398881Y0138790D02*
X0394139Y0138790D01*
X0393103Y0140389D02*
X0400397Y0140389D01*
X0398354Y0141987D02*
X0402686Y0141987D01*
X0342334Y0095631D02*
X0339433Y0095631D01*
X0327234Y0095631D02*
X0321505Y0095631D01*
X0319906Y0094032D02*
X0326230Y0094032D01*
X0325325Y0092434D02*
X0318308Y0092434D01*
X0324933Y0090835D02*
X0310309Y0090835D01*
X0310203Y0089237D02*
X0324933Y0089237D01*
X0325572Y0087638D02*
X0309414Y0087638D01*
X0306950Y0086040D02*
X0326825Y0086040D01*
X0303333Y0086040D02*
X0303333Y0086040D01*
X0303333Y0087638D02*
X0303333Y0087638D01*
X0303333Y0089237D02*
X0303333Y0089237D01*
X0303333Y0090333D02*
X0303333Y0090333D01*
X0299716Y0086040D02*
X0276703Y0086040D01*
X0277133Y0087638D02*
X0297253Y0087638D01*
X0296463Y0089237D02*
X0277133Y0089237D01*
X0277133Y0090835D02*
X0296358Y0090835D01*
X0233333Y0090333D02*
X0226333Y0090333D01*
X0226333Y0089987D01*
X0226442Y0089303D01*
X0226497Y0089133D01*
X0201714Y0089133D01*
X0201733Y0089180D01*
X0201733Y0091487D01*
X0200850Y0093619D01*
X0199219Y0095250D01*
X0199018Y0095333D01*
X0199219Y0095416D01*
X0199798Y0095995D01*
X0203681Y0092112D01*
X0205077Y0091533D01*
X0226497Y0091533D01*
X0226442Y0091364D01*
X0226333Y0090680D01*
X0226333Y0090333D01*
X0233333Y0090333D01*
X0233333Y0090333D01*
X0226463Y0089237D02*
X0201733Y0089237D01*
X0201733Y0090835D02*
X0226358Y0090835D01*
X0203359Y0092434D02*
X0201341Y0092434D01*
X0201761Y0094032D02*
X0200437Y0094032D01*
X0200162Y0095631D02*
X0199433Y0095631D01*
X0187648Y0095333D02*
X0187448Y0095250D01*
X0185816Y0093619D01*
X0184933Y0091487D01*
X0184933Y0089180D01*
X0185816Y0087048D01*
X0186231Y0086633D01*
X0168326Y0086633D01*
X0168800Y0086977D01*
X0169289Y0087467D01*
X0169697Y0088027D01*
X0170011Y0088644D01*
X0170225Y0089303D01*
X0170333Y0089987D01*
X0170333Y0090333D01*
X0163333Y0090333D01*
X0156333Y0090333D01*
X0156333Y0089987D01*
X0156442Y0089303D01*
X0156656Y0088644D01*
X0156970Y0088027D01*
X0157377Y0087467D01*
X0157867Y0086977D01*
X0158340Y0086633D01*
X0130436Y0086633D01*
X0130850Y0087048D01*
X0131733Y0089180D01*
X0131733Y0091487D01*
X0130850Y0093619D01*
X0129219Y0095250D01*
X0129018Y0095333D01*
X0129219Y0095416D01*
X0129798Y0095995D01*
X0133681Y0092112D01*
X0135077Y0091533D01*
X0156497Y0091533D01*
X0156442Y0091364D01*
X0156333Y0090680D01*
X0156333Y0090333D01*
X0163333Y0090333D01*
X0163333Y0090333D01*
X0163333Y0090333D01*
X0170333Y0090333D01*
X0170333Y0090680D01*
X0170225Y0091364D01*
X0170170Y0091533D01*
X0176589Y0091533D01*
X0177986Y0092112D01*
X0179055Y0093181D01*
X0182407Y0096533D01*
X0186331Y0096533D01*
X0187448Y0095416D01*
X0187648Y0095333D01*
X0187234Y0095631D02*
X0181505Y0095631D01*
X0179906Y0094032D02*
X0186230Y0094032D01*
X0185325Y0092434D02*
X0178308Y0092434D01*
X0184933Y0090835D02*
X0170309Y0090835D01*
X0170203Y0089237D02*
X0184933Y0089237D01*
X0185572Y0087638D02*
X0169414Y0087638D01*
X0157253Y0087638D02*
X0131095Y0087638D01*
X0131733Y0089237D02*
X0156463Y0089237D01*
X0156358Y0090835D02*
X0131733Y0090835D01*
X0131341Y0092434D02*
X0133359Y0092434D01*
X0131761Y0094032D02*
X0130437Y0094032D01*
X0130162Y0095631D02*
X0129433Y0095631D01*
X0117648Y0095333D02*
X0117448Y0095250D01*
X0115816Y0093619D01*
X0114933Y0091487D01*
X0114933Y0089180D01*
X0115816Y0087048D01*
X0116231Y0086633D01*
X0098326Y0086633D01*
X0098800Y0086977D01*
X0099289Y0087467D01*
X0099697Y0088027D01*
X0100011Y0088644D01*
X0100225Y0089303D01*
X0100333Y0089987D01*
X0100333Y0090333D01*
X0093333Y0090333D01*
X0086333Y0090333D01*
X0086333Y0089987D01*
X0086442Y0089303D01*
X0086656Y0088644D01*
X0086970Y0088027D01*
X0087377Y0087467D01*
X0087867Y0086977D01*
X0088340Y0086633D01*
X0087407Y0086633D01*
X0084633Y0089407D01*
X0084633Y0091259D01*
X0084907Y0091533D01*
X0086497Y0091533D01*
X0086442Y0091364D01*
X0086333Y0090680D01*
X0086333Y0090333D01*
X0093333Y0090333D01*
X0093333Y0090333D01*
X0093333Y0090333D01*
X0100333Y0090333D01*
X0100333Y0090680D01*
X0100225Y0091364D01*
X0100170Y0091533D01*
X0104089Y0091533D01*
X0105486Y0092112D01*
X0107986Y0094612D01*
X0109055Y0095681D01*
X0109633Y0097077D01*
X0109633Y0116089D01*
X0109055Y0117486D01*
X0107986Y0118555D01*
X0106589Y0119133D01*
X0101714Y0119133D01*
X0101733Y0119180D01*
X0101733Y0121487D01*
X0101714Y0121533D01*
X0106589Y0121533D01*
X0107986Y0122112D01*
X0112407Y0126533D01*
X0116331Y0126533D01*
X0117448Y0125416D01*
X0117648Y0125333D01*
X0117448Y0125250D01*
X0115816Y0123619D01*
X0114933Y0121487D01*
X0114933Y0119180D01*
X0115816Y0117048D01*
X0117448Y0115416D01*
X0117648Y0115333D01*
X0117448Y0115250D01*
X0115816Y0113619D01*
X0114933Y0111487D01*
X0114933Y0109180D01*
X0115816Y0107048D01*
X0117448Y0105416D01*
X0117648Y0105333D01*
X0117448Y0105250D01*
X0115816Y0103619D01*
X0114933Y0101487D01*
X0114933Y0099180D01*
X0115816Y0097048D01*
X0117448Y0095416D01*
X0117648Y0095333D01*
X0117234Y0095631D02*
X0109005Y0095631D01*
X0109633Y0097229D02*
X0115741Y0097229D01*
X0115079Y0098828D02*
X0109633Y0098828D01*
X0109633Y0100426D02*
X0114933Y0100426D01*
X0115156Y0102025D02*
X0109633Y0102025D01*
X0109633Y0103623D02*
X0115821Y0103623D01*
X0117419Y0105222D02*
X0109633Y0105222D01*
X0109633Y0106820D02*
X0116044Y0106820D01*
X0115249Y0108419D02*
X0109633Y0108419D01*
X0109633Y0110017D02*
X0114933Y0110017D01*
X0114987Y0111616D02*
X0109633Y0111616D01*
X0109633Y0113214D02*
X0115649Y0113214D01*
X0117010Y0114813D02*
X0109633Y0114813D01*
X0109500Y0116411D02*
X0116453Y0116411D01*
X0115418Y0118010D02*
X0108531Y0118010D01*
X0108679Y0122805D02*
X0115479Y0122805D01*
X0114933Y0121207D02*
X0101733Y0121207D01*
X0101733Y0119608D02*
X0114933Y0119608D01*
X0116601Y0124404D02*
X0110278Y0124404D01*
X0111876Y0126002D02*
X0116862Y0126002D01*
X0078257Y0095631D02*
X0076833Y0095631D01*
X0084633Y0090835D02*
X0086358Y0090835D01*
X0086463Y0089237D02*
X0084804Y0089237D01*
X0086403Y0087638D02*
X0087253Y0087638D01*
X0099414Y0087638D02*
X0115572Y0087638D01*
X0114933Y0089237D02*
X0100203Y0089237D01*
X0100309Y0090835D02*
X0114933Y0090835D01*
X0115325Y0092434D02*
X0105808Y0092434D01*
X0107406Y0094032D02*
X0116230Y0094032D01*
X0183333Y0162833D02*
X0185833Y0160333D01*
X0193333Y0160333D01*
X0183333Y0162833D02*
X0183333Y0175333D01*
X0183972Y0180352D02*
X0205195Y0180352D01*
X0201659Y0199133D02*
X0152577Y0199133D01*
X0151181Y0198555D01*
X0144259Y0191633D01*
X0142283Y0191633D01*
X0142283Y0192618D01*
X0141492Y0194529D01*
X0137529Y0198492D01*
X0135618Y0199283D01*
X0133549Y0199283D01*
X0132133Y0198697D01*
X0132133Y0201089D01*
X0131555Y0202486D01*
X0131185Y0202856D01*
X0131733Y0204180D01*
X0131733Y0206487D01*
X0130850Y0208619D01*
X0129219Y0210250D01*
X0129018Y0210333D01*
X0129219Y0210416D01*
X0130106Y0211304D01*
X0130175Y0211138D01*
X0134138Y0207175D01*
X0136049Y0206383D01*
X0138118Y0206383D01*
X0138480Y0206533D01*
X0156497Y0206533D01*
X0156442Y0206364D01*
X0156333Y0205680D01*
X0156333Y0205333D01*
X0156333Y0204987D01*
X0156442Y0204303D01*
X0156656Y0203644D01*
X0156970Y0203027D01*
X0157377Y0202467D01*
X0157867Y0201977D01*
X0158427Y0201570D01*
X0159044Y0201256D01*
X0159703Y0201042D01*
X0160387Y0200933D01*
X0163333Y0200933D01*
X0163333Y0205333D01*
X0163333Y0205333D01*
X0156333Y0205333D01*
X0163333Y0205333D01*
X0163333Y0205333D01*
X0163333Y0200933D01*
X0166280Y0200933D01*
X0166964Y0201042D01*
X0167622Y0201256D01*
X0168239Y0201570D01*
X0168800Y0201977D01*
X0169289Y0202467D01*
X0169697Y0203027D01*
X0170011Y0203644D01*
X0170225Y0204303D01*
X0170333Y0204987D01*
X0170333Y0205333D01*
X0163333Y0205333D01*
X0163333Y0205333D01*
X0170333Y0205333D01*
X0170333Y0205680D01*
X0170225Y0206364D01*
X0170170Y0206533D01*
X0176589Y0206533D01*
X0177986Y0207112D01*
X0182407Y0211533D01*
X0186331Y0211533D01*
X0187448Y0210416D01*
X0187648Y0210333D01*
X0187448Y0210250D01*
X0185816Y0208619D01*
X0184933Y0206487D01*
X0184933Y0204180D01*
X0185816Y0202048D01*
X0187448Y0200416D01*
X0189580Y0199533D01*
X0197087Y0199533D01*
X0199219Y0200416D01*
X0199798Y0200995D01*
X0201659Y0199133D01*
X0201259Y0199534D02*
X0197088Y0199534D01*
X0189578Y0199534D02*
X0132133Y0199534D01*
X0132115Y0201132D02*
X0159424Y0201132D01*
X0157185Y0202731D02*
X0131310Y0202731D01*
X0131733Y0204329D02*
X0156437Y0204329D01*
X0156373Y0205928D02*
X0131733Y0205928D01*
X0131303Y0207526D02*
X0133786Y0207526D01*
X0132188Y0209125D02*
X0130344Y0209125D01*
X0130589Y0210723D02*
X0129526Y0210723D01*
X0138085Y0197935D02*
X0150561Y0197935D01*
X0148963Y0196337D02*
X0139684Y0196337D01*
X0141282Y0194738D02*
X0147364Y0194738D01*
X0145766Y0193140D02*
X0142067Y0193140D01*
X0163333Y0201132D02*
X0163333Y0201132D01*
X0163333Y0202731D02*
X0163333Y0202731D01*
X0163333Y0204329D02*
X0163333Y0204329D01*
X0167243Y0201132D02*
X0186732Y0201132D01*
X0185533Y0202731D02*
X0169481Y0202731D01*
X0170229Y0204329D02*
X0184933Y0204329D01*
X0184933Y0205928D02*
X0170294Y0205928D01*
X0178400Y0207526D02*
X0185364Y0207526D01*
X0186322Y0209125D02*
X0179999Y0209125D01*
X0181597Y0210723D02*
X0187141Y0210723D01*
X0204958Y0206583D02*
X0205077Y0206533D01*
X0226497Y0206533D01*
X0226442Y0206364D01*
X0226333Y0205680D01*
X0226333Y0205333D01*
X0226333Y0204987D01*
X0226442Y0204303D01*
X0226497Y0204133D01*
X0207407Y0204133D01*
X0204958Y0206583D01*
X0205613Y0205928D02*
X0226373Y0205928D01*
X0226333Y0205333D02*
X0233333Y0205333D01*
X0226333Y0205333D01*
X0226437Y0204329D02*
X0207211Y0204329D01*
X0233333Y0205333D02*
X0233333Y0205333D01*
X0233333Y0205333D01*
X0240333Y0205333D01*
X0240333Y0204987D01*
X0240225Y0204303D01*
X0240170Y0204133D01*
X0241759Y0204133D01*
X0244533Y0206907D01*
X0244533Y0210009D01*
X0244403Y0209955D01*
X0243329Y0209955D01*
X0240486Y0207112D01*
X0240042Y0206928D01*
X0240225Y0206364D01*
X0240333Y0205680D01*
X0240333Y0205333D01*
X0233333Y0205333D01*
X0240229Y0204329D02*
X0241955Y0204329D01*
X0243554Y0205928D02*
X0240294Y0205928D01*
X0240900Y0207526D02*
X0244533Y0207526D01*
X0244533Y0209125D02*
X0242499Y0209125D01*
X0267493Y0165965D02*
X0270763Y0165965D01*
X0275904Y0165965D02*
X0279499Y0165965D01*
X0279164Y0164367D02*
X0277502Y0164367D01*
X0263333Y0275333D02*
X0255833Y0275333D01*
X0253333Y0277833D01*
X0253333Y0290333D01*
X0104055Y0183181D02*
X0104055Y0183181D01*
X0078755Y0173958D02*
X0077911Y0173958D01*
X0056167Y0282656D02*
X0039313Y0282656D01*
X0034872Y0284255D02*
X0057401Y0284255D01*
X0031794Y0284255D02*
X0023233Y0284255D01*
D20*
X0033333Y0277833D02*
X0058333Y0277833D01*
X0060833Y0280333D01*
X0063333Y0282833D02*
X0065833Y0285333D01*
X0073333Y0285333D01*
X0063333Y0292833D02*
X0070833Y0300333D01*
X0330833Y0300333D01*
X0345833Y0285333D01*
X0345833Y0262833D01*
X0348333Y0260333D01*
X0360833Y0260333D01*
X0363333Y0257833D01*
X0363333Y0207833D01*
X0360833Y0205333D01*
X0353333Y0205333D01*
X0345833Y0202833D02*
X0345833Y0212833D01*
X0348333Y0215333D01*
X0353333Y0215333D01*
X0343333Y0221583D02*
X0347083Y0225333D01*
X0353333Y0225333D01*
X0343333Y0221583D02*
X0343333Y0204083D01*
X0339583Y0200333D01*
X0325833Y0200333D01*
X0323333Y0197833D01*
X0323333Y0192833D01*
X0333333Y0192833D02*
X0333333Y0185333D01*
X0335833Y0182833D01*
X0344583Y0182833D01*
X0350833Y0189083D01*
X0350833Y0197833D01*
X0345833Y0202833D01*
X0340833Y0207833D02*
X0338333Y0205333D01*
X0333333Y0205333D01*
X0340833Y0207833D02*
X0340833Y0237833D01*
X0338333Y0240333D01*
X0325833Y0240333D01*
X0315833Y0250333D01*
X0278333Y0250333D01*
X0273333Y0255333D01*
X0263333Y0255333D01*
X0253333Y0260333D02*
X0243333Y0270333D01*
X0210833Y0270333D01*
X0200833Y0260333D01*
X0185833Y0260333D01*
X0175833Y0270333D01*
X0140833Y0270333D01*
X0130833Y0260333D01*
X0110833Y0260333D01*
X0100833Y0250333D01*
X0100833Y0200333D01*
X0093333Y0192833D01*
X0025833Y0192833D01*
X0023333Y0190333D01*
X0023333Y0157833D01*
X0025833Y0155333D01*
X0033333Y0155333D01*
X0033333Y0145333D02*
X0025833Y0145333D01*
X0023333Y0142833D01*
X0023333Y0122833D01*
X0025833Y0120333D01*
X0055833Y0120333D01*
X0060833Y0125333D01*
X0105833Y0125333D01*
X0110833Y0130333D01*
X0123333Y0130333D01*
X0133333Y0130333D01*
X0133333Y0140333D02*
X0123333Y0140333D01*
X0130833Y0145333D02*
X0068333Y0145333D01*
X0063333Y0140333D01*
X0028333Y0140333D01*
X0025833Y0137833D01*
X0025833Y0127833D01*
X0028333Y0125333D01*
X0033333Y0125333D01*
X0033333Y0115333D02*
X0105833Y0115333D01*
X0105833Y0097833D01*
X0103333Y0095333D01*
X0083333Y0095333D01*
X0080833Y0092833D01*
X0080833Y0087833D01*
X0085833Y0082833D01*
X0243333Y0082833D01*
X0245833Y0085333D01*
X0270833Y0085333D01*
X0273333Y0087833D01*
X0273333Y0090333D01*
X0268333Y0095333D01*
X0258333Y0095333D01*
X0255833Y0097833D01*
X0255833Y0122833D01*
X0258333Y0125333D01*
X0315833Y0125333D01*
X0320833Y0130333D01*
X0333333Y0130333D01*
X0333333Y0140333D02*
X0345833Y0140333D01*
X0348333Y0142833D01*
X0348333Y0176583D01*
X0355833Y0184083D01*
X0359583Y0184083D01*
X0370833Y0195333D01*
X0370833Y0200333D01*
X0375833Y0205333D01*
X0383333Y0205333D01*
X0375833Y0195333D02*
X0370833Y0195333D01*
X0333333Y0215333D02*
X0323333Y0215333D01*
X0318333Y0210333D01*
X0318333Y0180333D01*
X0305833Y0170333D02*
X0325833Y0150333D01*
X0333333Y0150333D01*
X0305833Y0170333D02*
X0293333Y0170333D01*
X0263333Y0150333D02*
X0255833Y0150333D01*
X0235833Y0170333D01*
X0223333Y0170333D01*
X0210833Y0155333D02*
X0200833Y0145333D01*
X0183333Y0145333D01*
X0173333Y0155333D01*
X0140833Y0155333D01*
X0130833Y0145333D01*
X0133333Y0140333D02*
X0138333Y0145333D01*
X0173333Y0145333D01*
X0183333Y0135333D01*
X0240833Y0135333D01*
X0247708Y0128458D01*
X0247708Y0094083D01*
X0238958Y0085333D01*
X0198333Y0085333D01*
X0193333Y0090333D01*
X0188333Y0095333D02*
X0200833Y0095333D01*
X0205833Y0090333D01*
X0205833Y0095333D02*
X0200833Y0100333D01*
X0193333Y0100333D01*
X0180833Y0100333D01*
X0175833Y0095333D01*
X0135833Y0095333D01*
X0130833Y0100333D01*
X0123333Y0100333D01*
X0128333Y0095333D02*
X0115833Y0095333D01*
X0110833Y0090333D01*
X0093333Y0090333D01*
X0123333Y0110333D02*
X0130833Y0110333D01*
X0135833Y0105333D01*
X0175833Y0105333D01*
X0180833Y0110333D01*
X0193333Y0110333D01*
X0200833Y0110333D01*
X0205833Y0105333D01*
X0238333Y0105333D01*
X0243333Y0110333D01*
X0238333Y0115333D02*
X0205833Y0115333D01*
X0200833Y0120333D01*
X0193333Y0120333D01*
X0180833Y0120333D01*
X0175833Y0115333D01*
X0135833Y0115333D01*
X0130833Y0120333D01*
X0123333Y0120333D01*
X0128333Y0095333D02*
X0133333Y0090333D01*
X0163333Y0090333D02*
X0183333Y0090333D01*
X0188333Y0095333D01*
X0205833Y0095333D02*
X0238333Y0095333D01*
X0243333Y0100333D01*
X0252083Y0094083D02*
X0255833Y0090333D01*
X0263333Y0090333D01*
X0263333Y0100333D02*
X0273333Y0100333D01*
X0278333Y0095333D01*
X0315833Y0095333D01*
X0320833Y0100333D01*
X0333333Y0100333D01*
X0345833Y0100333D01*
X0333333Y0110333D02*
X0320833Y0110333D01*
X0315833Y0105333D01*
X0278333Y0105333D01*
X0273333Y0110333D01*
X0263333Y0110333D01*
X0263333Y0120333D02*
X0273333Y0120333D01*
X0278333Y0115333D01*
X0315833Y0115333D01*
X0320833Y0120333D01*
X0333333Y0120333D01*
X0263333Y0130333D02*
X0255833Y0130333D01*
X0250833Y0135333D01*
X0250833Y0147833D01*
X0243333Y0155333D01*
X0210833Y0155333D01*
X0208333Y0145333D02*
X0243333Y0145333D01*
X0247708Y0140958D01*
X0247708Y0133458D01*
X0252083Y0129083D01*
X0252083Y0094083D01*
X0238333Y0115333D02*
X0243333Y0120333D01*
X0208333Y0145333D02*
X0203333Y0140333D01*
X0193333Y0140333D01*
X0193333Y0130333D02*
X0180833Y0130333D01*
X0175833Y0135333D01*
X0033333Y0135333D01*
X0033333Y0165333D02*
X0058333Y0165333D01*
X0078333Y0185333D01*
X0100833Y0185333D01*
X0103333Y0187833D01*
X0145833Y0187833D01*
X0153333Y0195333D01*
X0265833Y0195333D01*
X0273333Y0202833D01*
X0273333Y0207833D01*
X0270833Y0210333D01*
X0258333Y0210333D01*
X0255833Y0212833D01*
X0255833Y0242833D01*
X0258333Y0245333D01*
X0263333Y0245333D01*
X0263333Y0235333D02*
X0270833Y0235333D01*
X0275833Y0230333D01*
X0315833Y0230333D01*
X0320833Y0235333D01*
X0333333Y0235333D01*
X0333333Y0225333D02*
X0320833Y0225333D01*
X0315833Y0220333D01*
X0275833Y0220333D01*
X0270833Y0225333D01*
X0263333Y0225333D01*
X0263333Y0215333D02*
X0270833Y0215333D01*
X0275833Y0210333D01*
X0318333Y0210333D01*
X0328333Y0245333D02*
X0333333Y0245333D01*
X0328333Y0245333D02*
X0325833Y0247833D01*
X0325833Y0257833D01*
X0328333Y0260333D01*
X0340833Y0260333D01*
X0343333Y0262833D01*
X0343333Y0282833D01*
X0330833Y0295333D01*
X0313333Y0295333D01*
X0305833Y0285333D02*
X0325833Y0265333D01*
X0333333Y0265333D01*
X0325833Y0257833D02*
X0313333Y0257833D01*
X0310833Y0260333D01*
X0253333Y0260333D01*
X0252083Y0254083D02*
X0252083Y0207833D01*
X0254583Y0205333D01*
X0263333Y0205333D01*
X0248333Y0205333D02*
X0243333Y0200333D01*
X0205833Y0200333D01*
X0200833Y0205333D01*
X0193333Y0205333D01*
X0200833Y0215333D02*
X0205833Y0210333D01*
X0238333Y0210333D01*
X0243333Y0215333D01*
X0238333Y0220333D02*
X0243333Y0225333D01*
X0238333Y0230333D02*
X0208333Y0230333D01*
X0203333Y0235333D01*
X0193333Y0235333D01*
X0180833Y0235333D01*
X0175833Y0230333D01*
X0138333Y0230333D01*
X0137083Y0231583D01*
X0134583Y0234083D02*
X0133333Y0235333D01*
X0123333Y0235333D01*
X0113333Y0240333D02*
X0110833Y0237833D01*
X0110833Y0200333D01*
X0098333Y0187833D01*
X0075833Y0187833D01*
X0063333Y0175333D01*
X0033333Y0175333D01*
X0033333Y0185333D02*
X0068333Y0185333D01*
X0073333Y0190333D01*
X0095833Y0190333D01*
X0105833Y0200333D01*
X0105833Y0240333D01*
X0110833Y0245333D01*
X0123333Y0245333D01*
X0113333Y0240333D02*
X0175833Y0240333D01*
X0180833Y0245333D01*
X0193333Y0245333D01*
X0193333Y0255333D02*
X0203333Y0255333D01*
X0208333Y0260333D01*
X0245833Y0260333D01*
X0252083Y0254083D01*
X0245833Y0250333D02*
X0248333Y0247833D01*
X0248333Y0205333D01*
X0238333Y0220333D02*
X0208333Y0220333D01*
X0203333Y0225333D01*
X0193333Y0225333D01*
X0180833Y0225333D01*
X0175833Y0220333D01*
X0138333Y0220333D01*
X0137083Y0221583D01*
X0134583Y0224083D02*
X0133333Y0225333D01*
X0123333Y0225333D01*
X0123333Y0215333D02*
X0133333Y0215333D01*
X0134583Y0214083D01*
X0137083Y0211583D02*
X0138333Y0210333D01*
X0175833Y0210333D01*
X0180833Y0215333D01*
X0193333Y0215333D01*
X0200833Y0215333D01*
X0195833Y0215333D02*
X0193333Y0215333D01*
X0238333Y0230333D02*
X0243333Y0235333D01*
X0245833Y0250333D02*
X0180833Y0250333D01*
X0178333Y0252833D01*
X0178333Y0257833D01*
X0175833Y0260333D01*
X0138333Y0260333D01*
X0133333Y0255333D01*
X0123333Y0255333D01*
X0123333Y0265333D02*
X0115833Y0265333D01*
X0095833Y0285333D01*
X0083333Y0285333D01*
X0073333Y0275333D02*
X0065833Y0275333D01*
X0063333Y0272833D01*
X0060833Y0270333D02*
X0058333Y0267833D01*
X0033333Y0267833D01*
X0033333Y0257833D02*
X0058333Y0257833D01*
X0060833Y0260333D01*
X0063333Y0262833D02*
X0065833Y0265333D01*
X0073333Y0265333D01*
X0073333Y0255333D02*
X0065833Y0255333D01*
X0063333Y0252833D01*
X0060833Y0250333D02*
X0058333Y0247833D01*
X0033333Y0247833D01*
X0033333Y0237833D02*
X0058333Y0237833D01*
X0060833Y0240333D01*
X0063333Y0242833D02*
X0065833Y0245333D01*
X0073333Y0245333D01*
X0073333Y0235333D02*
X0065833Y0235333D01*
X0063333Y0232833D01*
X0060833Y0230333D02*
X0058333Y0227833D01*
X0033333Y0227833D01*
X0033333Y0217833D02*
X0058333Y0217833D01*
X0060833Y0220333D01*
X0063333Y0222833D02*
X0065833Y0225333D01*
X0073333Y0225333D01*
X0073333Y0215333D02*
X0065833Y0215333D01*
X0063333Y0212833D01*
X0060833Y0210333D02*
X0058333Y0207833D01*
X0033333Y0207833D01*
X0083333Y0170333D02*
X0095833Y0170333D01*
X0115833Y0150333D01*
X0123333Y0150333D01*
X0153333Y0170333D02*
X0165833Y0170333D01*
X0185833Y0150333D01*
X0193333Y0150333D01*
X0134583Y0194083D02*
X0130833Y0194083D01*
X0128333Y0196583D01*
X0128333Y0200333D01*
X0123333Y0205333D01*
X0188333Y0265333D02*
X0193333Y0265333D01*
X0188333Y0265333D02*
X0180833Y0272833D01*
X0180833Y0282833D01*
X0178333Y0285333D01*
X0153333Y0285333D01*
X0223333Y0285333D02*
X0235833Y0285333D01*
X0255833Y0265333D01*
X0263333Y0265333D01*
X0293333Y0285333D02*
X0305833Y0285333D01*
X0358333Y0302833D02*
X0068333Y0302833D01*
X0067083Y0301583D01*
X0063333Y0301583D01*
X0358333Y0302833D02*
X0373333Y0287833D01*
X0373333Y0237833D01*
X0375833Y0235333D01*
X0383333Y0235333D01*
D21*
X0243333Y0235333D03*
X0243333Y0225333D03*
X0243333Y0215333D03*
X0243333Y0120333D03*
X0243333Y0110333D03*
X0243333Y0100333D03*
D22*
X0137083Y0191583D02*
X0134583Y0194083D01*
X0137083Y0201583D02*
X0134583Y0204083D01*
X0137083Y0211583D02*
X0134583Y0214083D01*
X0137083Y0221583D02*
X0134583Y0224083D01*
X0137083Y0231583D02*
X0134583Y0234083D01*
X0063333Y0232833D02*
X0060833Y0230333D01*
X0063333Y0222833D02*
X0060833Y0220333D01*
X0063333Y0212833D02*
X0060833Y0210333D01*
X0060833Y0240333D02*
X0063333Y0242833D01*
X0060833Y0250333D02*
X0063333Y0252833D01*
X0060833Y0260333D02*
X0063333Y0262833D01*
X0060833Y0270333D02*
X0063333Y0272833D01*
X0060833Y0280333D02*
X0063333Y0282833D01*
X0060833Y0290333D02*
X0063333Y0292833D01*
X0060833Y0299083D02*
X0063333Y0301583D01*
X0375833Y0195333D02*
X0379583Y0195333D01*
M02*
